<svg width="1001" height="469" viewBox="0 0 1001 469" fill="none" xmlns="http://www.w3.org/2000/svg">
<path d="M85.5548 130.934L140.642 0.199561L97.3307 0.0997424L70.286 67.6625L43.6406 0H0.22937L54.8177 130.934H85.5548Z" fill="black"/>
<path d="M235.907 95.7074L198.084 95.6075V82.6339L233.811 82.7338V47.7049L198.184 47.6051V35.3301H236.007V0.401053L158.365 0.201416L158.166 130.936H235.807L235.907 95.7074Z" fill="black"/>
<path d="M306.782 93.5128L330.833 131.037H380.731L340.812 79.0423C347.23 76.8705 352.881 72.8839 357.079 67.5656C362.386 60.3182 365.093 51.4929 364.763 42.5165C364.798 36.9955 363.817 31.5153 361.869 26.3494C360.023 21.1977 357.076 16.5106 353.232 12.6152C349.388 8.71984 344.741 5.70987 339.615 3.79519C333.426 1.48925 326.857 0.371909 320.254 0.501862H267.063V131.037H306.981L306.782 93.5128ZM306.782 33.0358H308.778C313.001 32.7223 317.21 33.8097 320.753 36.1294C321.92 37.0888 322.837 38.3156 323.428 39.7055C324.019 41.0955 324.265 42.6076 324.146 44.1132C324.271 45.6292 324.017 47.1524 323.407 48.5459C322.798 49.9395 321.851 51.1597 320.653 52.097C317.106 54.3148 312.952 55.3622 308.778 55.0909H306.782V33.0358Z" fill="black"/>
<path d="M461.674 131.029L461.774 69.5534L510.375 0.793067L462.473 0.693324L442.014 30.9319L421.457 0.593506H373.654L421.856 69.5534L421.756 131.029H461.674Z" fill="black"/>
<path d="M289.005 261.967C292.634 253.451 294.468 244.278 294.394 235.022C294.463 225.743 292.664 216.546 289.105 207.977C285.64 199.781 280.587 192.353 274.235 186.121C267.665 179.79 259.895 174.836 251.382 171.551C242.261 167.971 232.538 166.175 222.741 166.262C212.953 166.182 203.237 167.943 194.099 171.451C185.709 174.667 178.053 179.542 171.589 185.783C165.125 192.024 159.985 199.505 156.476 207.777C152.893 216.307 151.06 225.47 151.087 234.722C151.037 243.999 152.835 253.193 156.376 261.767C159.88 269.913 164.929 277.301 171.246 283.523C177.711 289.916 185.422 294.909 193.9 298.193C203.066 301.735 212.814 303.529 222.641 303.483C232.395 303.552 242.077 301.792 251.182 298.293C259.678 294.975 267.442 290.025 274.036 283.723C280.424 277.54 285.514 270.143 289.005 261.967V261.967ZM250.683 246.698C249.111 250.244 246.836 253.435 243.997 256.079C241.112 258.805 237.722 260.941 234.018 262.366C230.278 263.756 226.33 264.498 222.341 264.562C218.336 264.572 214.368 263.792 210.665 262.266C206.963 260.883 203.571 258.78 200.686 256.079C197.852 253.221 195.613 249.829 194.099 246.099C192.713 242.507 192.068 238.671 192.203 234.822C192.179 230.763 193.03 226.747 194.698 223.046C197.843 215.919 203.643 210.298 210.865 207.378C214.577 205.894 218.543 205.148 222.541 205.182V205.182C230.525 205.106 238.224 208.15 243.997 213.665C246.807 216.313 249.048 219.505 250.584 223.046C252.208 226.792 253.024 230.839 252.979 234.922C253.057 238.966 252.274 242.98 250.683 246.698V246.698Z" fill="black"/>
<path d="M447.186 262.168C450.815 253.652 452.649 244.48 452.575 235.223C452.633 225.978 450.835 216.815 447.286 208.278C443.821 200.082 438.768 192.654 432.416 186.422C425.823 180.12 418.059 175.17 409.563 171.852C400.41 168.264 390.653 166.468 380.822 166.562V166.562C371.029 166.427 361.303 168.189 352.18 171.752C343.696 174.988 335.955 179.91 329.427 186.223C322.964 192.6 317.832 200.199 314.329 208.576C310.827 216.953 309.023 225.943 309.023 235.023C309.023 244.104 310.827 253.093 314.329 261.471C317.832 269.848 322.964 277.446 329.427 283.824C335.865 290.13 343.499 295.084 351.881 298.395C361.034 301.982 370.791 303.778 380.622 303.684C390.38 303.794 400.069 302.033 409.164 298.494C417.678 295.258 425.451 290.336 432.017 284.024C438.501 277.841 443.662 270.405 447.186 262.168ZM408.864 246.999C407.292 250.545 405.017 253.736 402.178 256.38C399.293 259.106 395.903 261.242 392.199 262.667C388.469 264.08 384.51 264.79 380.522 264.763C376.516 264.906 372.527 264.156 368.846 262.567C365.144 261.184 361.752 259.081 358.867 256.38C356.057 253.502 353.821 250.115 352.28 246.4C350.656 242.654 349.84 238.607 349.885 234.524C349.835 230.463 350.687 226.441 352.38 222.748C353.916 219.207 356.157 216.015 358.966 213.367C361.843 210.631 365.236 208.493 368.946 207.08C372.672 205.644 376.629 204.9 380.622 204.885V204.885C384.626 204.884 388.592 205.664 392.298 207.18C395.979 208.608 399.362 210.706 402.278 213.367C405.122 216.217 407.362 219.611 408.864 223.347C410.471 227.083 411.299 231.107 411.299 235.173C411.299 239.239 410.471 243.263 408.864 246.999V246.999Z" fill="black"/>
<path d="M569.461 280.726C575.286 274.692 579.924 267.617 583.133 259.868C586.373 252.051 588.068 243.68 588.122 235.218C588.125 226.686 586.429 218.239 583.133 210.369C579.847 202.697 575.179 195.694 569.361 189.711C563.659 183.747 556.889 178.907 549.402 175.44C541.516 171.809 532.935 169.936 524.253 169.951H473.157V300.386H524.353C533.025 300.414 541.602 298.576 549.501 294.997C556.958 291.479 563.72 286.644 569.461 280.726ZM544.611 247.493C543.338 251.004 541.331 254.202 538.723 256.874C535.875 259.623 532.472 261.732 528.744 263.062C524.534 264.642 520.067 265.421 515.571 265.357H512.178V205.479H515.471C519.934 205.416 524.369 206.195 528.544 207.774C532.139 209.096 535.398 211.195 538.089 213.92C540.78 216.645 542.836 219.931 544.112 223.542C545.544 227.44 546.254 231.565 546.208 235.717C546.378 239.772 545.837 243.825 544.611 247.693V247.493Z" fill="black"/>
<path d="M70.286 400.686L43.6406 333.124L0.22937 333.024L54.8177 463.459H85.5548L140.642 333.223L97.3307 333.124L70.286 400.686Z" fill="black"/>
<path d="M157.674 463.66L235.315 463.76L235.415 428.731H197.592V415.658L233.319 415.757V380.729L197.692 380.629V368.354H235.415L235.515 333.425L157.874 333.225L157.674 463.66Z" fill="black"/>
<path d="M351.694 400.679L299.101 333.416H261.379L261.179 463.751L300.997 463.851L301.097 396.687L353.69 463.951H391.313L391.512 333.615L351.893 333.516L351.694 400.679Z" fill="black"/>
<path d="M412.664 368.652H438.81L438.611 464.058L478.529 464.158L478.629 368.752L504.775 368.852V333.823L412.764 333.624L412.664 368.652Z" fill="black"/>
<path d="M602.984 404.479C602.984 407.972 602.984 411.565 602.984 415.157C602.763 418.157 602.02 421.095 600.789 423.84C599.729 426.217 597.994 428.229 595.799 429.628C592.728 431.23 589.275 431.955 585.819 431.724V431.724C582.354 431.924 578.901 431.164 575.84 429.528C573.656 428.189 571.946 426.2 570.95 423.84C569.694 421.074 568.982 418.092 568.854 415.058C568.854 411.465 568.854 407.872 568.854 404.479V333.922H528.936V408.87C528.27 416.863 529.188 424.909 531.637 432.547C534.086 440.184 538.017 447.264 543.206 453.38C549.059 458.522 555.876 462.449 563.26 464.933C570.644 467.418 578.448 468.409 586.218 467.85V467.85C593.945 468.443 601.713 467.486 609.065 465.035C616.417 462.584 623.205 458.689 629.031 453.579C639.498 441.216 644.663 425.22 643.401 409.07V334.122H603.483L602.984 404.479Z" fill="black"/>
<path d="M761.04 401.183C766.332 393.896 769.005 385.033 768.624 376.034C768.654 370.596 767.743 365.193 765.93 360.066C764.083 355.103 761.267 350.558 757.647 346.694C753.702 342.619 748.893 339.482 743.575 337.512C737.428 335.171 730.892 334.019 724.315 334.119H670.824V464.554H710.743V427.23L734.694 464.654H784.591L744.673 412.56C751.097 410.397 756.774 406.451 761.04 401.183V401.183ZM724.514 385.814C720.939 388.052 716.747 389.101 712.539 388.808H710.543V366.653H712.439C716.647 366.36 720.839 367.409 724.415 369.647C725.616 370.598 726.558 371.839 727.151 373.252C727.744 374.666 727.97 376.206 727.808 377.73C727.87 379.263 727.579 380.79 726.956 382.192C726.333 383.594 725.395 384.833 724.215 385.814H724.514Z" fill="black"/>
<path d="M800.358 464.654L878 464.754V429.825L840.277 429.725V416.751H875.904L876.004 381.723H840.277L840.376 369.348L878.099 369.448L878.199 334.419L800.558 334.219L800.358 464.654Z" fill="black"/>
<path d="M967.623 382.422L959.54 379.927C957.319 379.3 955.15 378.499 953.053 377.532C951.614 376.816 950.3 375.872 949.161 374.738C948.84 374.395 948.601 373.982 948.462 373.533C948.324 373.083 948.29 372.608 948.363 372.143C948.338 371.287 948.525 370.438 948.908 369.672C949.292 368.905 949.858 368.246 950.558 367.752C953.069 366.44 955.859 365.755 958.692 365.755C961.524 365.755 964.315 366.44 966.825 367.752C970.188 369.127 973.318 371.012 976.106 373.341L979.998 376.534L996.764 343.701L993.271 341.805C986.951 338.45 980.25 335.869 973.312 334.12C966.829 332.237 960.103 331.329 953.353 331.426C946.936 331.38 940.558 332.426 934.491 334.52C929.037 336.522 924.046 339.612 919.821 343.601C915.706 347.552 912.504 352.354 910.44 357.673C908.15 363.382 906.997 369.484 907.047 375.636C906.891 381.39 907.98 387.109 910.241 392.402C912.268 396.671 915.196 400.45 918.823 403.48C922.271 406.429 926.183 408.79 930.4 410.465C934.491 412.062 938.583 413.559 942.674 414.856C946.766 416.154 948.962 417.052 951.357 418.05C953.12 418.707 954.796 419.578 956.347 420.645C957.149 421.278 957.826 422.057 958.342 422.94C958.77 423.878 958.975 424.903 958.941 425.934C958.899 426.933 958.647 427.912 958.199 428.806C957.752 429.701 957.121 430.49 956.347 431.123C953.827 433.008 950.699 433.897 947.565 433.618C943.374 433.405 939.253 432.459 935.389 430.824C930.588 428.618 926.174 425.652 922.316 422.042L918.524 418.649L900.76 451.681L903.654 453.677C916.856 463.164 932.705 468.26 948.962 468.248C956.134 468.358 963.278 467.314 970.118 465.154C976.147 463.203 981.715 460.045 986.485 455.873C990.863 451.867 994.276 446.919 996.464 441.402C998.836 435.504 1000.02 429.197 999.957 422.84C1000.4 413.724 997.526 404.757 991.874 397.591C985.327 390.416 976.94 385.17 967.623 382.422Z" fill="black"/>
<path d="M18.965 284.027C25.1376 290.136 32.4656 294.954 40.5209 298.198C49.3034 301.591 58.6502 303.284 68.0645 303.188V303.188C75.0398 303.216 81.9875 302.31 88.7223 300.494C95.1998 298.743 101.386 296.053 107.085 292.51C112.909 289.01 118.077 284.518 122.353 279.237C126.688 273.683 130.061 267.443 132.333 260.775C134.102 255.705 135.274 250.447 135.826 245.106C135.826 239.717 136.624 233.63 136.624 227.043V222.951H65.0707V251.394H92.4147C91.1888 256.254 88.2919 260.529 84.2315 263.469C82.2525 264.779 80.0559 265.725 77.7447 266.263C70.9322 267.861 63.7941 267.339 57.2866 264.766C53.9808 263.312 51.0468 261.128 48.7042 258.379C46.3239 255.419 44.5289 252.032 43.4149 248.4C42.1284 244.096 41.5223 239.618 41.6187 235.127C41.4996 230.3 42.1394 225.484 43.5147 220.856C44.7911 217.01 46.752 213.426 49.3029 210.277C51.6535 207.512 54.5835 205.297 57.8854 203.79C61.422 202.181 65.278 201.396 69.1623 201.495V201.495C73.8212 201.401 78.4039 202.686 82.3353 205.188C84.7179 206.878 86.7512 209.013 88.3231 211.475L125.347 195.208C120.324 186.742 113.255 179.673 104.789 174.65C93.9169 168.67 81.6682 165.643 69.2621 165.867C59.6203 165.655 50.029 167.316 41.0199 170.758C32.8228 173.864 25.3503 178.619 19.0648 184.729C12.8963 190.91 8.10146 198.324 4.99359 206.485C1.65691 215.318 -0.0342417 224.687 0.00379475 234.129C-0.0912907 243.64 1.60133 253.085 4.99359 261.972C8.10033 270.199 12.8546 277.704 18.965 284.027V284.027Z" fill="black"/>
</svg>
