<?xml version="1.0" encoding="UTF-8"?>
<svg width="2068px" height="2068px" viewBox="0 0 2068 2068" version="1.1" xmlns="http://www.w3.org/2000/svg" xmlns:xlink="http://www.w3.org/1999/xlink">
    <!-- Generator: Sketch 63.1 (92452) - https://sketch.com -->
    <title>unicorn-vgv-white</title>
    <desc>Created with Sketch.</desc>
    <defs>
        <polygon id="path-1" points="0 0.702559819 1344.23641 0.702559819 1344.23641 1383.03942 0 1383.03942"></polygon>
        <polygon id="path-3" points="0.0281340178 0.234342212 125.857524 0.234342212 125.857524 185.692862 0.0281340178 185.692862"></polygon>
    </defs>
    <g id="unicorn-vgv-white" stroke="none" stroke-width="1" fill="none" fill-rule="evenodd">
        <g id="unicorn-with-text" transform="translate(131.000000, 0.000000)">
            <g id="Page-1" transform="translate(0.000000, 1.034000)">
                <path d="M350.402237,596.657446 C355.492358,600.672074 361.548693,602.621035 367.565352,602.621035 C375.764158,602.621035 383.888281,598.998534 389.361154,592.059297 C491.212595,462.944674 635.185316,372.363473 794.75514,337.002074 C809.712769,333.687672 819.150849,318.875563 815.836785,303.916408 C812.522721,288.957252 797.714459,279.520543 782.754496,282.832611 C696.042724,302.049139 613.940302,335.96574 538.722729,383.64411 C464.910133,430.430859 400.003499,488.990737 345.804557,557.694552 C336.317467,569.72443 338.373586,587.167053 350.402237,596.657446" id="Fill-1" fill="#FFFFFF"></path>
                <g id="Group-5" transform="translate(0.000000, 0.597526)">
                    <mask id="mask-2" fill="white">
                        <use xlink:href="#path-1"></use>
                    </mask>
                    <g id="Clip-4"></g>
                    <path d="M315.09229,910.340369 C329.312423,910.340369 339.336299,912.632441 343.320176,916.791782 C346.155801,919.756071 347.955198,925.754671 348.627346,934.3231 C336.524012,936.913935 316.912691,940.391723 290.976644,942.606771 C252.540508,945.888495 193.214104,946.812793 121.333933,934.295091 L128.085754,895.614622 C159.905432,900.196432 286.960092,910.340369 315.09229,910.340369 M327.818761,986.13747 C297.52542,1012.16486 240.182786,1023.21909 181.733908,1014.30288 C140.247434,1007.97284 119.917288,1000.76985 110.514216,996.269737 L116.561215,961.624902 C162.95577,969.740518 204.514594,972.588102 239.914393,972.588102 C286.614683,972.588102 322.614281,967.658513 344.939867,963.417479 C341.499775,971.743163 335.816857,979.265922 327.818761,986.13747 M706.098106,1323.0184 C763.466413,1355.22412 813.009329,1383.03942 879.27893,1383.03942 C963.264768,1383.03942 1016.2081,1344.77208 1045.83396,1312.66673 C1051.25782,1306.78951 1056.11222,1300.89594 1060.43918,1295.15409 C1079.38769,1270.00431 1067.80947,1233.61358 1038.00157,1223.46498 L1038.00157,1223.46498 L1038.04824,1223.33194 C1037.95256,1223.60036 1028.31143,1250.48436 1003.61933,1276.5841 C971.624609,1310.40734 929.790392,1327.55587 879.27893,1327.55587 C827.516525,1327.55587 787.978814,1305.35871 733.25709,1274.63514 C635.429203,1219.71177 501.454684,1144.49585 200.423359,1144.46785 C136.795673,1143.71394 89.7663114,1128.78512 67.9868461,1102.42629 C54.3595103,1085.93131 54.7142551,1070.19257 56.1379021,1062.28002 C58.5090912,1049.11344 65.5549769,1041.84976 72.0500746,1037.87248 C74.1902128,1039.39431 76.5497327,1040.90679 79.1543066,1042.40061 C98.6956121,1053.59488 130.393929,1062.59512 173.369398,1069.15157 C248.25323,1080.57692 321.288656,1064.89419 363.970059,1028.22571 C390.426555,1005.49638 404.408636,975.860491 404.408636,942.518075 C404.408636,884.350324 374.358015,854.856816 315.09229,854.856816 C284.81762,854.856816 147.421681,843.058012 134.135087,840.415827 C132.86314,840.161412 131.339138,839.883656 129.602755,839.570888 C82.3983547,831.039805 80.5662843,816.909249 82.8791273,801.954762 C84.5384929,791.227303 89.1921849,787.04929 93.0593702,784.607836 C104.824296,777.183109 125.574534,777.677935 139.993044,782.000662 C152.346099,785.707191 166.318845,780.530188 173.005318,767.611023 C174.137234,765.426319 174.758037,763.024545 175.215472,760.606432 C180.966072,730.251647 223.407089,697.48575 281.937652,697.48575 C311.869247,697.48575 349.950637,723.270396 386.776418,748.207768 C425.674655,774.545592 465.896183,801.782039 506.472457,805.960053 C554.285991,810.884974 680.619493,794.791452 774.507846,781.050689 C743.077921,861.261547 778.592079,952.353913 855.93812,990.131091 C941.30793,1031.8272 1043.56313,992.066048 1081.62118,905.006983 L1094.00224,876.685186 C1153.61804,896.200477 1233.24892,922.384251 1245.94972,926.989403 C1278.57224,938.813881 1287.6439,968.685511 1289.64868,977.557371 C1292.55899,990.446193 1304.00184,999.194346 1316.68164,999.194346 C1319.33522,999.194346 1322.04715,998.811556 1324.74041,998.001628 C1338.96755,993.725583 1346.86995,978.385972 1343.4392,963.930978 C1333.57402,922.367913 1304.2889,889.118861 1264.85388,874.82492 C1250.77845,869.722608 1167.00266,842.210739 1116.32782,825.615389 L1121.05387,814.80157 C1135.26,782.304093 1120.4354,744.442888 1087.94124,730.235308 L910.837216,652.797344 C911.602718,598.214748 913.269085,490.779114 915.852655,381.144771 C918.275188,278.288613 920.730396,206.312409 922.982559,155.93817 C936.745258,202.50785 955.479052,268.553141 980.931993,362.215335 C1020.36235,507.318446 1056.84505,648.509628 1057.20913,649.919416 C1060.49519,662.642518 1072.23444,671.30431 1085.37867,670.69278 C1098.50423,670.071913 1109.39163,660.327105 1111.45942,647.349588 L1138.0046,480.842911 C1138.10962,480.184698 1138.19131,479.521818 1138.24732,478.85427 C1138.25432,478.786581 1139.16919,471.303502 1142.47392,464.574333 C1146.71219,455.949886 1150.85477,455.949886 1153.88177,455.949886 C1163.09346,455.949886 1178.36849,465.907096 1191.7251,488.153267 C1204.36522,509.206721 1219.43488,547.768152 1219.43488,611.911163 C1219.43488,612.109561 1219.43721,612.307958 1219.43954,612.508689 C1221.25528,696.920902 1166.43553,730.921529 1156.7734,735.337619 L1156.93677,735.244256 C1172.48486,762.917177 1218.32396,753.59017 1238.36705,728.977236 C1261.11506,701.040563 1274.91277,664.493448 1274.91277,611.621737 C1274.91277,550.912166 1262.55738,498.34622 1239.28892,459.59106 C1216.72761,422.014613 1185.59875,400.466333 1153.88177,400.466333 C1126.97484,400.466333 1105.23972,414.545538 1092.68128,440.108446 C1085.63073,454.460739 1083.60728,468.201502 1083.09384,472.89068 L1077.45993,508.231073 C1063.77658,456.468053 1047.20159,394.334689 1030.29287,332.325033 C1006.11421,243.655448 985.980106,172.524184 970.450684,120.908211 C961.1433,89.9699038 953.364586,65.6580664 947.333924,48.6472492 C937.398735,20.6288835 931.827841,9.64467585 920.328974,3.82113183 C912.947014,0.0819264108 904.344452,-0.314868172 896.726774,2.73344786 C878.065329,10.1978542 876.090894,30.4600528 873.591343,56.1163237 C871.838624,74.1191273 870.120912,100.062491 868.484885,133.220513 C865.758951,188.552351 863.187051,265.129037 860.846202,360.82422 C858.073591,474.020378 856.276528,587.821064 855.431676,647.172197 C839.094743,652.832355 825.077654,665.027953 817.604675,682.120464 L809.156146,701.446694 L794.851995,695.219353 L801.510462,679.984775 C815.723593,647.480297 806.679934,612.14924 781.315679,601.064667 L636.30673,537.656893 C610.954144,526.569985 578.875409,543.926247 564.662278,576.416721 L524.050996,669.332008 C517.338851,684.699628 512.633814,700.302992 509.849534,715.726631 C528.522648,722.950626 567.280855,734.614053 625.788079,727.289692 C652.928392,723.905267 711.2139,715.871344 735.667955,712.475249 C742.447782,711.543949 746.630037,710.955759 746.819078,710.932419 C758.483648,709.307895 769.466735,715.196793 774.87426,724.911258 C677.039371,739.342911 553.576502,755.034969 512.153042,750.765926 C485.451492,748.018707 451.09959,724.757209 417.879604,702.263624 C374.126964,672.637073 328.885329,641.999863 281.937652,641.999863 C241.919168,641.999863 204.874006,652.942057 174.807048,673.645398 C154.878324,687.367488 139.318562,704.894139 129.784795,723.879592 C108.098684,721.932965 83.6282923,724.953272 63.4521803,737.68571 C44.0439041,749.934992 31.8052076,769.223877 28.0547146,793.47036 C22.7148714,827.982152 35.5230267,856.929484 64.1196607,874.981303 C67.4850688,877.105321 70.927494,878.97259 74.3792545,880.650798 L56.3409468,983.992446 C52.1960336,985.696328 47.6800386,987.888035 43.0450174,990.709944 C14.8334682,1007.88882 4.90061308,1033.76449 1.53753876,1052.44885 C-3.78363364,1082.01238 4.84693458,1113.1094 25.2214237,1137.76902 C66.7078976,1187.97987 143.132069,1199.29785 199.937919,1199.9514 C200.045276,1199.9514 200.150299,1199.9514 200.257656,1199.9514 C327.723073,1199.9514 434.307557,1213.66182 526.102448,1241.86458 C604.403034,1265.922 658.431604,1296.25578 706.098106,1323.0184" id="Fill-3" fill="#FFFFFF" mask="url(#mask-2)"></path>
                </g>
                <path d="M1671.85822,768.621916 C1641.79593,686.725848 1598.223,610.982431 1542.34836,543.49234 C1486.92414,476.55076 1421.17733,419.860485 1346.9353,374.994688 C1271.15527,329.199925 1188.8148,297.148259 1102.19638,279.731311 C1087.17107,276.718006 1072.55185,286.439474 1069.53185,301.459316 C1066.51185,316.479158 1076.23933,331.106873 1091.25763,334.12718 C1171.58867,350.281388 1247.95683,380.00597 1318.24298,422.481663 C1387.14749,464.121753 1448.17061,516.741383 1499.61561,578.879415 C1551.46436,641.502936 1591.89361,711.775257 1619.77842,787.742747 C1648.63644,866.359424 1663.26733,949.08876 1663.26733,1033.63402 C1663.26733,1129.97107 1644.40751,1223.41153 1607.21298,1311.35988 C1583.89551,1366.48865 1554.04093,1417.96925 1518.053,1465.23448 C1525.02887,1435.56592 1529.42818,1403.80368 1531.15522,1370.29788 C1532.92895,1335.84911 1531.66167,1304.36929 1529.47485,1278.86941 L1539.40771,1285.67093 C1547.06973,1290.91796 1556.85088,1291.9823 1565.46278,1288.50685 C1574.07468,1285.02906 1580.37373,1277.47129 1582.24781,1268.37536 C1604.78811,1158.87872 1581.78104,1068.38855 1564.37754,1021.01361 L1590.62399,1017.26274 C1605.6493,1015.11771 1616.15862,1001.29292 1614.20986,986.240404 C1600.69921,881.822742 1558.29787,815.1029 1525.10589,777.519451 C1514.14614,765.106783 1503.47579,754.95351 1493.82533,746.779541 L1504.10826,741.413478 C1517.42053,734.469573 1522.79071,718.193993 1516.2256,704.688972 C1464.69658,598.681799 1342.72037,572.467681 1337.55323,571.405672 C1322.54893,568.315343 1307.84335,577.969121 1304.75334,592.974959 C1301.66333,607.980796 1311.28578,622.643523 1326.29242,625.733853 C1327.19095,625.925248 1407.48931,643.589609 1452.44855,705.788327 L1427.40636,718.854539 C1418.07097,723.72811 1412.29704,733.465916 1412.50475,743.994977 C1412.71013,754.526372 1418.86215,764.030769 1428.38191,768.530887 C1429.40647,769.016377 1525.57033,816.155573 1554.82744,966.330652 L1520.64124,971.213559 C1511.64659,972.499641 1503.83287,978.075772 1499.75797,986.196056 C1495.68074,994.318674 1495.82077,1003.88843 1500.16406,1011.871 C1500.30643,1012.13475 1514.54523,1038.93239 1524.97986,1082.6008 C1532.58821,1114.43306 1539.37503,1160.79968 1534.2429,1214.89211 L1509.16805,1197.72258 C1499.78831,1191.30151 1487.44226,1191.25249 1478.01351,1197.5942 C1468.58477,1203.93825 1463.97776,1215.39628 1466.39095,1226.50186 C1466.92074,1228.94565 1517.40653,1469.85597 1387.25718,1597.39742 C1338.39575,1635.41968 1284.93431,1666.80847 1227.51466,1691.09696 C1139.57528,1728.29529 1046.14203,1747.15704 949.814804,1747.15704 C835.145873,1747.15704 724.138748,1720.20768 623.897662,1668.5707 C596.232233,1654.31877 588.119779,1618.56992 606.895583,1593.74691 C687.749397,1486.84579 724.808562,1404.61127 726.607959,1400.56397 C732.834664,1386.57579 726.544945,1370.19518 712.56053,1363.9585 C698.57845,1357.71949 682.180837,1364.00052 675.933127,1377.98402 C675.809433,1378.25945 663.307012,1406.07008 637.478321,1449.38137 C619.829766,1478.97992 593.088541,1520.52664 557.233641,1567.32973 C539.736786,1590.17109 506.610154,1593.52984 484.793347,1574.7708 C448.2733,1543.36801 414.980965,1508.34272 385.378443,1470.11272 C341.362078,1413.26373 306.335694,1350.43714 281.277173,1283.37419 C275.916325,1269.0219 259.934137,1261.73488 245.585643,1267.09861 C231.234814,1272.46234 223.948542,1288.44383 229.311724,1302.79612 C256.326009,1375.09443 294.075993,1442.81559 341.513778,1504.08301 C388.489462,1564.75057 444.070041,1617.94438 506.705841,1662.18698 C636.789836,1754.07293 790.016263,1802.64059 949.814804,1802.64059 C1053.60801,1802.64059 1154.31119,1782.30603 1249.12608,1742.1971 C1308.72321,1716.98664 1364.35981,1684.69223 1415.41739,1645.74801 C1417.5762,1644.61131 1419.62765,1643.18752 1421.49473,1641.43695 C1422.15521,1640.81609 1422.79235,1640.16955 1423.44582,1639.54401 C1447.91155,1620.36483 1471.29903,1599.63815 1493.53127,1577.40365 C1564.13949,1506.78821 1619.5777,1424.55137 1658.3079,1332.97585 C1698.41041,1238.14895 1718.74522,1137.43548 1718.74522,1033.63402 C1718.74522,942.543984 1702.97075,853.379573 1671.85822,768.621916" id="Fill-6" fill="#FFFFFF"></path>
                <path d="M275.492032,760.706798 C266.532391,761.614757 260.564743,767.956468 261.712996,777.37217 C262.926597,787.336382 273.104506,788.718161 278.708074,788.204662 C286.727174,787.469425 299.112903,787.910567 312.513856,794.217267 C314.422943,795.113556 316.432386,795.540694 318.411488,795.540694 C324.092073,795.540694 329.515935,792.032563 331.55105,786.143665 C333.889565,779.365479 330.225425,771.838053 323.71399,768.829416 C304.886842,760.134947 287.273294,759.511746 275.492032,760.706798" id="Fill-8" fill="#FFFFFF"></path>
                <polygon id="Fill-10" fill="#FFFFFF" points="170.359435 372.808583 278.045495 414.390321 228.271528 310.129044 262.067974 273.556254 341.073381 447.809762 316.320594 474.598064 136.562989 409.383707"></polygon>
                <polygon id="Fill-12" fill="#FFFFFF" points="400.429192 218.382901 356.846923 251.062436 374.514149 274.634368 415.666883 243.777754 438.949346 274.832765 397.794279 305.687045 416.028629 330.005885 459.608565 297.32635 482.891028 328.379027 402.644014 388.551758 296.904383 247.500621 377.146729 187.327889"></polygon>
                <path d="M501.012654,205.953427 L508.714351,202.015824 C516.763791,197.903165 522.087297,193.080944 524.691871,187.553829 C527.289443,182.02438 526.995378,176.133147 523.807343,169.887134 C520.614639,163.643454 516.014626,159.953265 510.009636,158.818899 C504.00698,157.686867 496.977431,159.178348 488.930325,163.291007 L481.228628,167.226276 L501.012654,205.953427 Z M635.099197,246.925969 L584.303005,272.881003 L514.520963,232.396285 L545.36976,292.774416 L504.567104,313.627138 L424.359765,156.638863 L487.856755,124.192736 C496.599348,119.722962 504.889175,117.108786 512.728568,116.340872 C520.558627,115.57996 527.725873,116.33387 534.23264,118.611937 C540.737073,120.894673 546.548353,124.395802 551.680484,129.12466 C556.807947,133.855851 561.076554,139.551021 564.479304,146.214836 C570.582315,158.153684 572.643103,169.30828 570.682671,179.673955 C568.712903,190.046633 562.787264,199.422655 552.889417,207.802023 L635.099197,246.925969 Z" id="Fill-14" fill="#FFFFFF"></path>
                <polygon id="Fill-16" fill="#FFFFFF" points="655.490956 153.608519 567.556249 84.3211828 619.95346 68.5871106 665.153085 105.299946 682.423557 49.823395 734.818434 34.0869887 699.381293 140.430271 723.720989 221.490736 679.837654 234.671318"></polygon>
                <path d="M1206.29368,130.758986 L1293.65893,156.023131 C1291.05902,165.007027 1288.32375,173.061957 1285.45546,180.180919 C1282.58249,187.302214 1279.11906,193.681271 1275.05583,199.322756 C1269.35657,207.249312 1262.8288,213.838436 1255.46551,219.090129 C1248.10689,224.34649 1240.13447,228.207068 1231.55291,230.674196 C1222.96902,233.141325 1213.98838,234.317704 1204.61331,234.201 C1195.23824,234.084296 1185.75816,232.641831 1176.18005,229.871271 C1163.00081,226.062043 1151.61397,220.413555 1142.01252,212.93281 C1132.4134,205.452065 1124.8564,196.654896 1119.34386,186.541302 C1113.83131,176.427709 1110.49391,165.240436 1109.33632,152.981817 C1108.17406,140.71853 1109.52069,127.925406 1113.37621,114.597777 C1117.18271,101.424196 1122.81429,89.9474966 1130.26393,80.1746795 C1137.71357,70.4018623 1146.4935,62.7600655 1156.60607,57.2446208 C1166.71863,51.7361783 1177.93977,48.4101061 1190.27882,47.2687381 C1202.61087,46.1320384 1215.5894,47.5301558 1229.21673,51.4724266 C1246.88162,56.5817404 1261.27446,64.8794153 1272.39291,76.3701196 C1283.51136,87.8608239 1290.64827,102.745289 1293.79896,121.016512 L1247.02866,126.233194 C1245.81739,115.823172 1242.69237,107.695885 1237.64659,101.856002 C1232.60081,96.0184537 1226.11038,91.9501422 1218.17997,89.6557359 C1211.58685,87.7487878 1205.24345,87.2539616 1199.1381,88.1642551 C1193.03276,89.0768826 1187.41285,91.2662551 1182.27372,94.7277043 C1177.13459,98.1938217 1172.54624,102.829316 1168.51802,108.638856 C1164.4828,114.450729 1161.32044,121.324612 1159.02627,129.258169 C1156.94914,136.447153 1155.95492,143.381722 1156.05528,150.061876 C1156.14863,156.744363 1157.42291,162.871339 1159.86412,168.445135 C1162.30532,174.018932 1165.94379,178.843488 1170.77019,182.916467 C1175.59425,186.987113 1181.67626,190.084445 1189.01387,192.206129 C1193.35483,193.461867 1197.68878,194.190102 1202.01107,194.383831 C1206.33802,194.582228 1210.41992,194.059393 1214.27077,192.817659 C1218.11228,191.57826 1221.58272,189.540603 1224.67506,186.70002 C1227.76508,183.861772 1230.39999,180.078219 1232.57981,175.356363 L1196.42151,164.899659 L1206.29368,130.758986 Z" id="Fill-18" fill="#FFFFFF"></path>
                <path d="M1363.11283,202.51952 C1359.61206,208.597479 1357.52793,214.8645 1356.87212,221.318247 C1356.21164,227.776662 1356.74843,234.022676 1358.49181,240.058622 C1360.22586,246.096902 1363.09183,251.661362 1367.08971,256.749669 C1371.07825,261.84031 1375.98167,266.055669 1381.79295,269.400414 C1387.59723,272.745159 1393.70257,274.871511 1400.11365,275.772468 C1406.51306,276.673425 1412.79811,276.381665 1418.96414,274.892518 C1425.11849,273.405705 1430.82942,270.758852 1436.08291,266.94729 C1441.33407,263.138062 1445.71236,258.194468 1449.21547,252.114175 C1452.71391,246.036215 1454.79103,239.771529 1455.45151,233.315448 C1456.11199,226.859367 1455.53786,220.592346 1453.73146,214.514387 C1451.9274,208.441096 1449.02643,202.857963 1445.03555,197.767321 C1441.03767,192.679014 1436.13659,188.461321 1430.32998,185.114242 C1424.52336,181.769498 1418.41335,179.647814 1412.00927,178.744522 C1405.60286,177.845899 1399.35282,178.156333 1393.26147,179.682825 C1387.16546,181.209317 1381.49188,183.877177 1376.24306,187.686405 C1370.9849,191.495633 1366.6136,196.441561 1363.11283,202.51952 M1321.58201,178.595141 C1328.11445,167.24915 1336.29459,157.887132 1346.12476,150.504419 C1355.94792,143.124039 1366.67662,137.92603 1378.30618,134.910391 C1389.93341,131.897087 1402.09976,131.306563 1414.80522,133.136486 C1427.51069,134.968744 1440.07612,139.461859 1452.50153,146.6205 C1464.78923,153.697448 1474.94847,162.29622 1482.97691,172.405145 C1491.00301,182.516405 1496.66726,193.376906 1499.96032,204.988983 C1503.25338,216.598726 1504.17291,228.507231 1502.72359,240.712166 C1501.26494,252.9171 1497.27406,264.690229 1490.74395,276.03622 C1484.21151,287.382211 1476.02438,296.746563 1466.20121,304.126942 C1456.37338,311.509656 1445.61434,316.688992 1433.91476,319.662617 C1422.21985,322.638577 1409.98583,323.194089 1397.21501,321.322152 C1384.44186,319.447881 1371.91144,314.975773 1359.6214,307.896491 C1347.19366,300.73785 1337.00408,292.122739 1329.04333,282.053493 C1321.08257,271.984247 1315.48834,261.158757 1312.26296,249.588694 C1309.03292,238.013963 1308.14605,226.128798 1309.60004,213.921529 C1311.05169,201.716595 1315.04724,189.941132 1321.58201,178.595141" id="Fill-20" fill="#FFFFFF"></path>
                <path d="M1551.97454,329.302158 C1547.11314,334.360122 1543.57969,339.938587 1541.38821,346.046889 C1539.18973,352.152858 1538.20718,358.342853 1538.4429,364.621544 C1538.67395,370.902569 1540.11626,376.994533 1542.76751,382.892767 C1545.4141,388.79567 1549.15992,394.06837 1553.98865,398.715535 C1558.82205,403.360366 1564.23191,406.894172 1570.2369,409.312284 C1576.23489,411.728063 1582.40325,412.96046 1588.74198,413.00014 C1595.08071,413.042153 1601.25373,411.847102 1607.27273,409.414984 C1613.28705,406.982867 1618.72958,403.238993 1623.58866,398.183363 C1628.45239,393.127734 1631.9765,387.546935 1634.17732,381.440966 C1636.3688,375.332664 1637.32335,369.114659 1637.03395,362.782284 C1636.74222,356.44991 1635.2719,350.332271 1632.62765,344.429368 C1629.97406,338.528799 1626.23057,333.251431 1621.40651,328.608935 C1616.57311,323.96177 1611.15625,320.430298 1605.15826,318.012185 C1599.15794,315.594072 1593.01525,314.392018 1586.73487,314.4013 C1580.45215,314.415359 1574.30246,315.63842 1568.28814,318.070537 C1562.26914,320.502655 1556.83828,324.248862 1551.97454,329.302158 M1517.42893,296.078781 C1526.5076,286.642072 1536.69951,279.525445 1548.01634,274.728898 C1559.32616,269.930018 1570.99073,267.472226 1583.00771,267.348519 C1595.01769,267.222479 1606.96699,269.584573 1618.86028,274.420799 C1630.7489,279.261693 1641.86035,286.64674 1652.19462,296.587612 C1662.41688,306.418781 1670.20259,317.20926 1675.56111,328.959047 C1680.91495,340.704167 1683.79492,352.608005 1684.19401,364.67056 C1684.59543,376.735449 1682.621,388.51558 1678.2707,400.008619 C1673.91808,411.503991 1667.20827,421.970032 1658.13193,431.409074 C1649.06027,440.845783 1638.86135,447.960077 1627.54686,452.758957 C1616.23003,457.555503 1604.53979,459.987621 1592.4738,460.059125 C1580.40314,460.127666 1568.39549,457.716555 1556.4532,452.821977 C1544.50623,447.9274 1533.42046,440.565693 1523.20054,430.736858 C1512.86393,420.793652 1505.0502,409.977499 1499.75004,398.286063 C1494.44987,386.594628 1491.62825,374.74214 1491.28517,362.733269 C1490.93743,350.722063 1492.93987,338.972275 1497.2925,327.476903 C1501.64045,315.98153 1508.35493,305.51549 1517.42893,296.078781" id="Fill-22" fill="#FFFFFF"></path>
                <path d="M1665.38716,529.616434 L1671.12143,538.436944 C1675.45072,545.103093 1680.36113,550.368791 1685.85267,554.236371 C1691.33722,558.106285 1697.08081,560.64577 1703.07413,561.861829 C1709.06979,563.077888 1715.19847,562.998529 1721.46252,561.623752 C1727.7219,560.246642 1733.86225,557.606791 1739.87424,553.699531 C1745.75554,549.876298 1750.60761,545.327165 1754.42812,540.054465 C1758.25329,534.781766 1760.82286,529.158953 1762.14615,523.186028 C1763.46711,517.213102 1763.47411,510.932077 1762.17182,504.345287 C1760.86253,497.760831 1758.08759,491.197382 1753.83765,484.664276 L1748.10572,475.841432 L1665.38716,529.616434 Z M1755.67439,416.266226 L1792.62387,473.117553 C1799.16097,483.179797 1803.27321,493.942267 1804.95592,505.395626 C1806.63862,516.851319 1806.2582,528.064267 1803.81933,539.039138 C1801.37813,550.014009 1796.91114,560.307328 1790.42771,569.916759 C1783.93728,579.523856 1775.79449,587.515766 1765.99466,593.88782 C1756.32087,600.173513 1745.79988,604.363197 1734.42938,606.456872 C1723.05654,608.552881 1711.82373,608.506199 1700.74262,606.323829 C1689.65685,604.141459 1679.22221,599.958777 1669.43872,593.768781 C1659.65524,587.58112 1651.44943,579.388479 1644.82363,569.195526 L1607.87416,512.346533 L1755.67439,416.266226 Z" id="Fill-24" fill="#FFFFFF"></path>
                <polygon id="Fill-26" fill="#FFFFFF" points="309.039923 1607.41135 262.654704 1715.06639 370.368769 1668.62275 406.160655 1704.34127 226.293359 1777.72026 200.081917 1751.55982 273.250371 1571.6905"></polygon>
                <polygon id="Fill-28" fill="#FFFFFF" points="514.133545 1818.86248 467.204538 1789.58838 451.37405 1814.96923 495.68448 1842.61181 474.829218 1876.04992 430.521123 1848.40734 414.188857 1874.59345 461.11553 1903.86989 440.262602 1937.308 353.854231 1883.40462 448.578101 1731.52333 534.988806 1785.42437"></polygon>
                <polygon id="Fill-30" fill="#FFFFFF" points="534.930927 1986.36512 591.176653 1816.425 635.344718 1831.04805 682.537449 1961.95525 716.926692 1858.05342 760.870708 1872.60178 704.624982 2042.53956 660.680966 2027.9912 613.490569 1897.08634 579.101326 2000.98816"></polygon>
                <g id="Group-34" transform="translate(808.545251, 1879.536578)">
                    <mask id="mask-4" fill="white">
                        <use xlink:href="#path-3"></use>
                    </mask>
                    <g id="Clip-33"></g>
                    <polygon id="Fill-32" fill="#FFFFFF" mask="url(#mask-4)" points="84.4807413 46.5846176 72.8231728 185.693796 26.4589575 181.807543 38.1188598 42.6960307 0.0281340178 39.5053354 3.32352675 0.234342212 125.857524 10.5043196 122.566799 49.7753129"></polygon>
                </g>
                <path d="M1032.65916,1883.81356 L1046.35417,1980.18096 C1047.09167,1985.35329 1048.03454,1990.61432 1049.1968,1995.96404 C1050.35439,2001.3161 1052.22613,2006.04496 1054.80737,2010.15295 C1057.39094,2014.26561 1060.9944,2017.39095 1065.61542,2019.52897 C1070.2341,2021.67167 1076.37912,2022.1945 1084.05748,2021.10215 C1091.73351,2020.01213 1097.4561,2017.79942 1101.21826,2014.46868 C1104.97809,2011.13794 1107.56866,2007.13031 1108.98297,2002.4528 C1110.39495,1997.77996 1110.91307,1992.70566 1110.53732,1987.2439 C1110.15923,1981.78447 1109.60378,1976.46509 1108.86861,1971.29509 L1095.1736,1874.92536 L1141.0057,1868.41092 L1155.59924,1971.12704 C1159.52011,1998.70893 1156.07535,2019.73671 1145.26963,2034.22204 C1134.45459,2048.70738 1115.96818,2057.81032 1089.80575,2061.53085 C1063.63632,2065.24905 1043.3085,2061.66622 1028.81531,2050.77538 C1014.31978,2039.8892 1005.11042,2020.65867 1001.19189,1993.07678 L986.593674,1890.363 L1032.65916,1883.81356 Z" id="Fill-35" fill="#FFFFFF"></path>
                <path d="M1279.07845,1905.86647 L1287.21424,1902.55673 C1295.71412,1899.10229 1301.5254,1894.68853 1304.64108,1889.32247 C1307.7521,1883.9564 1307.97382,1877.97414 1305.28989,1871.37568 C1302.61063,1864.77722 1298.27901,1860.64589 1292.30436,1858.97235 C1286.32738,1857.30114 1279.09012,1858.1951 1270.58791,1861.65188 L1262.44979,1864.95928 L1279.07845,1905.86647 Z M1411.13455,1959.04628 L1357.47706,1980.86064 L1290.43028,1933.79847 L1316.35466,1997.57736 L1273.25083,2015.09935 L1205.85165,1849.26955 L1272.92409,1822.00276 C1282.15913,1818.24955 1290.77103,1816.3286 1298.76912,1816.23991 C1306.75788,1816.15121 1313.9438,1817.54466 1320.32687,1820.41792 C1326.70294,1823.29351 1332.2785,1827.34549 1337.05589,1832.58084 C1341.83094,1837.81386 1345.64678,1843.95017 1348.51041,1850.98744 C1353.63554,1863.60084 1354.74879,1875.06354 1351.85248,1885.3802 C1348.95385,1895.69919 1342.13901,1904.66208 1331.39398,1912.27353 L1411.13455,1959.04628 Z" id="Fill-37" fill="#FFFFFF"></path>
                <polygon id="Fill-39" fill="#FFFFFF" points="1493.86081 1740.6433 1448.18741 1771.84303 1465.05879 1796.54466 1508.18363 1767.08383 1530.40652 1799.62798 1487.28636 1829.08881 1504.68986 1854.57236 1550.36326 1823.3703 1572.58849 1855.9168 1488.49529 1913.36098 1387.54238 1765.54566 1471.63558 1708.10148"></polygon>
                <path d="M1623.53054,1626.57863 C1617.05412,1627.38856 1611.35253,1628.93372 1606.41877,1631.21413 C1601.48502,1633.50386 1597.37511,1636.35612 1594.08906,1639.78255 C1589.92314,1644.12629 1587.55662,1648.65208 1586.98716,1653.36693 C1586.41303,1658.07945 1587.783,1662.02639 1591.0924,1665.20075 C1593.37723,1667.39246 1595.91879,1668.51515 1598.71708,1668.56883 C1601.51536,1668.62485 1604.52602,1668.05767 1607.74673,1666.86962 C1610.97211,1665.6839 1614.32118,1664.07572 1617.80561,1662.04273 C1621.28772,1660.01208 1624.80249,1658.06311 1628.34527,1656.19818 C1642.51873,1648.74078 1655.0935,1645.4007 1666.07892,1646.17795 C1677.062,1646.95987 1687.46863,1652.05751 1697.28946,1661.48022 C1703.91292,1667.83593 1708.84667,1674.70048 1712.07205,1682.07619 C1715.30443,1689.45423 1716.77942,1697.12171 1716.49703,1705.07394 C1716.21463,1713.0285 1714.14684,1721.13245 1710.28899,1729.38111 C1706.42647,1737.63443 1700.71788,1745.6987 1693.16088,1753.58091 C1677.49377,1769.91484 1658.12516,1780.39022 1635.05275,1785.01404 L1621.78949,1744.65536 C1631.06187,1743.90379 1639.14398,1742.11354 1646.02183,1739.2823 C1652.90201,1736.45339 1658.64328,1732.63715 1663.24796,1727.84294 C1668.50612,1722.35784 1671.16204,1717.07347 1671.22505,1711.97583 C1671.28806,1706.88285 1669.72205,1702.80054 1666.52235,1699.73355 C1664.58292,1697.87095 1662.57114,1696.59654 1660.48235,1695.91265 C1658.39822,1695.22876 1655.98736,1695.10972 1653.25442,1695.5602 C1650.51916,1696.00835 1647.40814,1697.02367 1643.9167,1698.60618 C1640.42293,1700.19103 1636.29902,1702.21001 1631.53564,1704.65613 C1625.99975,1707.68344 1620.40785,1710.48668 1614.75294,1713.06818 C1609.09803,1715.64968 1603.33809,1717.24853 1597.4778,1717.87406 C1591.61284,1718.50193 1585.64053,1717.81804 1579.55152,1715.81306 C1573.46951,1713.81509 1567.22647,1709.74678 1560.83173,1703.60813 C1554.43465,1697.47415 1549.65493,1690.86169 1546.48323,1683.75906 C1543.31387,1676.66111 1541.70585,1669.42078 1541.66545,1662.03106 C1541.6265,1654.64601 1543.22985,1647.19561 1546.4879,1639.68219 C1549.74595,1632.1711 1554.66104,1624.98678 1561.23548,1618.13624 C1567.3735,1611.74085 1574.66444,1605.9103 1583.11764,1600.63994 C1591.57083,1595.3719 1600.57715,1591.18222 1610.13893,1588.07088 L1623.53054,1626.57863 Z" id="Fill-41" fill="#FFFFFF"></path>
            </g>
        </g>
    </g>
</svg>