<?xml version="1.0" encoding="UTF-8"?>
<svg width="2068px" height="2068px" viewBox="0 0 2068 2068" version="1.1" xmlns="http://www.w3.org/2000/svg" xmlns:xlink="http://www.w3.org/1999/xlink">
    <!-- Generator: Sketch 63.1 (92452) - https://sketch.com -->
    <title>unicorn-vgv-black-inset</title>
    <desc>Created with Sketch.</desc>
    <defs>
        <polygon id="path-1" points="0 0.576520316 1103.07988 0.576520316 1103.07988 1134.92161 0 1134.92161"></polygon>
        <polygon id="path-3" points="0.0230867641 0.192301129 103.278636 0.192301129 103.278636 152.379491 0.0230867641 152.379491"></polygon>
    </defs>
    <g id="unicorn-vgv-black-inset" stroke="none" stroke-width="1" fill="none" fill-rule="evenodd">
        <g id="unicorn-with-text" transform="translate(257.000000, 186.000000)">
            <g id="Page-1" transform="translate(0.000000, 0.848500)">
                <path d="M287.53994,489.616869 C291.716892,492.911271 296.686717,494.510588 301.623985,494.510588 C308.351923,494.510588 315.018575,491.537965 319.509612,485.84363 C403.088865,379.89222 521.232824,305.561322 652.175761,276.543771 C664.449985,273.823974 672.194869,261.669164 669.47535,249.393687 C666.755831,237.118209 654.604176,229.37445 642.328037,232.092331 C571.17239,247.861407 503.799174,275.693356 442.075663,314.818208 C381.505075,353.211397 328.242716,401.26561 283.767086,457.643934 C275.981983,467.515647 277.669234,481.829057 287.53994,489.616869" id="Fill-1" fill="#000000"></path>
                <g id="Group-5" transform="translate(0.000000, 0.490330)">
                    <mask id="mask-2" fill="white">
                        <use xlink:href="#path-1"></use>
                    </mask>
                    <g id="Clip-4"></g>
                    <path d="M258.564612,747.024955 C270.233647,747.024955 278.459235,748.905828 281.728404,752.318982 C284.055317,754.751476 285.531901,759.673925 286.083465,766.705175 C276.151474,768.831213 260.058432,771.685084 238.775321,773.502751 C207.234644,776.195733 158.551419,776.954212 99.5665787,766.68219 L105.10712,734.941012 C131.218335,738.700844 235.47934,747.024955 258.564612,747.024955 M269.007948,809.224027 C244.149244,830.582093 197.093901,839.65319 149.130774,832.336554 C115.08699,827.142125 98.40408,821.231355 90.6879229,817.538561 L95.650088,789.109022 C133.721442,795.768694 167.824596,798.105421 196.873658,798.105421 C235.195898,798.105421 264.737154,794.060202 283.057521,790.580011 C280.234583,797.412064 275.571183,803.585237 269.007948,809.224027 M579.423833,1085.66839 C626.500243,1112.09639 667.155141,1134.92161 721.53595,1134.92161 C790.454696,1134.92161 833.899973,1103.51945 858.210943,1077.17381 C862.661762,1072.35096 866.645283,1067.51471 870.195979,1062.80294 C885.745118,1042.16505 876.244037,1012.30283 851.783685,1003.97489 L851.783685,1003.97489 L851.821988,1003.86571 C851.743466,1004.08598 843.831964,1026.14698 823.56963,1047.56442 C797.314779,1075.31976 762.985636,1089.39183 721.53595,1089.39183 C679.05974,1089.39183 646.61511,1071.17685 601.710485,1045.9651 C521.432958,1000.89501 411.49352,939.172855 164.467331,939.149871 C112.254477,938.531213 73.6622004,926.280635 55.7899796,904.650589 C44.6073931,891.114811 44.8984966,878.199607 46.0667407,871.706571 C48.0125376,860.902082 53.7943887,854.941513 59.1242634,851.677757 C60.88046,852.926565 62.8166811,854.167712 64.9539934,855.393536 C80.9895811,864.579554 107.001208,871.965143 142.266861,877.345361 C203.716505,886.720999 263.649346,873.851763 298.67369,843.761616 C320.38388,825.109939 331.85757,800.790741 331.85757,773.429968 C331.85757,725.697534 307.198042,701.495172 258.564612,701.495172 C233.721229,701.495172 120.974174,691.813079 110.071201,689.644903 C109.027441,689.436129 107.776846,689.208203 106.351971,688.951546 C67.616058,681.950942 66.1126618,670.355414 68.0105798,658.083767 C69.3722545,649.280819 73.1910724,645.852343 76.3644832,643.848887 C86.0187765,637.756159 103.046414,638.162213 114.878238,641.709441 C125.01515,644.751017 136.48118,640.502771 141.968097,629.901309 C142.896947,628.108541 143.406378,626.137646 143.781748,624.153344 C148.500689,599.244219 183.327771,572.356537 231.357928,572.356537 C255.919783,572.356537 287.169358,593.515407 317.388579,613.979005 C349.308457,635.591813 382.314228,657.942031 415.611102,661.370508 C454.84687,665.411896 558.516093,652.205558 635.560839,640.929894 C609.769454,706.750892 638.912359,781.501252 702.382491,812.50119 C772.436923,846.717001 856.347498,814.089015 887.57792,742.64838 L897.737814,719.407524 C946.658518,735.421765 1012.00359,756.90816 1022.42586,760.687145 C1049.19588,770.390308 1056.64009,794.902956 1058.28521,802.183201 C1060.6734,812.759763 1070.06341,819.938494 1080.46844,819.938494 C1082.64597,819.938494 1084.87138,819.624377 1087.08147,818.95975 C1098.75625,815.450829 1105.24096,802.86315 1102.42569,791.001388 C1094.33033,756.894752 1070.29897,729.610593 1037.93861,717.880991 C1026.38831,713.694036 957.641929,691.117807 916.058181,677.499669 L919.936369,668.625853 C931.593914,641.958436 919.428853,610.889546 892.764158,599.230811 L747.432667,535.685248 C748.060838,490.894791 749.428258,402.733151 751.548334,312.767251 C753.536264,228.363528 755.551007,169.299883 757.399131,127.962802 C768.692796,166.177863 784.065741,220.374603 804.952414,297.233764 C837.308948,416.30532 867.246641,532.16675 867.545405,533.323622 C870.241943,543.764194 879.875169,550.872057 890.661319,550.370236 C901.432147,549.860752 910.366342,541.864167 912.063169,531.214821 L933.846135,394.579506 C933.932317,394.039378 933.999348,393.495418 934.045311,392.947628 C934.051057,392.892083 934.801797,386.751471 937.513656,381.229518 C940.991576,374.1523 944.390975,374.1523 946.874931,374.1523 C954.434045,374.1523 966.96873,382.323183 977.929159,400.578382 C988.301635,417.854838 1000.66779,449.498334 1000.66779,502.134064 C1000.66779,502.296869 1000.6697,502.459673 1000.67162,502.624394 C1002.16161,571.893022 957.176546,599.793924 949.247807,603.417766 L949.381868,603.341152 C962.140626,626.04954 999.756174,618.395802 1016.20352,598.198438 C1034.87053,575.273615 1046.19292,545.283066 1046.19292,501.896561 C1046.19292,452.07831 1036.05409,408.942715 1016.96001,377.140246 C998.446208,346.305028 972.901879,328.622518 946.874931,328.622518 C924.795116,328.622518 906.959283,340.175908 896.653837,361.15282 C890.868156,372.930307 889.207717,384.205971 888.786383,388.053909 L884.1632,417.054222 C872.93465,374.577508 859.333223,323.590894 845.45793,272.705793 C825.61693,199.943566 809.094893,141.573278 796.351456,99.217231 C788.71382,73.8292683 782.330611,53.8789839 777.381852,39.9199139 C769.229039,16.9280538 764.657566,7.91441727 755.2216,3.1356193 C749.163967,0.067228781 742.104708,-0.2583807 735.853644,2.24306625 C720.540069,8.36835519 718.919849,24.9955076 716.868718,46.0490335 C715.430437,60.8221272 714.020884,82.1112412 712.678361,109.320702 C710.44146,154.725986 708.33096,217.564785 706.41006,296.092215 C704.134857,388.980939 702.660188,482.365738 701.966902,531.069255 C688.560821,535.713978 677.058404,545.721681 670.92608,559.747789 L663.993221,575.606886 L652.255239,570.496732 L657.719175,557.995243 C669.382465,531.322081 661.961242,502.32943 641.147344,493.233433 L522.153056,441.201038 C501.348734,432.103126 475.024937,446.345668 463.361647,473.007338 L430.036045,549.253587 C424.528061,561.86425 420.66711,574.668364 418.38233,587.324996 C433.705481,593.253004 465.51045,602.824008 513.521455,596.81364 C535.792786,594.036382 583.621851,587.443748 603.688839,584.656914 C609.252363,583.892689 612.684319,583.410021 612.839447,583.390868 C622.411389,582.057784 631.424105,586.890212 635.861518,594.861898 C555.578246,606.704506 454.264663,619.581404 420.272588,616.078229 C398.361306,613.823862 370.172149,594.735485 342.911841,576.277258 C307.008442,551.965722 269.883174,526.824839 231.357928,526.824839 C198.518776,526.824839 168.11953,535.804 143.446596,552.793153 C127.093093,564.053495 114.324758,578.435857 106.501353,594.015313 C88.7057381,592.417912 68.6253443,594.896374 52.0688346,605.344608 C36.1424107,615.396364 26.099341,631.224816 23.0216879,651.12147 C18.6398147,679.441834 29.150182,703.196003 52.6165688,718.009319 C55.3782214,719.752287 58.2030741,721.284567 61.0355875,722.661704 L46.2333592,807.46382 C42.832045,808.862026 39.1262212,810.660539 35.3227246,812.976197 C12.1723383,827.073172 4.02144119,848.306741 1.26170371,863.639117 C-3.1048483,887.898939 3.97739264,913.417145 20.6966905,933.652817 C54.740475,974.855824 117.454121,984.143355 164.068979,984.679653 C164.157076,984.679653 164.243258,984.679653 164.331355,984.679653 C268.929427,984.679653 356.392613,995.930418 431.719466,1019.07359 C495.972896,1038.8151 540.30872,1063.70699 579.423833,1085.66839" id="Fill-3" fill="#000000" mask="url(#mask-2)"></path>
                </g>
                <path d="M1371.92621,630.730847 C1347.25711,563.526965 1311.50118,501.371946 1265.65046,445.989604 C1220.16938,391.05737 1166.21756,344.537351 1105.29459,307.720496 C1043.10952,270.141331 975.540962,243.839747 904.461921,229.547406 C892.132157,227.074689 880.13563,235.052121 877.657421,247.377398 C875.179211,259.702674 883.161574,271.706172 895.485593,274.184635 C961.405207,287.440771 1024.07289,311.832752 1081.74968,346.688289 C1138.2927,380.858131 1188.36824,424.037779 1230.58399,475.028224 C1273.13106,526.417061 1306.30728,584.0825 1329.18954,646.421393 C1352.87043,710.934208 1364.87653,778.82187 1364.87653,848.199673 C1364.87653,927.253824 1349.40017,1003.93103 1318.87835,1076.10141 C1299.74404,1121.34006 1275.24539,1163.58502 1245.71371,1202.37085 C1251.4381,1178.02484 1255.04817,1151.96076 1256.46538,1124.46591 C1257.9209,1096.19726 1256.88097,1070.36494 1255.08647,1049.43974 L1263.23737,1055.02107 C1269.52482,1059.32678 1277.55123,1060.20018 1284.61815,1057.34822 C1291.68507,1054.49435 1296.85407,1048.29245 1298.39194,1040.82833 C1316.8885,950.975433 1298.00891,876.719233 1283.72761,837.843376 L1305.26543,834.765409 C1317.5952,833.005202 1326.21914,821.660585 1324.61998,809.308494 C1313.53315,723.623401 1278.73863,668.873125 1251.5013,638.032161 C1242.50774,627.84633 1233.75165,619.514558 1225.83249,612.807003 L1234.27066,608.403613 C1245.1947,602.705447 1249.60147,589.349713 1244.21414,578.267498 C1201.92945,491.278052 1101.83582,469.766758 1097.59567,468.895274 C1085.28314,466.35935 1073.21575,474.281237 1070.68009,486.595022 C1068.14442,498.908806 1076.0406,510.941034 1088.35505,513.476958 C1089.09238,513.634016 1154.98518,528.129384 1191.87872,579.169628 L1171.32911,589.891757 C1163.66849,593.891007 1158.9304,601.881847 1159.10085,610.52199 C1159.26938,619.164049 1164.31773,626.963354 1172.12964,630.656148 C1172.9704,631.054541 1251.88242,669.736947 1275.89079,792.970559 L1247.83761,796.977471 C1240.45661,798.032829 1234.04467,802.6086 1230.70081,809.272102 C1227.35504,815.93752 1227.46995,823.790454 1231.03405,830.340951 C1231.15087,830.557385 1242.83523,852.547517 1251.39789,888.381798 C1257.64129,914.50334 1263.21056,952.551766 1258.99913,996.939999 L1238.42271,982.850686 C1230.72571,977.581558 1220.59454,977.541336 1212.85732,982.745341 C1205.12009,987.951262 1201.33958,997.353715 1203.31985,1006.46695 C1203.75459,1008.47232 1245.18321,1206.16324 1138.38271,1310.82371 C1098.28704,1342.02476 1054.4166,1367.78238 1007.29805,1387.71351 C935.135034,1418.23845 858.463743,1433.71639 779.417661,1433.71639 C685.32038,1433.71639 594.227976,1411.60176 511.97018,1369.22847 C489.26794,1357.53335 482.610863,1328.19785 498.01828,1307.8281 C564.366889,1220.10508 594.777626,1152.62347 596.25421,1149.30225 C601.363842,1137.82356 596.202501,1124.38163 584.726896,1119.26382 C573.253206,1114.14409 559.797331,1119.2983 554.670463,1130.77316 C554.568959,1130.99917 544.309477,1153.82056 523.114464,1189.3618 C508.632066,1213.65035 486.688227,1247.74357 457.26571,1286.15017 C442.907798,1304.89378 415.724096,1307.64997 397.821233,1292.25631 C367.852897,1266.48719 340.53322,1237.74545 316.241401,1206.37393 C280.121589,1159.72367 251.378952,1108.1682 230.81594,1053.13637 C226.41683,1041.35888 213.301853,1035.37916 201.527483,1039.78063 C189.751199,1044.1821 183.772087,1057.2965 188.173112,1069.07399 C210.341024,1128.40195 241.318646,1183.97392 280.246074,1234.24993 C318.794302,1284.03371 364.403704,1327.68453 415.802617,1363.98999 C522.549493,1439.39157 648.28704,1479.24617 779.417661,1479.24617 C864.590322,1479.24617 947.227319,1462.55964 1025.03238,1429.64627 C1073.93776,1408.95857 1119.59313,1382.45779 1161.49096,1350.50018 C1163.26248,1349.56741 1164.9459,1348.39904 1166.47802,1346.96253 C1167.02001,1346.45305 1167.54285,1345.92249 1168.07909,1345.40918 C1188.15566,1329.67075 1207.34742,1312.66244 1225.59118,1294.41682 C1283.53226,1236.46983 1329.02484,1168.9863 1360.80683,1093.83947 C1393.71492,1016.02455 1410.40166,933.379113 1410.40166,848.199673 C1410.40166,773.451228 1397.45713,700.282947 1371.92621,630.730847" id="Fill-6" fill="#000000"></path>
                <path d="M226.068655,624.235704 C218.716377,624.980775 213.819327,630.184781 214.761583,637.911302 C215.757464,646.087931 224.109452,647.221818 228.707738,646.800441 C235.288208,646.197106 245.451932,646.559107 256.448749,651.734382 C258.015345,652.469877 259.664293,652.820386 261.288344,652.820386 C265.94983,652.820386 270.400649,649.941615 272.070663,645.109187 C273.989648,639.547011 270.982856,633.370008 265.639575,630.901122 C250.190024,623.766443 235.736354,623.255045 226.068655,624.235704" id="Fill-8" fill="#000000"></path>
                <polygon id="Fill-10" fill="#000000" points="139.796886 305.926579 228.164025 340.048537 187.319528 254.491773 215.052878 224.480156 279.884685 367.472517 259.572557 389.454988 112.063536 335.940112"></polygon>
                <polygon id="Fill-12" fill="#000000" points="328.59204 179.204924 292.828447 206.021738 307.326166 225.364856 341.096083 200.043931 360.201664 225.527661 326.429831 250.846671 341.392932 270.802701 377.15461 243.985888 396.260191 269.467703 330.409522 318.845423 243.639622 203.098914 309.48646 153.721194"></polygon>
                <path d="M411.13079,169.005303 L417.450799,165.774107 C424.056167,162.399261 428.424634,158.442148 430.561946,153.906599 C432.693513,149.369136 432.452204,144.534792 429.836103,139.409316 C427.216172,134.285755 423.441402,131.257587 418.51371,130.326727 C413.587933,129.397782 407.819488,130.621691 401.216036,133.996537 L394.896026,137.225817 L411.13079,169.005303 Z M521.162155,202.627355 L479.47882,223.926045 L422.215703,190.704301 L447.530214,240.250572 L414.04757,257.362308 L348.229459,128.53779 L400.335065,101.912511 C407.509233,98.2446164 414.311861,96.0994245 420.744865,95.4692744 C427.170208,94.8448703 433.051647,95.4635283 438.391097,97.3329098 C443.728633,99.206122 448.497367,102.079147 452.708792,105.959646 C456.916386,109.84206 460.419203,114.515514 463.211498,119.983838 C468.219627,129.780852 469.910708,138.934309 468.301979,147.440378 C466.685588,155.952193 461.823011,163.646154 453.700842,170.52226 L521.162155,202.627355 Z" id="Fill-14" fill="#000000"></path>
                <polygon id="Fill-16" fill="#000000" points="537.895625 126.051091 465.736438 69.19393 508.733569 56.2825564 545.824364 86.4090948 559.996507 40.8850587 602.991723 27.9717698 573.912019 115.237026 593.885164 181.755212 557.874516 192.571193"></polygon>
                <path d="M989.884127,107.300774 L1061.57602,128.032521 C1059.44253,135.404703 1057.19797,142.014575 1054.84425,147.856392 C1052.48669,153.700125 1049.64461,158.934776 1046.31032,163.564177 C1041.63351,170.068705 1036.27683,175.475738 1030.23452,179.785275 C1024.19603,184.098643 1017.65387,187.266631 1010.61184,189.291156 C1003.56791,191.315681 996.198391,192.281017 988.505216,192.18525 C980.812041,192.089483 973.032684,190.905796 965.17289,188.632276 C954.358013,185.506425 945.013975,180.871278 937.13503,174.732582 C929.258,168.593885 923.05673,161.374932 918.533135,153.075721 C914.009541,144.77651 911.27087,135.596238 910.320953,125.53682 C909.367206,115.473572 910.47225,104.975539 913.636086,94.0388911 C916.759702,83.2286563 921.38097,73.8108809 927.494143,65.7913109 C933.607316,57.771741 940.812126,51.5008854 949.11049,46.9749137 C957.408854,42.4546879 966.616917,39.7253143 976.742338,38.7887082 C986.862014,37.8559328 997.512187,39.0032274 1008.69477,42.2382534 C1023.19058,46.4309543 1035.00133,53.2400231 1044.12513,62.6692906 C1053.24893,72.0985581 1059.10547,84.3127444 1061.69093,99.3061033 L1023.31123,103.58691 C1022.31727,95.0444498 1019.75288,88.3752015 1015.61231,83.582996 C1011.47175,78.792706 1006.1457,75.4542511 999.638009,73.5714622 C994.227698,72.0066213 989.022308,71.6005672 984.012264,72.3475536 C979.00222,73.0964554 974.390528,74.8930536 970.173358,77.7335175 C965.956188,80.5778121 962.190995,84.381697 958.885438,89.1490028 C955.574136,93.918224 952.979102,99.5589295 951.096505,106.069204 C949.392018,111.968481 948.576162,117.658986 948.658514,123.140717 C948.73512,128.624364 949.780794,133.652157 951.784046,138.226013 C953.787297,142.799869 956.773023,146.758897 960.733562,150.101182 C964.692186,153.441552 969.683079,155.983222 975.704324,157.724275 C979.266511,158.754733 982.822953,159.352322 986.369819,159.511296 C989.920515,159.674101 993.27012,159.245063 996.430125,158.226097 C999.582469,157.209046 1002.4303,155.536945 1004.96788,153.205964 C1007.50355,150.876899 1009.66576,147.772117 1011.45451,143.897364 L981.783024,135.316597 L989.884127,107.300774 Z" id="Fill-18" fill="#000000"></path>
                <path d="M1118.56986,166.18744 C1115.69713,171.175011 1113.9869,176.317725 1113.44874,181.613668 C1112.90675,186.913441 1113.34724,192.038917 1114.77786,196.992012 C1116.20082,201.947022 1118.55263,206.513216 1121.83329,210.688679 C1125.10628,214.866057 1129.13002,218.325179 1133.89876,221.069876 C1138.66175,223.814572 1143.67179,225.559456 1148.93272,226.298781 C1154.18407,227.038106 1159.34158,226.798687 1164.40142,225.576694 C1169.45168,224.356616 1174.13807,222.184609 1178.44908,219.056843 C1182.75818,215.930992 1186.35101,211.874281 1189.22565,206.884794 C1192.09647,201.897223 1193.80096,196.756424 1194.34295,191.458566 C1194.88493,186.160708 1194.41381,181.017994 1192.93148,176.030423 C1191.45106,171.046683 1189.07053,166.465166 1185.79561,162.287787 C1182.51495,158.112325 1178.49313,154.651287 1173.72822,151.904676 C1168.96332,149.159979 1163.94945,147.418926 1158.69426,146.677686 C1153.43716,145.940276 1148.30838,146.195018 1143.30983,147.447657 C1138.30744,148.700295 1133.6517,150.88954 1129.34452,154.015391 C1125.02968,157.141242 1121.44259,161.199869 1118.56986,166.18744 M1084.48969,146.555103 C1089.85021,137.244588 1096.56282,129.562119 1104.62945,123.503868 C1112.69034,117.447531 1121.4943,113.182047 1131.03752,110.707415 C1140.57882,108.234698 1150.56252,107.750115 1160.98862,109.251749 C1171.41472,110.755299 1181.72591,114.442347 1191.92219,120.316725 C1202.00548,126.124066 1210.34215,133.180215 1216.93028,141.475596 C1223.51649,149.772891 1228.16457,158.685014 1230.86686,168.21388 C1233.56914,177.74083 1234.32371,187.512945 1233.1344,197.52831 C1231.93743,207.543675 1228.66251,217.204699 1223.30391,226.515215 C1217.94339,235.825731 1211.22503,243.510115 1203.16415,249.566451 C1195.09943,255.624703 1186.27057,259.874864 1176.6699,262.31502 C1167.07306,264.757091 1157.03382,265.212944 1146.5541,263.676834 C1136.07246,262.138808 1125.78999,258.468997 1115.70479,252.659741 C1105.50659,246.785363 1097.14503,239.715807 1090.61244,231.452987 C1084.07985,223.190168 1079.48922,214.306775 1076.84248,204.812386 C1074.1919,195.314166 1073.46415,185.561204 1074.65729,175.543924 C1075.84851,165.528559 1079.12726,155.865619 1084.48969,146.555103" id="Fill-20" fill="#000000"></path>
                <path d="M1273.54971,270.225223 C1269.56044,274.375787 1266.6609,278.953473 1264.86257,283.965944 C1263.05849,288.976499 1262.25221,294.056007 1262.44564,299.208298 C1262.63525,304.362505 1263.81881,309.361568 1265.99443,314.201657 C1268.16621,319.045577 1271.24003,323.372352 1275.20249,327.185814 C1279.16877,330.99736 1283.6081,333.8972 1288.53579,335.881502 C1293.45774,337.863889 1298.51949,338.875194 1303.72105,338.907755 C1308.92261,338.942231 1313.98819,337.961572 1318.92738,335.965778 C1323.86273,333.969983 1328.32887,330.897762 1332.31622,326.749114 C1336.3074,322.600466 1339.19929,318.020865 1341.00528,313.010309 C1342.80361,307.997839 1343.58691,302.895347 1343.34943,297.699002 C1343.11003,292.502658 1341.90349,287.482526 1339.73362,282.638606 C1337.55608,277.796602 1334.48418,273.465995 1330.52555,269.656365 C1326.55927,265.842903 1322.1142,262.944979 1317.19225,260.960676 C1312.26839,258.976374 1307.2277,257.989968 1302.07402,257.997586 C1296.91842,258.009122 1291.87199,259.012765 1286.93664,261.00856 C1281.99746,263.004354 1277.54089,266.078491 1273.54971,270.225223 M1245.20159,242.962133 C1252.65155,235.218374 1261.01502,229.378472 1270.30161,225.442428 C1279.58245,221.504468 1289.15439,219.487605 1299.01552,219.386091 C1308.8709,219.282663 1318.67649,221.220997 1328.43612,225.189602 C1338.19192,229.162037 1347.30997,235.222204 1355.79027,243.379679 C1364.17865,251.447133 1370.5676,260.301796 1374.9648,269.943667 C1379.35816,279.581708 1381.72146,289.349992 1382.04895,299.24852 C1382.37836,309.148964 1380.75814,318.815735 1377.18829,328.246918 C1373.61653,337.680016 1368.11046,346.268445 1360.66242,354.01412 C1353.21822,361.757879 1344.84899,367.595866 1335.56432,371.533825 C1326.27774,375.469869 1316.68473,377.465664 1306.78338,377.52434 C1296.87821,377.580585 1287.02474,375.602028 1277.22489,371.58554 C1267.42122,367.569051 1258.32423,361.528037 1249.93777,353.462499 C1241.45555,345.303108 1235.04362,336.427377 1230.6943,326.833389 C1226.34498,317.239402 1224.02956,307.513255 1223.74804,297.65878 C1223.46268,287.802389 1225.10588,278.160518 1228.67764,268.72742 C1232.24558,259.294322 1237.75547,250.705893 1245.20159,242.962133" id="Fill-22" fill="#000000"></path>
                <path d="M1366.61606,434.603041 L1371.3216,441.841148 C1374.87421,447.311387 1378.90369,451.632417 1383.41005,454.806151 C1387.91066,457.981801 1392.62386,460.065702 1397.54198,461.063599 C1402.46201,462.061497 1407.4912,461.996375 1412.63148,460.868234 C1417.76792,459.738177 1422.80669,457.571917 1427.74013,454.365621 C1432.56632,451.228278 1436.54793,447.495261 1439.68303,443.168485 C1442.82197,438.84171 1444.93056,434.227632 1446.01645,429.326252 C1447.10043,424.424871 1447.10617,419.270665 1446.03752,413.865548 C1444.96311,408.462345 1442.686,403.076382 1439.1985,397.715317 L1434.49488,390.475295 L1366.61606,434.603041 Z M1440.70573,341.587904 L1471.02645,388.240081 C1476.3908,396.497155 1479.7653,405.328833 1481.14613,414.727455 C1482.52695,424.127992 1482.21478,433.329333 1480.21345,442.335308 C1478.21019,451.341283 1474.54459,459.787976 1469.22429,467.673472 C1463.89825,475.557052 1457.21627,482.11521 1449.17454,487.344115 C1441.23622,492.502152 1432.60271,495.940206 1423.27208,497.658274 C1413.93953,499.378259 1404.72189,499.339952 1395.62874,497.549099 C1386.53175,495.758247 1377.9691,492.32594 1369.94077,487.246432 C1361.91244,482.16884 1355.17876,475.445962 1349.74164,467.081629 L1319.42091,420.431367 L1440.70573,341.587904 Z" id="Fill-24" fill="#000000"></path>
                <polygon id="Fill-26" fill="#000000" points="253.598042 1319.04113 215.534348 1407.38282 303.924469 1369.27118 333.295277 1398.58178 185.696243 1458.79655 164.187144 1437.32931 224.229149 1289.72862"></polygon>
                <polygon id="Fill-28" fill="#000000" points="421.897788 1492.55785 383.387863 1468.53553 370.397371 1489.36305 406.758492 1512.04654 389.644673 1539.48584 353.285467 1516.80235 339.883216 1538.29066 378.391226 1562.31489 361.279321 1589.7542 290.372645 1545.52111 368.103016 1420.88737 439.011608 1465.11855"></polygon>
                <polygon id="Fill-30" fill="#000000" points="438.964112 1630.01045 485.119333 1490.55765 521.363629 1502.55732 560.089966 1609.97972 588.309766 1524.71792 624.370208 1536.65629 578.214988 1676.10717 542.154546 1664.1688 503.430124 1556.74831 475.210324 1642.01011"></polygon>
                <g id="Group-34" transform="translate(663.491920, 1542.346989)">
                    <mask id="mask-4" fill="white">
                        <use xlink:href="#path-3"></use>
                    </mask>
                    <g id="Clip-33"></g>
                    <polygon id="Fill-32" fill="#000000" mask="url(#mask-4)" points="69.3248636 38.2273192 59.7586674 152.380257 21.7122103 149.1912 31.2803216 35.0363463 0.0230867641 32.418063 2.72728477 0.192301129 103.278636 8.61984063 100.578268 40.8456025"></polygon>
                </g>
                <path d="M847.399705,1545.85668 L858.637831,1624.93573 C859.24302,1629.18014 860.016742,1633.49734 860.970489,1637.88732 C861.920405,1642.27922 863.456359,1646.15972 865.57452,1649.53073 C867.694596,1652.90558 870.651594,1655.47023 874.4436,1657.2247 C878.23369,1658.98299 883.276292,1659.41202 889.57715,1658.51564 C895.876093,1657.62117 900.572051,1655.80542 903.65928,1653.07222 C906.744594,1650.33901 908.870415,1647.05036 910.030999,1643.212 C911.189667,1639.37746 911.614832,1635.21349 911.306492,1630.73158 C910.996237,1626.25157 910.54043,1621.88649 909.937156,1617.64399 L898.69903,1538.56302 L936.308832,1533.21728 L948.284293,1617.50608 C951.501752,1640.13977 948.674984,1657.39516 939.807819,1669.28182 C930.932994,1681.16848 915.763056,1688.63835 894.294175,1691.69142 C872.819549,1694.74257 856.138554,1691.80251 844.245445,1682.86548 C832.350422,1673.93229 824.793222,1658.15172 821.577678,1635.51803 L809.598387,1551.23115 L847.399705,1545.85668 Z" id="Fill-35" fill="#000000"></path>
                <path d="M1049.61128,1563.95328 L1056.28751,1561.23732 C1063.2625,1558.4026 1068.03124,1554.78067 1070.58797,1550.37728 C1073.14087,1545.9739 1073.32281,1541.06485 1071.12038,1535.65016 C1068.92178,1530.23547 1065.36726,1526.8453 1060.46446,1525.47199 C1055.55975,1524.1006 1049.62086,1524.83418 1042.64395,1527.67081 L1035.96581,1530.38486 L1049.61128,1563.95328 Z M1157.97646,1607.59262 L1113.94515,1625.49348 L1058.92659,1586.87428 L1080.20013,1639.21121 L1044.82914,1653.58974 L989.521397,1517.50988 L1044.56102,1495.13476 C1052.13929,1492.05488 1059.2062,1490.47855 1065.76944,1490.40576 C1072.32501,1490.33298 1078.22177,1491.47644 1083.45972,1493.83424 C1088.69192,1496.19395 1093.26723,1499.519 1097.18755,1503.81513 C1101.10595,1508.10934 1104.23723,1513.1448 1106.58712,1518.91958 C1110.7928,1529.27013 1111.70633,1538.67641 1109.32963,1547.14226 C1106.951,1555.61002 1101.35875,1562.96496 1092.54138,1569.21092 L1157.97646,1607.59262 Z" id="Fill-37" fill="#000000"></path>
                <polygon id="Fill-39" fill="#000000" points="1225.8616 1428.37122 1188.38203 1453.9737 1202.22668 1474.24385 1237.6149 1450.0683 1255.851 1476.77403 1220.46661 1500.94957 1234.74792 1521.86136 1272.22749 1496.25697 1290.4655 1522.96461 1221.45866 1570.10328 1138.61674 1448.80609 1207.62358 1401.66741"></polygon>
                <path d="M1332.26854,1334.7698 C1326.95398,1335.43442 1322.27526,1336.70238 1318.22662,1338.57368 C1314.17799,1340.45264 1310.8054,1342.7932 1308.10886,1345.60493 C1304.69031,1349.1694 1302.74835,1352.88326 1302.28105,1356.75227 C1301.80992,1360.61936 1302.93412,1363.85821 1305.6498,1366.46309 C1307.52474,1368.2616 1309.61034,1369.18289 1311.90661,1369.22694 C1314.20288,1369.27291 1316.67343,1368.80748 1319.31635,1367.83257 C1321.96309,1366.85957 1324.71134,1365.53989 1327.57066,1363.87162 C1330.42807,1362.20527 1333.31229,1360.60595 1336.2195,1359.07559 C1347.85023,1352.95604 1358.16908,1350.21518 1367.18371,1350.85299 C1376.19643,1351.49463 1384.7361,1355.67775 1392.79507,1363.41002 C1398.23028,1368.62552 1402.27892,1374.25856 1404.92566,1380.31107 C1407.57815,1386.36549 1408.78853,1392.65742 1408.5568,1399.18301 C1408.32506,1405.71052 1406.62823,1412.36062 1403.46248,1419.12947 C1400.2929,1425.90214 1395.60844,1432.51968 1389.40717,1438.98781 C1376.55074,1452.39143 1360.65687,1460.98752 1341.72365,1464.78183 L1330.83983,1431.66352 C1338.44874,1431.04677 1345.08092,1429.5777 1350.72488,1427.25438 C1356.37075,1424.93298 1361.08203,1421.80138 1364.86063,1417.86725 C1369.17548,1413.36618 1371.35492,1409.02983 1371.40663,1404.8467 C1371.45834,1400.66741 1370.17327,1397.31746 1367.54759,1394.80069 C1365.9561,1393.27224 1364.30524,1392.22646 1362.59117,1391.66526 C1360.88094,1391.10407 1358.90259,1391.00638 1356.65994,1391.37605 C1354.41538,1391.74379 1351.86248,1392.57697 1348.99741,1393.87558 C1346.13042,1395.1761 1342.74634,1396.83288 1338.83751,1398.84016 C1334.29477,1401.32437 1329.70606,1403.62471 1325.06564,1405.74309 C1320.42522,1407.86146 1315.69862,1409.17348 1310.88967,1409.68679 C1306.07688,1410.20202 1301.176,1409.64082 1296.17937,1407.99554 C1291.18847,1406.356 1286.06544,1403.01754 1280.81791,1397.98017 C1275.56847,1392.94663 1271.64624,1387.52045 1269.04354,1381.69204 C1266.44276,1375.86746 1265.12322,1369.92604 1265.09007,1363.86204 C1265.05811,1357.80188 1266.37382,1351.68808 1269.04737,1345.52257 C1271.72093,1339.35897 1275.75424,1333.46353 1281.14923,1327.84197 C1286.18609,1322.59392 1292.16903,1317.80937 1299.10572,1313.48451 C1306.04241,1309.16157 1313.43299,1305.72351 1321.27938,1303.17035 L1332.26854,1334.7698 Z" id="Fill-41" fill="#000000"></path>
            </g>
        </g>
    </g>
</svg>