<?xml version="1.0" encoding="UTF-8"?>
<svg width="2068px" height="2068px" viewBox="0 0 2068 2068" version="1.1" xmlns="http://www.w3.org/2000/svg" xmlns:xlink="http://www.w3.org/1999/xlink">
    <!-- Generator: Sketch 63.1 (92452) - https://sketch.com -->
    <title>unicorn-vgv-white-inset</title>
    <desc>Created with Sketch.</desc>
    <defs>
        <polygon id="path-1" points="0 0.576520316 1102.83468 0.576520316 1102.83468 1134.92161 0 1134.92161"></polygon>
        <polygon id="path-3" points="0.0230816323 0.192301129 103.255679 0.192301129 103.255679 152.379491 0.0230816323 152.379491"></polygon>
    </defs>
    <g id="unicorn-vgv-white-inset" stroke="none" stroke-width="1" fill="none" fill-rule="evenodd">
        <g id="unicorn-with-text" transform="translate(257.000000, 186.000000)">
            <g id="Page-1" transform="translate(0.000000, 0.848500)">
                <path d="M287.476024,489.616869 C291.652047,492.911271 296.620768,494.510588 301.556939,494.510588 C308.283381,494.510588 314.948551,491.537965 319.43859,485.84363 C402.999264,379.89222 521.116962,305.561322 652.030791,276.543771 C664.302288,273.823974 672.04545,261.669164 669.326536,249.393687 C666.607621,237.118209 654.458667,229.37445 642.185257,232.092331 C571.045427,247.861407 503.687187,275.693356 441.977396,314.818208 C381.420272,353.211397 328.169753,401.26561 283.704009,457.643934 C275.920636,467.515647 277.607512,481.829057 287.476024,489.616869" id="Fill-1" fill="#FFFFFF"></path>
                <g id="Group-5" transform="translate(0.000000, 0.490330)">
                    <mask id="mask-2" fill="white">
                        <use xlink:href="#path-1"></use>
                    </mask>
                    <g id="Clip-4"></g>
                    <path d="M258.507136,747.024955 C270.173578,747.024955 278.397338,748.905828 281.66578,752.318982 C283.992175,754.751476 285.468431,759.673925 286.019873,766.705175 C276.09009,768.831213 260.000625,771.685084 238.722245,773.502751 C207.188578,776.195733 158.516175,776.954212 99.5444465,766.68219 L105.083757,734.941012 C131.189167,738.700844 235.426997,747.024955 258.507136,747.024955 M268.948152,809.224027 C244.094974,830.582093 197.05009,839.65319 149.097625,832.336554 C115.061408,827.142125 98.3822062,821.231355 90.6677643,817.538561 L95.6288264,789.109022 C133.691718,795.768694 167.787291,798.105421 196.829896,798.105421 C235.143617,798.105421 264.678307,794.060202 282.994602,790.580011 C280.172291,797.412064 275.509927,803.585237 268.948152,809.224027 M579.295036,1085.66839 C626.360981,1112.09639 667.006842,1134.92161 721.375563,1134.92161 C790.278989,1134.92161 833.714609,1103.51945 858.020175,1077.17381 C862.470005,1072.35096 866.45264,1067.51471 870.002547,1062.80294 C885.548229,1042.16505 876.04926,1012.30283 851.594346,1003.97489 L851.594346,1003.97489 L851.63264,1003.86571 C851.554136,1004.08598 843.644392,1026.14698 823.386563,1047.56442 C797.137547,1075.31976 762.816036,1089.39183 721.375563,1089.39183 C678.908795,1089.39183 646.471377,1071.17685 601.576733,1045.9651 C521.317051,1000.89501 411.402051,939.172855 164.430772,939.149871 C112.229524,938.531213 73.6458264,926.280635 55.7775783,904.650589 C44.5974775,891.114811 44.8885163,878.199607 46.0565008,871.706571 C48.0018651,860.902082 53.782431,854.941513 59.1111209,851.677757 C60.8669271,852.926565 62.8027178,854.167712 64.939555,855.393536 C80.9715783,864.579554 106.977423,871.965143 142.235237,877.345361 C203.671222,886.720999 263.590741,873.851763 298.607299,843.761616 C320.312664,825.109939 331.783803,800.790741 331.783803,773.429968 C331.783803,725.697534 307.129757,701.495172 258.507136,701.495172 C233.669276,701.495172 120.947284,691.813079 110.046733,689.644903 C109.003206,689.436129 107.752888,689.208203 106.32833,688.951546 C67.6010279,681.950942 66.0979659,670.355414 67.995462,658.083767 C69.3568341,649.280819 73.1748031,645.852343 76.3475085,643.848887 C85.9996558,637.756159 103.023509,638.162213 114.852702,641.709441 C124.987361,644.751017 136.450842,640.502771 141.93654,629.901309 C142.865183,628.108541 143.374501,626.137646 143.749788,624.153344 C148.467679,599.244219 183.28702,572.356537 231.306501,572.356537 C255.862896,572.356537 287.105524,593.515407 317.318028,613.979005 C349.230811,635.591813 382.229245,657.942031 415.518718,661.370508 C454.745764,665.411896 558.391943,652.205558 635.419563,640.929894 C609.633912,706.750892 638.770338,781.501252 702.226361,812.50119 C772.265222,846.717001 856.157144,814.089015 887.380625,742.64838 L897.53826,719.407524 C946.44809,735.421765 1011.77863,756.90816 1022.19859,760.687145 C1048.96266,770.390308 1056.40521,794.902956 1058.04997,802.183201 C1060.43763,812.759763 1069.82555,819.938494 1080.22827,819.938494 C1082.40531,819.938494 1084.63023,819.624377 1086.83983,818.95975 C1098.51201,815.450829 1104.99528,802.86315 1102.18063,791.001388 C1094.08707,756.894752 1070.06106,729.610593 1037.70789,717.880991 C1026.16016,713.694036 957.429059,691.117807 915.854555,677.499669 L919.731881,668.625853 C931.386834,641.958436 919.224478,610.889546 892.56571,599.230811 L747.266524,535.685248 C747.894555,490.894791 749.261671,402.733151 751.381276,312.767251 C753.368764,228.363528 755.383059,169.299883 757.230772,127.962802 C768.521927,166.177863 783.891454,220.374603 804.773485,297.233764 C837.122826,416.30532 867.053865,532.16675 867.352563,533.323622 C870.048501,543.764194 879.679586,550.872057 890.463338,550.370236 C901.231772,549.860752 910.163981,541.864167 911.860431,531.214821 L933.638555,394.579506 C933.724718,394.039378 933.791733,393.495418 933.837687,392.947628 C933.843431,392.892083 934.594005,386.751471 937.30526,381.229518 C940.782408,374.1523 944.181051,374.1523 946.664454,374.1523 C954.221888,374.1523 966.753788,382.323183 977.71178,400.578382 C988.08195,417.854838 1000.44535,449.498334 1000.44535,502.134064 C1000.44535,502.296869 1000.44727,502.459673 1000.44918,502.624394 C1001.93884,571.893022 956.96378,599.793924 949.036803,603.417766 L949.170834,603.341152 C961.926757,626.04954 999.533943,618.395802 1015.97763,598.198438 C1034.64049,575.273615 1045.96037,545.283066 1045.96037,501.896561 C1045.96037,452.07831 1035.8238,408.942715 1016.73395,377.140246 C998.224268,346.305028 972.685617,328.622518 946.664454,328.622518 C924.589547,328.622518 906.757679,340.175908 896.454524,361.15282 C890.670129,372.930307 889.010059,384.205971 888.588819,388.053909 L883.966664,417.054222 C872.740609,374.577508 859.142206,323.590894 845.269997,272.705793 C825.433408,199.943566 808.915043,141.573278 796.174439,99.217231 C788.538501,73.8292683 782.15671,53.8789839 777.209051,39.9199139 C769.058051,16.9280538 764.487594,7.91441727 755.053726,3.1356193 C748.997439,0.067228781 741.939749,-0.2583807 735.690074,2.24306625 C720.379904,8.36835519 718.760043,24.9955076 716.709369,46.0490335 C715.271408,60.8221272 713.862167,82.1112412 712.519943,109.320702 C710.28354,154.725986 708.173509,217.564785 706.253036,296.092215 C703.978338,388.980939 702.503997,482.365738 701.810865,531.069255 C688.407764,535.713978 676.907904,545.721681 670.776943,559.747789 L663.845625,575.606886 L652.110253,570.496732 L657.572974,557.995243 C669.233671,531.322081 661.814098,502.32943 641.004826,493.233433 L522.036989,441.201038 C501.237291,432.103126 474.919346,446.345668 463.258648,473.007338 L429.940454,549.253587 C424.433695,561.86425 420.573602,574.668364 418.28933,587.324996 C433.609074,593.253004 465.406974,602.824008 513.407307,596.81364 C535.673687,594.036382 583.492121,587.443748 603.554648,584.656914 C609.116935,583.892689 612.548129,583.410021 612.703222,583.390868 C622.273036,582.057784 631.283749,586.890212 635.720175,594.861898 C555.454749,606.704506 454.163687,619.581404 420.179167,616.078229 C398.272757,613.823862 370.089865,594.735485 342.835617,576.277258 C306.940198,551.965722 269.823183,526.824839 231.306501,526.824839 C198.474648,526.824839 168.08216,535.804 143.41471,552.793153 C127.064842,564.053495 114.299346,578.435857 106.477679,594.015313 C88.6860202,592.417912 68.6100899,594.896374 52.0572605,605.344608 C36.1343767,615.396364 26.0935395,631.224816 23.0165705,651.12147 C18.6356713,679.441834 29.1437023,703.196003 52.6048729,718.009319 C55.3659116,719.752287 58.1901364,721.284567 61.0220202,722.661704 L46.2230822,807.46382 C42.822524,808.862026 39.117524,810.660539 35.3148729,812.976197 C12.1696326,827.073172 4.02054729,848.306741 1.26142326,863.639117 C-3.10415814,887.898939 3.97650853,913.417145 20.6920899,933.652817 C54.728307,974.855824 117.428012,984.143355 164.032509,984.679653 C164.120586,984.679653 164.206749,984.679653 164.294826,984.679653 C268.869648,984.679653 356.313392,995.930418 431.623501,1019.07359 C495.862648,1038.8151 540.188617,1063.70699 579.295036,1085.66839" id="Fill-3" fill="#FFFFFF" mask="url(#mask-2)"></path>
                </g>
                <path d="M1371.62125,630.730847 C1346.95763,563.526965 1311.20965,501.371946 1265.36913,445.989604 C1219.89815,391.05737 1165.95833,344.537351 1105.0489,307.720496 C1042.87766,270.141331 975.324113,243.839747 904.260873,229.547406 C891.93385,227.074689 879.939989,235.052121 877.46233,247.377398 C874.984671,259.702674 882.96526,271.706172 895.28654,274.184635 C961.191501,287.440771 1023.84525,311.832752 1081.50922,346.688289 C1138.03967,380.858131 1188.10408,424.037779 1230.31045,475.028224 C1272.84806,526.417061 1306.0169,584.0825 1328.89408,646.421393 C1352.5697,710.934208 1364.57314,778.82187 1364.57314,848.199673 C1364.57314,927.253824 1349.10021,1003.93103 1318.58518,1076.10141 C1299.45513,1121.34006 1274.96192,1163.58502 1245.4368,1202.37085 C1251.15993,1178.02484 1254.76919,1151.96076 1256.18609,1124.46591 C1257.64128,1096.19726 1256.60159,1070.36494 1254.80749,1049.43974 L1262.95657,1055.02107 C1269.24262,1059.32678 1277.26725,1060.20018 1284.3326,1057.34822 C1291.39795,1054.49435 1296.5658,1048.29245 1298.10333,1040.82833 C1316.59578,950.975433 1297.72038,876.719233 1283.44225,837.843376 L1304.97529,834.765409 C1317.30231,833.005202 1325.92434,821.660585 1324.32554,809.308494 C1313.24118,723.623401 1278.45438,668.873125 1251.22311,638.032161 C1242.23155,627.84633 1233.47741,619.514558 1225.56,612.807003 L1233.9963,608.403613 C1244.91791,602.705447 1249.3237,589.349713 1243.93757,578.267498 C1201.66228,491.278052 1101.5909,469.766758 1097.35169,468.895274 C1085.0419,466.35935 1072.97719,474.281237 1070.44209,486.595022 C1067.90699,498.908806 1075.80142,510.941034 1088.11312,513.476958 C1088.85029,513.634016 1154.72845,528.129384 1191.61378,579.169628 L1171.06874,589.891757 C1163.40983,593.891007 1158.67279,601.881847 1158.8432,610.52199 C1159.01169,619.164049 1164.05892,626.963354 1171.8691,630.656148 C1172.70966,631.054541 1251.60414,669.736947 1275.60718,792.970559 L1247.56024,796.977471 C1240.18087,798.032829 1233.77036,802.6086 1230.42724,809.272102 C1227.08221,815.93752 1227.1971,823.790454 1230.76041,830.340951 C1230.87721,830.557385 1242.55897,852.547517 1251.11972,888.381798 C1257.36173,914.50334 1262.92976,952.551766 1258.71928,996.939999 L1238.14743,982.850686 C1230.45214,977.581558 1220.32322,977.541336 1212.58772,982.745341 C1204.85221,987.951262 1201.07254,997.353715 1203.05237,1006.46695 C1203.48701,1008.47232 1244.90642,1206.16324 1138.12966,1310.82371 C1098.0429,1342.02476 1054.18221,1367.78238 1007.07414,1387.71351 C934.927167,1418.23845 858.272919,1433.71639 779.244408,1433.71639 C685.168043,1433.71639 594.095888,1411.60176 511.856377,1369.22847 C489.159183,1357.53335 482.503586,1328.19785 497.907578,1307.8281 C564.241439,1220.10508 594.645416,1152.62347 596.121671,1149.30225 C601.230167,1137.82356 596.069974,1124.38163 584.596919,1119.26382 C573.12578,1114.14409 559.672896,1119.2983 554.547167,1130.77316 C554.445687,1130.99917 544.188485,1153.82056 522.998183,1189.3618 C508.519005,1213.65035 486.580043,1247.74357 457.164067,1286.15017 C442.809346,1304.89378 415.631687,1307.64997 397.732803,1292.25631 C367.771129,1266.48719 340.457524,1237.74545 316.171105,1206.37393 C280.059322,1159.72367 251.323074,1108.1682 230.764633,1053.13637 C226.366501,1041.35888 213.254439,1035.37916 201.482687,1039.78063 C189.70902,1044.1821 183.731237,1057.2965 188.131284,1069.07399 C210.294268,1128.40195 241.265005,1183.97392 280.18378,1234.24993 C318.723439,1284.03371 364.322702,1327.68453 415.710191,1363.98999 C522.433338,1439.39157 648.142935,1479.24617 779.244408,1479.24617 C864.398136,1479.24617 947.016764,1462.55964 1024.80453,1429.64627 C1073.69904,1408.95857 1119.34426,1382.45779 1161.23278,1350.50018 C1163.0039,1349.56741 1164.68695,1348.39904 1166.21873,1346.96253 C1166.7606,1346.45305 1167.28332,1345.92249 1167.81945,1345.40918 C1187.89155,1329.67075 1207.07904,1312.66244 1225.31875,1294.41682 C1283.24695,1236.46983 1328.72942,1168.9863 1360.50434,1093.83947 C1393.40512,1016.02455 1410.08815,933.379113 1410.08815,848.199673 C1410.08815,773.451228 1397.1465,700.282947 1371.62125,630.730847" id="Fill-6" fill="#FFFFFF"></path>
                <path d="M226.018403,624.235704 C218.66776,624.980775 213.771798,630.184781 214.713845,637.911302 C215.709504,646.087931 224.059636,647.221818 228.656899,646.800441 C235.235907,646.197106 245.397372,646.559107 256.391744,651.734382 C257.957992,652.469877 259.606574,652.820386 261.230264,652.820386 C265.890713,652.820386 270.340543,649.941615 272.010186,645.109187 C273.928744,639.547011 270.92262,633.370008 265.580527,630.901122 C250.134411,623.766443 235.683953,623.255045 226.018403,624.235704" id="Fill-8" fill="#FFFFFF"></path>
                <polygon id="Fill-10" fill="#FFFFFF" points="139.765812 305.926579 228.113308 340.048537 187.277889 254.491773 215.005075 224.480156 279.822471 367.472517 259.514858 389.454988 112.038626 335.940112"></polygon>
                <polygon id="Fill-12" fill="#FFFFFF" points="328.518999 179.204924 292.763356 206.021738 307.257852 225.364856 341.020263 200.043931 360.121596 225.527661 326.357271 250.846671 341.317046 270.802701 377.070774 243.985888 396.172108 269.467703 330.336077 318.845423 243.585464 203.098914 309.417666 153.721194"></polygon>
                <path d="M411.039402,169.005303 L417.358006,165.774107 C423.961905,162.399261 428.329402,158.442148 430.466239,153.906599 C432.597332,149.369136 432.356076,144.534792 429.740557,139.409316 C427.121208,134.285755 423.347278,131.257587 418.420681,130.326727 C413.495998,129.397782 407.728836,130.621691 401.126851,133.996537 L394.808247,137.225817 L411.039402,169.005303 Z M521.046309,202.627355 L479.372239,223.926045 L422.121851,190.704301 L447.430735,240.250572 L413.955533,257.362308 L348.152053,128.53779 L400.246076,101.912511 C407.41865,98.2446164 414.219766,96.0994245 420.65134,95.4692744 C427.075254,94.8448703 432.955386,95.4635283 438.29365,97.3329098 C443.629998,99.206122 448.397673,102.079147 452.608161,105.959646 C456.81482,109.84206 460.316859,114.515514 463.108533,119.983838 C468.115549,129.780852 469.806254,138.934309 468.197882,147.440378 C466.581851,155.952193 461.720355,163.646154 453.599991,170.52226 L521.046309,202.627355 Z" id="Fill-14" fill="#FFFFFF"></path>
                <polygon id="Fill-16" fill="#FFFFFF" points="537.776059 126.051091 465.632912 69.19393 508.620485 56.2825564 545.703036 86.4090948 559.872028 40.8850587 602.857687 27.9717698 573.784447 115.237026 593.753152 181.755212 557.750509 192.571193"></polygon>
                <path d="M989.664091,107.300774 L1061.34004,128.032521 C1059.20704,135.404703 1056.96297,142.014575 1054.60977,147.856392 C1052.25274,153.700125 1049.41128,158.934776 1046.07774,163.564177 C1041.40197,170.068705 1036.04648,175.475738 1030.00551,179.785275 C1023.96837,184.098643 1017.42766,187.266631 1010.3872,189.291156 C1003.34483,191.315681 995.976951,192.281017 988.285486,192.18525 C980.594021,192.089483 972.816393,190.905796 964.958347,188.632276 C954.145874,185.506425 944.803912,180.871278 936.926719,174.732582 C929.05144,168.593885 922.851548,161.374932 918.328959,153.075721 C913.80637,144.77651 911.068308,135.596238 910.118602,125.53682 C909.165067,115.473572 910.269866,104.975539 913.432998,94.0388911 C916.55592,83.2286563 921.17616,73.8108809 927.287974,65.7913109 C933.399788,57.771741 940.602998,51.5008854 948.899517,46.9749137 C957.196036,42.4546879 966.402052,39.7253143 976.525222,38.7887082 C986.642649,37.8559328 997.290455,39.0032274 1008.47056,42.2382534 C1022.96314,46.4309543 1034.77127,53.2400231 1043.89304,62.6692906 C1053.0148,72.0985581 1058.87004,84.3127444 1061.45493,99.3061033 L1023.08377,103.58691 C1022.09002,95.0444498 1019.5262,88.3752015 1015.38656,83.582996 C1011.24691,78.792706 1005.92205,75.4542511 999.415804,73.5714622 C994.006695,72.0066213 988.802463,71.6005672 983.793533,72.3475536 C978.784602,73.0964554 974.173936,74.8930536 969.957703,77.7335175 C965.741471,80.5778121 961.977114,84.381697 958.672292,89.1490028 C955.361726,93.918224 952.767269,99.5589295 950.885091,106.069204 C949.180982,111.968481 948.365308,117.658986 948.447641,123.140717 C948.52423,128.624364 949.569672,133.652157 951.572478,138.226013 C953.575284,142.799869 956.560347,146.758897 960.520005,150.101182 C964.47775,153.441552 969.467533,155.983222 975.48744,157.724275 C979.048835,158.754733 982.604486,159.352322 986.150564,159.511296 C989.700471,159.674101 993.049331,159.245063 996.208633,158.226097 C999.360277,157.209046 1002.20748,155.536945 1004.74449,153.205964 C1007.27959,150.876899 1009.44132,147.772117 1011.22968,143.897364 L981.564788,135.316597 L989.664091,107.300774 Z" id="Fill-18" fill="#FFFFFF"></path>
                <path d="M1118.32122,166.18744 C1115.44913,171.175011 1113.73928,176.317725 1113.20124,181.613668 C1112.65937,186.913441 1113.09976,192.038917 1114.53006,196.992012 C1115.9527,201.947022 1118.30399,206.513216 1121.58392,210.688679 C1124.85619,214.866057 1128.87903,218.325179 1133.64671,221.069876 C1138.40864,223.814572 1143.41757,225.559456 1148.67733,226.298781 C1153.92752,227.038106 1159.08388,226.798687 1164.14259,225.576694 C1169.19173,224.356616 1173.87707,222.184609 1178.18713,219.056843 C1182.49527,215.930992 1186.0873,211.874281 1188.96131,206.884794 C1191.83148,201.897223 1193.53559,196.756424 1194.07746,191.458566 C1194.61933,186.160708 1194.14831,181.017994 1192.66631,176.030423 C1191.18622,171.046683 1188.80621,166.465166 1185.53203,162.287787 C1182.2521,158.112325 1178.23117,154.651287 1173.46732,151.904676 C1168.70348,149.159979 1163.69072,147.418926 1158.4367,146.677686 C1153.18077,145.940276 1148.05313,146.195018 1143.05569,147.447657 C1138.05441,148.700295 1133.39971,150.88954 1129.09348,154.015391 C1124.7796,157.141242 1121.19331,161.199869 1118.32122,166.18744 M1084.24862,146.555103 C1089.60795,137.244588 1096.31907,129.562119 1104.38391,123.503868 C1112.443,117.447531 1121.24501,113.182047 1130.7861,110.707415 C1140.32528,108.234698 1150.30676,107.750115 1160.73055,109.251749 C1171.15433,110.755299 1181.46323,114.442347 1191.65724,120.316725 C1201.73829,126.124066 1210.0731,133.180215 1216.65977,141.475596 C1223.24452,149.772891 1227.89157,158.685014 1230.59325,168.21388 C1233.29493,177.74083 1234.04934,187.512945 1232.86029,197.52831 C1231.66359,207.543675 1228.3894,217.204699 1223.03199,226.515215 C1217.67266,235.825731 1210.95579,243.510115 1202.8967,249.566451 C1194.83378,255.624703 1186.00688,259.874864 1176.40834,262.31502 C1166.81364,264.757091 1156.77663,265.212944 1146.29924,263.676834 C1135.81993,262.138808 1125.53975,258.468997 1115.45679,252.659741 C1105.26086,246.785363 1096.90115,239.715807 1090.37001,231.452987 C1083.83887,223.190168 1079.24927,214.306775 1076.60311,204.812386 C1073.95313,195.314166 1073.22553,185.561204 1074.41841,175.543924 C1075.60937,165.528559 1078.88738,155.865619 1084.24862,146.555103" id="Fill-20" fill="#FFFFFF"></path>
                <path d="M1273.26662,270.225223 C1269.27824,274.375787 1266.37934,278.953473 1264.58141,283.965944 C1262.77773,288.976499 1261.97163,294.056007 1262.16502,299.208298 C1262.35458,304.362505 1263.53788,309.361568 1265.71301,314.201657 C1267.88432,319.045577 1270.95746,323.372352 1274.91903,327.185814 C1278.88443,330.99736 1283.32277,333.8972 1288.24937,335.881502 C1293.17022,337.863889 1298.23085,338.875194 1303.43125,338.907755 C1308.63166,338.942231 1313.69611,337.961572 1318.6342,335.965778 C1323.56846,333.969983 1328.0336,330.897762 1332.02007,326.749114 C1336.01036,322.600466 1338.9016,318.020865 1340.70719,313.010309 C1342.50512,307.997839 1343.28825,302.895347 1343.05082,297.699002 C1342.81148,292.502658 1341.6052,287.482526 1339.43581,282.638606 C1337.25877,277.796602 1334.18754,273.465995 1330.2298,269.656365 C1326.26439,265.842903 1321.82031,262.944979 1316.89946,260.960676 C1311.97669,258.976374 1306.93712,257.989968 1301.78459,257.997586 C1296.63014,258.009122 1291.58483,259.012765 1286.65057,261.00856 C1281.71249,263.004354 1277.25691,266.078491 1273.26662,270.225223 M1244.9248,242.962133 C1252.3731,235.218374 1260.73472,229.378472 1270.01924,225.442428 C1279.29801,221.504468 1288.86783,219.487605 1298.72677,219.386091 C1308.57996,219.282663 1318.38337,221.220997 1328.14083,225.189602 C1337.89446,229.162037 1347.01048,235.222204 1355.4889,243.379679 C1363.87541,251.447133 1370.26294,260.301796 1374.65916,269.943667 C1379.05155,279.581708 1381.41432,289.349992 1381.74174,299.24852 C1382.07108,309.148964 1380.45122,318.815735 1376.88216,328.246918 C1373.31119,337.680016 1367.80635,346.268445 1360.35997,354.01412 C1352.91742,361.757879 1344.55005,367.595866 1335.26745,371.533825 C1325.98293,375.469869 1316.39205,377.465664 1306.49291,377.52434 C1296.58993,377.580585 1286.73865,375.602028 1276.94098,371.58554 C1267.13949,367.569051 1258.04453,361.528037 1249.65993,353.462499 C1241.1796,345.303108 1234.76908,336.427377 1230.42073,326.833389 C1226.07239,317.239402 1223.75748,307.513255 1223.47601,297.65878 C1223.19072,287.802389 1224.83356,278.160518 1228.40453,268.72742 C1231.97167,259.294322 1237.48034,250.705893 1244.9248,242.962133" id="Fill-22" fill="#FFFFFF"></path>
                <path d="M1366.31228,434.603041 L1371.01677,441.841148 C1374.56859,447.311387 1378.59718,451.632417 1383.10254,454.806151 C1387.60215,457.981801 1392.3143,460.065702 1397.23132,461.063599 C1402.15026,462.061497 1407.17834,461.996375 1412.31747,460.868234 C1417.45277,459.738177 1422.49042,457.571917 1427.42277,454.365621 C1432.24788,451.228278 1436.2286,447.495261 1439.36301,443.168485 C1442.50125,438.84171 1444.60937,434.227632 1445.69502,429.326252 C1446.77876,424.424871 1446.7845,419.270665 1445.71608,413.865548 C1444.64192,408.462345 1442.36531,403.076382 1438.87859,397.715317 L1434.17601,390.475295 L1366.31228,434.603041 Z M1440.38548,341.587904 L1470.69946,388.240081 C1476.06262,396.497155 1479.43637,405.328833 1480.81689,414.727455 C1482.19741,424.127992 1481.88531,433.329333 1479.88442,442.335308 C1477.88161,451.341283 1474.21682,459.787976 1468.8977,467.673472 C1463.57284,475.557052 1456.89235,482.11521 1448.85241,487.344115 C1440.91586,492.502152 1432.28426,495.940206 1422.9557,497.658274 C1413.62523,499.378259 1404.40964,499.339952 1395.31851,497.549099 C1386.22355,495.758247 1377.6628,492.32594 1369.63625,487.246432 C1361.60971,482.16884 1354.87752,475.445962 1349.44161,467.081629 L1319.12763,420.431367 L1440.38548,341.587904 Z" id="Fill-24" fill="#FFFFFF"></path>
                <polygon id="Fill-26" fill="#FFFFFF" points="253.541671 1319.04113 215.486438 1407.38282 303.856911 1369.27118 333.22119 1398.58178 185.654965 1458.79655 164.150647 1437.32931 224.179306 1289.72862"></polygon>
                <polygon id="Fill-28" fill="#FFFFFF" points="421.804006 1492.55785 383.302642 1468.53553 370.315037 1489.36305 406.668076 1512.04654 389.55806 1539.48584 353.206936 1516.80235 339.807665 1538.29066 378.307115 1562.31489 361.199014 1589.7542 290.308099 1545.52111 368.021192 1420.88737 438.914022 1465.11855"></polygon>
                <polygon id="Fill-30" fill="#FFFFFF" points="438.866536 1630.01045 485.011498 1490.55765 521.247738 1502.55732 559.965467 1609.97972 588.178994 1524.71792 624.23142 1536.65629 578.086459 1676.10717 542.034033 1664.1688 503.318219 1556.74831 475.104691 1642.01011"></polygon>
                <g id="Group-34" transform="translate(663.344435, 1542.346989)">
                    <mask id="mask-4" fill="white">
                        <use xlink:href="#path-3"></use>
                    </mask>
                    <g id="Clip-33"></g>
                    <polygon id="Fill-32" fill="#FFFFFF" mask="url(#mask-4)" points="69.3094537 38.2273192 59.745384 152.380257 21.707384 149.1912 31.2733685 35.0363463 0.0230816323 32.418063 2.72667853 0.192301129 103.255679 8.61984063 100.555911 40.8456025"></polygon>
                </g>
                <path d="M847.21134,1545.85668 L858.446968,1624.93573 C859.052022,1629.18014 859.825573,1633.49734 860.779108,1637.88732 C861.728813,1642.27922 863.264426,1646.15972 865.382116,1649.53073 C867.50172,1652.90558 870.458061,1655.47023 874.249224,1657.2247 C878.038472,1658.98299 883.079953,1659.41202 889.37941,1658.51564 C895.676953,1657.62117 900.371867,1655.80542 903.45841,1653.07222 C906.543038,1650.33901 908.668387,1647.05036 909.828712,1643.212 C910.987123,1639.37746 911.412193,1635.21349 911.103922,1630.73158 C910.793736,1626.25157 910.33803,1621.88649 909.734891,1617.64399 L898.499263,1538.56302 L936.100705,1533.21728 L948.073503,1617.50608 C951.290247,1640.13977 948.464108,1657.39516 939.598914,1669.28182 C930.726061,1681.16848 915.559495,1688.63835 894.095387,1691.69142 C872.625534,1694.74257 855.948247,1691.80251 844.057782,1682.86548 C832.165402,1673.93229 824.609883,1658.15172 821.395053,1635.51803 L809.418426,1551.23115 L847.21134,1545.85668 Z" id="Fill-35" fill="#FFFFFF"></path>
                <path d="M1049.37797,1563.95328 L1056.05271,1561.23732 C1063.02615,1558.4026 1067.79383,1554.78067 1070.34999,1550.37728 C1072.90232,1545.9739 1073.08422,1541.06485 1070.88229,1535.65016 C1068.68418,1530.23547 1065.13044,1526.8453 1060.22874,1525.47199 C1055.32512,1524.1006 1049.38754,1524.83418 1042.41219,1527.67081 L1035.73553,1530.38486 L1049.37797,1563.95328 Z M1157.71906,1607.59262 L1113.69753,1625.49348 L1058.69121,1586.87428 L1079.96001,1639.21121 L1044.59689,1653.58974 L989.301441,1517.50988 L1044.32883,1495.13476 C1051.90541,1492.05488 1058.97076,1490.47855 1065.53253,1490.40576 C1072.08665,1490.33298 1077.9821,1491.47644 1083.21888,1493.83424 C1088.44992,1496.19395 1093.02421,1499.519 1096.94366,1503.81513 C1100.86119,1508.10934 1103.99177,1513.1448 1106.34115,1518.91958 C1110.54589,1529.27013 1111.45922,1538.67641 1109.08304,1547.14226 C1106.70494,1555.61002 1101.11394,1562.96496 1092.29853,1569.21092 L1157.71906,1607.59262 Z" id="Fill-37" fill="#FFFFFF"></path>
                <polygon id="Fill-39" fill="#FFFFFF" points="1225.58911 1428.37122 1188.11787 1453.9737 1201.95944 1474.24385 1237.3398 1450.0683 1255.57184 1476.77403 1220.19532 1500.94957 1234.47345 1521.86136 1271.94469 1496.25697 1290.17865 1522.96461 1221.18715 1570.10328 1138.36364 1448.80609 1207.35515 1401.66741"></polygon>
                <path d="M1331.97239,1334.7698 C1326.65902,1335.43442 1321.98134,1336.70238 1317.9336,1338.57368 C1313.88586,1340.45264 1310.51403,1342.7932 1307.81809,1345.60493 C1304.4003,1349.1694 1302.45876,1352.88326 1301.99157,1356.75227 C1301.52055,1360.61936 1302.64449,1363.85821 1305.35958,1366.46309 C1307.2341,1368.2616 1309.31924,1369.18289 1311.615,1369.22694 C1313.91076,1369.27291 1316.38076,1368.80748 1319.02308,1367.83257 C1321.66924,1366.85957 1324.41687,1365.53989 1327.27556,1363.87162 C1330.13234,1362.20527 1333.01592,1360.60595 1335.92248,1359.07559 C1347.55062,1352.95604 1357.86718,1350.21518 1366.87981,1350.85299 C1375.89052,1351.49463 1384.4283,1355.67775 1392.48548,1363.41002 C1397.91948,1368.62552 1401.96721,1374.25856 1404.61337,1380.31107 C1407.26527,1386.36549 1408.47538,1392.65742 1408.24369,1399.18301 C1408.01201,1405.71052 1406.31556,1412.36062 1403.15052,1419.12947 C1399.98164,1425.90214 1395.29821,1432.51968 1389.09832,1438.98781 C1376.24475,1452.39143 1360.35441,1460.98752 1341.42541,1464.78183 L1330.544,1431.66352 C1338.15122,1431.04677 1344.78193,1429.5777 1350.42463,1427.25438 C1356.06925,1424.93298 1360.77948,1421.80138 1364.55724,1417.86725 C1368.87113,1413.36618 1371.05009,1409.02983 1371.10179,1404.8467 C1371.15348,1400.66741 1369.8687,1397.31746 1367.24361,1394.80069 C1365.65247,1393.27224 1364.00197,1392.22646 1362.28829,1391.66526 C1360.57844,1391.10407 1358.60052,1391.00638 1356.35838,1391.37605 C1354.11431,1391.74379 1351.56198,1392.57697 1348.69755,1393.87558 C1345.8312,1395.1761 1342.44787,1396.83288 1338.53991,1398.84016 C1333.99817,1401.32437 1329.41048,1403.62471 1324.7711,1405.74309 C1320.13171,1407.86146 1315.40616,1409.17348 1310.59828,1409.68679 C1305.78656,1410.20202 1300.88677,1409.64082 1295.89124,1407.99554 C1290.90146,1406.356 1285.77956,1403.01754 1280.53321,1397.98017 C1275.28493,1392.94663 1271.36357,1387.52045 1268.76145,1381.69204 C1266.16125,1375.86746 1264.842,1369.92604 1264.80886,1363.86204 C1264.7769,1357.80188 1266.09232,1351.68808 1268.76528,1345.52257 C1271.43824,1339.35897 1275.47066,1333.46353 1280.86445,1327.84197 C1285.90019,1322.59392 1291.8818,1317.80937 1298.81695,1313.48451 C1305.7521,1309.16157 1313.14103,1305.72351 1320.98568,1303.17035 L1331.97239,1334.7698 Z" id="Fill-41" fill="#FFFFFF"></path>
            </g>
        </g>
    </g>
</svg>