<?xml version="1.0" encoding="UTF-8"?>
<svg width="2068px" height="2068px" viewBox="0 0 2068 2068" version="1.1" xmlns="http://www.w3.org/2000/svg" xmlns:xlink="http://www.w3.org/1999/xlink">
    <!-- Generator: Sketch 63.1 (92452) - https://sketch.com -->
    <title>unicorn-black-inset</title>
    <desc>Created with Sketch.</desc>
    <defs>
        <polygon id="path-1" points="0.0646022264 0.103565671 1214.16494 0.103565671 1214.16494 1240.17513 0.0646022264 1240.17513"></polygon>
    </defs>
    <g id="unicorn-black-inset" stroke="none" stroke-width="1" fill="none" fill-rule="evenodd">
        <g id="unicorn" transform="translate(259.000000, 197.000000)">
            <g id="Page-1">
                <path d="M285.290056,484.613758 C289.433999,487.882343 294.365575,489.467327 299.263092,489.467327 C305.940233,489.467327 312.552803,486.519428 317.009671,480.871239 C399.935367,375.7742 517.154323,302.042667 647.07262,273.259678 C659.25113,270.560807 666.935165,258.503155 664.237344,246.327019 C661.539524,234.150883 649.482352,226.470027 637.301713,229.16535 C566.703538,244.806598 499.856199,272.414685 438.615955,311.223369 C378.518844,349.307671 325.673634,396.974242 281.547025,452.898478 C273.821835,462.690044 275.497152,476.888914 285.290056,484.613758" id="Fill-1" fill="#000000"></path>
                <path d="M256.54145,740.433012 C268.118946,740.433012 276.280527,742.298241 279.523305,745.6846 C281.833695,748.09684 283.297557,752.980917 283.845352,759.955128 C273.990715,762.06371 258.02447,764.895254 236.90739,766.697339 C205.612813,769.36783 157.310329,770.121301 98.7870654,759.932425 L104.284176,728.447017 C130.191627,732.176057 233.636939,740.433012 256.54145,740.433012 M266.904146,802.130306 C242.238459,823.315449 195.551688,832.315232 147.96446,825.055809 C114.186356,819.904258 97.633999,814.041805 89.9790573,810.378038 L94.9028282,782.178244 C132.675155,788.783524 166.510735,791.101403 195.333847,791.101403 C233.355236,791.101403 262.665119,787.088571 280.843122,783.637649 C278.041703,790.413205 273.415246,796.538166 266.904146,802.130306 M574.890664,1076.34594 C621.598013,1102.56202 661.935469,1125.20373 715.889752,1125.20373 C784.269072,1125.20373 827.375307,1094.0532 851.496746,1067.92013 C855.911749,1063.1368 859.864815,1058.33999 863.386457,1053.66592 C878.813421,1033.1931 869.388079,1003.57292 845.119047,995.311705 L845.119047,995.311705 L845.155945,995.203864 C845.079311,995.422385 837.228525,1017.30495 817.126143,1038.5504 C791.075357,1066.08115 757.01484,1080.04022 715.889752,1080.04022 C673.747126,1080.04022 641.555641,1061.97183 597.001865,1036.96329 C517.352296,992.256674 408.272924,931.031896 163.17926,931.009192 C111.375003,930.39549 73.0861024,918.243477 55.3544247,896.787312 C44.2580233,883.361068 44.5475317,870.550655 45.7069843,864.109264 C47.63704,853.391824 53.3739888,847.478998 58.6617739,844.24163 C60.4030816,845.481096 62.3246224,846.712757 64.445555,847.927391 C80.3564521,857.039982 106.164562,864.366097 141.153208,869.702823 C202.122392,879.002718 261.585849,866.237002 296.336787,836.38908 C317.876067,817.889328 329.261267,793.7648 329.261267,766.625681 C329.261267,719.277668 304.794972,695.270204 256.54145,695.270204 C231.893502,695.270204 120.027613,685.665942 109.210076,683.515501 C108.1748,683.308332 106.933036,683.082716 105.520264,682.827303 C67.0873188,675.883599 65.5957831,664.381471 67.4790066,652.208173 C68.8300456,643.476574 72.6184896,640.076025 75.7676026,638.088765 C85.3447947,632.045395 102.240588,632.447671 113.979868,635.967413 C124.036026,638.983423 135.414131,634.769807 140.858023,624.25386 C141.778348,622.475187 142.283568,620.519854 142.656097,618.55175 C147.338611,593.843318 181.892995,567.171748 229.548343,567.171748 C253.917425,567.171748 284.922494,588.160365 314.905768,608.458654 C346.575003,629.898501 379.323507,652.068405 412.357973,655.468954 C451.288332,659.478239 554.145403,646.379066 630.587674,635.192658 C604.997405,700.482771 633.912762,774.63077 696.886508,805.381154 C766.39335,839.32137 849.646163,806.956205 880.632783,736.09098 L890.713066,713.03777 C939.25113,728.92379 1004.08539,750.236639 1014.42609,753.984834 C1040.98636,763.610381 1048.37308,787.924341 1050.00369,795.146871 C1052.37368,805.638696 1061.68975,812.75977 1072.01342,812.75977 C1074.1748,812.75977 1076.3823,812.447598 1078.57561,811.788489 C1090.15878,808.307059 1096.59254,795.821589 1093.79893,784.055534 C1085.7672,750.222449 1061.92462,723.159955 1029.81758,711.524445 C1018.35787,707.371135 950.148849,684.976325 908.89036,671.467072 L912.738409,662.665943 C924.305261,636.213604 912.234607,605.3944 885.778652,593.829838 L741.583619,530.796589 C742.208049,486.367386 743.564764,398.917302 745.667248,309.675775 C747.639169,225.952602 749.639473,167.365678 751.472316,126.362565 C762.678702,164.269497 777.9304,218.028393 798.653664,294.268656 C830.757871,412.380439 860.460862,527.307355 860.756756,528.453878 C863.43258,538.810192 872.991323,545.861027 883.692489,545.36439 C894.378044,544.858529 903.242818,536.925807 904.927359,526.363034 L926.539017,390.829912 C926.624876,390.292834 926.690867,389.752918 926.736989,389.210874 C926.741956,389.154825 927.486305,383.064628 930.178449,377.586715 C933.628424,370.565678 937.002473,370.565678 939.466133,370.565678 C946.966386,370.565678 959.402473,378.670804 970.276776,396.778922 C980.568515,413.916468 992.837141,445.305386 992.837141,497.516191 C992.837141,497.678663 992.83927,497.840425 992.842818,498.002186 C994.320162,566.712713 949.686913,594.389619 941.819807,597.983857 L941.953208,597.907942 L941.953208,597.907942 C954.611394,620.433297 991.933847,612.841127 1008.25133,592.806764 C1026.77277,570.067146 1038.00683,540.317132 1038.00683,497.281352 C1038.00683,447.865198 1027.94642,405.076318 1009.00136,373.529186 C990.633898,342.944821 965.289143,325.40287 939.466133,325.40287 C917.558581,325.40287 899.863092,336.863138 889.637344,357.672255 C883.896847,369.354591 882.249204,380.539581 881.831262,384.355177 L877.244541,413.121848 C866.104856,370.988529 852.608657,320.412371 838.842108,269.938378 C819.156959,197.76274 802.764257,139.862595 790.120264,97.8477605 C782.541247,72.6639753 776.208961,52.8743843 771.298672,39.0274175 C763.210887,16.2211076 758.673837,7.28021115 749.313066,2.54086911 C743.30222,-0.502810135 736.297962,-0.825624601 730.09553,1.65472567 C714.902727,7.73073244 713.29553,24.2247779 711.259747,45.1076812 C709.831363,59.7620389 708.432783,80.8783619 707.102321,107.869199 C704.882048,152.909266 702.788789,215.242256 700.882149,293.136322 C698.625687,385.275375 697.162534,477.908228 696.474952,526.21759 C683.173887,530.826387 671.759595,540.752754 665.676371,554.665703 L658.797709,570.396346 L647.152093,565.328513 L652.57257,552.926762 C664.144389,526.470165 656.781794,497.70988 636.130907,488.686683 L518.067552,437.073971 C497.42518,428.050775 471.307694,442.177987 459.735874,468.625361 L426.671607,544.255469 C421.206427,556.765061 417.376118,569.465505 415.108302,582.020504 C430.312458,587.900694 461.867451,597.394277 509.50293,591.432497 C531.599939,588.677577 579.054475,582.138278 598.965271,579.374135 C604.485089,578.614989 607.891069,578.136798 608.044339,578.118351 C617.540639,576.796586 626.482757,581.589849 630.886406,589.49561 C551.231161,601.243219 450.710735,614.017448 416.98372,610.543113 C395.244339,608.305406 367.27627,589.371451 340.229235,571.06184 C304.606224,546.945826 267.771252,522.00894 229.548343,522.00894 C196.965879,522.00894 166.804501,530.915782 142.324724,547.766697 C126.098773,558.936787 113.430654,573.203767 105.667856,588.657002 C88.0121034,587.072728 68.0885352,589.530375 51.6610644,599.895202 C35.8608616,609.865558 25.8948201,625.567111 22.8407907,645.302782 C18.4939078,673.394735 28.922595,696.957353 52.2046021,711.651442 C54.9449975,713.38045 57.7471262,714.899452 60.5584795,716.265915 L45.8716067,800.38356 C42.4968474,801.770598 38.8198074,803.555656 35.0469742,805.85225 C12.0764724,819.835438 3.99081602,840.899259 1.25254942,856.107013 C-3.0808515,880.171945 3.9468221,905.484856 20.5339483,925.556111 C54.3120527,966.426551 116.535063,975.639888 162.786153,976.171291 C162.872722,976.172 162.95929,976.17271 163.045859,976.17271 C266.824673,976.17271 353.604095,987.332157 428.341956,1010.28888 C492.092691,1029.8713 536.080933,1054.56199 574.890664,1076.34594" id="Fill-3" fill="#000000"></path>
                <g id="Group-7" transform="translate(185.200203, 226.090738)">
                    <mask id="mask-2" fill="white">
                        <use xlink:href="#path-1"></use>
                    </mask>
                    <g id="Clip-6"></g>
                    <path d="M1175.99099,398.499417 C1151.51547,331.837875 1116.03934,270.18315 1070.54608,215.247932 C1025.4218,160.758269 971.89185,114.612828 911.444916,78.0922247 C849.748414,40.8174414 782.707359,14.7283568 712.18369,0.549352177 C699.951252,-1.90332828 688.048059,6.01094724 685.589366,18.2360375 C683.130674,30.4625467 691.050289,42.3683698 703.279179,44.8267261 C768.681814,57.9762719 830.859412,82.1724576 888.084856,116.746242 C944.186325,150.640342 993.86965,193.4725 1035.75541,244.051496 C1077.96899,295.026383 1110.88567,352.227688 1133.58866,414.063331 C1157.08354,478.05509 1168.99596,545.395607 1168.99596,614.214685 C1168.99596,692.631639 1153.64137,768.690984 1123.35723,840.279881 C1104.37457,885.15393 1080.06722,927.058795 1050.76656,965.530475 C1056.44461,941.381115 1060.0287,915.527578 1061.43295,888.253658 C1062.87766,860.212787 1061.84522,834.589833 1060.06489,813.833217 L1068.15196,819.369308 C1074.39058,823.640392 1082.3549,824.50667 1089.36554,821.676544 C1096.3769,818.84571 1101.50716,812.695208 1103.03204,805.289631 C1121.3846,716.162331 1102.65242,642.504583 1088.48212,603.94138 L1109.85181,600.889187 C1122.08425,599.142442 1130.64106,587.890052 1129.05586,575.636582 C1118.05455,490.642726 1083.5328,436.333981 1056.50847,405.741103 C1047.5848,395.638074 1038.89813,387.373314 1031.04025,380.720499 L1039.41329,376.352925 C1050.25069,370.69977 1054.62241,357.451606 1049.27786,346.459596 C1007.32327,260.170225 908.013391,238.833963 903.806295,237.967685 C891.591597,235.45257 879.617446,243.310797 877.101987,255.525954 C874.586528,267.741111 882.420993,279.676023 894.63853,282.191138 C895.370106,282.345805 960.747197,296.725594 997.351556,347.354253 L976.963923,357.990103 C969.3622,361.9554 964.661946,369.883156 964.830826,378.454412 C964.998996,387.025668 970.007207,394.761864 977.758652,398.42563 C978.592408,398.820103 1056.88597,437.191746 1080.70726,559.430587 L1052.87401,563.406526 C1045.55044,564.452303 1039.18906,568.991571 1035.86965,575.601818 C1032.55024,582.212065 1032.66448,590.002181 1036.20031,596.49962 C1036.31669,596.715303 1047.90908,618.528337 1056.40559,654.072693 C1062.5995,679.984407 1068.12571,717.72603 1063.9477,761.756504 L1043.5324,747.780411 C1035.89661,742.553655 1025.84471,742.513214 1018.16707,747.676827 C1010.48942,752.841149 1006.73929,762.165875 1008.70341,771.206809 C1009.13483,773.194778 1050.23934,969.29215 944.274313,1073.10857 C904.492458,1104.05974 860.966153,1129.6082 814.216229,1149.37934 C742.616837,1179.65934 666.547096,1195.01183 588.119422,1195.01183 C494.758652,1195.01183 404.378115,1173.07534 322.76372,1131.04277 C300.239544,1119.44274 293.635489,1090.34261 308.920537,1070.13868 C374.751049,983.122089 404.922362,916.183849 406.389062,912.891142 C411.458297,901.50395 406.337263,888.170649 394.952063,883.092883 C383.568282,878.015118 370.216837,883.128357 365.129863,894.509873 C365.029103,894.734779 354.850188,917.372232 333.821804,952.627119 C319.452823,976.719011 297.679382,1010.53862 268.487998,1048.63498 C254.241064,1067.22767 227.270664,1069.96202 209.507765,1054.69254 C179.774263,1029.1306 152.669042,1000.62076 128.566761,969.500738 C92.7294577,923.228299 64.2128839,872.087393 43.8103497,817.499822 C39.4443082,805.816776 26.4327522,799.885504 14.7495286,804.251658 C3.06559554,808.617103 -2.86648758,821.626171 1.49955398,833.308507 C23.4936746,892.158649 54.230522,947.282589 92.8536341,997.152812 C131.099959,1046.53491 176.351252,1089.83391 227.349427,1125.84794 C333.260527,1200.64157 458.013087,1240.17535 588.119422,1240.17535 C672.624643,1240.17535 754.615114,1223.6217 831.810958,1190.97487 C880.334121,1170.45381 925.632955,1144.16607 967.20224,1112.4664 C968.960578,1111.54052 970.630928,1110.38194 972.150846,1108.95588 C972.688708,1108.45144 973.2067,1107.92571 973.739595,1107.4163 C993.658905,1091.80556 1012.69905,1074.93407 1030.80042,1056.83518 C1088.2884,999.355045 1133.42545,932.415386 1164.95774,857.874334 C1197.60974,780.687621 1214.16494,698.708356 1214.16494,614.214685 C1214.16494,540.068813 1201.32226,467.491608 1175.99099,398.499417" id="Fill-5" fill="#000000" mask="url(#mask-2)"></path>
                </g>
                <path d="M224.299797,618.147203 C217.004612,618.886484 212.145413,624.047968 213.080639,631.712506 C214.069792,639.823308 222.35555,640.947837 226.917435,640.529243 C233.447694,639.93044 243.531526,640.290147 254.442727,645.423252 C255.996706,646.154728 257.632995,646.500956 259.24374,646.500956 C263.869488,646.500956 268.28591,643.645289 269.940649,638.852736 C271.846579,633.335092 268.862088,627.207293 263.56224,624.759579 C248.233198,617.681073 233.891181,617.174503 224.299797,618.147203" id="Fill-8" fill="#000000"></path>
            </g>
        </g>
    </g>
</svg>