<?xml version="1.0" encoding="UTF-8"?>
<svg width="2068px" height="2068px" viewBox="0 0 2068 2068" version="1.1" xmlns="http://www.w3.org/2000/svg" xmlns:xlink="http://www.w3.org/1999/xlink">
    <!-- Generator: Sketch 63.1 (92452) - https://sketch.com -->
    <title>unicorn-white</title>
    <desc>Created with Sketch.</desc>
    <defs>
        <polygon id="path-1" points="0.0910429948 0.145973571 1711.1053 0.145973571 1711.1053 1748 0.0910429948 1748"></polygon>
    </defs>
    <g id="unicorn-white" stroke="none" stroke-width="1" fill="none" fill-rule="evenodd">
        <g id="unicorn" transform="translate(48.000000, 1.000000)">
            <g id="Page-1">
                <path d="M402.0552,683.0526 C407.8952,687.6596 414.8452,689.8936 421.7472,689.8936 C431.1572,689.8936 440.4762,685.7386 446.7572,677.7776 C563.6232,529.6456 728.8182,425.7226 911.9102,385.1536 C929.0732,381.3496 939.9022,364.3546 936.1002,347.1926 C932.2982,330.0306 915.3062,319.2046 898.1402,323.0036 C798.6472,345.0496 704.4402,383.9626 618.1352,438.6626 C533.4412,492.3416 458.9672,559.5266 396.7802,638.3506 C385.8932,652.1516 388.2542,672.1646 402.0552,683.0526" id="Fill-1" fill="#FFFFFF"></path>
                <path d="M361.5402,1043.6243 C377.8562,1043.6243 389.3582,1046.2533 393.9282,1051.0263 C397.1842,1054.4263 399.2472,1061.3103 400.0192,1071.1403 C386.1312,1074.1123 363.6302,1078.1033 333.8702,1080.6433 C289.7672,1084.4073 221.6952,1085.4693 139.2192,1071.1083 L146.9662,1026.7303 C183.4772,1031.9863 329.2612,1043.6243 361.5402,1043.6243 M376.1442,1130.5853 C341.3832,1160.4453 275.5882,1173.1303 208.5242,1162.8983 C160.9212,1155.6373 137.5942,1147.3743 126.8062,1142.2103 L133.7452,1102.4633 C186.9772,1111.7733 234.6612,1115.0403 275.2812,1115.0403 C328.8642,1115.0403 370.1702,1109.3843 395.7882,1104.5203 C391.8402,1114.0703 385.3202,1122.7033 376.1442,1130.5853 M810.1852,1517.0863 C876.0092,1554.0373 932.8562,1585.9503 1008.8932,1585.9503 C1105.2592,1585.9503 1166.0082,1542.0443 1200.0022,1505.2103 C1206.2242,1498.4683 1211.7952,1491.7073 1216.7582,1485.1193 C1238.4992,1456.2633 1225.2162,1414.5143 1191.0142,1402.8703 L1191.0142,1402.8703 L1191.0662,1402.7183 C1190.9582,1403.0263 1179.8942,1433.8693 1151.5642,1463.8143 C1114.8512,1502.6183 1066.8502,1522.2933 1008.8932,1522.2933 C949.5022,1522.2933 904.1352,1496.8263 841.3462,1461.5773 C729.0972,1398.5643 575.3732,1312.2693 229.9662,1312.2373 C156.9592,1311.3723 102.9992,1294.2443 78.0102,1264.0023 C62.3722,1245.0783 62.7802,1227.0223 64.4142,1217.9433 C67.1342,1202.8373 75.2192,1194.5033 82.6712,1189.9403 C85.1252,1191.6873 87.8332,1193.4233 90.8222,1195.1353 C113.2452,1207.9793 149.6162,1218.3053 198.9252,1225.8273 C284.8482,1238.9353 368.6492,1220.9423 417.6232,1178.8723 C447.9782,1152.7973 464.0232,1118.7943 464.0232,1080.5423 C464.0232,1013.8063 429.5432,979.9683 361.5402,979.9683 C326.8042,979.9683 169.1532,966.4313 153.9082,963.4003 C152.4492,963.1083 150.6992,962.7903 148.7082,962.4303 C94.5452,952.6433 92.4432,936.4313 95.0972,919.2733 C97.0012,906.9663 102.3402,902.1733 106.7782,899.3723 C120.2752,890.8543 144.0862,891.4213 160.6302,896.3823 C174.8022,900.6333 190.8372,894.6943 198.5092,879.8723 C199.8062,877.3653 200.5182,874.6093 201.0432,871.8353 C207.6422,837.0093 256.3392,799.4163 323.4992,799.4163 C357.8422,799.4163 401.5372,828.9993 443.7922,857.6093 C488.4232,887.8283 534.5752,919.0763 581.1302,923.8693 C635.9942,929.5203 780.9492,911.0573 888.6782,895.2903 C852.6142,987.3153 893.3642,1091.8253 982.1122,1135.1673 C1080.0672,1183.0053 1197.3942,1137.3873 1241.0632,1037.5043 L1255.2692,1005.0113 C1323.6732,1027.4023 1415.0432,1057.4423 1429.6162,1062.7253 C1467.0472,1076.2923 1477.4572,1110.5623 1479.7552,1120.7423 C1483.0952,1135.5303 1496.2242,1145.5673 1510.7732,1145.5673 C1513.8192,1145.5673 1516.9302,1145.1273 1520.0212,1144.1983 C1536.3452,1139.2913 1545.4122,1121.6933 1541.4752,1105.1093 C1530.1562,1057.4223 1496.5552,1019.2783 1451.3072,1002.8783 C1435.1572,997.0243 1339.0312,965.4593 1280.8862,946.4183 L1286.3092,934.0133 C1302.6102,896.7293 1285.5992,853.2903 1248.3152,836.9903 L1045.1032,748.1463 C1045.9832,685.5243 1047.8952,562.2653 1050.8582,436.4813 C1053.6372,318.4753 1056.4562,235.8983 1059.0392,178.1053 C1074.8322,231.5343 1096.3262,307.3063 1125.5312,414.7653 C1170.7752,581.2413 1212.6352,743.2283 1213.0522,744.8443 C1216.8232,759.4413 1230.2942,769.3793 1245.3752,768.6793 C1260.4342,767.9663 1272.9272,756.7853 1275.3012,741.8973 L1305.7582,550.8663 C1305.8792,550.1093 1305.9722,549.3483 1306.0372,548.5843 C1306.0442,548.5053 1307.0932,539.9213 1310.8872,532.2003 C1315.7492,522.3043 1320.5042,522.3043 1323.9762,522.3043 C1334.5462,522.3043 1352.0722,533.7283 1367.3972,559.2513 C1381.9012,583.4063 1399.1912,627.6483 1399.1912,701.2383 C1399.1912,701.4673 1399.1942,701.6953 1399.1992,701.9233 C1401.2812,798.7693 1338.3802,837.7793 1327.2932,842.8453 L1327.4812,842.7383 L1327.4812,842.7383 C1345.3202,874.4873 1397.9182,863.7863 1420.9142,835.5483 C1447.0162,803.4973 1462.8482,761.5653 1462.8482,700.9073 C1462.8482,631.2563 1448.6702,570.9463 1421.9712,526.4813 C1396.0862,483.3733 1360.3682,458.6483 1323.9762,458.6483 C1293.1022,458.6483 1268.1642,474.8013 1253.7532,504.1313 C1245.6632,520.5973 1243.3412,536.3623 1242.7522,541.7403 L1236.2882,582.2863 C1220.5892,522.9003 1201.5692,451.6143 1182.1682,380.4723 C1154.4262,278.7423 1131.3242,197.1333 1113.5052,137.9143 C1102.8242,102.4183 1093.9002,74.5253 1086.9802,55.0083 C1075.5822,22.8633 1069.1882,10.2613 1055.9962,3.5813 C1047.5252,-0.7087 1037.6542,-1.1637 1028.9132,2.3323 C1007.5022,10.8963 1005.2372,34.1443 1002.3682,63.5783 C1000.3552,84.2333 998.3842,113.9963 996.5092,152.0393 C993.3802,215.5223 990.4302,303.3793 987.7432,413.1693 C984.5632,543.0373 982.5012,673.6013 981.5322,741.6923 C962.7872,748.1883 946.7012,762.1793 938.1282,781.7893 L928.4342,803.9613 L912.0222,796.8183 L919.6612,779.3383 C935.9692,742.0483 925.5932,701.5113 896.4902,688.7933 L730.1052,616.0463 C701.0142,603.3283 664.2072,623.2403 647.8992,660.5173 L601.3022,767.1163 C593.6002,784.7483 588.2022,802.6493 585.0062,820.3453 C606.4332,828.6333 650.9032,842.0143 718.0352,833.6113 C749.1762,829.7283 816.0532,820.5113 844.1132,816.6153 C851.8922,815.5453 856.6922,814.8713 856.9082,814.8453 C870.2912,812.9823 882.8932,819.7383 889.0992,830.8813 C776.8422,847.4393 635.1802,865.4443 587.6492,860.5473 C557.0122,857.3933 517.5972,830.7063 479.4802,804.8993 C429.2772,770.9083 377.3662,735.7603 323.4992,735.7603 C277.5812,735.7603 235.0752,748.3143 200.5762,772.0653 C177.7092,787.8093 159.8562,807.9183 148.9162,829.6993 C124.0342,827.4663 95.9562,830.9303 72.8052,845.5393 C50.5382,859.5923 36.4932,881.7233 32.1892,909.5403 C26.0632,949.1353 40.7602,982.3463 73.5712,1003.0573 C77.4332,1005.4943 81.3822,1007.6353 85.3442,1009.5613 L64.6462,1128.1233 C59.8902,1130.0783 54.7082,1132.5943 49.3912,1135.8313 C17.0192,1155.5403 5.6242,1185.2293 1.7652,1206.6643 C-4.3418,1240.5833 5.5622,1276.2613 28.9382,1304.5513 C76.5412,1362.1573 164.2312,1375.1433 229.4122,1375.8923 C229.5342,1375.8933 229.6562,1375.8943 229.7782,1375.8943 C376.0322,1375.8943 498.3292,1391.6233 603.6562,1423.9803 C693.4992,1451.5813 755.4912,1486.3823 810.1852,1517.0863" id="Fill-3" fill="#FFFFFF"></path>
                <g id="Group-7" transform="translate(261.000000, 318.670000)">
                    <mask id="mask-2" fill="white">
                        <use xlink:href="#path-1"></use>
                    </mask>
                    <g id="Clip-6"></g>
                    <path d="M1657.3073,561.6763 C1622.8143,467.7183 1572.8183,380.8173 1508.7053,303.3873 C1445.1123,226.5853 1369.6733,161.5443 1284.4863,110.0693 C1197.5383,57.5313 1103.0583,20.7593 1003.6703,0.7743 C986.4313,-2.6827 969.6563,8.4723 966.1913,25.7033 C962.7263,42.9363 973.8873,59.7173 991.1213,63.1823 C1083.2923,81.7163 1170.9183,115.8203 1251.5653,164.5513 C1330.6283,212.3243 1400.6463,272.6953 1459.6753,343.9853 C1519.1663,415.8333 1565.5553,496.4573 1597.5503,583.6133 C1630.6613,673.8083 1647.4493,768.7233 1647.4493,865.7223 C1647.4493,976.2493 1625.8103,1083.4533 1583.1313,1184.3563 C1556.3793,1247.6053 1522.1233,1306.6693 1480.8303,1360.8943 C1488.8323,1326.8563 1493.8833,1290.4163 1495.8623,1251.9743 C1497.8983,1212.4513 1496.4433,1176.3363 1493.9343,1147.0803 L1505.3313,1154.8833 C1514.1233,1160.9033 1525.3473,1162.1243 1535.2273,1158.1353 C1545.1083,1154.1453 1552.3383,1145.4763 1554.4873,1135.0383 C1580.3513,1009.4153 1553.9523,905.5963 1533.9823,851.2423 L1564.0983,846.9403 C1581.3373,844.4783 1593.3963,828.6183 1591.1623,811.3473 C1575.6583,691.5503 1527.0073,615.0033 1488.9223,571.8833 C1476.3463,557.6433 1464.1043,545.9943 1453.0303,536.6173 L1464.8303,530.4613 C1480.1033,522.4933 1486.2643,503.8203 1478.7323,488.3273 C1419.6063,366.7043 1279.6503,336.6313 1273.7213,335.4103 C1256.5073,331.8653 1239.6323,342.9413 1236.0873,360.1583 C1232.5423,377.3753 1243.5833,394.1973 1260.8013,397.7423 C1261.8323,397.9603 1353.9673,418.2283 1405.5533,489.5883 L1376.8213,504.5793 C1366.1083,510.1683 1359.4843,521.3423 1359.7223,533.4233 C1359.9593,545.5043 1367.0173,556.4083 1377.9413,561.5723 C1379.1163,562.1283 1489.4543,616.2123 1523.0253,788.5053 L1483.8003,794.1093 C1473.4793,795.5833 1464.5143,801.9813 1459.8363,811.2983 C1455.1583,820.6153 1455.3193,831.5953 1460.3023,840.7533 C1460.4663,841.0573 1476.8033,871.8023 1488.7773,921.9013 C1497.5063,958.4233 1505.2943,1011.6193 1499.4063,1073.6793 L1470.6353,1053.9803 C1459.8743,1046.6133 1445.7083,1046.5563 1434.8883,1053.8343 C1424.0683,1061.1133 1418.7833,1074.2563 1421.5513,1086.9993 C1422.1593,1089.8013 1480.0873,1366.1963 1330.7523,1512.5233 C1274.6883,1556.1483 1213.3473,1592.1583 1147.4633,1620.0253 C1046.5593,1662.7043 939.3553,1684.3433 828.8283,1684.3433 C697.2563,1684.3433 569.8843,1653.4243 454.8663,1594.1803 C423.1233,1577.8303 413.8163,1536.8143 435.3573,1508.3373 C528.1313,1385.6893 570.6513,1291.3413 572.7183,1286.7003 C579.8623,1270.6503 572.6453,1251.8573 556.6003,1244.7003 C540.5573,1237.5433 521.7413,1244.7503 514.5723,1260.7923 C514.4303,1261.1093 500.0853,1293.0163 470.4503,1342.7073 C450.2003,1376.6643 419.5153,1424.3323 378.3763,1478.0283 C358.2983,1504.2343 320.2893,1508.0883 295.2563,1486.5663 C253.3533,1450.5373 215.1543,1410.3533 181.1873,1366.4903 C130.6823,1301.2703 90.4943,1229.1883 61.7413,1152.2483 C55.5883,1135.7813 37.2513,1127.4213 20.7863,1133.5753 C4.3203,1139.7283 -4.0397,1158.0643 2.1133,1174.5303 C33.1093,1257.4783 76.4263,1335.1743 130.8573,1405.4653 C184.7573,1475.0683 248.5293,1536.0973 320.4003,1586.8583 C469.6593,1692.2783 645.4713,1748.0003 828.8283,1748.0003 C947.9203,1748.0003 1063.4683,1724.6683 1172.2593,1678.6533 C1240.6423,1649.7293 1304.4813,1612.6773 1363.0643,1567.9973 C1365.5423,1566.6923 1367.8963,1565.0593 1370.0383,1563.0493 C1370.7963,1562.3383 1371.5263,1561.5973 1372.2773,1560.8793 C1400.3493,1538.8763 1427.1823,1515.0963 1452.6923,1489.5863 C1533.7093,1408.5693 1597.3203,1314.2193 1641.7583,1209.1553 C1687.7743,1100.3623 1711.1053,984.8143 1711.1053,865.7223 C1711.1053,761.2153 1693.0063,658.9193 1657.3073,561.6763" id="Fill-5" fill="#FFFFFF" mask="url(#mask-2)"></path>
                </g>
                <path d="M316.1025,871.2651 C305.8215,872.3071 298.9735,879.5821 300.2915,890.3851 C301.6855,901.8171 313.3625,903.4021 319.7915,902.8121 C328.9945,901.9681 343.2055,902.4751 358.5825,909.7101 C360.7725,910.7411 363.0785,911.2291 365.3485,911.2291 C371.8675,911.2291 378.0915,907.2041 380.4235,900.4491 C383.1095,892.6721 378.9035,884.0351 371.4345,880.5851 C349.8315,870.6081 329.6195,869.8941 316.1025,871.2651" id="Fill-8" fill="#FFFFFF"></path>
            </g>
        </g>
    </g>
</svg>