<svg width="2746" height="603" viewBox="0 0 2746 603" fill="none" xmlns="http://www.w3.org/2000/svg">
<path d="M347.485 3.80535C347.637 2.96992 348.078 2.21431 348.73 1.67023C349.382 1.12615 350.204 0.828125 351.053 0.828125C351.902 0.828125 352.724 1.12615 353.376 1.67023C354.028 2.21431 354.468 2.96992 354.62 3.80535L369.942 84.7429C369.942 84.7429 345.029 79.9474 342.105 64.3915L347.485 3.80535ZM339.766 90.7079C341.547 92.6053 343.506 94.3286 345.614 95.8542C350.298 99.4302 355.616 102.089 361.287 103.691C364.565 104.689 367.935 105.355 371.346 105.679H373.802L386.902 149.189C378.724 149.217 370.674 147.165 363.509 143.224C355.176 139.598 347.893 133.926 342.339 126.732C341.034 124.925 339.824 123.051 338.713 121.118L337.31 118.545C337.31 117.726 336.491 116.907 336.14 116.206L339.766 90.7079ZM331.813 161.704L333.801 143.692L337.544 148.253L341.871 152.815C348.571 159.257 356.537 164.236 365.264 167.435C370.275 169.297 375.502 170.515 380.82 171.061C382.611 171.181 384.408 171.181 386.2 171.061H391.931L407.136 225.565C407.17 225.781 407.135 226.002 407.038 226.197C406.94 226.393 406.784 226.553 406.591 226.656C406.398 226.759 406.178 226.799 405.962 226.771C405.745 226.743 405.542 226.649 405.382 226.5C402.024 222.3 398.086 218.598 393.685 215.506C391.814 214.103 389.709 212.816 387.603 211.529L358.714 195.973L329.707 179.95L331.813 161.704ZM296.724 229.658L312.514 202.172L376.024 237.261C379.855 239.423 383.209 242.337 385.885 245.828C388.561 249.319 390.504 253.314 391.596 257.575C392.689 261.836 392.908 266.274 392.242 270.621C391.576 274.969 390.038 279.138 387.72 282.876L382.34 291.648C376.512 301.328 367.083 308.303 356.121 311.044C345.159 313.784 333.557 312.067 323.859 306.268L316.14 301.239C304.253 294.148 295.63 282.67 292.129 269.28C288.628 255.889 290.531 241.659 297.426 229.658H296.724ZM336.725 299.017H340H341.637C349.194 298.985 356.592 296.844 362.998 292.836C369.404 288.827 374.564 283.109 377.895 276.326C378.534 274.952 378.865 273.455 378.865 271.94C378.865 270.425 378.534 268.928 377.895 267.554C377.302 266.197 376.435 264.977 375.348 263.971C374.261 262.965 372.978 262.194 371.58 261.706C369.131 260.962 366.499 261.106 364.146 262.112C361.792 263.117 359.869 264.92 358.714 267.203C357.15 270.35 354.753 273.006 351.783 274.883C348.813 276.76 345.384 277.785 341.871 277.847H341.053C336.77 277.803 332.636 276.273 329.356 273.519C327.419 271.91 324.974 271.039 322.456 271.063C319.807 271.057 317.255 272.061 315.321 273.87C314.234 274.881 313.378 276.115 312.813 277.488C312.248 278.861 311.986 280.34 312.046 281.823C312.098 283.328 312.47 284.805 313.135 286.156C313.8 287.507 314.745 288.701 315.906 289.66C321.839 294.8 329.168 298.057 336.959 299.017H336.725ZM206.079 205.447L220.582 180.418C223.145 176.028 226.934 172.482 231.485 170.217C236.036 167.952 241.149 167.067 246.197 167.669C249.593 168.072 252.885 169.103 255.904 170.71L307.952 199.95L206.079 205.447ZM332.514 592.591C313.683 592.562 294.905 590.563 276.49 586.626C262.88 583.74 249.509 579.83 236.489 574.929L301.637 462.178C310.41 464.278 319.588 463.962 328.196 461.264C336.804 458.566 344.521 453.588 350.527 446.856C352.486 445.103 353.681 442.653 353.856 440.029C354.031 437.406 353.171 434.819 351.462 432.821C344.795 423.815 334.503 432.821 334.503 432.821C329.788 436.334 324.286 438.639 318.475 439.536C312.665 440.433 306.723 439.895 301.169 437.967C277.251 432.985 254.752 422.715 235.319 407.908L223.623 399.37C213.253 391.427 202.173 384.458 190.523 378.551L186.312 376.445C167.803 367.471 148.112 361.17 127.831 357.732L19.4078 339.486C16.5913 339.288 13.8454 338.514 11.341 337.21C8.83656 335.906 6.62706 334.101 4.84993 331.907C3.07279 329.713 1.76599 327.177 1.01078 324.457C0.25557 321.736 0.0681114 318.889 0.460025 316.093L2.21442 307.906C27.5178 316.313 53.5606 322.305 79.994 325.801L89.117 327.205L104.439 329.193C119.96 331.112 135.584 332.089 151.224 332.117C154.515 331.972 157.775 331.422 160.932 330.479L167.949 328.257C175.675 325.995 182.452 321.272 187.248 314.807C190.919 309.918 193.294 304.18 194.153 298.128C195.012 292.075 194.327 285.903 192.16 280.186C189.801 274.043 185.849 268.638 180.71 264.527C175.571 260.416 169.431 257.747 162.92 256.794C145.96 256.209 52.391 241.121 18.823 227.085L20.6944 221.471C24.3986 212.945 31.1524 206.108 39.633 202.301C48.1137 198.493 57.7102 197.989 66.5434 200.886L70.6371 202.289C71.9351 202.674 73.3255 202.606 74.5795 202.096C75.8336 201.585 76.8769 200.664 77.5378 199.482L79.5261 195.74C82.1182 190.913 85.714 186.697 90.0715 183.377C94.429 180.056 99.4473 177.707 104.789 176.488C110.13 175.269 115.67 175.208 121.037 176.31C126.404 177.411 131.472 179.649 135.902 182.874C138.05 184.439 140.047 186.201 141.867 188.137L143.036 189.424L144.44 190.944L169.236 220.302C171.255 222.681 173.789 224.571 176.646 225.827C179.503 227.084 182.609 227.674 185.727 227.553L275.203 223.576C267.091 240.421 265.619 259.703 271.081 277.584C276.543 295.465 288.537 310.633 304.678 320.07L313.567 325.216C321.132 329.656 329.535 332.483 338.245 333.52C350.477 334.952 362.864 332.862 373.949 327.496C385.034 322.13 394.356 313.71 400.82 303.227L469.711 188.137L461.172 323.228L514.156 520.542C464.83 566.556 399.97 592.283 332.514 592.591ZM36.2503 290.946L45.6073 257.963C58.8239 261.004 75.4325 264.747 92.392 268.139L101.632 269.893C134.732 276.092 161.165 278.315 161.048 278.315C163.653 278.743 166.1 279.842 168.151 281.503C170.202 283.164 171.785 285.33 172.745 287.788C174.279 291.536 174.279 295.737 172.745 299.485C171.692 302.526 168.885 309.309 155.434 310.128C115.088 308.461 75.0818 302.023 36.2503 290.946Z" fill="white"/>
<path d="M816.856 180.651L768.317 57.7241L689.484 57.6072L788.785 294.689L844.459 294.806L944.812 58.075L865.98 57.9581L816.856 180.651Z" fill="white"/>
<path d="M1124.69 121.466L1124.81 57.8386L983.639 57.7217L983.288 294.803H1124.46V231.176L1055.8 231.059L1055.92 207.433L1120.72 207.55L1120.83 143.922H1056.04V121.349L1124.69 121.466Z" fill="white"/>
<path d="M1340.63 179.769C1350.22 166.545 1355.08 150.478 1354.43 134.154C1354.65 124.262 1353.14 114.408 1349.99 105.031C1346.62 95.9742 1341.45 87.697 1334.78 80.7029C1327.65 73.3649 1318.98 67.6936 1309.4 64.0943C1298.19 59.8835 1286.29 57.8202 1274.31 58.0123H1177V295.211H1249.52V227.022L1293.14 295.094H1383.91L1311.62 200.589C1323.06 196.525 1333.12 189.307 1340.63 179.769ZM1274.2 151.816C1267.77 156.054 1260.1 157.992 1252.44 157.313H1248.93V117.195H1252.56C1260.18 116.623 1267.77 118.553 1274.2 122.692C1276.36 124.432 1278.06 126.673 1279.16 129.221C1280.26 131.768 1280.73 134.546 1280.51 137.312C1280.74 140.063 1280.28 142.827 1279.18 145.358C1278.07 147.888 1276.36 150.107 1274.2 151.816Z" fill="white"/>
<path d="M1531.72 57.8411L1494.65 112.813L1457.34 57.7241L1370.32 57.6072L1458.04 182.99L1457.8 294.689L1530.32 294.806L1530.44 183.107L1618.74 58.075L1531.72 57.8411Z" fill="white"/>
<path d="M820.713 479.369L772.291 356.559L693.459 356.442L792.643 593.524L848.433 593.641L948.67 356.793L869.837 356.676L820.713 479.369Z" fill="white"/>
<path d="M1121.07 420.657V357.03L980.012 356.796L979.661 593.76L1120.72 593.994L1120.83 530.367L1052.18 530.25V506.624L1117.09 506.741L1117.21 443.114L1052.29 442.997V420.54L1121.07 420.657Z" fill="white"/>
<path d="M1167.62 594.114L1240.14 594.231L1240.37 472.24L1335.93 594.348L1404.35 594.465L1404.7 357.501L1332.54 357.384L1332.3 479.375L1236.75 357.267L1168.09 357.15L1167.62 594.114Z" fill="white"/>
<path d="M1562.72 594.7L1562.95 421.362L1610.44 421.479L1610.55 357.852L1443.18 357.618L1443.06 421.245H1490.55L1490.32 594.583L1562.72 594.7Z" fill="white"/>
<path d="M1788.92 486.276C1788.92 492.709 1788.92 499.142 1788.22 505.692C1787.87 511.191 1786.52 516.581 1784.24 521.599C1782.28 525.813 1779.15 529.382 1775.24 531.891C1769.7 534.931 1763.41 536.312 1757.11 535.868C1750.74 536.236 1744.39 534.861 1738.75 531.891C1734.79 529.434 1731.65 525.85 1729.74 521.599C1727.59 516.549 1726.33 511.169 1726 505.692C1726 499.025 1725.3 492.592 1725.3 486.276V357.618H1652.78V494.113C1652.78 530.488 1661.43 557.74 1678.63 575.05C1695.82 592.36 1722.14 601.133 1756.88 601.249C1791.38 601.249 1817.58 592.477 1834.77 575.284C1851.97 558.091 1860.62 530.839 1860.74 494.463V358.32H1788.57L1788.92 486.276Z" fill="white"/>
<path d="M2075.25 480.307C2084.84 467.083 2089.7 451.015 2089.05 434.692C2089.12 424.772 2087.46 414.915 2084.14 405.568C2080.81 396.517 2075.68 388.239 2069.05 381.24C2061.85 373.901 2053.15 368.197 2043.55 364.515C2032.33 360.344 2020.43 358.32 2008.46 358.55H1911.27V595.514H1983.78V527.676L2027.41 595.631H2118.17L2046.01 501.126C2057.5 497.045 2067.63 489.834 2075.25 480.307ZM2008.81 452.353C2002.39 456.492 1994.79 458.422 1987.17 457.85H1983.55V418.2H1987.17C1994.83 417.745 2002.44 419.709 2008.93 423.814C2011.06 425.573 2012.74 427.821 2013.82 430.366C2014.9 432.911 2015.35 435.679 2015.13 438.435C2015.3 441.05 2014.87 443.669 2013.85 446.086C2012.84 448.502 2011.27 450.648 2009.28 452.353H2008.81Z" fill="white"/>
<path d="M2147.64 595.633L2288.82 595.867L2288.93 532.24L2220.28 532.123V508.497L2285.07 508.614L2285.19 444.987H2220.39V422.413L2289.05 422.53L2289.17 358.903L2148 358.669L2147.64 595.633Z" fill="white"/>
<path d="M2451.62 446.274C2446.83 444.637 2441.92 443.116 2437 441.713C2432.98 440.575 2429.07 439.088 2425.31 437.268C2422.63 436.069 2420.2 434.361 2418.17 432.239C2417.61 431.604 2417.19 430.862 2416.93 430.057C2416.67 429.252 2416.57 428.403 2416.65 427.561C2416.62 425.982 2416.97 424.42 2417.69 423.012C2418.4 421.604 2419.45 420.395 2420.75 419.49C2425.3 417.122 2430.35 415.886 2435.48 415.886C2440.61 415.886 2445.67 417.122 2450.22 419.49C2456.37 422.027 2462.09 425.499 2467.18 429.783L2474.2 435.514L2504.61 375.98L2498.29 372.589C2486.89 366.373 2474.74 361.618 2462.15 358.436C2450.23 355.329 2437.97 353.718 2425.66 353.641C2413.99 353.485 2402.39 355.385 2391.39 359.255C2381.43 362.871 2372.32 368.483 2364.6 375.746C2357.23 382.992 2351.42 391.669 2347.53 401.244C2343.45 411.633 2341.42 422.715 2341.56 433.876C2341.16 444.316 2343.11 454.712 2347.29 464.287C2350.96 472.078 2356.22 479.011 2362.73 484.638C2369.07 489.957 2376.21 494.222 2383.9 497.27C2391.27 500.194 2398.76 502.884 2406.24 505.223C2413.73 507.562 2417.94 509.2 2421.92 510.954C2425.14 512.142 2428.18 513.797 2430.92 515.867C2432.5 516.889 2433.79 518.298 2434.66 519.96C2435.44 521.645 2435.8 523.489 2435.72 525.341C2435.67 527.164 2435.22 528.955 2434.42 530.59C2433.61 532.226 2432.46 533.667 2431.04 534.814C2426.42 538.208 2420.72 539.79 2415.02 539.259C2407.37 539.19 2399.83 537.474 2392.91 534.23C2384.35 530.143 2376.46 524.78 2369.52 518.323L2362.62 512.124L2330.33 572.71L2335.6 576.336C2359.48 593.457 2388.09 602.735 2417.47 602.886C2430.56 603.035 2443.59 601.1 2456.07 597.155C2467.01 593.62 2477.12 587.889 2485.78 580.313C2493.94 573.086 2500.35 564.083 2504.49 553.996C2508.81 543.253 2510.99 531.772 2510.92 520.194C2511.75 503.468 2506.56 486.998 2496.3 473.76C2484.25 460.624 2468.78 451.106 2451.62 446.274Z" fill="white"/>
<path d="M2201.8 226.029C2208.42 210.589 2211.77 193.94 2211.62 177.139C2211.79 160.271 2208.49 143.549 2201.91 128.015C2195.7 113.099 2186.5 99.6072 2174.89 88.365C2163.08 76.8523 2149.08 67.8243 2133.72 61.8147C2117.06 55.3416 2099.32 52.0872 2081.44 52.2238C2063.61 52.0391 2045.91 55.2545 2029.28 61.6978C2013.93 67.6698 1999.93 76.6579 1988.11 88.1311C1976.55 99.3723 1967.36 112.814 1961.09 127.664C1951.25 150.673 1948.55 176.104 1953.32 200.668C1958.1 225.231 1970.13 247.796 1987.87 265.445C1999.54 276.862 2013.33 285.882 2028.46 291.995C2045.17 298.434 2062.95 301.687 2080.86 301.586C2098.65 301.706 2116.3 298.492 2132.91 292.112C2148.38 286.254 2162.56 277.434 2174.66 266.147C2186.32 254.741 2195.55 241.094 2201.8 226.029ZM2131.62 198.426C2128.86 204.821 2124.89 210.621 2119.92 215.502C2114.77 220.47 2108.74 224.437 2102.14 227.199C2095.41 229.875 2088.22 231.226 2080.97 231.175C2073.62 231.515 2066.28 230.112 2059.57 227.082C2053.04 224.323 2047.08 220.355 2042.03 215.385C2037.11 210.416 2033.15 204.588 2030.33 198.192C2027.44 191.387 2025.97 184.064 2026 176.671C2025.94 169.301 2027.45 162.002 2030.45 155.267C2033.24 148.818 2037.28 142.986 2042.34 138.108C2047.4 133.23 2053.38 129.402 2059.92 126.845C2066.69 124.12 2073.91 122.729 2081.21 122.752C2088.5 122.72 2095.73 124.111 2102.5 126.845C2109.1 129.607 2115.12 133.574 2120.27 138.542C2125.22 143.487 2129.19 149.32 2131.97 155.735C2134.88 162.533 2136.36 169.86 2136.3 177.256C2136.4 184.531 2134.97 191.745 2132.09 198.426H2131.62Z" fill="white"/>
<path d="M2368.58 302.055C2386.38 302.224 2404.04 299.009 2420.63 292.581C2436.07 286.583 2450.18 277.601 2462.15 266.147C2473.73 254.901 2482.95 241.462 2489.29 226.614C2502.25 195.188 2502.25 159.909 2489.29 128.483C2483.03 113.59 2473.84 100.107 2462.27 88.8333C2450.35 77.3461 2436.28 68.3237 2420.86 62.283C2404.2 55.8099 2386.46 52.5554 2368.58 52.6921C2350.75 52.5074 2333.05 55.7227 2316.42 62.166C2301.21 68.0326 2287.34 76.8951 2275.63 88.2271C2263.91 99.5591 2254.6 113.13 2248.23 128.132C2241.61 143.617 2238.27 160.301 2238.4 177.139C2238.25 193.956 2241.51 210.628 2247.99 226.146C2254.28 241.221 2263.55 254.867 2275.25 266.264C2286.95 277.661 2300.83 286.573 2316.07 292.464C2332.78 298.903 2350.55 302.156 2368.47 302.055H2368.58ZM2329.63 215.971C2324.69 211.021 2320.73 205.189 2317.94 198.777C2314.99 191.99 2313.52 184.655 2313.61 177.256C2313.55 169.886 2315.06 162.588 2318.05 155.852C2320.85 149.403 2324.89 143.572 2329.95 138.693C2335.01 133.815 2340.98 129.987 2347.53 127.431C2354.26 124.717 2361.44 123.327 2368.7 123.337C2375.99 123.315 2383.22 124.705 2389.99 127.431C2396.59 130.193 2402.62 134.159 2407.76 139.127C2412.71 144.073 2416.68 149.905 2419.46 156.32C2422.36 163.121 2423.84 170.447 2423.79 177.841C2423.85 185.211 2422.34 192.51 2419.34 199.245C2416.59 205.641 2412.61 211.44 2407.65 216.322C2402.53 221.329 2396.49 225.301 2389.87 228.018C2383.13 230.695 2375.95 232.045 2368.7 231.994C2361.41 232.054 2354.18 230.704 2347.41 228.018C2340.75 225.205 2334.71 221.111 2329.63 215.971Z" fill="white"/>
<path d="M2711.28 95.1572C2700.73 84.2782 2688.23 75.4713 2674.44 69.1917C2660.13 62.645 2644.56 59.2925 2628.82 59.3669H2535.96V296.331H2628.71C2644.52 296.41 2660.16 293.058 2674.55 286.507C2688.45 280.284 2701.03 271.472 2711.63 260.541C2722.26 249.669 2730.68 236.839 2736.43 222.762C2742.47 208.602 2745.57 193.362 2745.55 177.966C2745.59 162.456 2742.48 147.099 2736.43 132.819C2730.55 118.761 2722.01 105.972 2711.28 95.1572ZM2666.37 200.423C2664.05 206.788 2660.38 212.575 2655.61 217.382C2650.69 222.469 2644.75 226.455 2638.18 229.078C2630.45 231.842 2622.29 233.227 2614.09 233.172H2608.12V123.462H2613.97C2621.96 123.443 2629.88 124.869 2637.36 127.673C2643.84 130.145 2649.71 133.985 2654.58 138.929C2659.44 143.874 2663.18 149.808 2665.55 156.328C2668.26 163.38 2669.61 170.881 2669.53 178.434C2669.77 185.816 2668.7 193.182 2666.37 200.189V200.423Z" fill="white"/>
<path d="M1923.19 195.975C1924.28 185.054 1924.78 174.083 1924.71 163.109V155.74H1794.53V207.671H1843.89C1841.81 216.426 1836.77 224.193 1829.62 229.66C1826.05 231.995 1822.09 233.659 1817.93 234.572C1805.56 237.614 1792.56 236.714 1780.73 231.999C1774.68 229.412 1769.34 225.399 1765.18 220.303C1760.76 214.881 1757.46 208.641 1755.47 201.94C1753.21 194.112 1752.1 185.994 1752.19 177.846C1752.04 169.028 1753.39 160.249 1756.17 151.881C1758.37 144.84 1761.91 138.288 1766.58 132.582C1770.82 127.564 1776.14 123.567 1782.14 120.886C1788.57 118.013 1795.56 116.576 1802.6 116.675C1810.9 116.603 1819.03 118.962 1826 123.459C1830.35 126.608 1834.05 130.582 1836.87 135.155L1904.24 105.447C1895.09 90.1038 1882.22 77.3128 1866.82 68.2529C1847.1 57.2619 1824.82 51.6926 1802.25 52.1122C1784.72 51.8252 1767.3 54.8817 1750.91 61.1182C1736.04 66.7478 1722.51 75.3888 1711.14 86.4989C1699.91 97.6054 1691.21 111.012 1685.64 125.798C1679.52 141.851 1676.47 158.911 1676.64 176.092C1676.34 193.358 1679.4 210.518 1685.64 226.619C1691.3 241.399 1699.94 254.855 1711.02 266.152C1722.12 277.399 1735.48 286.168 1750.21 291.884C1766.12 298.105 1783.07 301.24 1800.15 301.124C1812.87 301.179 1825.53 299.527 1837.81 296.211C1849.56 293.002 1860.79 288.117 1871.14 281.708C1881.37 275.246 1890.42 267.1 1897.93 257.614C1905.7 247.723 1911.78 236.619 1915.94 224.748C1919.54 215.494 1921.98 205.829 1923.19 195.975Z" fill="white"/>
<path opacity="0.6" d="M321.871 56.9099C320.585 68.6061 319.649 76.0916 319.532 76.0916L315.322 103.812L307.836 168.257L269.473 146.737C263.345 143.276 256.582 141.088 249.589 140.304C239.267 139.074 228.81 140.901 219.517 145.558C210.223 150.215 202.501 157.498 197.307 166.503L181.166 194.574C181.166 194.574 153.563 155.509 125.727 151.766C149.997 123.15 179.986 99.9277 213.766 83.5917C247.546 67.2556 284.37 58.1671 321.871 56.9099Z" fill="white"/>
<path opacity="0.6" d="M210.992 563.702C173.571 544.673 141.122 517.149 116.243 483.334C91.3637 449.518 74.7441 410.349 67.7139 368.96L98.1239 374.692C127.675 380.35 156.014 391.116 181.868 406.505C194.5 413.757 205.261 420.424 207.6 421.944L217.542 429.547C233.714 441.824 251.985 451.058 271.461 456.799C271.461 456.799 237.308 517.619 210.992 563.702Z" fill="white"/>
<path opacity="0.6" d="M593.806 380.535C585.032 422.014 566.464 460.793 539.653 493.637L535.91 498.666C535.91 497.379 486.669 320.533 486.669 320.767L494.622 166.846C494.097 162.516 492.202 158.468 489.214 155.291C486.227 152.115 482.303 149.975 478.014 149.184H476.376C472.387 148.674 468.336 149.357 464.735 151.147C461.134 152.938 458.144 155.755 456.142 159.243L426.668 208.835L385.029 62.1648H387.836C422.268 69.5391 454.91 83.6247 483.897 103.617C512.884 123.609 537.648 149.116 556.775 178.681C575.902 208.246 589.017 241.289 595.371 275.924C601.725 310.559 601.193 346.106 593.806 380.535Z" fill="white"/>
</svg>
