<svg width="2209" height="764" viewBox="0 0 2209 764" fill="none" xmlns="http://www.w3.org/2000/svg">
<path d="M961.205 277.418L1036.36 99.2889L977.311 99.1815L940.482 191.199L904.083 99.0742L845.029 98.9668L919.438 277.418H961.205Z" fill="white"/>
<path d="M1166.18 229.425H1114.75V211.602L1163.39 211.709L1163.49 164.036L1114.85 163.929V147.072L1166.39 147.179V99.5063L1060.63 99.2915L1060.31 277.42H1166.18V229.425Z" fill="white"/>
<path d="M1262.81 226.415L1295.56 277.417H1363.63L1309.95 206.552C1318.66 203.59 1326.34 198.185 1332.07 190.983C1339.4 181.1 1343.18 169.032 1342.8 156.731C1342.86 149.405 1341.58 142.13 1339.05 135.257C1336.58 128.463 1332.74 122.249 1327.77 117.004C1322.37 111.531 1315.85 107.283 1308.66 104.549C1300.04 101.198 1290.85 99.5218 1281.6 99.6097H1208.7V277.524H1263.03L1262.81 226.415ZM1262.81 144.061H1265.5C1271.23 143.653 1276.95 145.082 1281.82 148.142C1283.25 149.541 1284.38 151.212 1285.16 153.055C1285.93 154.899 1286.33 156.879 1286.33 158.879C1286.33 160.879 1285.93 162.858 1285.16 164.702C1284.38 166.546 1283.25 168.216 1281.82 169.616C1276.95 172.675 1271.23 174.105 1265.5 173.696H1262.81V144.061Z" fill="white"/>
<path d="M1473.79 277.633L1474.01 193.884L1540.26 100.041L1474.98 99.9338L1447.06 141.164L1419.14 99.8264H1353.97L1419.68 193.776L1419.47 277.526L1473.79 277.633Z" fill="white"/>
<path d="M1238.66 455.976C1246.09 438.73 1248.14 419.64 1244.54 401.208C1240.94 382.777 1231.85 365.863 1218.47 352.685C1209.5 344.075 1198.92 337.324 1187.33 332.821C1174.88 327.978 1161.61 325.537 1148.25 325.627V325.627C1134.89 325.481 1121.62 327.887 1109.17 332.714C1097.42 337.106 1086.68 343.826 1077.6 352.47C1068.92 360.932 1062.02 371.044 1057.31 382.212C1052.4 393.828 1049.91 406.323 1050 418.933C1049.88 431.299 1052.27 443.562 1057.01 454.984C1061.75 466.406 1068.75 476.751 1077.6 485.396C1086.43 494.044 1096.91 500.835 1108.41 505.367C1120.94 510.229 1134.28 512.67 1147.71 512.56V512.56C1161.04 512.687 1174.26 510.283 1186.69 505.474C1198.26 500.983 1208.83 494.271 1217.83 485.718C1226.68 477.289 1233.76 467.178 1238.66 455.976ZM1186.37 435.253C1184.19 440.07 1181.09 444.412 1177.24 448.03C1173.42 451.671 1168.93 454.55 1164.03 456.513C1158.91 458.429 1153.5 459.446 1148.03 459.519C1142.56 459.546 1137.13 458.526 1132.04 456.513C1122.35 452.432 1114.64 444.725 1110.56 435.038C1108.3 429.974 1107.16 424.479 1107.23 418.933C1107.2 413.39 1108.34 407.904 1110.56 402.827C1114.85 393.059 1122.79 385.353 1132.68 381.353C1137.75 379.378 1143.13 378.359 1148.57 378.346V378.346C1154.05 378.354 1159.48 379.411 1164.57 381.46C1169.47 383.423 1173.95 386.302 1177.78 389.943C1181.63 393.578 1184.7 397.962 1186.8 402.827C1189.07 407.887 1190.21 413.385 1190.12 418.933C1190.05 424.579 1188.77 430.143 1186.37 435.253V435.253Z" fill="white"/>
<path d="M1454.15 456.301C1459.14 444.708 1461.66 432.202 1461.56 419.58C1461.65 406.97 1459.16 394.475 1454.25 382.859C1449.59 371.631 1442.69 361.473 1433.96 353.01C1425.05 344.381 1414.5 337.626 1402.93 333.146C1390.44 328.292 1377.14 325.851 1363.74 325.952C1350.37 325.645 1337.07 327.905 1324.55 332.609C1313.12 336.978 1302.68 343.616 1293.88 352.122C1285.08 360.629 1278.09 370.829 1273.33 382.108C1268.46 393.738 1265.95 406.219 1265.93 418.829C1265.81 431.2 1268.19 443.468 1272.91 454.904C1277.63 466.34 1284.61 476.71 1293.41 485.399C1302.3 494.215 1312.9 501.121 1324.55 505.692C1337.06 510.606 1350.41 513.049 1363.85 512.886V512.886C1377.17 513.031 1390.4 510.626 1402.82 505.799C1414.31 501.462 1424.81 494.839 1433.66 486.331C1442.52 477.823 1449.56 467.607 1454.36 456.301H1454.15ZM1401.86 435.578C1399.76 440.443 1396.69 444.828 1392.84 448.463C1388.95 452.07 1384.44 454.943 1379.52 456.945C1374.46 458.93 1369.07 459.95 1363.63 459.952C1358.14 460.063 1352.69 459.001 1347.64 456.838C1342.73 454.875 1338.25 451.996 1334.43 448.356C1330.71 444.631 1327.69 440.267 1325.52 435.471C1323.33 430.386 1322.23 424.9 1322.3 419.365C1322.23 413.819 1323.36 408.324 1325.62 403.26C1327.76 398.442 1330.78 394.071 1334.54 390.375C1342.43 383.007 1352.84 378.936 1363.63 378.994V378.994C1369.08 378.943 1374.48 379.964 1379.52 382C1384.45 383.981 1388.96 386.857 1392.84 390.482C1396.64 394.166 1399.7 398.539 1401.86 403.367C1404.04 408.455 1405.13 413.939 1405.08 419.473C1405.2 425.012 1404.1 430.51 1401.86 435.578Z" fill="white"/>
<path d="M1620.79 481.849C1628.69 473.641 1634.99 464.027 1639.36 453.503C1643.83 442.824 1646.13 431.364 1646.13 419.789C1646.13 408.213 1643.83 396.753 1639.36 386.074C1634.97 375.538 1628.63 365.922 1620.68 357.728C1612.73 349.595 1603.34 343.006 1592.98 338.294C1582.23 333.389 1570.55 330.862 1558.73 330.885H1489.15V508.585H1558.84C1570.68 508.653 1582.4 506.163 1593.2 501.283C1603.49 496.524 1612.84 489.94 1620.79 481.849V481.849ZM1586.97 436.538C1585.2 441.312 1582.46 445.664 1578.91 449.316C1575.18 453.011 1570.72 455.899 1565.82 457.798C1560.08 459.945 1554 461.001 1547.88 460.912H1543.27V378.558H1547.67C1553.76 378.458 1559.82 379.553 1565.49 381.779C1570.42 383.582 1574.89 386.438 1578.6 390.147C1582.31 393.855 1585.16 398.328 1586.97 403.253C1589.02 408.52 1590.05 414.135 1589.97 419.789C1589.96 425.505 1588.94 431.173 1586.97 436.538V436.538Z" fill="white"/>
<path d="M940.482 645.052L904.083 552.928L845.029 552.821L919.438 730.627L961.205 730.735L1036.36 553.143L977.311 553.035L940.482 645.052Z" fill="white"/>
<path d="M1059.56 730.845L1165.43 731.06L1165.53 683.279L1114 683.172V665.456L1162.63 665.563L1162.74 617.89L1114.1 617.783V600.925L1165.64 601.033L1165.75 553.36L1059.88 553.145L1059.56 730.845Z" fill="white"/>
<path d="M1324.12 645.06L1252.4 553.472L1200.86 553.365L1200.64 731.064L1254.97 731.172L1255.08 639.691L1326.81 731.279L1378.02 731.387L1378.34 553.687L1324.23 553.58L1324.12 645.06Z" fill="white"/>
<path d="M1407.12 601.461H1442.77L1442.55 731.487L1496.88 731.595L1496.99 601.568L1532.64 601.675L1532.74 553.895L1407.23 553.68L1407.12 601.461Z" fill="white"/>
<path d="M1666.42 650.207C1666.42 655.039 1666.42 659.871 1665.88 664.81C1665.65 668.891 1664.66 672.894 1662.98 676.621C1661.52 679.856 1659.13 682.584 1656.11 684.459C1651.96 686.672 1647.28 687.677 1642.58 687.358V687.358C1637.81 687.697 1633.04 686.653 1628.84 684.351C1625.86 682.558 1623.5 679.899 1622.08 676.728C1620.5 672.899 1619.55 668.836 1619.28 664.703C1619.28 659.763 1618.75 654.932 1618.75 650.207V554.11H1564.42V656.22C1564.42 683.492 1570.97 703.893 1583.85 716.885C1591.83 723.881 1601.13 729.221 1611.19 732.594C1621.26 735.967 1631.89 737.307 1642.48 736.534V736.534C1653.02 737.331 1663.61 736.023 1673.63 732.686C1683.66 729.35 1692.93 724.051 1700.89 717.1C1713.77 704.215 1720.32 683.707 1720.32 656.435V554.325H1666.64L1666.42 650.207Z" fill="white"/>
<path d="M1881.48 645.704C1888.79 635.847 1892.57 623.823 1892.22 611.56C1892.22 604.239 1890.95 596.973 1888.46 590.086C1885.95 583.043 1881.93 576.635 1876.68 571.311C1871.43 565.987 1865.08 561.878 1858.08 559.27C1849.67 556.13 1840.74 554.6 1831.77 554.761H1758.87V732.353H1813.2V681.137L1845.41 732.138H1913.48L1859.79 661.166C1868.34 658.156 1875.85 652.797 1881.48 645.704V645.704ZM1831.66 624.23C1826.83 627.281 1821.15 628.711 1815.45 628.31H1812.66V598.246H1815.34C1821.09 597.846 1826.82 599.315 1831.66 602.434C1833.22 603.733 1834.46 605.383 1835.26 607.249C1836.06 609.115 1836.41 611.144 1836.28 613.171C1836.58 615.338 1836.31 617.545 1835.5 619.577C1834.69 621.609 1833.37 623.397 1831.66 624.767V624.23Z" fill="white"/>
<path d="M1935.49 732.24L2041.25 732.454L2041.36 684.674H1989.82L1989.93 666.958H2038.57V619.285L1989.93 619.178V602.32L2041.47 602.428L2041.58 554.755L1935.71 554.54L1935.49 732.24Z" fill="white"/>
<path d="M2163.44 620.25C2159.79 618.961 2156.14 617.888 2152.7 616.814C2149.65 615.954 2146.67 614.84 2143.79 613.485C2141.83 612.554 2140.05 611.281 2138.53 609.727C2138.1 609.252 2137.77 608.691 2137.57 608.08C2137.36 607.47 2137.29 606.824 2137.35 606.184C2137.32 605 2137.58 603.827 2138.13 602.775C2138.67 601.723 2139.48 600.827 2140.46 600.171C2143.87 598.375 2147.67 597.437 2151.52 597.437C2155.38 597.437 2159.17 598.375 2162.58 600.171C2167.17 602.049 2171.44 604.62 2175.25 607.795L2180.51 612.09L2203.38 567.423L2198.55 564.954C2190 560.292 2180.92 556.687 2171.49 554.216C2162.6 551.662 2153.37 550.432 2144.11 550.566C2135.34 550.482 2126.62 551.936 2118.35 554.861C2110.92 557.574 2104.12 561.776 2098.37 567.208C2092.82 572.63 2088.43 579.135 2085.49 586.32C2082.45 594.122 2080.92 602.429 2080.98 610.801C2080.76 618.655 2082.26 626.462 2085.38 633.671C2088.1 639.501 2092.06 644.667 2096.98 648.811C2101.67 652.829 2107.01 656.024 2112.76 658.259C2118.35 660.514 2123.5 662.554 2129.51 664.272C2135.53 665.99 2138.1 667.278 2141.32 668.567C2143.71 669.531 2145.97 670.755 2148.09 672.217C2149.25 673.025 2150.2 674.091 2150.88 675.331C2151.44 676.617 2151.69 678.012 2151.63 679.411C2151.59 680.769 2151.27 682.103 2150.68 683.325C2150.08 684.547 2149.24 685.629 2148.19 686.498C2144.71 689.011 2140.45 690.192 2136.17 689.826C2130.44 689.594 2124.8 688.321 2119.53 686.068C2113.04 683.034 2107.07 679.013 2101.81 674.15L2096.55 669.533L2072.39 714.844L2076.36 717.636C2094.31 730.564 2115.87 737.514 2137.99 737.499C2147.79 737.654 2157.55 736.203 2166.88 733.204C2175.09 730.555 2182.68 726.283 2189.21 720.642C2195.31 715.204 2200.08 708.447 2203.17 700.886C2206.47 692.851 2208.12 684.232 2208 675.546C2208.57 663.187 2204.77 651.021 2197.26 641.187C2188.17 631.181 2176.45 623.927 2163.44 620.25V620.25Z" fill="white"/>
<path d="M870.583 486.041C878.942 494.404 888.915 500.98 899.895 505.367C911.884 509.98 924.63 512.31 937.475 512.239V512.239C947.014 512.262 956.513 510.998 965.714 508.481C974.525 506.123 982.951 502.507 990.731 497.744C998.395 492.909 1005.18 486.81 1010.81 479.706C1016.63 472.3 1021.2 463.995 1024.34 455.118C1026.8 448.184 1028.39 440.97 1029.06 433.643C1029.87 425.473 1030.27 417.266 1030.24 409.055V403.472H933.61V442.126H970.223C968.669 448.715 964.874 454.56 959.486 458.661C956.816 460.438 953.826 461.678 950.682 462.312C941.442 464.635 931.702 463.959 922.872 460.379C918.347 458.382 914.342 455.369 911.169 451.574C907.833 447.549 905.382 442.866 903.975 437.831C900.262 425.616 900.262 412.573 903.975 400.358C905.664 395.081 908.322 390.166 911.813 385.863C914.975 382.03 918.98 378.98 923.517 376.951C928.354 374.831 933.589 373.769 938.871 373.838V373.838C945.225 373.749 951.464 375.542 956.802 378.991C960.064 381.243 962.839 384.127 964.962 387.474L1015.43 365.248C1008.6 353.723 998.954 344.118 987.403 337.331C972.592 329.153 955.894 325.006 938.978 325.306C925.822 325.044 912.738 327.304 900.432 331.963C889.288 336.242 879.132 342.744 870.583 351.075C862.395 359.532 856.1 369.633 852.115 380.709C847.499 392.731 845.203 405.52 845.35 418.397C845.212 431.343 847.507 444.2 852.115 456.299C856.164 467.375 862.45 477.5 870.583 486.041Z" fill="white"/>
<path d="M404.7 385.792L415.437 391.805C426.839 398.444 440.385 400.364 453.184 397.154C465.982 393.944 477.019 385.86 483.94 374.626L490.382 363.889C493.059 359.455 494.817 354.528 495.553 349.401C496.289 344.275 495.986 339.052 494.664 334.044C493.342 329.037 491.027 324.346 487.857 320.25C484.687 316.155 480.725 312.738 476.209 310.203L401.049 268.006L382.366 300.217C378.208 307.301 375.486 315.135 374.358 323.272C373.23 331.408 373.717 339.687 375.791 347.635C377.865 355.583 381.486 363.044 386.446 369.592C391.407 376.139 397.61 381.644 404.7 385.792V385.792ZM404.7 353.581C406.999 351.431 410.034 350.24 413.182 350.253C416.117 350.282 418.955 351.303 421.235 353.152C425.043 356.331 429.805 358.145 434.763 358.305H435.622C439.88 358.308 444.052 357.11 447.66 354.85C451.268 352.59 454.167 349.36 456.023 345.528C457.026 343.503 458.548 341.78 460.435 340.535C462.321 339.29 464.504 338.568 466.76 338.442C468.076 338.438 469.382 338.655 470.626 339.086C472.319 339.642 473.874 340.552 475.188 341.755C476.503 342.958 477.546 344.428 478.249 346.065C479.057 347.739 479.477 349.574 479.477 351.434C479.477 353.293 479.057 355.128 478.249 356.802C474.325 364.852 468.218 371.636 460.624 376.382C453.03 381.128 444.255 383.645 435.3 383.645H433.368H429.395C420.366 382.515 411.861 378.785 404.914 372.908C403.53 371.785 402.402 370.379 401.608 368.784C400.814 367.188 400.371 365.441 400.31 363.66C400.249 361.879 400.571 360.105 401.254 358.459C401.937 356.813 402.966 355.332 404.27 354.118L404.7 353.581Z" fill="white"/>
<path d="M333.621 230.534C330.115 228.554 326.242 227.312 322.239 226.883C316.264 226.162 310.209 227.212 304.825 229.904C299.442 232.595 294.969 236.81 291.961 242.023L274.781 271.657L395.145 265.107L333.621 230.534Z" fill="white"/>
<path d="M431.543 172.444C432.725 174.591 434.12 176.738 435.731 179.101C442.403 187.55 451.024 194.256 460.856 198.642C469.296 203.216 478.743 205.615 488.343 205.621L472.774 154.19H469.982C465.948 153.811 461.958 153.056 458.064 151.936C451.409 149.979 445.155 146.852 439.596 142.702C437.104 140.859 434.77 138.812 432.617 136.582L428.43 166.753L429.825 169.545L431.543 172.444Z" fill="white"/>
<path d="M489.419 279.603C491.968 280.952 494.409 282.496 496.72 284.22C501.839 287.868 506.397 292.245 510.249 297.212C510.423 297.417 510.661 297.556 510.925 297.607C511.188 297.658 511.461 297.618 511.699 297.493C511.937 297.368 512.125 297.165 512.232 296.919C512.339 296.673 512.359 296.398 512.289 296.139L494.358 231.716C492.103 231.716 489.848 231.716 487.594 231.716C485.339 231.716 483.299 231.716 481.151 231.716C463.865 229.889 447.687 222.33 435.196 210.242C433.371 208.524 431.653 206.698 430.043 204.98C428.432 203.262 426.929 201.33 425.533 199.504L423.171 220.979L420.809 242.453L454.845 260.599L489.419 279.603Z" fill="white"/>
<path d="M468.371 129.07L450.118 33.1875C450.118 32.0769 449.677 31.0118 448.892 30.2265C448.106 29.4412 447.041 29 445.931 29C444.82 29 443.755 29.4412 442.97 30.2265C442.184 31.0118 441.743 32.0769 441.743 33.1875L435.301 105.126C438.844 123.379 468.371 129.07 468.371 129.07Z" fill="white"/>
<path opacity="0.6" d="M245.041 259.092L264.046 225.914C272.365 211.453 286.078 200.88 302.179 196.512C318.281 192.144 335.457 194.339 349.943 202.615L395.469 228.062L404.273 151.828L409.212 118.972C409.212 118.972 410.501 109.631 412.004 96.3171C367.542 97.7439 323.874 108.476 283.816 127.821C243.758 147.165 208.2 174.693 179.438 208.627C212.4 212.493 245.041 259.092 245.041 259.092Z" fill="white"/>
<path opacity="0.6" d="M489.416 103.09H486.195L535.371 276.495L570.267 217.763C572.58 213.503 576.12 210.037 580.429 207.815C584.737 205.594 589.614 204.72 594.426 205.308H596.466C601.491 206.36 606.063 208.952 609.546 212.724C613.029 216.496 615.25 221.26 615.9 226.352L606.344 408.884C606.344 408.884 664.646 617.935 664.646 619.546L669.049 613.533C703.304 571.45 726.177 521.276 735.478 467.817C744.778 414.358 740.194 359.406 722.165 308.227C704.135 257.048 673.264 211.357 632.51 175.532C591.756 139.706 542.484 114.947 489.416 103.627V103.09Z" fill="white"/>
<path d="M214.225 395.033C230.223 394.067 233.552 386.014 234.84 382.471C236.506 378.189 236.506 373.438 234.84 369.156C233.661 366.319 231.764 363.838 229.335 361.955C226.907 360.073 224.031 358.854 220.989 358.419C220.989 358.419 189.959 355.735 150.768 348.434L140.031 346.394C120.168 342.314 100.626 338.019 84.9498 334.368L73.6758 373.559C129.294 387.946 191.784 396.751 214.225 395.033Z" fill="white"/>
<path d="M586.909 251.689L505.414 387.835C495.013 404.81 478.385 417.043 459.083 421.918C439.781 426.794 419.338 423.926 402.123 413.927L391.386 407.806C372.31 396.603 358.137 378.643 351.674 357.485C345.212 336.327 346.931 313.514 356.49 293.563L250.837 298.395C247.141 298.548 243.458 297.853 240.071 296.364C236.684 294.876 233.682 292.632 231.296 289.805L202.091 255.447C201.446 254.588 200.909 254.158 200.48 253.621L198.977 252.118C196.83 249.849 194.495 247.766 191.998 245.89C186.76 242.068 180.764 239.414 174.413 238.108C168.062 236.801 161.505 236.873 155.184 238.319C148.864 239.764 142.927 242.549 137.775 246.485C132.623 250.422 128.375 255.418 125.32 261.137L122.958 265.539C122.188 266.948 120.956 268.048 119.47 268.655C117.983 269.261 116.333 269.336 114.798 268.868L109.966 267.257C99.5151 263.796 88.148 264.367 78.0961 268.856C68.0441 273.346 60.0333 281.431 55.636 291.523L53.4886 298.18C93.216 314.715 203.808 332.646 223.994 333.398C231.694 334.41 238.976 337.49 245.064 342.311C251.152 347.133 255.819 353.515 258.568 360.778C260.721 366.351 261.688 372.311 261.407 378.279C261.126 384.247 259.603 390.09 256.935 395.436C254.267 400.781 250.513 405.511 245.914 409.324C241.314 413.136 235.97 415.947 230.222 417.577L221.847 420.154C218.157 421.308 214.329 421.958 210.465 422.087C191.649 422.07 172.854 420.815 154.203 418.329L136.057 415.859L125.32 414.249C94.042 409.992 63.2339 402.803 33.3028 392.774L31.1554 402.438C30.7851 405.694 31.0782 408.992 32.0171 412.131C32.956 415.271 34.5212 418.189 36.6182 420.707C38.7153 423.225 41.3007 425.293 44.2187 426.785C47.1366 428.277 50.3265 429.162 53.596 429.388L182.442 450.862C206.273 454.775 229.439 462.003 251.267 472.337L256.313 474.913C270.084 481.905 283.169 490.173 295.396 499.609L308.496 509.594C331.515 527.176 358.192 539.359 386.554 545.242C393.105 547.521 400.115 548.155 406.967 547.088C413.82 546.02 420.306 543.285 425.852 539.121C425.852 539.121 438.2 528.384 446.038 539.121C448.052 541.481 449.057 544.537 448.836 547.631C448.615 550.725 447.186 553.608 444.857 555.657C431.221 571.655 412.646 577.131 386.984 573.91L309.784 708.768C325.168 714.736 341.001 719.475 357.135 722.941C406.967 733.689 458.662 732.192 507.789 718.578C556.915 704.964 602.007 679.639 639.199 644.775L576.494 411.35L586.909 251.689Z" fill="white"/>
<path opacity="0.6" d="M288.096 536.44L276.286 527.421C273.923 525.596 260.717 517.758 245.899 509.168C215.219 491.202 181.649 478.704 146.688 472.232L111.256 465.468C119.562 514.346 139.166 560.61 168.506 600.576C197.847 640.541 236.113 673.104 280.258 695.672C311.396 641.235 351.875 568.652 351.875 568.652C328.826 561.901 307.21 550.983 288.096 536.44V536.44Z" fill="white"/>
</svg>
