<svg width="2209" height="764" viewBox="0 0 2209 764" fill="none" xmlns="http://www.w3.org/2000/svg">
<path d="M961.189 277.602L1036.35 99.4732L977.295 99.3659L940.467 191.383L904.068 99.2585L845.014 99.1511L919.422 277.602H961.189Z" fill="black"/>
<path d="M1166.16 229.61H1114.73V211.786L1163.37 211.894L1163.47 164.221L1114.84 164.113V147.256L1166.37 147.363V99.6906L1060.61 99.4758L1060.29 277.605H1166.16V229.61Z" fill="black"/>
<path d="M1262.8 226.609L1295.54 277.61H1363.62L1309.93 206.745C1318.65 203.784 1326.32 198.379 1332.05 191.177C1339.38 181.294 1343.17 169.225 1342.79 156.925C1342.84 149.599 1341.57 142.324 1339.03 135.451C1336.57 128.657 1332.73 122.443 1327.76 117.198C1322.35 111.725 1315.83 107.477 1308.64 104.743C1300.02 101.392 1290.84 99.7157 1281.59 99.8036H1208.68V277.718H1263.01L1262.8 226.609ZM1262.8 144.255H1265.48C1271.22 143.847 1276.93 145.276 1281.8 148.335C1283.23 149.735 1284.36 151.406 1285.14 153.249C1285.91 155.093 1286.31 157.073 1286.31 159.073C1286.31 161.072 1285.91 163.052 1285.14 164.896C1284.36 166.739 1283.23 168.41 1281.8 169.81C1276.93 172.869 1271.22 174.298 1265.48 173.89H1262.8V144.255Z" fill="black"/>
<path d="M1473.78 277.818L1473.99 194.068L1540.24 100.225L1474.96 100.118L1447.04 141.349L1419.13 100.011H1353.95L1419.66 193.961L1419.45 277.71L1473.78 277.818Z" fill="black"/>
<path d="M1238.64 456.17C1246.07 438.924 1248.12 419.834 1244.52 401.402C1240.92 382.971 1231.83 366.057 1218.45 352.879C1209.49 344.269 1198.9 337.518 1187.32 333.015C1174.86 328.171 1161.6 325.73 1148.23 325.821V325.821C1134.87 325.675 1121.61 328.08 1109.15 332.907C1097.4 337.3 1086.67 344.019 1077.58 352.664C1068.9 361.126 1062 371.238 1057.29 382.406C1052.38 394.022 1049.9 406.517 1049.99 419.127C1049.87 431.493 1052.25 443.756 1056.99 455.178C1061.74 466.6 1068.74 476.945 1077.58 485.589C1086.42 494.238 1096.9 501.028 1108.4 505.56C1120.92 510.423 1134.26 512.864 1147.7 512.754V512.754C1161.02 512.881 1174.25 510.476 1186.67 505.668C1198.24 501.176 1208.82 494.465 1217.81 485.912C1226.66 477.483 1233.75 467.372 1238.64 456.17ZM1186.35 435.447C1184.18 440.264 1181.07 444.605 1177.22 448.224C1173.4 451.865 1168.92 454.744 1164.02 456.707C1158.9 458.623 1153.48 459.64 1148.02 459.713C1142.54 459.74 1137.11 458.719 1132.02 456.707C1122.33 452.626 1114.63 444.919 1110.55 435.232C1108.28 430.168 1107.15 424.673 1107.22 419.127C1107.19 413.584 1108.32 408.098 1110.55 403.021C1114.84 393.252 1122.77 385.547 1132.66 381.547C1137.73 379.572 1143.12 378.552 1148.56 378.54V378.54C1154.04 378.547 1159.47 379.604 1164.55 381.654C1169.46 383.617 1173.94 386.496 1177.76 390.136C1181.61 393.772 1184.68 398.156 1186.78 403.021C1189.05 408.081 1190.19 413.579 1190.11 419.127C1190.03 424.772 1188.75 430.337 1186.35 435.447V435.447Z" fill="black"/>
<path d="M1454.13 456.485C1459.13 444.893 1461.65 432.386 1461.54 419.764C1461.63 407.155 1459.15 394.659 1454.24 383.043C1449.58 371.815 1442.67 361.657 1433.95 353.194C1425.03 344.565 1414.48 337.81 1402.92 333.33C1390.42 328.476 1377.13 326.035 1363.73 326.136C1350.36 325.829 1337.05 328.089 1324.53 332.793C1313.1 337.162 1302.67 343.8 1293.87 352.307C1285.06 360.813 1278.08 371.013 1273.32 382.292C1268.45 393.922 1265.93 406.403 1265.91 419.013C1265.8 431.384 1268.17 443.652 1272.9 455.088C1277.62 466.524 1284.59 476.894 1293.4 485.583C1302.28 494.399 1312.88 501.305 1324.53 505.876C1337.05 510.79 1350.39 513.233 1363.83 513.07V513.07C1377.16 513.215 1390.39 510.81 1402.81 505.983C1414.3 501.646 1424.79 495.023 1433.65 486.515C1442.51 478.007 1449.55 467.791 1454.35 456.485H1454.13ZM1401.84 435.763C1399.75 440.627 1396.68 445.012 1392.82 448.647C1388.93 452.254 1384.42 455.127 1379.51 457.129C1374.45 459.114 1369.06 460.134 1363.62 460.136C1358.12 460.247 1352.67 459.185 1347.62 457.022C1342.72 455.059 1338.24 452.18 1334.41 448.54C1330.69 444.815 1327.67 440.451 1325.5 435.655C1323.31 430.571 1322.22 425.084 1322.28 419.549C1322.21 414.003 1323.35 408.508 1325.61 403.444C1327.74 398.627 1330.77 394.255 1334.52 390.559C1342.41 383.191 1352.82 379.12 1363.62 379.178V379.178C1369.06 379.127 1374.46 380.148 1379.51 382.184C1384.43 384.165 1388.95 387.041 1392.82 390.667C1396.62 394.35 1399.68 398.723 1401.84 403.551C1404.02 408.639 1405.12 414.123 1405.06 419.657C1405.18 425.196 1404.08 430.694 1401.84 435.763Z" fill="black"/>
<path d="M1620.77 482.043C1628.68 473.835 1634.98 464.221 1639.35 453.697C1643.81 443.018 1646.11 431.558 1646.11 419.982C1646.11 408.407 1643.81 396.947 1639.35 386.268C1634.95 375.731 1628.62 366.116 1620.67 357.922C1612.71 349.789 1603.32 343.2 1592.96 338.488C1582.21 333.583 1570.53 331.056 1558.71 331.079H1489.14V508.778H1558.82C1570.67 508.847 1582.39 506.357 1593.18 501.477C1603.48 496.718 1612.82 490.134 1620.77 482.043V482.043ZM1586.95 436.732C1585.19 441.506 1582.44 445.858 1578.9 449.51C1575.16 453.205 1570.7 456.093 1565.8 457.992C1560.07 460.139 1553.99 461.195 1547.87 461.106H1543.25V378.752H1547.65C1553.75 378.652 1559.8 379.747 1565.48 381.973C1570.4 383.776 1574.88 386.632 1578.58 390.34C1582.29 394.049 1585.15 398.522 1586.95 403.447C1589.01 408.714 1590.03 414.329 1589.96 419.982C1589.94 425.698 1588.92 431.367 1586.95 436.732V436.732Z" fill="black"/>
<path d="M940.467 645.247L904.068 553.122L845.014 553.015L919.422 730.822L961.189 730.929L1036.35 553.337L977.295 553.229L940.467 645.247Z" fill="black"/>
<path d="M1059.54 731.039L1165.41 731.254L1165.52 683.473L1113.98 683.366V665.65L1162.62 665.757L1162.72 618.084L1114.09 617.977V601.12L1165.62 601.227L1165.73 553.554L1059.86 553.339L1059.54 731.039Z" fill="black"/>
<path d="M1324.11 645.244L1252.38 553.657L1200.84 553.549L1200.63 731.249L1254.96 731.356L1255.07 639.876L1326.79 731.464L1378.01 731.571L1378.33 553.871L1324.21 553.764L1324.11 645.244Z" fill="black"/>
<path d="M1407.1 601.654H1442.75L1442.54 731.681L1496.87 731.789L1496.97 601.762L1532.62 601.869L1532.73 554.089L1407.21 553.874L1407.1 601.654Z" fill="black"/>
<path d="M1666.41 650.402C1666.41 655.233 1666.41 660.065 1665.87 665.004C1665.63 669.085 1664.65 673.088 1662.97 676.815C1661.51 680.05 1659.11 682.778 1656.1 684.653C1651.95 686.866 1647.26 687.871 1642.57 687.552V687.552C1637.79 687.891 1633.02 686.847 1628.83 684.546C1625.85 682.752 1623.49 680.093 1622.06 676.922C1620.48 673.093 1619.54 669.03 1619.27 664.897C1619.27 659.958 1618.73 655.126 1618.73 650.402V554.304H1564.4V656.414C1564.4 683.687 1570.95 704.087 1583.84 717.079C1591.82 724.075 1601.11 729.415 1611.18 732.788C1621.24 736.161 1631.88 737.501 1642.46 736.728V736.728C1653 737.525 1663.59 736.217 1673.62 732.88C1683.65 729.544 1692.91 724.245 1700.87 717.294C1713.76 704.409 1720.31 683.901 1720.31 656.629V554.519H1666.62L1666.41 650.402Z" fill="black"/>
<path d="M1881.47 645.889C1888.77 636.031 1892.55 624.007 1892.2 611.745C1892.2 604.423 1890.93 597.157 1888.45 590.27C1885.94 583.227 1881.92 576.819 1876.67 571.495C1871.42 566.172 1865.07 562.062 1858.06 559.455C1849.65 556.314 1840.73 554.784 1831.75 554.945H1758.85V732.537H1813.18V681.321L1845.39 732.322H1913.46L1859.78 661.35C1868.32 658.341 1875.84 652.981 1881.47 645.889V645.889ZM1831.65 624.414C1826.82 627.466 1821.14 628.895 1815.43 628.494H1812.64V598.43H1815.33C1821.08 598.031 1826.8 599.5 1831.65 602.618C1833.21 603.917 1834.44 605.567 1835.24 607.433C1836.05 609.299 1836.4 611.328 1836.26 613.355C1836.56 615.522 1836.29 617.729 1835.48 619.761C1834.67 621.793 1833.35 623.581 1831.65 624.951V624.414Z" fill="black"/>
<path d="M1935.48 732.433L2041.24 732.648L2041.34 684.868H1989.81L1989.91 667.152H2038.55V619.479L1989.91 619.371V602.514L2041.45 602.621L2041.56 554.949L1935.69 554.734L1935.48 732.433Z" fill="black"/>
<path d="M2163.43 620.443C2159.78 619.155 2156.12 618.081 2152.69 617.008C2149.63 616.147 2146.65 615.034 2143.78 613.679C2141.81 612.747 2140.03 611.475 2138.52 609.921C2138.08 609.445 2137.75 608.884 2137.55 608.274C2137.35 607.664 2137.27 607.018 2137.33 606.378C2137.3 605.194 2137.57 604.02 2138.11 602.968C2138.66 601.917 2139.46 601.021 2140.45 600.365C2143.86 598.569 2147.65 597.63 2151.51 597.63C2155.36 597.63 2159.16 598.569 2162.57 600.365C2167.16 602.242 2171.43 604.814 2175.24 607.988L2180.5 612.283L2203.37 567.617L2198.54 565.147C2189.99 560.486 2180.9 556.88 2171.48 554.41C2162.58 551.855 2153.36 550.625 2144.1 550.759C2135.32 550.676 2126.6 552.129 2118.33 555.054C2110.9 557.768 2104.11 561.969 2098.36 567.402C2092.8 572.823 2088.42 579.328 2085.47 586.514C2082.44 594.316 2080.91 602.623 2080.96 610.995C2080.74 618.848 2082.24 626.655 2085.37 633.865C2088.09 639.694 2092.04 644.861 2096.96 649.004C2101.65 653.023 2106.99 656.218 2112.75 658.453C2118.33 660.708 2123.48 662.748 2129.5 664.466C2135.51 666.184 2138.09 667.472 2141.31 668.76C2143.69 669.725 2145.96 670.949 2148.07 672.411C2149.23 673.219 2150.19 674.285 2150.86 675.525C2151.42 676.81 2151.68 678.206 2151.62 679.605C2151.58 680.963 2151.25 682.297 2150.66 683.519C2150.07 684.741 2149.22 685.822 2148.18 686.691C2144.7 689.205 2140.43 690.386 2136.15 690.02C2130.42 689.788 2124.78 688.514 2119.51 686.262C2113.03 683.227 2107.05 679.207 2101.79 674.344L2096.53 669.727L2072.38 715.037L2076.35 717.829C2094.3 730.757 2115.86 737.707 2137.98 737.693C2147.78 737.847 2157.53 736.396 2166.86 733.398C2175.07 730.748 2182.67 726.476 2189.2 720.836C2195.29 715.398 2200.06 708.641 2203.15 701.079C2206.46 693.045 2208.1 684.426 2207.99 675.74C2208.56 663.38 2204.76 651.215 2197.25 641.381C2188.15 631.375 2176.44 624.121 2163.43 620.443V620.443Z" fill="black"/>
<path d="M870.567 486.225C878.926 494.588 888.899 501.164 899.879 505.552C911.868 510.164 924.614 512.495 937.459 512.424V512.424C946.998 512.446 956.497 511.182 965.698 508.666C974.51 506.307 982.936 502.691 990.716 497.928C998.379 493.093 1005.17 486.994 1010.79 479.89C1016.61 472.485 1021.18 464.18 1024.32 455.302C1026.78 448.368 1028.37 441.154 1029.05 433.828C1029.86 425.657 1030.25 417.45 1030.23 409.24V403.656H933.594V442.31H970.208C968.653 448.9 964.858 454.745 959.47 458.845C956.801 460.622 953.81 461.862 950.666 462.496C941.426 464.82 931.686 464.143 922.857 460.563C918.331 458.566 914.327 455.553 911.153 451.759C907.818 447.733 905.367 443.05 903.96 438.015C900.247 425.8 900.247 412.758 903.96 400.543C905.648 395.266 908.306 390.35 911.798 386.048C914.959 382.214 918.965 379.164 923.501 377.136C928.339 375.015 933.574 373.953 938.855 374.022V374.022C945.21 373.933 951.448 375.727 956.786 379.176C960.048 381.427 962.823 384.312 964.946 387.658L1015.41 365.432C1008.58 353.907 998.938 344.303 987.387 337.516C972.577 329.337 955.878 325.19 938.963 325.49C925.807 325.228 912.722 327.488 900.416 332.147C889.272 336.426 879.117 342.929 870.567 351.259C862.379 359.716 856.084 369.818 852.099 380.894C847.483 392.916 845.188 405.704 845.335 418.581C845.197 431.527 847.491 444.384 852.099 456.483C856.148 467.56 862.435 477.684 870.567 486.225Z" fill="black"/>
<path d="M414.671 393.799L403.934 387.786C396.844 383.638 390.641 378.133 385.681 371.586C380.72 365.038 377.099 357.577 375.025 349.629C372.951 341.681 372.464 333.402 373.592 325.266C374.721 317.129 377.442 309.295 381.601 302.211L400.283 270L475.443 312.197C479.96 314.732 483.921 318.148 487.091 322.244C490.262 326.34 492.577 331.031 493.899 336.038C495.221 341.046 495.523 346.268 494.787 351.395C494.052 356.522 492.293 361.449 489.616 365.883L483.174 376.62C476.253 387.854 465.216 395.938 452.418 399.148C439.62 402.357 426.074 400.438 414.671 393.799Z" fill="white"/>
<path d="M333.839 231.872C330.334 229.892 326.461 228.65 322.458 228.221C316.483 227.5 310.427 228.55 305.044 231.242C299.661 233.934 295.187 238.148 292.179 243.361L273.5 274.5L396.5 267.5L333.839 231.872Z" fill="white"/>
<path d="M431.114 174.862C432.295 177.009 433.691 179.157 435.301 181.519C441.973 189.969 450.594 196.674 460.426 201.061C468.866 205.635 480.4 208.494 490 208.5L474.5 156.609L469.5 154.5C465.466 154.121 461.394 153.12 457.5 152C450.845 150.043 445.559 147.15 440 143C437.508 141.157 433.266 139.23 431.114 137L428 169.171L429.396 171.963L431.114 174.862Z" fill="white"/>
<path d="M490.084 284.161C492.889 285.645 495.576 287.344 498.12 289.242C503.754 293.257 508.771 298.074 513.01 303.542C512.526 303.976 513.464 303.92 513.754 303.976C514.044 304.032 514.345 303.988 514.607 303.85C514.868 303.713 515.075 303.49 515.193 303.219C516.928 304.414 519.702 302.521 516.378 301.662L498.12 231.453C495.638 231.453 490.557 231.453 488.075 231.453C485.593 231.453 483.348 231.453 480.984 231.453C461.958 229.443 447.248 219.305 433.5 206C431.491 204.109 428.773 201.891 427 200C425.227 198.109 425.036 196.009 423.5 194L417.168 219.636L414.568 243.271L452.031 263.243L490.084 284.161Z" fill="white"/>
<path d="M468.371 132.07L450.118 36.1875C450.118 35.0769 449.677 34.0118 448.892 33.2265C448.106 32.4412 447.041 32 445.931 32C444.82 32 443.755 32.4412 442.97 33.2265C442.184 34.0118 441.743 35.0769 441.743 36.1875L435.301 108.126C438.844 126.379 468.371 132.07 468.371 132.07Z" fill="white"/>
<path d="M214.225 398.033C230.223 397.067 233.552 389.014 234.84 385.471C236.506 381.189 236.506 376.438 234.84 372.156C233.661 369.319 231.764 366.838 229.335 364.955C226.907 363.073 224.031 361.854 220.989 361.419C220.989 361.419 189.959 358.735 150.768 351.434L140.031 349.394C120.168 345.314 100.626 341.019 84.9498 337.368L73.6758 376.559C129.294 390.946 191.784 399.751 214.225 398.033Z" fill="white"/>
<path d="M586.909 254.689L505.414 390.835C495.013 407.81 478.385 420.043 459.083 424.918C439.781 429.794 419.338 426.926 402.123 416.927L391.386 410.806C372.31 399.603 358.137 381.643 351.674 360.485C345.212 339.327 346.931 316.514 356.49 296.563L250.837 301.395C247.141 301.548 243.458 300.853 240.071 299.364C236.684 297.876 233.682 295.632 231.296 292.805L202.091 258.447C201.446 257.588 200.909 257.158 200.48 256.621L198.977 255.118C196.83 252.849 194.495 250.766 191.998 248.89C186.76 245.068 180.764 242.414 174.413 241.108C168.062 239.801 161.505 239.873 155.184 241.319C148.864 242.764 142.927 245.549 137.775 249.485C132.623 253.422 128.375 258.418 125.32 264.137L122.958 268.539C122.188 269.948 120.956 271.048 119.47 271.655C117.983 272.261 116.333 272.336 114.798 271.868L109.966 270.257C99.5151 266.796 88.148 267.367 78.0961 271.856C68.0441 276.346 60.0333 284.431 55.636 294.523L53.4886 301.18C93.216 317.715 203.808 335.646 223.994 336.398C231.694 337.41 238.976 340.49 245.064 345.311C251.152 350.133 255.819 356.515 258.568 363.778C260.721 369.351 261.688 375.311 261.407 381.279C261.126 387.247 259.603 393.09 256.935 398.436C254.267 403.781 250.513 408.511 245.914 412.324C241.314 416.136 235.97 418.947 230.222 420.577L221.847 423.154C218.157 424.308 214.329 424.958 210.465 425.087C191.649 425.07 172.854 423.815 154.203 421.329L136.057 418.859L125.32 417.249C94.042 412.992 63.2339 405.803 33.3028 395.774L31.1554 405.438C30.7851 408.694 31.0782 411.992 32.0171 415.131C32.956 418.271 34.5212 421.189 36.6182 423.707C38.7153 426.225 41.3007 428.293 44.2187 429.785C47.1366 431.277 50.3265 432.162 53.596 432.388L182.442 453.862C206.273 457.775 229.439 465.003 251.267 475.337L256.313 477.913C270.084 484.905 283.169 493.173 295.396 502.609L308.496 512.594C331.515 530.176 358.192 542.359 386.554 548.242C393.105 550.521 400.115 551.155 406.967 550.088C413.82 549.02 420.306 546.285 425.852 542.121C425.852 542.121 438.2 531.384 446.038 542.121C448.052 544.481 449.057 547.537 448.836 550.631C448.615 553.725 447.186 556.608 444.857 558.657C431.221 574.655 412.646 580.131 386.984 576.91L309.784 711.768C325.168 717.736 341.001 722.475 357.135 725.941C406.967 736.689 458.662 735.192 507.789 721.578C556.915 707.964 602.007 682.639 639.199 647.775L576.494 414.35L586.909 254.689Z" fill="white"/>
<path d="M715.632 225.424C690.909 186.926 658.788 153.72 621.132 127.732C583.477 101.744 541.036 83.4904 496.272 74.0305L492.514 73.279H489.615L481.348 29.3641C479.752 20.8199 475.115 13.1426 468.297 7.75221C461.478 2.36178 452.938 -0.377187 444.256 0.041851C435.574 0.460889 427.337 4.00958 421.07 10.0316C414.802 16.0537 410.926 24.1417 410.16 32.8L407.047 66.8367C358.745 68.4478 311.333 80.2753 267.934 101.54C224.534 122.805 186.134 153.024 155.261 190.206C150.601 196.139 146.638 202.588 143.45 209.426C128.017 213.561 114.549 223.034 105.441 236.161C102.382 235.729 99.2962 235.514 96.2069 235.517C81.3929 235.498 66.8981 239.82 54.5137 247.949C42.1293 256.078 32.3982 267.658 26.523 281.257L25.3419 282.331C22.1782 289.972 22.0747 298.537 25.0529 306.253C28.0311 313.968 33.8629 320.243 41.3402 323.776L53.3658 329.359L42.6287 367.476C31.8915 364.792 21.1544 362.108 14.39 366.188C7.62562 370.268 5.58558 379.394 2.57919 388.414L0.431754 398.077C0.328553 399.184 0.328553 400.298 0.431754 401.406C-0.481192 408.661 0.0569725 416.026 2.01498 423.072C3.97299 430.118 7.3118 436.704 11.8374 442.449C16.3629 448.193 21.985 452.981 28.3769 456.534C34.7688 460.086 41.8031 462.333 49.0709 463.144L79.6718 468.405C79.5135 469.904 79.5135 471.416 79.6718 472.915C88.8104 526.783 110.44 577.761 142.827 621.764C175.215 665.768 217.459 701.573 266.176 726.311C270.685 728.673 292.804 738.444 298.387 740.592C338.249 756.014 380.625 763.914 423.367 763.891C511.495 763.838 596.326 730.381 660.765 670.263C667.315 664.143 687.823 642.239 693.621 635.26C740.242 578.093 767.496 507.593 771.453 433.931C775.409 360.27 755.862 287.256 715.632 225.424V225.424ZM441.728 35.8064C441.728 34.6958 442.169 33.6307 442.954 32.8454C443.739 32.0601 444.805 31.6189 445.915 31.6189C447.026 31.6189 448.091 32.0601 448.876 32.8454C449.661 33.6307 450.103 34.6958 450.103 35.8064L468.356 131.689C468.356 131.689 438.829 125.569 435.285 107.316L441.728 35.8064ZM432.601 138.561C434.754 140.791 437.088 142.838 439.58 144.681C445.139 148.831 451.393 151.958 458.048 153.915C461.942 155.035 465.932 155.79 469.966 156.17H472.758L488.327 207.6C478.727 207.594 469.28 205.196 460.84 200.621C451.008 196.235 442.386 189.529 435.715 181.08C434.104 178.718 432.709 176.57 431.527 174.423L429.809 171.738L428.414 168.947L432.601 138.561ZM423.152 222.525L425.515 201.051C426.946 202.912 428.449 204.737 430.024 206.527C431.635 208.245 433.353 210.07 435.178 211.788C447.669 223.876 463.847 231.436 481.133 233.262C483.28 233.262 485.428 233.262 487.575 233.262C489.83 233.262 492.085 233.262 494.34 233.262L512.271 297.685C512.341 297.944 512.321 298.219 512.213 298.466C512.106 298.712 511.918 298.914 511.681 299.039C511.443 299.164 511.17 299.205 510.906 299.154C510.643 299.103 510.404 298.963 510.231 298.759C506.379 293.791 501.821 289.414 496.702 285.767C494.39 284.042 491.949 282.499 489.401 281.15L454.827 262.789L420.576 243.785L423.152 222.525ZM381.922 302.946L400.604 270.735L475.764 312.932C480.281 315.467 484.242 318.883 487.412 322.979C490.583 327.074 492.898 331.765 494.22 336.773C495.542 341.781 495.844 347.003 495.108 352.13C494.373 357.257 492.614 362.183 489.937 366.617L483.495 377.354C476.575 388.589 465.538 396.673 452.739 399.883C439.941 403.092 426.395 401.173 414.992 394.534L404.255 388.521C397.165 384.373 390.962 378.868 386.002 372.32C381.042 365.773 377.421 358.312 375.346 350.364C373.272 342.416 372.785 334.137 373.914 326C375.042 317.864 377.763 310.03 381.922 302.946V302.946ZM274.551 273.849L291.73 244.214C294.738 239.001 299.212 234.787 304.595 232.095C309.978 229.404 316.033 228.353 322.009 229.075C326.012 229.503 329.885 230.745 333.39 232.725L395.021 267.299L274.551 273.849ZM423.367 732.216C401.097 732.185 378.892 729.81 357.119 725.13C340.986 721.664 325.153 716.925 309.768 710.957L386.754 577.709C412.415 581.038 430.991 575.454 444.627 559.456C446.955 557.407 448.385 554.524 448.606 551.431C448.827 548.337 447.822 545.28 445.808 542.921C437.97 532.184 425.622 542.921 425.622 542.921C420.075 547.084 413.59 549.82 406.737 550.887C399.884 551.954 392.874 551.32 386.324 549.041C357.962 543.158 331.285 530.976 308.265 513.394L295.166 503.408C282.939 493.973 269.854 485.704 256.083 478.713L250.822 475.599C228.994 465.266 205.828 458.038 181.997 454.125L53.151 432.651C49.8816 432.425 46.6917 431.54 43.7738 430.048C40.8558 428.556 38.2704 426.488 36.1733 423.97C34.0762 421.451 32.5111 418.534 31.5722 415.394C30.6333 412.254 30.3402 408.957 30.7104 405.7L32.8579 396.037C62.7889 406.065 93.597 413.255 124.875 417.511L135.612 419.122L153.758 421.591C172.312 423.92 190.999 425.032 209.698 424.92C213.562 424.791 217.39 424.141 221.08 422.987L229.455 420.41C239.127 417.835 247.597 411.961 253.399 403.805C259.202 395.649 261.973 385.722 261.235 375.739C260.496 365.757 256.294 356.346 249.355 349.132C242.415 341.919 233.174 337.355 223.227 336.231C203.041 335.48 92.4489 317.549 52.7216 301.013L54.869 294.356C59.2662 284.264 67.2771 276.179 77.329 271.689C87.3809 267.2 98.748 266.63 109.199 270.091L114.031 271.701C115.566 272.169 117.216 272.094 118.703 271.488C120.189 270.881 121.421 269.781 122.191 268.373L124.553 263.97C127.608 258.252 131.856 253.255 137.008 249.319C142.16 245.382 148.096 242.597 154.417 241.152C160.738 239.706 167.295 239.634 173.646 240.941C179.997 242.247 185.993 244.901 191.23 248.724C193.728 250.599 196.063 252.683 198.21 254.951L199.713 256.454C199.713 256.991 200.679 257.421 201.323 258.28L230.636 292.961C233.184 295.702 236.333 297.817 239.835 299.139C243.337 300.462 247.097 300.956 250.822 300.584L356.69 295.86C347.13 315.81 345.411 338.624 351.874 359.782C358.336 380.94 372.509 398.899 391.585 410.103L402.322 416.223C419.537 426.222 439.98 429.09 459.282 424.215C478.584 419.339 495.213 407.106 505.614 390.132L587.108 253.985L576.371 413.646L639.076 647.071C580.47 701.618 503.43 732.028 423.367 732.216V732.216ZM73.659 375.744L84.3961 336.768C100.072 340.419 119.614 344.714 139.478 348.794L150.215 350.834C189.405 358.135 220.65 360.927 220.435 360.819C223.481 361.244 226.362 362.459 228.792 364.342C231.222 366.226 233.116 368.713 234.286 371.556C235.952 375.838 235.952 380.589 234.286 384.87C232.998 388.414 229.777 396.467 213.671 397.433C191.767 398.936 129.277 390.132 73.659 375.744Z" fill="black"/>
<path d="M429.274 384.87H433.246H435.072C444.024 384.857 452.794 382.336 460.385 377.591C467.977 372.846 474.086 366.069 478.02 358.027C478.829 356.353 479.248 354.518 479.248 352.658C479.248 350.799 478.829 348.964 478.02 347.29C477.317 345.652 476.274 344.183 474.96 342.98C473.645 341.777 472.09 340.867 470.397 340.311C469.154 339.88 467.847 339.663 466.532 339.667C464.275 339.793 462.092 340.515 460.206 341.76C458.32 343.005 456.797 344.728 455.794 346.753C453.938 350.585 451.04 353.815 447.431 356.075C443.823 358.335 439.651 359.533 435.394 359.53H434.535C429.577 359.37 424.814 357.556 421.006 354.376C418.726 352.528 415.888 351.506 412.953 351.477C409.805 351.465 406.771 352.656 404.471 354.806C403.167 356.02 402.138 357.501 401.455 359.147C400.772 360.793 400.45 362.567 400.511 364.348C400.572 366.129 401.015 367.876 401.809 369.472C402.603 371.067 403.731 372.473 405.115 373.596C411.909 379.611 420.3 383.527 429.274 384.87V384.87Z" fill="black"/>
<path opacity="0.7" d="M411.879 98.511C410.375 111.825 409.194 121.166 409.087 121.166L404.148 154.022L395.343 230.256L349.818 204.809C335.332 196.533 318.156 194.338 302.054 198.706C285.953 203.073 272.24 213.647 263.921 228.108L244.916 261.286C244.916 261.286 212.705 215.116 179.312 210.821C208.075 176.887 243.633 149.359 283.691 130.014C323.749 110.67 367.417 99.9378 411.879 98.511V98.511Z" fill="white"/>
<path opacity="0.7" d="M280.243 697.856C236.097 675.289 197.831 642.726 168.491 602.76C139.151 562.795 119.547 516.531 111.24 467.652L147.21 474.417C182.17 480.888 215.74 493.386 246.421 511.352C261.238 519.942 274.445 527.78 276.807 529.606L288.618 538.625C307.731 553.167 329.348 564.085 352.396 570.836C352.396 570.836 311.38 643.527 280.243 697.856Z" fill="white"/>
<path opacity="0.7" d="M733.134 481.398C722.654 530.498 700.563 576.374 668.711 615.182L664.309 621.195C664.309 619.585 606.006 410.425 606.006 410.533L615.562 228.001C614.837 222.938 612.557 218.224 609.037 214.512C605.517 210.8 600.931 208.272 595.913 207.279H593.873C589.152 206.687 584.361 207.502 580.101 209.622C575.842 211.742 572.303 215.073 569.929 219.197L535.034 277.929L486.18 104.739H489.401C571.664 122.377 643.553 171.966 689.26 242.6C734.967 313.234 750.748 399.13 733.134 481.398Z" fill="white"/>
</svg>
