<svg width="2771" height="646" viewBox="0 0 2771 646" fill="none" xmlns="http://www.w3.org/2000/svg">
<path d="M361.961 325.019H365.236H366.874C374.431 324.988 381.829 322.847 388.234 318.838C394.64 314.829 399.8 309.111 403.132 302.329C403.77 300.955 404.101 299.458 404.101 297.943C404.101 296.427 403.77 294.931 403.132 293.556C402.538 292.2 401.671 290.98 400.584 289.973C399.497 288.967 398.214 288.196 396.816 287.708C394.367 286.965 391.735 287.109 389.382 288.114C387.029 289.12 385.105 290.922 383.95 293.206C382.369 296.387 379.935 299.067 376.92 300.946C373.904 302.826 370.427 303.831 366.874 303.849H366.055C361.773 303.805 357.638 302.276 354.359 299.522C352.422 297.912 349.976 297.042 347.458 297.065C344.809 297.059 342.258 298.063 340.323 299.872C339.236 300.884 338.381 302.118 337.815 303.491C337.25 304.863 336.988 306.342 337.048 307.826C337.101 309.331 337.472 310.807 338.137 312.158C338.803 313.509 339.747 314.703 340.908 315.662C346.841 320.802 354.17 324.06 361.961 325.019V325.019Z" fill="black"/>
<path d="M604.072 190.395C583.153 157.857 555.986 129.793 524.143 107.829C492.301 85.8644 456.418 70.4365 418.571 62.4387L415.998 61.8539H413.542L406.524 24.777C405.124 17.6039 401.188 11.1749 395.435 6.6667C389.683 2.15852 382.499 -0.127224 375.2 0.227824C367.9 0.582873 360.972 3.55497 355.684 8.60012C350.397 13.6453 347.103 20.4259 346.406 27.701L343.715 56.4736C302.888 57.8342 262.811 67.824 226.121 85.7858C189.431 103.748 156.961 129.274 130.845 160.687C127.047 165.707 123.867 171.165 121.371 176.944C108.181 179.995 96.5205 187.671 88.5049 198.582C85.8956 198.411 83.2779 198.411 80.6685 198.582C68.2196 198.615 56.0518 202.286 45.6617 209.144C35.2717 216.001 27.1125 225.746 22.1877 237.179L21.6028 238.583C18.8223 245.03 18.6727 252.309 21.1858 258.865C23.699 265.421 28.6758 270.735 35.0534 273.672L45.2291 278.35L35.8722 310.631C26.9831 308.409 17.3922 306.07 12.4798 309.579C7.56743 313.088 4.99428 320.69 2.53809 328.293L0.666702 336.48C0.61051 337.415 0.61051 338.352 0.666702 339.287C-0.0997235 345.429 0.360191 351.662 2.01981 357.625C3.67944 363.588 6.50575 369.162 10.3351 374.025C14.1644 378.888 18.9206 382.942 24.328 385.954C29.7355 388.965 35.6868 390.874 41.8372 391.569L67.6858 395.897C67.6858 397.183 67.6858 398.47 67.6858 399.756C75.3327 445.083 93.4219 488.009 120.522 525.137C147.623 562.266 182.991 592.579 223.83 613.679C227.689 615.551 246.403 623.855 251.316 625.375C265.609 630.887 280.314 635.267 295.293 638.475C315.733 642.963 336.59 645.276 357.517 645.376C432.038 645.379 503.778 617.076 558.223 566.193C563.72 561.047 581.616 542.801 586.06 536.602C615.44 500.394 635.839 457.751 645.594 412.154C653.704 374.283 654.21 335.177 647.082 297.109C639.954 259.04 625.335 222.767 604.072 190.395V190.395ZM372.488 29.8064C372.64 28.9709 373.08 28.2153 373.732 27.6712C374.384 27.1272 375.206 26.8291 376.055 26.8291C376.904 26.8291 377.727 27.1272 378.379 27.6712C379.03 28.2153 379.471 28.9709 379.623 29.8064L394.945 110.744C394.945 110.744 370.032 105.948 367.108 90.3925L372.488 29.8064ZM364.769 116.709C366.55 118.606 368.508 120.33 370.617 121.855C375.301 125.431 380.618 128.09 386.289 129.692C389.567 130.69 392.937 131.356 396.348 131.68H398.804L411.904 175.19C403.727 175.218 395.677 173.166 388.512 169.225C380.178 165.599 372.896 159.927 367.342 152.733C366.037 150.926 364.826 149.052 363.716 147.119L362.312 144.546C362.312 143.727 361.494 142.908 361.143 142.207L364.769 116.709ZM356.815 187.705L358.803 169.693L362.546 174.254L366.874 178.816C373.573 185.258 381.539 190.237 390.266 193.436C395.277 195.298 400.504 196.516 405.822 197.062C407.613 197.182 409.411 197.182 411.202 197.062H416.933L432.138 251.566C432.172 251.782 432.138 252.003 432.04 252.198C431.943 252.394 431.787 252.554 431.594 252.657C431.401 252.76 431.181 252.8 430.964 252.772C430.747 252.745 430.545 252.65 430.384 252.501C427.026 248.301 423.088 244.599 418.688 241.507C416.817 240.104 414.711 238.817 412.606 237.53L383.716 221.974L354.71 205.951L356.815 187.705ZM321.727 255.659L337.516 228.173L401.027 263.262C404.857 265.424 408.211 268.338 410.887 271.829C413.563 275.32 415.506 279.315 416.599 283.576C417.691 287.837 417.911 292.275 417.245 296.622C416.579 300.97 415.041 305.139 412.723 308.877L407.343 317.649C401.514 327.329 392.086 334.304 381.124 337.045C370.161 339.785 358.56 338.068 348.862 332.269L341.142 327.24C329.256 320.149 320.633 308.671 317.132 295.281C313.631 281.89 315.533 267.66 322.428 255.659H321.727ZM231.081 231.097L245.585 206.068C248.147 201.678 251.937 198.132 256.488 195.868C261.038 193.603 266.152 192.717 271.199 193.319C274.596 193.722 277.887 194.753 280.907 196.36L332.955 225.6L231.081 231.097ZM357.517 618.592C338.685 618.563 319.908 616.564 301.492 612.627C287.883 609.741 274.511 605.831 261.491 600.93L326.639 488.179C335.412 490.279 344.59 489.963 353.198 487.265C361.807 484.568 369.523 479.589 375.529 472.857C377.488 471.104 378.683 468.654 378.858 466.03C379.033 463.407 378.174 460.82 376.465 458.822C369.798 449.816 359.505 458.822 359.505 458.822C354.791 462.335 349.288 464.64 343.478 465.537C337.667 466.434 331.726 465.896 326.171 463.968C302.254 458.986 279.754 448.716 260.322 433.909L248.626 425.371C238.256 417.428 227.175 410.459 215.525 404.552L211.315 402.446C192.805 393.472 173.115 387.171 152.834 383.733L44.4104 365.487C41.5938 365.289 38.848 364.515 36.3435 363.211C33.8391 361.907 31.6296 360.102 29.8525 357.908C28.0753 355.714 26.7685 353.178 26.0133 350.458C25.2581 347.737 25.0707 344.89 25.4626 342.094L27.217 333.907C52.5203 342.314 78.5632 348.306 104.997 351.802L114.12 353.206L129.442 355.194C144.963 357.113 160.587 358.09 176.226 358.118C179.517 357.973 182.778 357.423 185.934 356.48L192.952 354.258C200.678 351.996 207.454 347.273 212.25 340.808C215.922 335.919 218.297 330.181 219.156 324.129C220.015 318.076 219.329 311.904 217.163 306.187C214.803 300.044 210.851 294.639 205.713 290.528C200.574 286.417 194.434 283.748 187.922 282.795C170.963 282.21 77.3936 267.122 43.8256 253.086L45.6969 247.472C49.4012 238.946 56.155 232.109 64.6356 228.302C73.1162 224.494 82.7128 223.99 91.5459 226.887L95.6396 228.29C96.9377 228.675 98.328 228.607 99.5821 228.097C100.836 227.586 101.879 226.665 102.54 225.483L104.529 221.741C107.121 216.914 110.716 212.698 115.074 209.378C119.432 206.057 124.45 203.708 129.791 202.489C135.132 201.27 140.673 201.209 146.04 202.311C151.406 203.412 156.475 205.651 160.904 208.875C163.052 210.44 165.049 212.202 166.869 214.138L168.039 215.425L169.442 216.945L194.238 246.303C196.258 248.682 198.792 250.572 201.649 251.828C204.506 253.085 207.611 253.675 210.73 253.554L300.206 249.577C292.093 266.422 290.622 285.704 296.083 303.585C301.545 321.466 313.54 336.634 329.68 346.071L338.569 351.217C346.135 355.657 354.537 358.484 363.248 359.521C375.48 360.953 387.867 358.863 398.951 353.497C410.036 348.131 419.359 339.711 425.823 329.228L494.713 214.138L486.175 349.229L539.158 546.543C489.833 592.557 424.972 618.284 357.517 618.592ZM61.2528 316.947L70.6098 283.964C83.8265 287.005 100.435 290.748 117.395 294.14L126.634 295.894C159.735 302.093 186.168 304.316 186.051 304.316C188.655 304.744 191.103 305.843 193.154 307.504C195.204 309.165 196.787 311.331 197.747 313.789C199.281 317.537 199.281 321.738 197.747 325.486C196.695 328.527 193.887 335.31 180.437 336.129C140.091 334.462 100.084 328.024 61.2528 316.947V316.947Z" fill="black"/>
<path d="M841.856 206.651L793.317 83.7241L714.484 83.6072L813.785 320.689L869.459 320.806L969.812 84.075L890.98 83.9581L841.856 206.651Z" fill="black"/>
<path d="M1149.7 147.466L1149.82 83.8386L1008.64 83.7217L1008.29 320.803H1149.47V257.176L1080.81 257.059L1080.93 233.433L1145.72 233.55L1145.84 169.922H1081.04V147.349L1149.7 147.466Z" fill="black"/>
<path d="M1365.73 205.48C1375.32 192.255 1380.18 176.188 1379.53 159.865C1379.74 149.973 1378.24 140.119 1375.08 130.741C1371.72 121.684 1366.54 113.407 1359.88 106.413C1352.74 99.0751 1344.08 93.4038 1334.5 89.8045C1323.29 85.5937 1311.38 83.5304 1299.41 83.7225H1202.1V320.921H1274.61V252.732L1318.24 320.804H1409L1336.72 226.299C1348.16 222.235 1358.22 215.017 1365.73 205.48V205.48ZM1299.29 177.526C1292.87 181.765 1285.2 183.702 1277.54 183.023H1274.03V142.905H1277.65C1285.27 142.333 1292.87 144.263 1299.29 148.402C1301.45 150.143 1303.16 152.384 1304.26 154.931C1305.36 157.479 1305.82 160.256 1305.61 163.023C1305.83 165.773 1305.37 168.537 1304.27 171.068C1303.17 173.599 1301.46 175.817 1299.29 177.526V177.526Z" fill="black"/>
<path d="M1556.73 83.8411L1519.65 138.813L1482.34 83.7241L1395.32 83.6072L1483.04 208.99L1482.81 320.689L1555.32 320.806L1555.44 209.107L1643.74 84.075L1556.73 83.8411Z" fill="black"/>
<path d="M845.716 505.369L797.294 382.559L718.462 382.442L817.645 619.524L873.436 619.641L973.672 382.793L894.84 382.676L845.716 505.369Z" fill="black"/>
<path d="M1146.07 446.657V383.03L1005.02 382.796L1004.67 619.76L1145.72 619.994L1145.84 556.367L1077.18 556.25V532.624L1142.1 532.741L1142.21 469.114L1077.3 468.997V446.54L1146.07 446.657Z" fill="black"/>
<path d="M1192.62 620.114L1265.14 620.231L1265.37 498.24L1360.93 620.348L1429.35 620.465L1429.7 383.501L1357.54 383.384L1357.3 505.375L1261.75 383.267L1193.09 383.15L1192.62 620.114Z" fill="black"/>
<path d="M1587.72 620.7L1587.95 447.362L1635.44 447.479L1635.56 383.852L1468.18 383.618L1468.07 447.245H1515.55L1515.32 620.583L1587.72 620.7Z" fill="black"/>
<path d="M1813.93 512.276C1813.93 518.709 1813.93 525.142 1813.22 531.692C1812.87 537.191 1811.53 542.581 1809.25 547.599C1807.28 551.813 1804.16 555.382 1800.24 557.891C1794.71 560.931 1788.41 562.312 1782.11 561.868V561.868C1775.74 562.236 1769.39 560.861 1763.75 557.891C1759.79 555.434 1756.65 551.85 1754.74 547.599C1752.6 542.549 1751.33 537.169 1751 531.692C1751 525.025 1750.3 518.592 1750.3 512.276V383.618H1677.78V520.113C1677.78 556.488 1686.44 583.74 1703.63 601.05C1720.82 618.36 1747.14 627.133 1781.88 627.25C1816.38 627.25 1842.58 618.477 1859.77 601.284C1876.97 584.091 1885.62 556.839 1885.74 520.463V384.32H1813.57L1813.93 512.276Z" fill="black"/>
<path d="M2100.25 506.307C2109.84 493.083 2114.7 477.015 2114.05 460.692C2114.12 450.772 2112.46 440.915 2109.14 431.568C2105.81 422.517 2100.68 414.239 2094.05 407.24C2086.85 399.901 2078.15 394.197 2068.55 390.515C2057.33 386.344 2045.43 384.32 2033.46 384.55H1936.27V621.514H2008.78V553.676L2052.41 621.631H2143.17L2071.01 527.126C2082.5 523.045 2092.63 515.834 2100.25 506.307V506.307ZM2033.81 478.353C2027.39 482.492 2019.79 484.422 2012.17 483.85H2008.55V444.2H2012.17C2019.83 443.745 2027.44 445.709 2033.93 449.814C2036.06 451.573 2037.74 453.821 2038.82 456.366C2039.9 458.911 2040.35 461.679 2040.13 464.435C2040.3 467.05 2039.87 469.669 2038.85 472.086C2037.84 474.502 2036.27 476.648 2034.28 478.353H2033.81Z" fill="black"/>
<path d="M2172.65 621.633L2313.82 621.867L2313.93 558.24L2245.28 558.123V534.497L2310.08 534.614L2310.19 470.987H2245.4V448.413L2314.05 448.53L2314.17 384.903L2173 384.669L2172.65 621.633Z" fill="black"/>
<path d="M2476.63 472.274C2471.83 470.637 2466.92 469.116 2462.01 467.713C2457.99 466.575 2454.08 465.088 2450.31 463.268C2447.63 462.069 2445.21 460.361 2443.18 458.239C2442.62 457.604 2442.2 456.862 2441.93 456.057C2441.67 455.252 2441.58 454.403 2441.66 453.561C2441.62 451.982 2441.98 450.42 2442.69 449.012C2443.41 447.604 2444.46 446.395 2445.75 445.49C2450.3 443.122 2455.36 441.886 2460.49 441.886C2465.62 441.886 2470.68 443.122 2475.23 445.49C2481.38 448.027 2487.1 451.499 2492.19 455.783L2499.2 461.514L2529.61 401.98L2523.3 398.589C2511.89 392.373 2499.75 387.618 2487.16 384.436C2475.24 381.329 2462.98 379.718 2450.66 379.641C2439 379.485 2427.4 381.385 2416.39 385.255C2406.44 388.871 2397.32 394.483 2389.61 401.746C2382.24 408.992 2376.43 417.669 2372.53 427.244C2368.45 437.633 2366.43 448.715 2366.57 459.876C2366.16 470.316 2368.12 480.712 2372.3 490.287C2375.96 498.078 2381.22 505.011 2387.74 510.638C2394.07 515.957 2401.22 520.222 2408.91 523.27C2416.28 526.194 2423.76 528.884 2431.25 531.223C2438.73 533.562 2442.95 535.2 2446.92 536.954C2450.15 538.142 2453.18 539.797 2455.93 541.867C2457.5 542.889 2458.79 544.298 2459.67 545.96C2460.44 547.645 2460.8 549.489 2460.72 551.341C2460.67 553.164 2460.23 554.955 2459.42 556.59C2458.61 558.226 2457.46 559.667 2456.04 560.814C2451.43 564.208 2445.73 565.79 2440.02 565.259C2432.38 565.19 2424.84 563.474 2417.92 560.23C2409.36 556.143 2401.47 550.78 2394.52 544.323L2387.62 538.124L2355.34 598.71L2360.6 602.336C2384.48 619.457 2413.09 628.735 2442.48 628.886V628.886C2455.57 629.035 2468.59 627.1 2481.07 623.155C2492.02 619.62 2502.13 613.889 2510.78 606.313C2518.95 599.086 2525.35 590.083 2529.5 579.996C2533.81 569.253 2536 557.772 2535.93 546.194C2536.75 529.468 2531.57 512.998 2521.31 499.76C2509.26 486.624 2493.79 477.106 2476.63 472.274V472.274Z" fill="black"/>
<path d="M2226.8 252.029C2233.43 236.589 2236.77 219.94 2236.62 203.139C2236.8 186.271 2233.49 169.549 2226.92 154.015C2220.7 139.099 2211.51 125.607 2199.9 114.365C2188.09 102.852 2174.09 93.8243 2158.73 87.8147C2142.06 81.3416 2124.32 78.0872 2106.45 78.2238V78.2238C2088.61 78.0391 2070.91 81.2545 2054.28 87.6978C2038.93 93.6698 2024.93 102.658 2013.11 114.131C2001.55 125.372 1992.37 138.814 1986.09 153.664C1976.26 176.673 1973.55 202.104 1978.33 226.668C1983.1 251.231 1995.14 273.796 2012.88 291.445C2024.54 302.862 2038.33 311.882 2053.46 317.995C2070.18 324.434 2087.95 327.687 2105.86 327.586C2123.65 327.706 2141.3 324.492 2157.91 318.112C2173.38 312.254 2187.57 303.434 2199.66 292.147C2211.32 280.741 2220.55 267.095 2226.8 252.029ZM2156.62 224.426C2153.87 230.821 2149.89 236.621 2144.93 241.502C2139.78 246.47 2133.75 250.437 2127.15 253.199C2120.41 255.875 2113.22 257.226 2105.98 257.175C2098.62 257.515 2091.29 256.112 2084.57 253.082C2078.04 250.323 2072.09 246.355 2067.03 241.385C2062.11 236.416 2058.15 230.588 2055.33 224.192C2052.44 217.387 2050.97 210.064 2051.01 202.671C2050.94 195.301 2052.46 188.002 2055.45 181.267C2058.24 174.818 2062.29 168.986 2067.34 164.108C2072.4 159.23 2078.38 155.402 2084.92 152.845C2091.69 150.12 2098.92 148.729 2106.21 148.752V148.752C2113.51 148.72 2120.74 150.111 2127.5 152.845C2134.1 155.607 2140.13 159.574 2145.28 164.542C2150.22 169.487 2154.19 175.32 2156.97 181.735C2159.89 188.533 2161.36 195.86 2161.3 203.256C2161.41 210.531 2159.97 217.745 2157.09 224.426H2156.62Z" fill="black"/>
<path d="M2393.59 328.055C2411.38 328.224 2429.04 325.009 2445.63 318.581C2461.08 312.583 2475.19 303.601 2487.15 292.147C2498.73 280.901 2507.96 267.462 2514.29 252.614C2527.25 221.188 2527.25 185.909 2514.29 154.483C2508.03 139.59 2498.84 126.107 2487.27 114.833C2475.35 103.346 2461.28 94.3237 2445.87 88.283C2429.2 81.8099 2411.46 78.5554 2393.59 78.6921V78.6921C2375.75 78.5074 2358.05 81.7227 2341.42 88.166C2326.21 94.0326 2312.34 102.895 2300.63 114.227C2288.92 125.559 2279.6 139.13 2273.23 154.132C2266.62 169.617 2263.27 186.301 2263.41 203.139C2263.25 219.956 2266.52 236.628 2273 252.146C2279.28 267.221 2288.56 280.867 2300.25 292.264C2311.95 303.661 2325.84 312.573 2341.07 318.464C2357.78 324.903 2375.56 328.156 2393.47 328.055H2393.59ZM2354.64 241.971C2349.7 237.021 2345.73 231.189 2342.94 224.777C2340 217.99 2338.52 210.655 2338.61 203.256C2338.55 195.886 2340.06 188.588 2343.06 181.852C2345.85 175.403 2349.89 169.572 2354.95 164.693C2360.01 159.815 2365.99 155.987 2372.53 153.431C2379.26 150.717 2386.45 149.327 2393.7 149.337V149.337C2401 149.315 2408.22 150.705 2414.99 153.431C2421.59 156.193 2427.62 160.159 2432.77 165.127C2437.71 170.073 2441.68 175.905 2444.46 182.32C2447.37 189.121 2448.84 196.447 2448.79 203.841C2448.86 211.211 2447.34 218.51 2444.35 225.245C2441.59 231.641 2437.62 237.44 2432.65 242.322C2427.53 247.329 2421.5 251.301 2414.87 254.018C2408.14 256.695 2400.95 258.045 2393.7 257.994C2386.42 258.054 2379.19 256.704 2372.42 254.018C2365.76 251.205 2359.72 247.111 2354.64 241.971V241.971Z" fill="black"/>
<path d="M2736.29 121.157C2725.73 110.278 2713.24 101.471 2699.44 95.1917C2685.13 88.645 2669.57 85.2925 2653.83 85.3669H2560.96V322.331H2653.71C2669.52 322.41 2685.17 319.058 2699.56 312.507C2713.46 306.284 2726.04 297.472 2736.64 286.541C2747.27 275.669 2755.69 262.839 2761.43 248.762C2767.48 234.602 2770.58 219.362 2770.56 203.966C2770.59 188.456 2767.49 173.099 2761.43 158.819C2755.56 144.761 2747.02 131.972 2736.29 121.157V121.157ZM2691.37 226.423C2689.06 232.788 2685.38 238.575 2680.61 243.382C2675.69 248.469 2669.76 252.455 2663.18 255.078C2655.45 257.842 2647.3 259.227 2639.09 259.172H2633.13V149.462H2638.97C2646.96 149.443 2654.89 150.869 2662.37 153.673C2668.85 156.145 2674.72 159.985 2679.58 164.929C2684.45 169.874 2688.19 175.808 2690.55 182.328C2693.26 189.38 2694.61 196.881 2694.53 204.434C2694.78 211.816 2693.71 219.182 2691.37 226.189V226.423Z" fill="black"/>
<path d="M1948.2 221.975C1949.28 211.054 1949.79 200.083 1949.72 189.109V181.74H1819.54V233.671H1868.9C1866.82 242.426 1861.78 250.193 1854.63 255.66C1851.06 257.995 1847.1 259.659 1842.93 260.572C1830.57 263.614 1817.56 262.714 1805.74 257.999C1799.69 255.412 1794.35 251.399 1790.18 246.303C1785.77 240.881 1782.47 234.64 1780.47 227.94C1778.21 220.112 1777.11 211.994 1777.2 203.846C1777.05 195.028 1778.4 186.249 1781.18 177.881C1783.38 170.84 1786.91 164.288 1791.59 158.582C1795.83 153.564 1801.14 149.567 1807.14 146.886C1813.58 144.013 1820.56 142.576 1827.61 142.675V142.675C1835.9 142.603 1844.04 144.962 1851 149.459C1855.36 152.608 1859.05 156.582 1861.88 161.155L1929.25 131.447C1920.09 116.104 1907.22 103.313 1891.82 94.2529C1872.11 83.2619 1849.83 77.6926 1827.26 78.1122C1809.73 77.8252 1792.3 80.8817 1775.91 87.1182C1761.05 92.7478 1747.51 101.389 1736.15 112.499C1724.91 123.605 1716.21 137.012 1710.65 151.798C1704.53 167.851 1701.47 184.911 1701.64 202.092C1701.35 219.358 1704.41 236.518 1710.65 252.619C1716.31 267.399 1724.95 280.855 1736.03 292.152C1747.13 303.399 1760.48 312.168 1775.21 317.884C1791.12 324.105 1808.07 327.24 1825.15 327.124V327.124C1837.87 327.179 1850.54 325.527 1862.82 322.211C1874.57 319.002 1885.79 314.117 1896.15 307.708C1906.37 301.246 1915.43 293.1 1922.93 283.614C1930.7 273.723 1936.79 262.619 1940.95 250.748C1944.55 241.494 1946.98 231.829 1948.2 221.975V221.975Z" fill="black"/>
<path opacity="0.7" d="M346.874 82.9102C345.587 94.6063 344.652 102.092 344.535 102.092L340.324 129.812L332.838 194.258L294.475 172.737C288.348 169.276 281.585 167.088 274.592 166.304C264.269 165.074 253.813 166.901 244.519 171.558C235.225 176.215 227.503 183.498 222.31 192.503L206.169 220.574C206.169 220.574 178.566 181.509 150.729 177.766C175 149.15 204.989 125.928 238.769 109.592C272.548 93.2559 309.372 84.1673 346.874 82.9102V82.9102Z" fill="white"/>
<path opacity="0.7" d="M235.995 589.702C198.574 570.673 166.125 543.149 141.246 509.334C116.367 475.518 99.7471 436.349 92.7168 394.96L123.127 400.692C152.678 406.35 181.017 417.116 206.871 432.505C219.503 439.757 230.264 446.424 232.603 447.944L242.545 455.547C258.717 467.824 276.988 477.058 296.464 482.799C296.464 482.799 262.311 543.619 235.995 589.702Z" fill="white"/>
<path opacity="0.7" d="M618.809 406.545C610.035 448.025 591.467 486.804 564.656 519.647L560.913 524.676C560.913 523.39 511.672 346.544 511.672 346.778L519.625 192.856C519.1 188.527 517.205 184.479 514.217 181.302C511.23 178.125 507.306 175.985 503.017 175.195H501.379C497.39 174.685 493.339 175.368 489.738 177.158C486.137 178.948 483.146 181.765 481.145 185.254L451.671 234.845L410.032 88.1753H412.839C447.271 95.5496 479.913 109.635 508.9 129.627C537.887 149.619 562.651 175.126 581.778 204.691C600.905 234.256 614.02 267.3 620.374 301.934C626.728 336.569 626.196 372.116 618.809 406.545V406.545Z" fill="white"/>
</svg>
