<svg width="2178" height="708" viewBox="0 0 2178 708" fill="none" xmlns="http://www.w3.org/2000/svg">
<path d="M930.862 247.298L1006.02 69.1695L946.968 69.0622L910.14 161.079L873.741 68.9548L814.687 68.8474L889.095 247.298H930.862Z" fill="white"/>
<path d="M1135.83 199.306H1084.4V181.482L1133.04 181.59L1133.15 133.917L1084.51 133.81V116.952L1136.05 117.06V69.3869L1030.29 69.1721L1029.96 247.301H1135.83V199.306Z" fill="white"/>
<path d="M1232.47 196.296L1265.22 247.297H1333.29L1279.61 176.432C1288.32 173.47 1296 168.066 1301.72 160.863C1309.06 150.981 1312.84 138.912 1312.46 126.612C1312.51 119.286 1311.24 112.011 1308.7 105.138C1306.24 98.3435 1302.4 92.1299 1297.43 86.8845C1292.02 81.4116 1285.51 77.164 1278.32 74.4294C1269.69 71.0787 1260.51 69.4024 1251.26 69.4903H1178.35V247.405H1232.68L1232.47 196.296ZM1232.47 113.942H1235.15C1240.89 113.533 1246.61 114.963 1251.47 118.022C1252.9 119.422 1254.04 121.092 1254.81 122.936C1255.59 124.78 1255.99 126.759 1255.99 128.759C1255.99 130.759 1255.59 132.739 1254.81 134.583C1254.04 136.426 1252.9 138.097 1251.47 139.496C1246.61 142.556 1240.89 143.985 1235.15 143.577H1232.47V113.942Z" fill="white"/>
<path d="M1443.45 247.514L1443.67 163.764L1509.92 69.9218L1444.63 69.8144L1416.72 111.045L1388.8 69.707H1323.63L1389.34 163.657L1389.12 247.407L1443.45 247.514Z" fill="white"/>
<path d="M1208.31 425.856C1215.75 408.61 1217.8 389.52 1214.19 371.089C1210.59 352.657 1201.51 335.744 1188.13 322.565C1179.16 313.956 1168.58 307.205 1156.99 302.702C1144.53 297.858 1131.27 295.417 1117.91 295.508C1104.55 295.362 1091.28 297.767 1078.82 302.594C1067.08 306.986 1056.34 313.706 1047.26 322.351C1038.58 330.813 1031.68 340.925 1026.96 352.092C1022.05 363.708 1019.57 376.204 1019.66 388.813C1019.54 401.18 1021.92 413.443 1026.67 424.865C1031.41 436.287 1038.41 446.631 1047.26 455.276C1056.09 463.925 1066.57 470.715 1078.07 475.247C1090.6 480.11 1103.93 482.551 1117.37 482.441C1130.69 482.568 1143.92 480.163 1156.34 475.355C1167.91 470.863 1178.49 464.152 1187.48 455.598C1196.34 447.17 1203.42 437.058 1208.31 425.856ZM1156.02 405.134C1153.85 409.951 1150.75 414.292 1146.9 417.911C1143.07 421.552 1138.59 424.431 1133.69 426.393C1128.57 428.309 1123.16 429.326 1117.69 429.4C1112.21 429.427 1106.78 428.406 1101.69 426.393C1092.01 422.313 1084.3 414.606 1080.22 404.919C1077.96 399.855 1076.82 394.36 1076.89 388.813C1076.86 383.271 1077.99 377.784 1080.22 372.708C1084.51 362.939 1092.45 355.233 1102.34 351.233C1107.4 349.259 1112.79 348.239 1118.23 348.227C1123.71 348.234 1129.14 349.291 1134.23 351.341C1139.13 353.304 1143.61 356.182 1147.43 359.823C1151.29 363.458 1154.35 367.843 1156.45 372.708C1158.73 377.768 1159.86 383.266 1159.78 388.813C1159.7 394.459 1158.42 400.024 1156.02 405.134Z" fill="white"/>
<path d="M1423.8 426.182C1428.8 414.589 1431.32 402.083 1431.21 389.461C1431.3 376.851 1428.82 364.356 1423.91 352.74C1419.25 341.511 1412.35 331.354 1403.62 322.891C1394.71 314.261 1384.16 307.507 1372.59 303.027C1360.1 298.173 1346.8 295.731 1333.4 295.833C1320.03 295.526 1306.73 297.786 1294.21 302.49C1282.77 306.859 1272.34 313.497 1263.54 322.003C1254.74 330.51 1247.75 340.709 1242.99 351.988C1238.12 363.619 1235.6 376.1 1235.58 388.709C1235.47 401.081 1237.85 413.349 1242.57 424.785C1247.29 436.22 1254.26 446.59 1263.07 455.279C1271.96 464.096 1282.55 471.002 1294.21 475.572C1306.72 480.487 1320.06 482.93 1333.51 482.766C1346.83 482.912 1360.06 480.506 1372.48 475.68C1383.97 471.342 1394.46 464.719 1403.32 456.212C1412.18 447.704 1419.22 437.488 1424.02 426.182H1423.8ZM1371.51 405.459C1369.42 410.324 1366.35 414.708 1362.5 418.344C1358.61 421.95 1354.09 424.824 1349.18 426.826C1344.12 428.811 1338.73 429.83 1333.29 429.832C1327.8 429.943 1322.34 428.882 1317.29 426.719C1312.39 424.756 1307.91 421.877 1304.09 418.236C1300.37 414.512 1297.35 410.147 1295.17 405.352C1292.99 400.267 1291.89 394.781 1291.95 389.246C1291.88 383.7 1293.02 378.205 1295.28 373.14C1297.42 368.323 1300.44 363.952 1304.19 360.256C1312.08 352.888 1322.49 348.816 1333.29 348.874C1338.73 348.823 1344.13 349.845 1349.18 351.881C1354.11 353.861 1358.62 356.737 1362.5 360.363C1366.29 364.046 1369.35 368.419 1371.51 373.248C1373.69 378.335 1374.79 383.82 1374.74 389.353C1374.85 394.893 1373.75 400.39 1371.51 405.459Z" fill="white"/>
<path d="M1590.45 451.73C1598.35 443.522 1604.65 433.908 1609.02 423.384C1613.49 412.704 1615.79 401.244 1615.79 389.669C1615.79 378.094 1613.49 366.634 1609.02 355.955C1604.63 345.418 1598.29 335.802 1590.34 327.609C1582.38 319.476 1572.99 312.886 1562.64 308.174C1551.89 303.27 1540.2 300.743 1528.39 300.766H1458.81V478.465H1528.49C1540.34 478.534 1552.06 476.044 1562.85 471.164C1573.15 466.405 1582.5 459.82 1590.45 451.73ZM1556.62 406.419C1554.86 411.193 1552.12 415.545 1548.57 419.196C1544.83 422.892 1540.37 425.779 1535.47 427.679C1529.74 429.826 1523.66 430.882 1517.54 430.792H1512.92V348.439H1517.33C1523.42 348.339 1529.48 349.433 1535.15 351.66C1540.08 353.463 1544.55 356.318 1548.26 360.027C1551.97 363.736 1554.82 368.209 1556.62 373.134C1558.68 378.401 1559.7 384.015 1559.63 389.669C1559.61 395.385 1558.6 401.054 1556.62 406.419Z" fill="white"/>
<path d="M910.14 614.933L873.741 522.809L814.687 522.701L889.095 700.508L930.862 700.615L1006.02 523.023L946.968 522.916L910.14 614.933Z" fill="white"/>
<path d="M1029.21 700.725L1135.08 700.94L1135.19 653.16L1083.65 653.053V635.336L1132.29 635.444L1132.4 587.771L1083.76 587.663V570.806L1135.3 570.913L1135.41 523.241L1029.54 523.026L1029.21 700.725Z" fill="white"/>
<path d="M1293.78 614.941L1222.05 523.353L1170.52 523.246L1170.3 700.945L1224.63 701.052L1224.74 609.572L1296.46 701.16L1347.68 701.267L1348 523.568L1293.89 523.46L1293.78 614.941Z" fill="white"/>
<path d="M1376.78 571.341H1412.42L1412.21 701.368L1466.54 701.475L1466.65 571.449L1502.29 571.556L1502.4 523.776L1376.88 523.561L1376.78 571.341Z" fill="white"/>
<path d="M1636.08 620.088C1636.08 624.92 1636.08 629.751 1635.54 634.691C1635.3 638.771 1634.32 642.774 1632.64 646.501C1631.18 649.737 1628.79 652.465 1625.77 654.339C1621.62 656.553 1616.93 657.557 1612.24 657.238C1607.47 657.578 1602.69 656.534 1598.5 654.232C1595.52 652.439 1593.16 649.779 1591.73 646.609C1590.15 642.779 1589.21 638.717 1588.94 634.583C1588.94 629.644 1588.4 624.812 1588.4 620.088V523.991H1534.07V626.101C1534.07 653.373 1540.62 673.774 1553.51 686.766C1561.49 693.762 1570.78 699.102 1580.85 702.475C1590.91 705.848 1601.55 707.187 1612.13 706.415C1622.67 707.211 1633.26 705.903 1643.29 702.567C1653.32 699.23 1662.58 693.932 1670.54 686.98C1683.43 674.096 1689.98 653.588 1689.98 626.316V524.205H1636.29L1636.08 620.088Z" fill="white"/>
<path d="M1851.14 615.585C1858.44 605.728 1862.22 593.704 1861.88 581.441C1861.88 574.119 1860.61 566.853 1858.12 559.967C1855.61 552.924 1851.59 546.515 1846.34 541.192C1841.09 535.868 1834.74 531.758 1827.73 529.151C1819.33 526.01 1810.4 524.48 1801.43 524.641H1728.52V702.234H1782.85V651.017L1815.06 702.019H1883.14L1829.45 631.046C1837.99 628.037 1845.51 622.678 1851.14 615.585ZM1801.32 594.111C1796.49 597.162 1790.81 598.591 1785.11 598.191H1782.32V568.127H1785C1790.75 567.727 1796.47 569.196 1801.32 572.314C1802.88 573.613 1804.11 575.263 1804.92 577.129C1805.72 578.995 1806.07 581.024 1805.94 583.051C1806.23 585.218 1805.96 587.425 1805.16 589.457C1804.35 591.489 1803.03 593.277 1801.32 594.647V594.111Z" fill="white"/>
<path d="M1905.15 702.12L2010.91 702.335L2011.02 654.555H1959.48L1959.59 636.838H2008.23V589.166L1959.59 589.058V572.201L2011.13 572.308L2011.23 524.635L1905.37 524.421L1905.15 702.12Z" fill="white"/>
<path d="M2133.1 590.13C2129.45 588.842 2125.8 587.768 2122.36 586.695C2119.3 585.834 2116.32 584.721 2113.45 583.366C2111.49 582.434 2109.71 581.162 2108.19 579.608C2107.76 579.132 2107.43 578.571 2107.22 577.961C2107.02 577.351 2106.95 576.705 2107.01 576.065C2106.97 574.881 2107.24 573.707 2107.79 572.655C2108.33 571.604 2109.14 570.708 2110.12 570.052C2113.53 568.256 2117.33 567.317 2121.18 567.317C2125.04 567.317 2128.83 568.256 2132.24 570.052C2136.83 571.929 2141.1 574.501 2144.91 577.675L2150.17 581.97L2173.04 537.304L2168.21 534.834C2159.66 530.173 2150.57 526.567 2141.15 524.097C2132.25 521.542 2123.03 520.312 2113.77 520.446C2105 520.363 2096.28 521.816 2088 524.741C2080.58 527.455 2073.78 531.656 2068.03 537.089C2062.47 542.51 2058.09 549.015 2055.15 556.201C2052.11 564.003 2050.58 572.31 2050.64 580.682C2050.41 588.535 2051.92 596.342 2055.04 603.552C2057.76 609.381 2061.72 614.548 2066.64 618.691C2071.33 622.71 2076.66 625.905 2082.42 628.14C2088 630.395 2093.16 632.435 2099.17 634.153C2105.18 635.871 2107.76 637.159 2110.98 638.447C2113.36 639.412 2115.63 640.636 2117.75 642.098C2118.9 642.906 2119.86 643.972 2120.54 645.212C2121.09 646.497 2121.35 647.893 2121.29 649.292C2121.25 650.65 2120.93 651.984 2120.33 653.206C2119.74 654.428 2118.9 655.509 2117.85 656.378C2114.37 658.892 2110.11 660.073 2105.83 659.707C2100.1 659.475 2094.46 658.201 2089.18 655.949C2082.7 652.914 2076.72 648.894 2071.47 644.031L2066.21 639.414L2042.05 684.724L2046.02 687.516C2063.97 700.444 2085.53 707.394 2107.65 707.38C2117.45 707.534 2127.21 706.083 2136.54 703.085C2144.75 700.435 2152.34 696.163 2158.87 690.523C2164.96 685.085 2169.74 678.328 2172.83 670.766C2176.13 662.732 2177.77 654.113 2177.66 645.427C2178.23 633.067 2174.43 620.902 2166.92 611.068C2157.83 601.062 2146.11 593.808 2133.1 590.13Z" fill="white"/>
<path d="M840.241 455.921C848.6 464.285 858.573 470.86 869.553 475.248C881.542 479.86 894.288 482.191 907.133 482.12C916.672 482.142 926.171 480.878 935.372 478.362C944.184 476.004 952.609 472.387 960.389 467.625C968.053 462.789 974.842 456.69 980.468 449.586C986.285 442.181 990.855 433.876 993.996 424.998C996.458 418.064 998.045 410.851 998.721 403.524C999.532 395.353 999.926 387.147 999.902 378.936V373.353H903.268V412.006H939.881C938.327 418.596 934.532 424.441 929.144 428.542C926.474 430.319 923.484 431.559 920.34 432.192C911.1 434.516 901.36 433.839 892.531 430.259C888.005 428.262 884.001 425.25 880.827 421.455C877.492 417.429 875.041 412.747 873.633 407.712C869.92 395.497 869.92 382.454 873.633 370.239C875.322 364.962 877.98 360.046 881.471 355.744C884.633 351.91 888.639 348.86 893.175 346.832C898.012 344.711 903.248 343.65 908.529 343.718C914.884 343.63 921.122 345.423 926.46 348.872C929.722 351.123 932.497 354.008 934.62 357.354L985.085 335.129C978.254 323.604 968.612 313.999 957.061 307.212C942.25 299.034 925.552 294.887 908.636 295.186C895.48 294.925 882.396 297.184 870.09 301.843C858.946 306.122 848.79 312.625 840.241 320.956C832.053 329.412 825.758 339.514 821.773 350.59C817.157 362.612 814.862 375.4 815.009 388.277C814.871 401.223 817.165 414.08 821.773 426.179C825.822 437.256 832.108 447.38 840.241 455.921Z" fill="white"/>
<path d="M374.356 357.673L385.093 363.686C396.496 370.325 410.042 372.244 422.84 369.035C435.638 365.825 446.675 357.741 453.596 346.506L460.038 335.769C462.715 331.335 464.474 326.409 465.209 321.282C465.945 316.155 465.643 310.933 464.321 305.925C462.999 300.917 460.684 296.226 457.513 292.131C454.343 288.035 450.382 284.618 445.865 282.084L370.705 239.887L352.023 272.098C347.864 279.182 345.142 287.016 344.014 295.152C342.886 303.289 343.373 311.568 345.447 319.516C347.521 327.464 351.142 334.925 356.103 341.472C361.063 348.02 367.266 353.525 374.356 357.673ZM374.356 325.462C376.656 323.311 379.69 322.121 382.838 322.133C385.773 322.162 388.611 323.184 390.891 325.032C394.699 328.212 399.461 330.026 404.42 330.186H405.279C409.536 330.188 413.708 328.991 417.316 326.731C420.925 324.471 423.823 321.24 425.679 317.409C426.682 315.384 428.205 313.661 430.091 312.416C431.977 311.171 434.16 310.448 436.416 310.322C437.732 310.318 439.039 310.536 440.282 310.967C441.975 311.523 443.53 312.433 444.844 313.636C446.159 314.839 447.202 316.308 447.905 317.946C448.714 319.62 449.133 321.455 449.133 323.314C449.133 325.173 448.714 327.009 447.905 328.683C443.981 336.732 437.874 343.517 430.28 348.263C422.686 353.009 413.912 355.526 404.957 355.526H403.024H399.051C390.022 354.396 381.517 350.665 374.571 344.788C373.186 343.666 372.059 342.26 371.264 340.664C370.47 339.069 370.028 337.322 369.966 335.54C369.905 333.759 370.227 331.986 370.91 330.339C371.594 328.693 372.622 327.213 373.926 325.999L374.356 325.462Z" fill="white"/>
<path d="M303.279 202.415C299.774 200.434 295.901 199.192 291.898 198.764C285.922 198.042 279.867 199.093 274.484 201.784C269.1 204.476 264.627 208.69 261.619 213.903L244.439 243.538L364.803 236.988L303.279 202.415Z" fill="white"/>
<path d="M401.202 144.324C402.383 146.472 403.779 148.619 405.389 150.981C412.061 159.431 420.682 166.136 430.514 170.523C438.954 175.097 448.401 177.496 458.001 177.502L442.432 126.071H439.641C435.606 125.692 431.616 124.937 427.722 123.816C421.067 121.859 414.813 118.733 409.255 114.582C406.762 112.74 404.428 110.692 402.275 108.462L398.088 138.633L399.484 141.425L401.202 144.324Z" fill="white"/>
<path d="M459.075 251.484C461.624 252.833 464.065 254.376 466.376 256.101C471.496 259.748 476.053 264.125 479.905 269.093C480.079 269.297 480.317 269.437 480.581 269.488C480.845 269.539 481.118 269.498 481.355 269.373C481.593 269.248 481.781 269.046 481.888 268.8C481.995 268.554 482.015 268.278 481.945 268.019L464.014 203.596C461.759 203.596 459.505 203.596 457.25 203.596C454.995 203.596 452.955 203.596 450.807 203.596C433.521 201.77 417.344 194.21 404.853 182.122C403.027 180.404 401.309 178.579 399.699 176.861C398.088 175.143 396.585 173.21 395.189 171.385L392.827 192.859L390.465 214.334L424.502 232.479L459.075 251.484Z" fill="white"/>
<path d="M438.028 100.951L419.774 5.0681C419.774 3.95751 419.333 2.8924 418.548 2.1071C417.763 1.32179 416.697 0.880615 415.587 0.880615C414.476 0.880615 413.411 1.32179 412.626 2.1071C411.84 2.8924 411.399 3.95751 411.399 5.0681L404.957 77.0069C408.5 95.26 438.028 100.951 438.028 100.951Z" fill="white"/>
<path opacity="0.6" d="M214.699 230.973L233.703 197.795C242.022 183.333 255.735 172.76 271.836 168.393C287.938 164.025 305.114 166.22 319.6 174.495L365.126 199.942L373.93 123.709L378.869 90.8531C378.869 90.8531 380.158 81.5118 381.661 68.1978C337.2 69.6245 293.531 80.3565 253.473 99.7012C213.415 119.046 177.858 146.574 149.095 180.508C182.058 184.373 214.699 230.973 214.699 230.973Z" fill="white"/>
<path opacity="0.6" d="M459.074 74.9707H455.853L505.029 248.375L539.924 189.643C542.237 185.383 545.777 181.917 550.086 179.696C554.394 177.475 559.271 176.601 564.083 177.188H566.123C571.148 178.241 575.72 180.833 579.203 184.605C582.686 188.377 584.907 193.14 585.557 198.233L576.001 380.764C576.001 380.764 634.304 589.816 634.304 591.427L638.706 585.414C672.961 543.331 695.834 493.156 705.135 439.697C714.436 386.239 709.851 331.287 691.822 280.108C673.792 228.929 642.921 183.238 602.167 147.412C561.413 111.587 512.142 86.8278 459.074 75.5076V74.9707Z" fill="white"/>
<path d="M183.882 366.914C199.88 365.947 203.209 357.894 204.497 354.351C206.163 350.069 206.163 345.319 204.497 341.037C203.318 338.2 201.421 335.718 198.993 333.836C196.564 331.953 193.688 330.735 190.646 330.3C190.646 330.3 159.616 327.616 120.426 320.314L109.688 318.274C89.8248 314.194 70.2832 309.899 54.607 306.249L43.333 345.439C98.9513 359.827 161.441 368.631 183.882 366.914Z" fill="white"/>
<path d="M556.567 223.569L475.072 359.716C464.671 376.691 448.042 388.923 428.74 393.799C409.438 398.675 388.995 395.806 371.78 385.807L361.043 379.687C341.967 368.483 327.794 350.524 321.332 329.366C314.869 308.208 316.588 285.395 326.148 265.444L220.494 270.276C216.798 270.428 213.115 269.734 209.728 268.245C206.341 266.756 203.34 264.513 200.953 261.686L171.748 227.327C171.104 226.468 170.567 226.039 170.137 225.502L168.634 223.999C166.487 221.73 164.152 219.647 161.655 217.771C156.418 213.949 150.421 211.294 144.07 209.988C137.719 208.682 131.162 208.754 124.841 210.199C118.521 211.644 112.584 214.429 107.432 218.366C102.28 222.303 98.0326 227.299 94.9772 233.018L92.6151 237.42C91.8452 238.829 90.6133 239.929 89.1268 240.535C87.6404 241.142 85.9904 241.217 84.4549 240.749L79.6231 239.138C69.1723 235.677 57.8052 236.247 47.7533 240.737C37.7013 245.227 29.6905 253.311 25.2933 263.404L23.1458 270.061C62.8732 286.596 173.466 304.527 193.651 305.279C201.351 306.29 208.633 309.371 214.721 314.192C220.809 319.013 225.476 325.395 228.225 332.658C230.378 338.231 231.345 344.192 231.064 350.16C230.783 356.127 229.26 361.971 226.592 367.316C223.924 372.662 220.171 377.392 215.571 381.205C210.971 385.017 205.627 387.828 199.879 389.458L191.504 392.035C187.815 393.188 183.986 393.838 180.123 393.967C161.306 393.951 142.512 392.696 123.86 390.209L105.714 387.74L94.9772 386.129C63.6992 381.873 32.8911 374.683 2.96006 364.655L0.81263 374.318C0.442334 377.575 0.735439 380.872 1.67432 384.012C2.61321 387.152 4.17839 390.069 6.27544 392.588C8.3725 395.106 10.958 397.174 13.8759 398.666C16.7938 400.158 19.9838 401.043 23.2532 401.269L152.099 422.743C175.93 426.656 199.096 433.884 220.924 444.217L225.97 446.794C239.742 453.786 252.827 462.054 265.053 471.489L278.153 481.475C301.172 499.057 327.849 511.239 356.212 517.122C362.762 519.402 369.772 520.035 376.625 518.968C383.477 517.901 389.963 515.165 395.51 511.002C395.51 511.002 407.857 500.265 415.695 511.002C417.709 513.361 418.714 516.418 418.493 519.512C418.272 522.606 416.843 525.488 414.514 527.537C400.878 543.536 382.303 549.012 356.641 545.79L279.441 680.649C294.825 686.617 310.659 691.356 326.792 694.822C376.624 705.57 428.319 704.073 477.446 690.459C526.572 676.845 571.665 651.52 608.856 616.655L546.152 383.23L556.567 223.569Z" fill="white"/>
<path opacity="0.6" d="M257.754 508.321L245.943 499.302C243.581 497.477 230.374 489.638 215.557 481.049C184.876 463.082 151.306 450.585 116.346 444.113L80.9131 437.349C89.2195 486.227 108.823 532.491 138.164 572.456C167.504 612.422 205.77 644.985 249.915 667.553C281.053 613.115 321.532 540.532 321.532 540.532C298.484 533.781 276.867 522.864 257.754 508.321Z" fill="white"/>
</svg>
