<svg width="2771" height="646" viewBox="0 0 2771 646" fill="none" xmlns="http://www.w3.org/2000/svg">
<path d="M841.594 207.823L793.055 84.896L714.223 84.7791L813.523 321.86L869.197 321.977L969.55 85.2469L890.718 85.1299L841.594 207.823Z" fill="white"/>
<path d="M1149.43 148.638L1149.55 85.0105L1008.38 84.8936L1008.03 321.975H1149.2V258.348L1080.54 258.231L1080.66 234.605L1145.46 234.722L1145.57 171.094H1080.78V148.521L1149.43 148.638Z" fill="white"/>
<path d="M1365.37 206.941C1374.96 193.717 1379.82 177.65 1379.17 161.326C1379.38 151.434 1377.88 141.58 1374.72 132.203C1371.36 123.146 1366.19 114.869 1359.52 107.875C1352.39 100.537 1343.72 94.8654 1334.14 91.2662C1322.93 87.0554 1311.02 84.9921 1299.05 85.1841H1201.74V322.383H1274.25V254.194L1317.88 322.266H1408.64L1336.36 227.76C1347.8 223.697 1357.86 216.479 1365.37 206.941ZM1298.93 178.987C1292.51 183.226 1284.84 185.164 1277.18 184.485H1273.67V144.367H1277.3C1284.91 143.795 1292.51 145.725 1298.93 149.864C1301.09 151.604 1302.8 153.845 1303.9 156.393C1305 158.94 1305.46 161.717 1305.25 164.484C1305.47 167.235 1305.02 169.999 1303.91 172.53C1302.81 175.06 1301.1 177.279 1298.93 178.987Z" fill="white"/>
<path d="M1556.46 85.013L1519.39 139.985L1482.08 84.896L1395.06 84.7791L1482.78 210.162L1482.54 321.86L1555.06 321.977L1555.18 210.279L1643.48 85.2469L1556.46 85.013Z" fill="white"/>
<path d="M845.454 506.541L797.031 383.731L718.199 383.614L817.383 620.696L873.174 620.813L973.41 383.965L894.578 383.848L845.454 506.541Z" fill="white"/>
<path d="M1145.81 447.829V384.202L1004.75 383.968L1004.4 620.932L1145.46 621.166L1145.57 557.539L1076.92 557.422V533.796L1141.83 533.913L1141.95 470.286L1077.03 470.169V447.712L1145.81 447.829Z" fill="white"/>
<path d="M1192.36 621.286L1264.88 621.403L1265.11 499.412L1360.67 621.52L1429.09 621.637L1429.44 384.673L1357.28 384.556L1357.04 506.547L1261.49 384.439L1192.83 384.322L1192.36 621.286Z" fill="white"/>
<path d="M1587.46 621.871L1587.69 448.534L1635.18 448.651L1635.29 385.024L1467.92 384.79L1467.8 448.417H1515.29L1515.06 621.755L1587.46 621.871Z" fill="white"/>
<path d="M1813.66 513.448C1813.66 519.881 1813.66 526.314 1812.96 532.864C1812.61 538.363 1811.26 543.753 1808.98 548.77C1807.02 552.985 1803.89 556.554 1799.98 559.063C1794.44 562.103 1788.15 563.483 1781.85 563.04C1775.48 563.408 1769.13 562.033 1763.49 559.063C1759.53 556.606 1756.39 553.022 1754.48 548.77C1752.33 543.721 1751.07 538.341 1750.74 532.864C1750.74 526.197 1750.04 519.764 1750.04 513.448V384.79H1677.52V521.284C1677.52 557.66 1686.17 584.912 1703.37 602.222C1720.56 619.532 1746.88 628.304 1781.62 628.421C1816.12 628.421 1842.32 619.649 1859.51 602.456C1876.71 585.262 1885.36 558.01 1885.48 521.635V385.492H1813.31L1813.66 513.448Z" fill="white"/>
<path d="M2099.98 507.479C2109.58 494.255 2114.44 478.187 2113.79 461.864C2113.86 451.944 2112.2 442.087 2108.87 432.74C2105.55 423.689 2100.42 415.411 2093.79 408.412C2086.58 401.073 2077.89 395.369 2068.29 391.687C2057.07 387.516 2045.17 385.492 2033.2 385.722H1936V622.686H2008.52V554.848L2052.15 622.803H2142.91L2070.74 528.298C2082.24 524.217 2092.37 517.006 2099.98 507.479ZM2033.55 479.525C2027.13 483.664 2019.53 485.594 2011.91 485.022H2008.29V445.372H2011.91C2019.57 444.917 2027.18 446.881 2033.67 450.986C2035.8 452.745 2037.48 454.993 2038.56 457.538C2039.63 460.083 2040.08 462.851 2039.87 465.606C2040.04 468.222 2039.6 470.841 2038.59 473.258C2037.57 475.674 2036.01 477.82 2034.02 479.525H2033.55Z" fill="white"/>
<path d="M2172.38 622.805L2313.56 623.039L2313.67 559.412L2245.02 559.295V535.669L2309.81 535.786L2309.93 472.159H2245.13V449.585L2313.79 449.702L2313.91 386.075L2172.73 385.841L2172.38 622.805Z" fill="white"/>
<path d="M2476.36 473.446C2471.57 471.809 2466.66 470.288 2461.74 468.885C2457.72 467.747 2453.81 466.26 2450.05 464.44C2447.37 463.241 2444.94 461.533 2442.91 459.411C2442.35 458.776 2441.93 458.034 2441.67 457.229C2441.41 456.424 2441.31 455.575 2441.39 454.732C2441.36 453.154 2441.71 451.592 2442.43 450.184C2443.14 448.776 2444.19 447.566 2445.49 446.662C2450.04 444.294 2455.09 443.058 2460.22 443.058C2465.35 443.058 2470.41 444.294 2474.96 446.662C2481.11 449.199 2486.83 452.671 2491.92 456.955L2498.94 462.686L2529.35 403.152L2523.03 399.76C2511.63 393.545 2499.48 388.79 2486.89 385.608C2474.97 382.501 2462.71 380.89 2450.4 380.813C2438.73 380.657 2427.13 382.557 2416.13 386.427C2406.17 390.042 2397.06 395.654 2389.34 402.918C2381.97 410.164 2376.16 418.841 2372.27 428.416C2368.19 438.805 2366.16 449.887 2366.3 461.048C2365.89 471.488 2367.85 481.884 2372.03 491.458C2375.7 499.249 2380.96 506.183 2387.47 511.81C2393.81 517.129 2400.95 521.394 2408.64 524.442C2416.01 527.366 2423.5 530.056 2430.98 532.395C2438.47 534.734 2442.68 536.372 2446.66 538.126C2449.88 539.314 2452.92 540.969 2455.66 543.038C2457.24 544.061 2458.53 545.47 2459.4 547.132C2460.18 548.817 2460.54 550.661 2460.46 552.512C2460.41 554.336 2459.96 556.127 2459.16 557.762C2458.35 559.397 2457.2 560.839 2455.78 561.986C2451.16 565.38 2445.46 566.962 2439.75 566.431C2432.11 566.362 2424.57 564.646 2417.65 561.401C2409.09 557.315 2401.2 551.952 2394.26 545.495L2387.36 539.296L2355.07 599.882L2360.34 603.508C2384.22 620.629 2412.83 629.907 2442.21 630.058C2455.3 630.207 2468.33 628.272 2480.81 624.327C2491.75 620.792 2501.86 615.061 2510.52 607.484C2518.68 600.258 2525.09 591.255 2529.23 581.168C2533.55 570.425 2535.73 558.944 2535.66 547.366C2536.49 530.64 2531.3 514.17 2521.04 500.932C2508.99 487.796 2493.52 478.278 2476.36 473.446Z" fill="white"/>
<path d="M2226.54 253.201C2233.16 237.761 2236.51 221.112 2236.36 204.311C2236.53 187.443 2233.23 170.721 2226.65 155.187C2220.44 140.271 2211.24 126.779 2199.63 115.537C2187.82 104.024 2173.82 94.9962 2158.46 88.9866C2141.8 82.5135 2124.06 79.259 2106.18 79.3957C2088.35 79.211 2070.65 82.4263 2054.02 88.8696C2038.67 94.8416 2024.67 103.83 2012.85 115.303C2001.29 126.544 1992.1 139.986 1985.83 154.836C1975.99 177.845 1973.29 203.276 1978.06 227.84C1982.84 252.403 1994.87 274.968 2012.61 292.617C2024.28 304.034 2038.07 313.054 2053.2 319.167C2069.91 325.606 2087.69 328.859 2105.6 328.758C2123.39 328.878 2141.04 325.664 2157.65 319.284C2173.12 313.426 2187.3 304.606 2199.4 293.319C2211.06 281.913 2220.29 268.266 2226.54 253.201ZM2156.36 225.598C2153.6 231.993 2149.63 237.793 2144.66 242.674C2139.51 247.642 2133.49 251.609 2126.88 254.37C2120.15 257.047 2112.96 258.398 2105.71 258.347C2098.36 258.686 2091.02 257.284 2084.31 254.254C2077.78 251.495 2071.82 247.527 2066.77 242.557C2061.85 237.587 2057.89 231.76 2055.07 225.364C2052.18 218.559 2050.71 211.236 2050.74 203.843C2050.68 196.473 2052.19 189.174 2055.19 182.439C2057.98 175.99 2062.02 170.158 2067.08 165.28C2072.14 160.402 2078.12 156.574 2084.66 154.017C2091.43 151.291 2098.65 149.901 2105.95 149.924C2113.24 149.892 2120.47 151.283 2127.24 154.017C2133.84 156.779 2139.86 160.746 2145.01 165.713C2149.96 170.659 2153.93 176.492 2156.71 182.907C2159.62 189.705 2161.1 197.032 2161.04 204.428C2161.14 211.702 2159.71 218.917 2156.83 225.598H2156.36Z" fill="white"/>
<path d="M2393.32 329.226C2411.11 329.396 2428.78 326.181 2445.37 319.752C2460.81 313.755 2474.92 304.772 2486.89 293.319C2498.47 282.072 2507.69 268.634 2514.02 253.786C2526.99 222.36 2526.99 187.081 2514.02 155.655C2507.77 140.762 2498.58 127.279 2487.01 116.005C2475.09 104.518 2461.02 95.4956 2445.6 89.4548C2428.94 82.9817 2411.2 79.7273 2393.32 79.864C2375.49 79.6793 2357.78 82.8946 2341.16 89.3379C2325.95 95.2045 2312.08 104.067 2300.36 115.399C2288.65 126.731 2279.33 140.301 2272.97 155.304C2266.35 170.789 2263.01 187.473 2263.14 204.311C2262.99 221.128 2266.25 237.8 2272.73 253.318C2279.02 268.393 2288.29 282.039 2299.99 293.436C2311.69 304.833 2325.57 313.745 2340.8 319.636C2357.52 326.074 2375.29 329.327 2393.2 329.226H2393.32ZM2354.37 243.143C2349.43 238.193 2345.47 232.361 2342.68 225.949C2339.73 219.162 2338.26 211.827 2338.35 204.428C2338.28 197.058 2339.8 189.759 2342.79 183.024C2345.59 176.575 2349.63 170.743 2354.69 165.865C2359.75 160.987 2365.72 157.159 2372.27 154.603C2378.99 151.889 2386.18 150.499 2393.44 150.509C2400.73 150.487 2407.96 151.877 2414.72 154.603C2421.32 157.364 2427.35 161.331 2432.5 166.299C2437.45 171.244 2441.41 177.077 2444.2 183.492C2447.1 190.293 2448.57 197.619 2448.53 205.013C2448.59 212.383 2447.08 219.682 2444.08 226.417C2441.32 232.812 2437.35 238.612 2432.39 243.493C2427.27 248.501 2421.23 252.473 2414.61 255.19C2407.87 257.866 2400.68 259.217 2393.44 259.166C2386.15 259.226 2378.92 257.876 2372.15 255.19C2365.49 252.376 2359.45 248.283 2354.37 243.143Z" fill="white"/>
<path d="M2736.02 122.329C2725.47 111.45 2712.97 102.643 2699.18 96.3636C2684.87 89.8169 2669.3 86.4643 2653.56 86.5388H2560.7V323.503H2653.45C2669.26 323.582 2684.9 320.23 2699.29 313.678C2713.19 307.456 2725.77 298.644 2736.37 287.713C2747 276.84 2755.42 264.011 2761.17 249.934C2767.21 235.774 2770.31 220.534 2770.29 205.138C2770.33 189.628 2767.22 174.27 2761.17 159.991C2755.29 145.933 2746.75 133.144 2736.02 122.329ZM2691.11 227.595C2688.79 233.96 2685.12 239.747 2680.35 244.554C2675.43 249.641 2669.49 253.627 2662.92 256.25C2655.19 259.014 2647.03 260.399 2638.83 260.344H2632.86V150.634H2638.71C2646.7 150.615 2654.62 152.041 2662.1 154.844C2668.58 157.317 2674.45 161.156 2679.32 166.101C2684.18 171.046 2687.92 176.98 2690.29 183.5C2693 190.552 2694.35 198.052 2694.27 205.606C2694.51 212.987 2693.44 220.354 2691.11 227.361V227.595Z" fill="white"/>
<path d="M1947.93 223.147C1949.01 212.226 1949.52 201.255 1949.45 190.281V182.912H1819.27V234.843H1868.63C1866.55 243.597 1861.51 251.365 1854.36 256.832C1850.79 259.166 1846.83 260.831 1842.66 261.744C1830.3 264.786 1817.3 263.886 1805.47 259.171C1799.42 256.584 1794.08 252.571 1789.92 247.475C1785.5 242.053 1782.2 235.812 1780.21 229.112C1777.94 221.284 1776.84 213.166 1776.93 205.018C1776.78 196.2 1778.13 187.421 1780.91 179.052C1783.11 172.012 1786.64 165.46 1791.32 159.754C1795.56 154.736 1800.88 150.739 1806.87 148.058C1813.31 145.185 1820.3 143.748 1827.34 143.847C1835.64 143.775 1843.77 146.133 1850.74 150.631C1855.09 153.78 1858.79 157.754 1861.61 162.327L1928.98 132.619C1919.83 117.276 1906.95 104.485 1891.55 95.4247C1871.84 84.4338 1849.56 78.8645 1826.99 79.284C1809.46 78.9971 1792.03 82.0536 1775.65 88.2901C1760.78 93.9197 1747.24 102.561 1735.88 113.671C1724.64 124.777 1715.95 138.184 1710.38 152.97C1704.26 169.023 1701.2 186.083 1701.37 203.263C1701.08 220.53 1704.14 237.69 1710.38 253.791C1716.04 268.57 1724.68 282.027 1735.76 293.324C1746.86 304.571 1760.21 313.34 1774.94 319.056C1790.85 325.277 1807.8 328.412 1824.89 328.296C1837.6 328.351 1850.27 326.698 1862.55 323.383C1874.3 320.174 1885.52 315.289 1895.88 308.88C1906.11 302.418 1915.16 294.271 1922.67 284.786C1930.44 274.895 1936.52 263.791 1940.68 251.92C1944.28 242.666 1946.72 233.001 1947.93 223.147Z" fill="white"/>
<path d="M372.225 30.9772C372.377 30.1418 372.817 29.3862 373.469 28.8421C374.121 28.298 374.943 28 375.792 28C376.641 28 377.463 28.298 378.115 28.8421C378.767 29.3862 379.208 30.1418 379.359 30.9772L394.681 111.915C394.681 111.915 369.769 107.119 366.845 91.5634L372.225 30.9772ZM364.505 117.88C366.287 119.777 368.245 121.5 370.353 123.026C375.038 126.602 380.355 129.261 386.026 130.863C389.304 131.861 392.674 132.527 396.085 132.851H398.541L411.641 176.361C403.464 176.389 395.414 174.337 388.249 170.396C379.915 166.77 372.632 161.097 367.078 153.904C365.773 152.097 364.563 150.223 363.453 148.29L362.049 145.717C362.049 144.898 361.23 144.079 360.879 143.377L364.505 117.88ZM356.552 188.876L358.54 170.863L362.283 175.425L366.611 179.986C373.31 186.429 381.276 191.408 390.003 194.607C395.014 196.469 400.241 197.687 405.559 198.232C407.35 198.353 409.148 198.353 410.939 198.232H416.67L431.875 252.737C431.909 252.953 431.875 253.174 431.777 253.369C431.68 253.565 431.523 253.725 431.331 253.828C431.138 253.931 430.918 253.971 430.701 253.943C430.484 253.915 430.281 253.821 430.121 253.672C426.763 249.472 422.825 245.77 418.425 242.678C416.553 241.274 414.448 239.988 412.343 238.701L383.453 223.145L354.447 207.122L356.552 188.876ZM321.463 256.83L337.253 229.344L400.763 264.433C404.594 266.595 407.948 269.509 410.624 272.999C413.3 276.49 415.243 280.486 416.335 284.747C417.428 289.008 417.648 293.445 416.982 297.793C416.316 302.141 414.777 306.31 412.46 310.048L407.079 318.82C401.251 328.5 391.822 335.475 380.86 338.215C369.898 340.956 358.297 339.239 348.599 333.44L340.879 328.411C328.993 321.32 320.369 309.842 316.868 296.452C313.368 283.061 315.27 268.831 322.165 256.83H321.463ZM361.464 326.189H364.739H366.377C373.934 326.157 381.332 324.016 387.737 320.007C394.143 315.999 399.303 310.281 402.635 303.498C403.273 302.124 403.604 300.627 403.604 299.112C403.604 297.597 403.273 296.1 402.635 294.726C402.041 293.369 401.174 292.149 400.087 291.143C399 290.137 397.717 289.365 396.319 288.878C393.87 288.134 391.238 288.278 388.885 289.283C386.532 290.289 384.608 292.092 383.453 294.375C381.89 297.521 379.492 300.178 376.522 302.055C373.552 303.932 370.124 304.957 366.611 305.019H365.792C361.509 304.975 357.375 303.445 354.096 300.691C352.159 299.082 349.713 298.211 347.195 298.235C344.546 298.229 341.995 299.233 340.06 301.042C338.973 302.053 338.118 303.287 337.552 304.66C336.987 306.033 336.725 307.512 336.785 308.995C336.838 310.5 337.209 311.977 337.874 313.328C338.54 314.679 339.484 315.873 340.645 316.832C346.578 321.972 353.907 325.229 361.698 326.189H361.464ZM230.818 232.619L245.321 207.589C247.884 203.2 251.674 199.654 256.224 197.389C260.775 195.124 265.889 194.238 270.936 194.841C274.332 195.244 277.624 196.275 280.644 197.882L332.692 227.122L230.818 232.619ZM357.254 619.763C338.422 619.734 319.645 617.735 301.229 613.797C287.62 610.912 274.248 607.002 261.228 602.101L326.376 489.35C335.149 491.45 344.327 491.134 352.935 488.436C361.543 485.738 369.26 480.759 375.266 474.028C377.225 472.275 378.42 469.825 378.595 467.201C378.77 464.578 377.911 461.99 376.201 459.993C369.535 450.987 359.242 459.993 359.242 459.993C354.527 463.506 349.025 465.811 343.214 466.708C337.404 467.605 331.462 467.067 325.908 465.139C301.991 460.157 279.491 449.887 260.058 435.08L248.362 426.542C237.993 418.599 226.912 411.63 215.262 405.723L211.051 403.617C192.542 394.643 172.852 388.342 152.571 384.903L44.1471 366.657C41.3305 366.46 38.5847 365.686 36.0803 364.382C33.5758 363.078 31.3663 361.273 29.5892 359.079C27.8121 356.885 26.5053 354.349 25.75 351.629C24.9948 348.908 24.8074 346.061 25.1993 343.265L26.9537 335.078C52.257 343.485 78.2999 349.477 104.733 352.973L113.856 354.376L129.178 356.365C144.7 358.284 160.323 359.261 175.963 359.289C179.254 359.144 182.514 358.594 185.671 357.651L192.688 355.429C200.415 353.167 207.191 348.444 211.987 341.978C215.658 337.09 218.034 331.352 218.893 325.299C219.751 319.246 219.066 313.075 216.9 307.358C214.54 301.215 210.588 295.81 205.449 291.699C200.311 287.588 194.17 284.919 187.659 283.965C170.7 283.381 77.1303 268.293 43.5623 254.257L45.4337 248.643C49.1379 240.117 55.8917 233.28 64.3723 229.473C72.8529 225.665 82.4495 225.16 91.2826 228.058L95.3763 229.461C96.6744 229.846 98.0647 229.778 99.3188 229.267C100.573 228.757 101.616 227.836 102.277 226.654L104.265 222.911C106.857 218.085 110.453 213.869 114.811 210.549C119.168 207.228 124.187 204.879 129.528 203.66C134.869 202.441 140.41 202.38 145.776 203.482C151.143 204.583 156.212 206.821 160.641 210.046C162.789 211.611 164.786 213.373 166.606 215.309L167.776 216.595L169.179 218.116L193.975 247.473C195.994 249.853 198.528 251.743 201.385 252.999C204.243 254.255 207.348 254.846 210.467 254.725L299.942 250.748C291.83 267.593 290.358 286.875 295.82 304.756C301.282 322.637 313.277 337.805 329.417 347.242L338.306 352.388C345.872 356.828 354.274 359.655 362.985 360.692C375.217 362.124 387.603 360.034 398.688 354.668C409.773 349.301 419.095 340.882 425.559 330.399L494.45 215.309L485.912 350.4L538.895 547.714C489.569 593.728 424.709 619.455 357.254 619.763ZM60.9895 318.118L70.3465 285.135C83.5632 288.176 100.172 291.919 117.131 295.311L126.371 297.065C159.471 303.264 185.905 305.486 185.788 305.486C188.392 305.915 190.84 307.013 192.89 308.675C194.941 310.336 196.524 312.502 197.484 314.96C199.018 318.708 199.018 322.909 197.484 326.656C196.431 329.697 193.624 336.481 180.174 337.3C139.828 335.633 99.8211 329.194 60.9895 318.118Z" fill="white"/>
<path opacity="0.6" d="M346.61 84.0818C345.323 95.778 344.387 103.264 344.27 103.264L340.06 130.983L332.574 195.429L294.211 173.908C288.083 170.448 281.321 168.26 274.327 167.475C264.005 166.246 253.549 168.072 244.255 172.73C234.961 177.387 227.239 184.67 222.045 193.675L205.905 221.746C205.905 221.746 178.302 182.68 150.465 178.938C174.736 150.322 204.724 127.1 238.504 110.764C272.284 94.4275 309.108 85.3389 346.61 84.0818Z" fill="white"/>
<path opacity="0.6" d="M235.731 590.874C198.31 571.845 165.861 544.321 140.982 510.506C116.103 476.69 99.4834 437.521 92.4531 396.132L122.863 401.863C152.414 407.522 180.753 418.288 206.608 433.677C219.24 440.929 230 447.595 232.339 449.116L242.281 456.719C258.454 468.996 276.724 478.23 296.2 483.971C296.2 483.971 262.048 544.791 235.731 590.874Z" fill="white"/>
<path opacity="0.6" d="M618.546 407.706C609.772 449.186 591.204 487.965 564.393 520.808L560.65 525.838C560.65 524.551 511.409 347.705 511.409 347.939L519.363 194.017C518.837 189.688 516.942 185.64 513.955 182.463C510.967 179.286 507.043 177.147 502.754 176.356H501.117C497.128 175.846 493.076 176.529 489.475 178.319C485.874 180.109 482.884 182.927 480.882 186.415L451.408 236.007L409.77 89.3367H412.577C447.008 96.711 479.65 110.797 508.637 130.789C537.624 150.781 562.388 176.288 581.515 205.853C600.642 235.418 613.757 268.461 620.111 303.096C626.465 337.73 625.933 373.277 618.546 407.706Z" fill="white"/>
</svg>
