<svg width="2771" height="646" viewBox="0 0 2771 646" fill="none" xmlns="http://www.w3.org/2000/svg">
<path d="M841.553 206.459L793.014 83.5322L714.182 83.4153L813.482 320.497L869.156 320.614L969.509 83.8831L890.677 83.7662L841.553 206.459Z" fill="black"/>
<path d="M1149.4 147.274L1149.51 83.6467L1008.34 83.5298L1007.99 320.611H1149.16V256.984L1080.51 256.867L1080.62 233.241L1145.42 233.358L1145.54 169.731H1080.74V147.157L1149.4 147.274Z" fill="black"/>
<path d="M1365.42 205.288C1375.02 192.064 1379.88 175.996 1379.23 159.673C1379.44 149.781 1377.94 139.927 1374.78 130.549C1371.42 121.493 1366.24 113.215 1359.58 106.221C1352.44 98.8832 1343.78 93.2119 1334.2 89.6126C1322.98 85.4018 1311.08 83.3385 1299.11 83.5306H1201.79V320.729H1274.31V252.54L1317.94 320.612H1408.7L1336.42 226.107C1347.86 222.043 1357.91 214.825 1365.42 205.288V205.288ZM1298.99 177.334C1292.57 181.573 1284.9 183.51 1277.24 182.831H1273.73V142.713H1277.35C1284.97 142.141 1292.57 144.071 1298.99 148.21C1301.15 149.951 1302.86 152.192 1303.96 154.739C1305.06 157.287 1305.52 160.064 1305.31 162.831C1305.53 165.582 1305.07 168.346 1303.97 170.876C1302.87 173.407 1301.16 175.625 1298.99 177.334V177.334Z" fill="black"/>
<path d="M1556.42 83.6492L1519.35 138.621L1482.04 83.5322L1395.02 83.4153L1482.74 208.798L1482.5 320.497L1555.02 320.614L1555.14 208.915L1643.44 83.8831L1556.42 83.6492Z" fill="black"/>
<path d="M845.413 505.177L796.99 382.367L718.158 382.25L817.342 619.332L873.133 619.449L973.369 382.601L894.537 382.484L845.413 505.177Z" fill="black"/>
<path d="M1145.77 446.465V382.838L1004.71 382.604L1004.36 619.569L1145.42 619.803L1145.54 556.175L1076.88 556.059V532.432L1141.79 532.549L1141.91 468.922L1077 468.805V446.348L1145.77 446.465Z" fill="black"/>
<path d="M1192.32 619.923L1264.84 620.04L1265.07 498.049L1360.63 620.157L1429.05 620.274L1429.4 383.309L1357.24 383.192L1357 505.183L1261.44 383.075L1192.79 382.958L1192.32 619.923Z" fill="black"/>
<path d="M1587.42 620.508L1587.65 447.171L1635.14 447.287L1635.25 383.66L1467.88 383.426L1467.77 447.054H1515.25L1515.02 620.391L1587.42 620.508Z" fill="black"/>
<path d="M1813.62 512.084C1813.62 518.517 1813.62 524.95 1812.92 531.5C1812.57 536.999 1811.22 542.389 1808.94 547.407C1806.98 551.621 1803.85 555.19 1799.94 557.699C1794.4 560.739 1788.11 562.12 1781.81 561.676V561.676C1775.44 562.044 1769.09 560.67 1763.45 557.699C1759.48 555.242 1756.35 551.658 1754.44 547.407C1752.29 542.357 1751.03 536.977 1750.7 531.5C1750.7 524.833 1749.99 518.4 1749.99 512.084V383.426H1677.48V519.921C1677.48 556.296 1686.13 583.548 1703.33 600.858C1720.52 618.169 1746.84 626.941 1781.57 627.058C1816.08 627.058 1842.28 618.286 1859.47 601.092C1876.66 583.899 1885.32 556.647 1885.44 520.272V384.128H1813.27L1813.62 512.084Z" fill="black"/>
<path d="M2099.94 506.115C2109.53 492.891 2114.4 476.823 2113.74 460.5C2113.82 450.58 2112.16 440.724 2108.83 431.377C2105.51 422.325 2100.38 414.047 2093.74 407.049C2086.54 399.71 2077.85 394.005 2068.25 390.323C2057.03 386.152 2045.12 384.129 2033.16 384.358H1935.96V621.322H2008.48V553.485L2052.11 621.439H2142.87L2070.7 526.934C2082.2 522.853 2092.33 515.642 2099.94 506.115V506.115ZM2033.51 478.161C2027.09 482.301 2019.49 484.231 2011.87 483.658H2008.25V444.008H2011.87C2019.53 443.553 2027.14 445.517 2033.63 449.623C2035.76 451.382 2037.44 453.629 2038.51 456.174C2039.59 458.719 2040.04 461.487 2039.83 464.243C2040 466.858 2039.56 469.478 2038.55 471.894C2037.53 474.31 2035.97 476.456 2033.98 478.161H2033.51Z" fill="black"/>
<path d="M2172.35 621.442L2313.52 621.676L2313.64 558.049L2244.98 557.932V534.305L2309.78 534.422L2309.9 470.795H2245.1V448.221L2313.76 448.338L2313.88 384.711L2172.7 384.477L2172.35 621.442Z" fill="black"/>
<path d="M2476.34 472.083C2471.54 470.445 2466.63 468.925 2461.72 467.521C2457.7 466.383 2453.79 464.896 2450.02 463.077C2447.34 461.878 2444.92 460.17 2442.89 458.047C2442.33 457.413 2441.91 456.67 2441.64 455.865C2441.38 455.061 2441.29 454.211 2441.37 453.369C2441.33 451.791 2441.69 450.228 2442.4 448.821C2443.12 447.413 2444.17 446.203 2445.46 445.299C2450.01 442.931 2455.07 441.694 2460.2 441.694C2465.33 441.694 2470.39 442.931 2474.94 445.299C2481.09 447.835 2486.81 451.307 2491.9 455.591L2498.91 461.322L2529.32 401.789L2523.01 398.397C2511.6 392.181 2499.46 387.426 2486.87 384.245C2474.95 381.137 2462.69 379.526 2450.37 379.449C2438.71 379.293 2427.11 381.193 2416.1 385.063C2406.15 388.679 2397.03 394.291 2389.32 401.555C2381.95 408.801 2376.14 417.478 2372.24 427.052C2368.16 437.441 2366.14 448.524 2366.28 459.685C2365.87 470.124 2367.83 480.52 2372.01 490.095C2375.67 497.886 2380.93 504.82 2387.45 510.446C2393.78 515.765 2400.93 520.031 2408.62 523.078C2415.99 526.002 2423.47 528.692 2430.96 531.031C2438.44 533.371 2442.66 535.008 2446.63 536.763C2449.86 537.95 2452.89 539.605 2455.64 541.675C2457.21 542.697 2458.5 544.107 2459.38 545.769C2460.15 547.453 2460.51 549.297 2460.43 551.149C2460.38 552.972 2459.94 554.763 2459.13 556.399C2458.32 558.034 2457.17 559.475 2455.75 560.623C2451.14 564.017 2445.44 565.598 2439.73 565.067C2432.09 564.998 2424.55 563.283 2417.63 560.038C2409.07 555.952 2401.18 550.588 2394.23 544.131L2387.33 537.932L2355.05 598.518L2360.31 602.144C2384.19 619.266 2412.8 628.544 2442.19 628.695V628.695C2455.28 628.843 2468.3 626.909 2480.78 622.963C2491.73 619.428 2501.84 613.697 2510.49 606.121C2518.66 598.894 2525.06 589.892 2529.21 579.805C2533.52 569.061 2535.71 557.581 2535.64 546.003C2536.46 529.276 2531.28 512.806 2521.02 499.569C2508.97 486.433 2493.5 476.915 2476.34 472.083V472.083Z" fill="black"/>
<path d="M2226.5 251.837C2233.12 236.397 2236.47 219.748 2236.32 202.947C2236.49 186.08 2233.19 169.357 2226.61 153.823C2220.4 138.907 2211.2 125.415 2199.6 114.173C2187.78 102.66 2173.79 93.6324 2158.43 87.6228C2141.76 81.1497 2124.02 77.8953 2106.14 78.0319V78.0319C2088.31 77.8472 2070.61 81.0626 2053.98 87.5059C2038.63 93.4779 2024.63 102.466 2012.81 113.939C2001.25 125.18 1992.07 138.623 1985.79 153.472C1975.95 176.481 1973.25 201.912 1978.02 226.476C1982.8 251.039 1994.83 273.604 2012.57 291.253C2024.24 302.67 2038.03 311.69 2053.16 317.804C2069.87 324.242 2087.65 327.495 2105.56 327.394C2123.35 327.514 2141 324.3 2157.61 317.921C2173.08 312.062 2187.26 303.242 2199.36 291.955C2211.02 280.549 2220.25 266.903 2226.5 251.837ZM2156.32 224.234C2153.56 230.63 2149.59 236.429 2144.62 241.311C2139.47 246.278 2133.45 250.245 2126.85 253.007C2120.11 255.683 2112.92 257.034 2105.68 256.983C2098.32 257.323 2090.98 255.92 2084.27 252.89C2077.74 250.132 2071.79 246.163 2066.73 241.194C2061.81 236.224 2057.85 230.397 2055.03 224C2052.14 217.195 2050.67 209.872 2050.7 202.479C2050.64 195.109 2052.15 187.81 2055.15 181.075C2057.94 174.626 2061.98 168.794 2067.04 163.916C2072.1 159.038 2078.08 155.21 2084.62 152.654C2091.39 149.928 2098.62 148.538 2105.91 148.56V148.56C2113.2 148.529 2120.43 149.919 2127.2 152.654C2133.8 155.416 2139.83 159.382 2144.97 164.35C2149.92 169.295 2153.89 175.128 2156.67 181.543C2159.58 188.341 2161.06 195.669 2161 203.064C2161.1 210.339 2159.67 217.553 2156.79 224.234H2156.32Z" fill="black"/>
<path d="M2393.29 327.863C2411.09 328.032 2428.75 324.817 2445.34 318.389C2460.78 312.391 2474.89 303.409 2486.86 291.955C2498.44 280.709 2507.66 267.27 2514 252.422C2526.96 220.997 2526.96 185.717 2514 154.291C2507.74 139.398 2498.55 125.915 2486.98 114.641C2475.06 103.154 2460.99 94.1318 2445.57 88.0911C2428.91 81.618 2411.17 78.3635 2393.29 78.5002V78.5002C2375.46 78.3155 2357.76 81.5308 2341.13 87.9741C2325.92 93.8407 2312.05 102.703 2300.34 114.035C2288.62 125.367 2279.31 138.938 2272.94 153.941C2266.32 169.425 2262.98 186.109 2263.11 202.947C2262.96 219.764 2266.22 236.437 2272.71 251.954C2278.99 267.029 2288.26 280.675 2299.96 292.072C2311.66 303.469 2325.54 312.381 2340.78 318.272C2357.49 324.711 2375.26 327.964 2393.18 327.863H2393.29ZM2354.34 241.779C2349.41 236.83 2345.44 230.998 2342.65 224.585C2339.7 217.798 2338.23 210.463 2338.32 203.064C2338.26 195.694 2339.77 188.396 2342.77 181.66C2345.56 175.212 2349.6 169.38 2354.66 164.501C2359.72 159.623 2365.69 155.795 2372.24 153.239C2378.97 150.525 2386.16 149.135 2393.41 149.145V149.145C2400.7 149.123 2407.93 150.513 2414.7 153.239C2421.3 156.001 2427.33 159.967 2432.48 164.935C2437.42 169.881 2441.39 175.713 2444.17 182.128C2447.07 188.929 2448.55 196.255 2448.5 203.649C2448.56 211.02 2447.05 218.318 2444.05 225.053C2441.3 231.449 2437.33 237.248 2432.36 242.13C2427.24 247.138 2421.2 251.109 2414.58 253.826C2407.85 256.503 2400.66 257.853 2393.41 257.803C2386.12 257.862 2378.9 256.512 2372.12 253.826C2365.47 251.013 2359.43 246.919 2354.34 241.779V241.779Z" fill="black"/>
<path d="M2735.99 120.965C2725.44 110.086 2712.94 101.279 2699.15 94.9998C2684.84 88.4531 2669.27 85.1006 2653.54 85.175H2560.67V322.14H2653.42C2669.23 322.218 2684.87 318.866 2699.27 312.315C2713.16 306.092 2725.75 297.28 2736.34 286.349C2746.97 275.477 2755.39 262.647 2761.14 248.571C2767.18 234.41 2770.29 219.17 2770.26 203.774C2770.3 188.264 2767.2 172.907 2761.14 158.627C2755.26 144.569 2746.73 131.78 2735.99 120.965V120.965ZM2691.08 226.231C2688.76 232.596 2685.09 238.383 2680.32 243.19C2675.4 248.277 2669.46 252.263 2662.89 254.887C2655.16 257.65 2647.01 259.035 2638.8 258.98H2632.83V149.27H2638.68C2646.67 149.251 2654.59 150.677 2662.07 153.481C2668.55 155.953 2674.43 159.793 2679.29 164.737C2684.15 169.682 2687.9 175.616 2690.26 182.136C2692.97 189.188 2694.32 196.689 2694.24 204.242C2694.48 211.624 2693.42 218.99 2691.08 225.997V226.231Z" fill="black"/>
<path d="M1947.89 221.783C1948.98 210.862 1949.49 199.892 1949.42 188.917V181.548H1819.24V233.479H1868.59C1866.51 242.234 1861.47 250.001 1854.33 255.468C1850.76 257.803 1846.79 259.467 1842.63 260.381C1830.27 263.422 1817.26 262.522 1805.44 257.808C1799.38 255.22 1794.05 251.207 1789.88 246.111C1785.47 240.689 1782.17 234.449 1780.17 227.748C1777.91 219.92 1776.81 211.802 1776.9 203.654C1776.75 194.837 1778.09 186.057 1780.87 177.689C1783.07 170.648 1786.61 164.096 1791.28 158.39C1795.52 153.373 1800.84 149.375 1806.84 146.694C1813.28 143.821 1820.26 142.384 1827.31 142.483V142.483C1835.6 142.411 1843.73 144.77 1850.7 149.267C1855.06 152.416 1858.75 156.39 1861.58 160.963L1928.95 131.255C1919.79 115.912 1906.92 103.121 1891.52 94.0611C1871.8 83.0701 1849.53 77.5008 1826.96 77.9204C1809.42 77.6334 1792 80.69 1775.61 86.9264C1760.75 92.556 1747.21 101.197 1735.84 112.307C1724.61 123.414 1715.91 136.82 1710.35 151.606C1704.22 167.66 1701.17 184.719 1701.34 201.9C1701.04 219.166 1704.1 236.326 1710.35 252.427C1716 267.207 1724.64 280.664 1735.73 291.96C1746.82 303.207 1760.18 311.976 1774.91 317.692C1790.82 323.913 1807.77 327.049 1824.85 326.932V326.932C1837.57 326.987 1850.24 325.335 1862.51 322.02C1874.26 318.81 1885.49 313.925 1895.85 307.516C1906.07 301.054 1915.13 292.908 1922.63 283.422C1930.4 273.532 1936.49 262.427 1940.64 250.556C1944.24 241.303 1946.68 231.638 1947.89 221.783V221.783Z" fill="black"/>
<path d="M348.111 332.767L338.935 327.636C332.876 324.096 327.575 319.398 323.335 313.81C319.096 308.222 316.002 301.855 314.229 295.072C312.456 288.289 312.04 281.223 313.004 274.279C313.969 267.335 316.294 260.65 319.848 254.604L335.815 227.114L400.049 263.126C403.909 265.289 407.294 268.205 410.004 271.701C412.713 275.196 414.692 279.199 415.822 283.473C416.952 287.747 417.21 292.203 416.581 296.579C415.952 300.954 414.449 305.159 412.162 308.943L406.656 318.106C400.742 327.693 391.309 334.593 380.371 337.332C369.433 340.071 357.857 338.433 348.111 332.767Z" fill="white"/>
<path d="M279.031 194.575C276.035 192.885 272.725 191.825 269.304 191.459C264.197 190.844 259.022 191.74 254.421 194.037C249.821 196.334 245.998 199.931 243.427 204.38L227.463 230.955L332.582 224.981L279.031 194.575Z" fill="white"/>
<path d="M362.165 145.921C363.174 147.754 364.367 149.587 365.744 151.603C371.446 158.814 378.814 164.536 387.216 168.28C394.429 172.184 404.287 174.624 412.491 174.629L399.244 130.344L394.971 128.544C391.523 128.22 388.043 127.367 384.715 126.411C379.028 124.741 374.51 122.272 369.759 118.73C367.63 117.157 364.005 115.513 362.165 113.609L359.504 141.065L360.697 143.447L362.165 145.921Z" fill="white"/>
<path d="M412.563 239.199C414.961 240.466 417.257 241.916 419.431 243.536C424.246 246.962 428.534 251.073 432.157 255.739C431.743 256.11 432.545 256.063 432.793 256.11C433.041 256.158 433.297 256.12 433.521 256.003C433.744 255.885 433.921 255.695 434.022 255.464C435.505 256.484 437.875 254.869 435.035 254.135L419.431 194.218C417.31 194.218 412.967 194.218 410.846 194.218C408.725 194.218 406.806 194.218 404.786 194.218C388.526 192.502 375.955 183.85 364.205 172.495C362.488 170.882 360.165 168.988 358.65 167.375C357.135 165.761 356.972 163.969 355.659 162.254L350.247 184.132L348.025 204.303L380.042 221.348L412.563 239.199Z" fill="white"/>
<path d="M394.003 109.402L378.404 27.5737C378.404 26.6259 378.026 25.7169 377.355 25.0467C376.684 24.3765 375.774 24 374.825 24C373.876 24 372.965 24.3765 372.294 25.0467C371.623 25.7169 371.246 26.6259 371.246 27.5737L365.74 88.9678C368.768 104.545 394.003 109.402 394.003 109.402Z" fill="white"/>
<path d="M179.117 334.773C192.79 333.948 195.635 327.075 196.736 324.052C198.159 320.397 198.159 316.343 196.736 312.689C195.728 310.268 194.107 308.15 192.031 306.543C189.956 304.937 187.498 303.897 184.898 303.526C184.898 303.526 158.379 301.235 124.886 295.004L115.709 293.263C98.7332 289.781 82.0324 286.116 68.6351 283L59 316.446C106.533 328.725 159.939 336.239 179.117 334.773Z" fill="white"/>
<path d="M496.465 213.336L427.056 329.082C418.198 343.514 404.035 353.913 387.596 358.058C371.157 362.203 353.745 359.765 339.084 351.264L329.939 346.061C313.692 336.536 301.621 321.267 296.117 303.28C290.613 285.292 292.076 265.897 300.218 248.936L210.234 253.044C207.086 253.174 203.949 252.583 201.065 251.317C198.18 250.052 195.624 248.144 193.591 245.741L168.717 216.531C168.168 215.8 167.711 215.435 167.345 214.979L166.065 213.701C164.236 211.772 162.248 210.001 160.121 208.407C155.66 205.157 150.553 202.9 145.144 201.79C139.735 200.679 134.15 200.74 128.767 201.969C123.384 203.198 118.327 205.566 113.939 208.912C109.551 212.259 105.934 216.507 103.332 221.369L101.32 225.111C100.664 226.309 99.6151 227.244 98.3491 227.76C97.0831 228.275 95.6778 228.339 94.37 227.941L90.2548 226.572C81.3539 223.629 71.6727 224.114 63.1115 227.931C54.5503 231.748 47.7275 238.621 43.9824 247.202L42.1534 252.861C75.989 266.919 170.18 282.163 187.372 282.802C193.93 283.662 200.132 286.281 205.317 290.38C210.502 294.479 214.477 299.904 216.818 306.079C218.652 310.817 219.476 315.884 219.236 320.958C218.997 326.031 217.7 330.999 215.427 335.544C213.155 340.088 209.958 344.11 206.041 347.351C202.123 350.592 197.571 352.982 192.676 354.367L185.543 356.558C182.401 357.539 179.14 358.092 175.85 358.201C159.824 358.187 143.817 357.12 127.931 355.006L112.477 352.907L103.332 351.538C76.6925 347.919 50.4534 341.807 24.9613 333.281L23.1324 341.497C22.817 344.265 23.0666 347.068 23.8663 349.738C24.6659 352.407 25.999 354.887 27.785 357.028C29.5711 359.169 31.7731 360.927 34.2583 362.196C36.7435 363.464 39.4603 364.217 42.2449 364.409L151.982 382.665C172.279 385.992 192.009 392.137 210.6 400.922L214.898 403.112C226.627 409.056 237.771 416.085 248.185 424.107L259.341 432.597C278.947 447.544 301.668 457.901 325.824 462.903C331.403 464.84 337.373 465.379 343.209 464.472C349.046 463.565 354.569 461.239 359.294 457.699C359.294 457.699 369.81 448.571 376.486 457.699C378.201 459.705 379.057 462.304 378.869 464.934C378.68 467.564 377.463 470.015 375.48 471.757C363.866 485.358 348.046 490.013 326.19 487.275L260.439 601.926C273.542 607 287.027 611.029 300.767 613.975C343.209 623.113 387.238 621.84 429.078 610.266C470.919 598.692 509.324 577.162 541 547.522L487.595 349.073L496.465 213.336Z" fill="white"/>
<path d="M361.654 324.827H364.929H366.566C374.123 324.796 381.521 322.655 387.927 318.646C394.333 314.637 399.492 308.919 402.824 302.137C403.463 300.763 403.793 299.266 403.793 297.751C403.793 296.235 403.463 294.739 402.824 293.364C402.231 292.008 401.363 290.788 400.277 289.781C399.19 288.775 397.907 288.004 396.508 287.516C394.06 286.773 391.427 286.917 389.074 287.922C386.721 288.927 384.798 290.73 383.643 293.014C382.061 296.195 379.627 298.875 376.612 300.754C373.597 302.634 370.119 303.639 366.566 303.657H365.747C361.465 303.613 357.331 302.084 354.051 299.33C352.114 297.72 349.669 296.85 347.15 296.873C344.502 296.867 341.95 297.871 340.016 299.68C338.929 300.691 338.073 301.926 337.508 303.299C336.942 304.671 336.681 306.15 336.741 307.634C336.793 309.139 337.164 310.615 337.83 311.966C338.495 313.317 339.44 314.511 340.601 315.47C346.534 320.61 353.863 323.868 361.654 324.827V324.827Z" fill="black"/>
<path d="M603.766 190.203C582.846 157.665 555.679 129.601 523.837 107.637C491.995 85.6725 456.111 70.2446 418.264 62.2468L415.691 61.662H413.235L406.217 24.5851C404.817 17.412 400.881 10.983 395.129 6.47481C389.376 1.96663 382.193 -0.319119 374.893 0.0359297C367.593 0.390978 360.665 3.36308 355.378 8.40822C350.09 13.4534 346.796 20.234 346.099 27.5091L343.409 56.2817C302.581 57.6423 262.504 67.6321 225.814 85.5939C189.125 103.556 156.654 129.082 130.538 160.495C126.741 165.515 123.56 170.973 121.065 176.752C107.874 179.803 96.2138 187.48 88.1983 198.39C85.589 198.219 82.9712 198.219 80.3619 198.39C67.9129 198.423 55.7452 202.095 45.3551 208.952C34.9651 215.809 26.8059 225.554 21.881 236.988L21.2962 238.391C18.5157 244.838 18.366 252.117 20.8792 258.673C23.3923 265.229 28.3691 270.543 34.7468 273.48L44.9225 278.158L35.5655 310.44C26.6764 308.217 17.0856 305.878 12.1732 309.387C7.26078 312.896 4.68764 320.498 2.23145 328.101L0.360062 336.288C0.303869 337.223 0.303869 338.16 0.360062 339.095C-0.406364 345.237 0.0535502 351.47 1.71317 357.433C3.37279 363.396 6.19911 368.97 10.0284 373.833C13.8577 378.696 18.6139 382.75 24.0214 385.762C29.4289 388.773 35.3802 390.682 41.5306 391.377L67.3791 395.705C67.3791 396.991 67.3791 398.278 67.3791 399.564C75.026 444.891 93.1152 487.817 120.216 524.945C147.316 562.074 182.685 592.387 223.523 613.487C227.383 615.359 246.097 623.663 251.009 625.184C265.302 630.695 280.007 635.075 294.987 638.283C315.426 642.771 336.284 645.084 357.21 645.184C431.731 645.187 503.472 616.884 557.917 566.001C563.414 560.855 581.309 542.609 585.753 536.41C615.133 500.202 635.533 457.559 645.287 411.962C653.397 374.091 653.903 334.985 646.776 296.917C639.648 258.848 625.028 222.575 603.766 190.203V190.203ZM372.181 29.6145C372.333 28.779 372.774 28.0234 373.425 27.4793C374.077 26.9353 374.9 26.6372 375.749 26.6372C376.598 26.6372 377.42 26.9353 378.072 27.4793C378.724 28.0234 379.164 28.779 379.316 29.6145L394.638 110.552C394.638 110.552 369.725 105.757 366.801 90.2006L372.181 29.6145ZM364.462 116.517C366.243 118.414 368.201 120.138 370.31 121.663C374.994 125.239 380.312 127.898 385.983 129.5C389.261 130.498 392.63 131.164 396.042 131.488H398.498L411.597 174.998C403.42 175.027 395.37 172.974 388.205 169.033C379.871 165.408 372.589 159.735 367.035 152.541C365.73 150.734 364.52 148.86 363.409 146.927L362.006 144.354C362.006 143.535 361.187 142.716 360.836 142.015L364.462 116.517ZM356.509 187.513L358.497 169.501L362.24 174.062L366.567 178.624C373.267 185.066 381.233 190.045 389.96 193.244C394.971 195.106 400.198 196.324 405.515 196.87C407.307 196.99 409.104 196.99 410.896 196.87H416.627L431.832 251.374C431.866 251.59 431.831 251.811 431.734 252.007C431.636 252.202 431.48 252.362 431.287 252.465C431.094 252.568 430.874 252.608 430.657 252.581C430.441 252.553 430.238 252.458 430.077 252.31C426.72 248.109 422.781 244.407 418.381 241.315C416.51 239.912 414.405 238.625 412.299 237.339L383.41 221.783L354.403 205.759L356.509 187.513ZM321.42 255.468L337.21 227.982L400.72 263.07C404.551 265.232 407.905 268.146 410.581 271.637C413.257 275.128 415.199 279.124 416.292 283.384C417.384 287.645 417.604 292.083 416.938 296.431C416.272 300.778 414.734 304.947 412.416 308.685L407.036 317.457C401.207 327.137 391.779 334.112 380.817 336.853C369.855 339.593 358.253 337.876 348.555 332.077L340.836 327.048C328.949 319.958 320.326 308.479 316.825 295.089C313.324 281.698 315.227 267.468 322.122 255.468H321.42ZM230.775 230.906L245.278 205.876C247.841 201.486 251.63 197.941 256.181 195.676C260.732 193.411 265.845 192.525 270.893 193.127C274.289 193.53 277.581 194.562 280.6 196.168L332.648 225.408L230.775 230.906ZM357.21 618.4C338.378 618.371 319.601 616.372 301.186 612.435C287.576 609.549 274.205 605.639 261.185 600.739L326.332 487.987C335.106 490.087 344.284 489.771 352.892 487.073C361.5 484.376 369.217 479.397 375.222 472.665C377.182 470.912 378.377 468.462 378.552 465.839C378.726 463.215 377.867 460.628 376.158 458.63C369.491 449.624 359.199 458.63 359.199 458.63C354.484 462.143 348.982 464.448 343.171 465.345C337.361 466.243 331.419 465.704 325.865 463.776C301.947 458.794 279.448 448.524 260.015 433.717L248.319 425.179C237.949 417.236 226.869 410.267 215.219 404.36L211.008 402.255C192.498 393.28 172.808 386.979 152.527 383.541L44.1037 365.295C41.2872 365.097 38.5413 364.323 36.0369 363.019C33.5325 361.715 31.323 359.91 29.5458 357.716C27.7687 355.522 26.4619 352.986 25.7067 350.266C24.9515 347.545 24.764 344.698 25.1559 341.902L26.9103 333.715C52.2137 342.122 78.2565 348.114 104.69 351.61L113.813 353.014L129.135 355.002C144.656 356.921 160.28 357.898 175.92 357.926C179.21 357.781 182.471 357.231 185.627 356.289L192.645 354.066C200.371 351.804 207.147 347.081 211.944 340.616C215.615 335.727 217.99 329.99 218.849 323.937C219.708 317.884 219.023 311.712 216.856 305.995C214.497 299.852 210.545 294.447 205.406 290.336C200.267 286.225 194.127 283.556 187.616 282.603C170.656 282.018 77.0869 266.93 43.5189 252.894L45.3903 247.28C49.0946 238.754 55.8483 231.918 64.3289 228.11C72.8096 224.302 82.4061 223.798 91.2393 226.695L95.333 228.099C96.631 228.483 98.0214 228.415 99.2755 227.905C100.53 227.395 101.573 226.473 102.234 225.291L104.222 221.549C106.814 216.722 110.41 212.507 114.767 209.186C119.125 205.865 124.143 203.516 129.484 202.297C134.826 201.078 140.366 201.018 145.733 202.119C151.1 203.22 156.168 205.459 160.598 208.683C162.745 210.248 164.742 212.01 166.563 213.946L167.732 215.233L169.136 216.753L193.932 246.111C195.951 248.49 198.485 250.38 201.342 251.636C204.199 252.893 207.305 253.483 210.423 253.362L299.899 249.386C291.787 266.23 290.315 285.512 295.777 303.393C301.239 321.274 313.233 336.442 329.373 345.879L338.262 351.025C345.828 355.465 354.231 358.292 362.941 359.33C375.173 360.761 387.56 358.671 398.645 353.305C409.73 347.939 419.052 339.519 425.516 329.036L494.406 213.946L485.868 349.037L538.852 546.351C489.526 592.365 424.666 618.092 357.21 618.4ZM60.9462 316.755L70.3032 283.772C83.5198 286.813 100.128 290.556 117.088 293.948L126.328 295.702C159.428 301.901 185.861 304.124 185.744 304.124C188.348 304.552 190.796 305.651 192.847 307.312C194.898 308.973 196.481 311.139 197.441 313.598C198.974 317.345 198.974 321.546 197.441 325.294C196.388 328.335 193.581 335.118 180.13 335.937C139.784 334.27 99.7777 327.832 60.9462 316.755V316.755Z" fill="black"/>
<path opacity="0.7" d="M346.567 82.7181C345.28 94.4143 344.344 101.9 344.228 101.9L340.017 129.62L332.531 194.066L294.168 172.545C288.041 169.084 281.278 166.896 274.284 166.112C263.962 164.882 253.506 166.709 244.212 171.366C234.918 176.023 227.196 183.306 222.002 192.311L205.862 220.382C205.862 220.382 178.259 181.317 150.422 177.574C174.693 148.958 204.681 125.736 238.461 109.4C272.241 93.0639 309.065 83.9753 346.567 82.7181V82.7181Z" fill="white"/>
<path opacity="0.7" d="M235.688 589.51C198.267 570.481 165.819 542.958 140.939 509.142C116.06 475.327 99.4404 436.158 92.4102 394.769L122.82 400.5C152.371 406.159 180.71 416.924 206.565 432.313C219.197 439.565 229.957 446.232 232.296 447.752L242.238 455.355C258.411 467.632 276.681 476.866 296.157 482.607C296.157 482.607 262.005 543.427 235.688 589.51Z" fill="white"/>
<path opacity="0.7" d="M618.503 406.353C609.729 447.833 591.161 486.612 564.35 519.455L560.607 524.485C560.607 523.198 511.366 346.352 511.366 346.586L519.32 192.664C518.794 188.335 516.899 184.287 513.912 181.11C510.924 177.933 507 175.794 502.711 175.003H501.074C497.085 174.493 493.033 175.176 489.432 176.966C485.831 178.756 482.841 181.573 480.839 185.062L451.365 234.654L409.727 87.9835H412.534C446.965 95.3579 479.607 109.443 508.594 129.436C537.581 149.428 562.345 174.935 581.472 204.5C600.599 234.065 613.714 267.108 620.068 301.743C626.422 336.377 625.89 371.924 618.503 406.353V406.353Z" fill="white"/>
</svg>
