<svg width="2209" height="765" viewBox="0 0 2209 765" fill="none" xmlns="http://www.w3.org/2000/svg">
<path d="M961.863 278.289L1037.02 100.16L977.968 100.053L941.14 192.07L904.741 99.9453L845.687 99.8379L920.095 278.289H961.863Z" fill="black"/>
<path d="M1166.83 230.297H1115.4V212.473L1164.04 212.58L1164.15 164.907L1115.51 164.8V147.943L1167.05 148.05V100.377L1061.29 100.163L1060.96 278.292H1166.83V230.297Z" fill="black"/>
<path d="M1263.47 227.296L1296.22 278.297H1364.29L1310.61 207.432C1319.32 204.47 1327 199.066 1332.72 191.863C1340.06 181.981 1343.84 169.912 1343.46 157.612C1343.51 150.286 1342.24 143.011 1339.7 136.138C1337.24 129.343 1333.4 123.13 1328.43 117.885C1323.02 112.412 1316.51 108.164 1309.32 105.429C1300.69 102.079 1291.51 100.402 1282.26 100.49H1209.35V278.405H1263.68L1263.47 227.296ZM1263.47 144.942H1266.15C1271.89 144.533 1277.61 145.963 1282.47 149.022C1283.9 150.422 1285.04 152.092 1285.81 153.936C1286.59 155.78 1286.99 157.759 1286.99 159.759C1286.99 161.759 1286.59 163.739 1285.81 165.583C1285.04 167.426 1283.9 169.097 1282.47 170.496C1277.61 173.556 1271.89 174.985 1266.15 174.577H1263.47V144.942Z" fill="black"/>
<path d="M1474.45 278.504L1474.67 194.755L1540.92 100.912L1475.63 100.805L1447.72 142.035L1419.8 100.698H1354.63L1420.34 194.647L1420.12 278.397L1474.45 278.504Z" fill="black"/>
<path d="M1239.31 456.856C1246.75 439.61 1248.8 420.52 1245.19 402.089C1241.59 383.657 1232.51 366.744 1219.13 353.565C1210.16 344.956 1199.58 338.205 1187.99 333.702C1175.53 328.858 1162.27 326.417 1148.91 326.508V326.508C1135.55 326.362 1122.28 328.767 1109.82 333.594C1098.08 337.986 1087.34 344.706 1078.26 353.351C1069.58 361.813 1062.68 371.925 1057.96 383.092C1053.06 394.708 1050.57 407.204 1050.66 419.813C1050.54 432.18 1052.92 444.443 1057.67 455.865C1062.41 467.287 1069.41 477.631 1078.26 486.276C1087.09 494.925 1097.57 501.715 1109.07 506.247C1121.6 511.11 1134.93 513.551 1148.37 513.441V513.441C1161.69 513.568 1174.92 511.163 1187.34 506.355C1198.91 501.863 1209.49 495.152 1218.48 486.598C1227.34 478.17 1234.42 468.058 1239.31 456.856ZM1187.02 436.134C1184.85 440.951 1181.75 445.292 1177.9 448.911C1174.07 452.552 1169.59 455.431 1164.69 457.393C1159.57 459.309 1154.16 460.326 1148.69 460.4C1143.22 460.427 1137.79 459.406 1132.69 457.393C1123.01 453.313 1115.3 445.606 1111.22 435.919C1108.96 430.855 1107.82 425.36 1107.89 419.813C1107.86 414.271 1108.99 408.784 1111.22 403.708C1115.51 393.939 1123.45 386.233 1133.34 382.233C1138.4 380.259 1143.79 379.239 1149.23 379.227V379.227C1154.71 379.234 1160.14 380.291 1165.23 382.341C1170.13 384.304 1174.61 387.182 1178.43 390.823C1182.29 394.458 1185.36 398.843 1187.45 403.708C1189.73 408.768 1190.86 414.266 1190.78 419.813C1190.71 425.459 1189.42 431.024 1187.02 436.134V436.134Z" fill="black"/>
<path d="M1454.8 457.172C1459.8 445.58 1462.32 433.073 1462.21 420.451C1462.3 407.842 1459.82 395.346 1454.91 383.73C1450.25 372.502 1443.35 362.344 1434.62 353.881C1425.71 345.252 1415.16 338.497 1403.59 334.017C1391.1 329.163 1377.8 326.722 1364.4 326.823C1351.03 326.516 1337.73 328.776 1325.21 333.48C1313.77 337.849 1303.34 344.487 1294.54 352.994C1285.74 361.5 1278.75 371.7 1273.99 382.979C1269.12 394.609 1266.6 407.09 1266.58 419.7C1266.47 432.071 1268.85 444.339 1273.57 455.775C1278.29 467.211 1285.26 477.581 1294.07 486.27C1302.96 495.086 1313.55 501.992 1325.21 506.563C1337.72 511.477 1351.06 513.92 1364.51 513.757V513.757C1377.83 513.902 1391.06 511.497 1403.48 506.67C1414.97 502.333 1425.46 495.71 1434.32 487.202C1443.18 478.694 1450.22 468.478 1455.02 457.172H1454.8ZM1402.51 436.45C1400.42 441.314 1397.35 445.699 1393.5 449.334C1389.61 452.941 1385.09 455.814 1380.18 457.816C1375.12 459.801 1369.73 460.821 1364.29 460.823C1358.8 460.934 1353.34 459.872 1348.29 457.709C1343.39 455.746 1338.91 452.867 1335.09 449.227C1331.37 445.502 1328.35 441.138 1326.17 436.342C1323.99 431.258 1322.89 425.771 1322.95 420.236C1322.88 414.69 1324.02 409.195 1326.28 404.131C1328.42 399.314 1331.44 394.942 1335.19 391.246C1343.08 383.878 1353.49 379.807 1364.29 379.865V379.865C1369.73 379.814 1375.13 380.835 1380.18 382.871C1385.11 384.852 1389.62 387.728 1393.5 391.354C1397.29 395.037 1400.35 399.41 1402.51 404.238C1404.69 409.326 1405.79 414.81 1405.74 420.344C1405.85 425.883 1404.75 431.381 1402.51 436.45Z" fill="black"/>
<path d="M1621.45 482.73C1629.35 474.522 1635.65 464.908 1640.02 454.384C1644.49 443.704 1646.79 432.244 1646.79 420.669C1646.79 409.094 1644.49 397.634 1640.02 386.955C1635.63 376.418 1629.29 366.802 1621.34 358.609C1613.38 350.476 1603.99 343.886 1593.64 339.174C1582.89 334.27 1571.2 331.743 1559.39 331.766H1489.81V509.465H1559.49C1571.34 509.534 1583.06 507.044 1593.85 502.164C1604.15 497.405 1613.5 490.821 1621.45 482.73V482.73ZM1587.62 437.419C1585.86 442.193 1583.12 446.545 1579.57 450.196C1575.83 453.892 1571.37 456.779 1566.47 458.679C1560.74 460.826 1554.66 461.882 1548.54 461.792H1543.92V379.439H1548.33C1554.42 379.339 1560.48 380.433 1566.15 382.66C1571.08 384.463 1575.55 387.318 1579.26 391.027C1582.97 394.736 1585.82 399.209 1587.62 404.134C1589.68 409.401 1590.7 415.015 1590.63 420.669C1590.61 426.385 1589.6 432.054 1587.62 437.419V437.419Z" fill="black"/>
<path d="M941.14 645.933L904.741 553.809L845.687 553.701L920.095 731.508L961.863 731.615L1037.02 554.023L977.968 553.916L941.14 645.933Z" fill="black"/>
<path d="M1060.21 731.725L1166.08 731.94L1166.19 684.16L1114.65 684.053V666.336L1163.29 666.444L1163.4 618.771L1114.76 618.663V601.806L1166.3 601.913L1166.41 554.241L1060.54 554.026L1060.21 731.725Z" fill="black"/>
<path d="M1324.78 645.931L1253.05 554.344L1201.52 554.236L1201.3 731.936L1255.63 732.043L1255.74 640.563L1327.46 732.151L1378.68 732.258L1379 554.558L1324.89 554.451L1324.78 645.931Z" fill="black"/>
<path d="M1407.78 602.341H1443.42L1443.21 732.368L1497.54 732.475L1497.65 602.449L1533.29 602.556L1533.4 554.776L1407.88 554.561L1407.78 602.341Z" fill="black"/>
<path d="M1667.08 651.088C1667.08 655.92 1667.08 660.751 1666.54 665.691C1666.3 669.771 1665.32 673.774 1663.64 677.501C1662.18 680.737 1659.79 683.465 1656.77 685.339C1652.62 687.553 1647.93 688.557 1643.24 688.238V688.238C1638.47 688.578 1633.69 687.534 1629.5 685.232C1626.52 683.439 1624.16 680.779 1622.73 677.609C1621.15 673.779 1620.21 669.717 1619.94 665.583C1619.94 660.644 1619.4 655.812 1619.4 651.088V554.991H1565.07V657.101C1565.07 684.373 1571.62 704.774 1584.51 717.766C1592.49 724.762 1601.78 730.102 1611.85 733.475C1621.91 736.848 1632.55 738.187 1643.13 737.415V737.415C1653.67 738.211 1664.26 736.903 1674.29 733.567C1684.32 730.23 1693.58 724.932 1701.54 717.98C1714.43 705.096 1720.98 684.588 1720.98 657.316V555.205H1667.29L1667.08 651.088Z" fill="black"/>
<path d="M1882.14 646.575C1889.44 636.718 1893.22 624.694 1892.88 612.431C1892.88 605.11 1891.61 597.844 1889.12 590.957C1886.61 583.914 1882.59 577.506 1877.34 572.182C1872.09 566.859 1865.74 562.749 1858.73 560.141C1850.33 557.001 1841.4 555.471 1832.43 555.632H1759.52V733.224H1813.85V682.008L1846.06 733.009H1914.14L1860.45 662.037C1868.99 659.027 1876.51 653.668 1882.14 646.575V646.575ZM1832.32 625.101C1827.49 628.152 1821.81 629.582 1816.11 629.181H1813.32V599.117H1816C1821.75 598.718 1827.47 600.186 1832.32 603.305C1833.88 604.604 1835.11 606.254 1835.92 608.12C1836.72 609.986 1837.07 612.015 1836.94 614.042C1837.23 616.209 1836.96 618.416 1836.16 620.448C1835.35 622.48 1834.03 624.268 1832.32 625.638V625.101Z" fill="black"/>
<path d="M1936.15 733.12L2041.91 733.335L2042.02 685.555H1990.48L1990.59 667.838H2039.23V620.166L1990.59 620.058V603.201L2042.13 603.308L2042.23 555.635L1936.37 555.421L1936.15 733.12Z" fill="black"/>
<path d="M2164.1 621.13C2160.45 619.842 2156.8 618.768 2153.36 617.695C2150.3 616.834 2147.32 615.721 2144.45 614.366C2142.49 613.434 2140.71 612.162 2139.19 610.608C2138.76 610.132 2138.43 609.571 2138.22 608.961C2138.02 608.351 2137.95 607.705 2138.01 607.065C2137.97 605.881 2138.24 604.707 2138.79 603.655C2139.33 602.604 2140.14 601.708 2141.12 601.052C2144.53 599.256 2148.33 598.317 2152.18 598.317C2156.04 598.317 2159.83 599.256 2163.24 601.052C2167.83 602.929 2172.1 605.501 2175.91 608.675L2181.17 612.97L2204.04 568.304L2199.21 565.834C2190.66 561.173 2181.57 557.567 2172.15 555.097C2163.25 552.542 2154.03 551.312 2144.77 551.446C2136 551.363 2127.28 552.816 2119 555.741C2111.58 558.455 2104.78 562.657 2099.03 568.089C2093.47 573.51 2089.09 580.015 2086.15 587.201C2083.11 595.003 2081.58 603.31 2081.64 611.682C2081.41 619.535 2082.92 627.342 2086.04 634.552C2088.76 640.381 2092.72 645.548 2097.64 649.691C2102.33 653.71 2107.66 656.905 2113.42 659.14C2119 661.395 2124.16 663.435 2130.17 665.153C2136.18 666.871 2138.76 668.159 2141.98 669.447C2144.36 670.412 2146.63 671.636 2148.75 673.098C2149.9 673.906 2150.86 674.972 2151.54 676.212C2152.09 677.497 2152.35 678.893 2152.29 680.292C2152.25 681.65 2151.93 682.984 2151.33 684.206C2150.74 685.428 2149.9 686.509 2148.85 687.378C2145.37 689.892 2141.11 691.073 2136.83 690.707C2131.1 690.475 2125.46 689.201 2120.18 686.949C2113.7 683.914 2107.72 679.894 2102.47 675.031L2097.21 670.414L2073.05 715.724L2077.02 718.516C2094.97 731.444 2116.53 738.394 2138.65 738.38C2148.45 738.534 2158.21 737.083 2167.54 734.085C2175.75 731.435 2183.34 727.163 2189.87 721.523C2195.96 716.085 2200.74 709.328 2203.83 701.766C2207.13 693.732 2208.77 685.113 2208.66 676.427C2209.23 664.067 2205.43 651.902 2197.92 642.068C2188.83 632.062 2177.11 624.808 2164.1 621.13V621.13Z" fill="black"/>
<path d="M871.24 486.912C879.6 495.275 889.572 501.851 900.553 506.239C912.542 510.851 925.287 513.181 938.133 513.11V513.11C947.672 513.133 957.17 511.869 966.371 509.352C975.183 506.994 983.609 503.378 991.389 498.615C999.053 493.78 1005.84 487.681 1011.47 480.577C1017.28 473.171 1021.85 464.866 1025 455.989C1027.46 449.055 1029.04 441.841 1029.72 434.515C1030.53 426.344 1030.93 418.137 1030.9 409.926V404.343H934.267V442.997H970.881C969.327 449.587 965.531 455.432 960.144 459.532C957.474 461.309 954.483 462.549 951.339 463.183C942.099 465.507 932.36 464.83 923.53 461.25C919.005 459.253 915 456.24 911.827 452.446C908.491 448.42 906.04 443.737 904.633 438.702C900.92 426.487 900.92 413.444 904.633 401.229C906.322 395.952 908.98 391.037 912.471 386.734C915.632 382.901 919.638 379.851 924.174 377.822C929.012 375.702 934.247 374.64 939.529 374.709V374.709C945.883 374.62 952.122 376.413 957.46 379.863C960.721 382.114 963.496 384.998 965.62 388.345L1016.08 366.119C1009.25 354.594 999.611 344.989 988.06 338.202C973.25 330.024 956.552 325.877 939.636 326.177C926.48 325.915 913.396 328.175 901.09 332.834C889.946 337.113 879.79 343.615 871.24 351.946C863.053 360.403 856.757 370.504 852.773 381.58C848.156 393.603 845.861 406.391 846.008 419.268C845.87 432.214 848.165 445.071 852.773 457.17C856.821 468.247 863.108 478.371 871.24 486.912Z" fill="black"/>
<path d="M716.305 226.111C691.581 187.613 659.46 154.407 621.805 128.419C584.15 102.431 541.709 84.1772 496.945 74.7173L493.187 73.9657H490.288L482.021 30.0509C480.424 21.5066 475.788 13.8294 468.969 8.43898C462.151 3.04855 453.611 0.30958 444.929 0.728619C436.247 1.14766 428.01 4.69635 421.742 10.7184C415.475 16.7405 411.599 24.8285 410.833 33.4868L407.72 67.5234C359.418 69.1346 312.005 80.9621 268.606 102.227C225.207 123.491 186.807 153.71 155.934 190.893C151.274 196.826 147.311 203.275 144.123 210.113C128.69 214.248 115.222 223.721 106.114 236.848C103.055 236.416 99.9691 236.201 96.8798 236.204C82.0658 236.185 67.5709 240.507 55.1866 248.636C42.8022 256.765 33.0711 268.345 27.1958 281.944L26.0147 283.018C22.851 290.659 22.7475 299.224 25.7258 306.94C28.704 314.655 34.5357 320.929 42.0131 324.463L54.0386 330.046L43.3015 368.163C32.5644 365.479 21.8273 362.794 15.0629 366.875C8.29847 370.955 6.25843 380.081 3.25204 389.1L1.10461 398.764C1.0014 399.871 1.0014 400.985 1.10461 402.092C0.191659 409.348 0.729824 416.713 2.68783 423.759C4.64584 430.805 7.98465 437.391 12.5102 443.136C17.0358 448.88 22.6579 453.668 29.0498 457.22C35.4417 460.773 42.4759 463.02 49.7438 463.831L80.3446 469.092C80.1863 470.591 80.1863 472.103 80.3446 473.602C89.4833 527.469 111.113 578.448 143.5 622.451C175.888 666.455 218.132 702.26 266.848 726.998C271.358 729.36 293.477 739.131 299.06 741.278C338.922 756.701 381.298 764.601 424.04 764.578C512.168 764.525 596.999 731.068 661.438 670.95C667.988 664.83 688.496 642.926 694.294 635.947C740.915 578.779 768.169 508.279 772.125 434.618C776.081 360.957 756.535 287.943 716.305 226.111V226.111ZM442.401 36.4931C442.401 35.3826 442.842 34.3174 443.627 33.5321C444.412 32.7468 445.477 32.3057 446.588 32.3057C447.699 32.3057 448.764 32.7468 449.549 33.5321C450.334 34.3174 450.775 35.3826 450.775 36.4931L469.029 132.376C469.029 132.376 439.502 126.256 435.958 108.002L442.401 36.4931ZM433.274 139.247C435.426 141.478 437.761 143.525 440.253 145.368C445.812 149.518 452.066 152.645 458.721 154.602C462.615 155.722 466.605 156.477 470.639 156.856H473.431L489 208.287C479.4 208.281 469.953 205.882 461.513 201.308C451.681 196.922 443.059 190.216 436.388 181.767C434.777 179.404 433.381 177.257 432.2 175.109L430.482 172.425L429.087 169.634L433.274 139.247ZM423.825 223.212L426.187 201.738C427.619 203.599 429.122 205.424 430.697 207.213C432.308 208.931 434.026 210.757 435.851 212.475C448.342 224.563 464.52 232.122 481.806 233.949C483.953 233.949 486.101 233.949 488.248 233.949C490.503 233.949 492.758 233.949 495.012 233.949L512.943 298.372C513.014 298.631 512.994 298.906 512.886 299.152C512.779 299.399 512.591 299.601 512.354 299.726C512.116 299.851 511.843 299.891 511.579 299.84C511.316 299.789 511.077 299.65 510.903 299.445C507.052 294.478 502.494 290.101 497.375 286.453C495.063 284.729 492.622 283.185 490.073 281.837L455.5 263.476L421.248 244.471L423.825 223.212ZM382.595 303.633L401.277 271.422L476.437 313.618C480.954 316.153 484.915 319.57 488.085 323.666C491.256 327.761 493.571 332.452 494.893 337.46C496.215 342.468 496.517 347.69 495.781 352.817C495.046 357.944 493.287 362.87 490.61 367.304L484.168 378.041C477.247 389.275 466.21 397.36 453.412 400.569C440.614 403.779 427.068 401.86 415.665 395.221L404.928 389.208C397.838 385.06 391.635 379.555 386.675 373.007C381.714 366.46 378.094 358.999 376.019 351.051C373.945 343.103 373.458 334.824 374.586 326.687C375.715 318.551 378.436 310.717 382.595 303.633V303.633ZM275.223 274.535L292.403 244.901C295.411 239.688 299.884 235.474 305.268 232.782C310.651 230.09 316.706 229.04 322.682 229.761C326.685 230.19 330.558 231.432 334.063 233.412L395.694 267.986L275.223 274.535ZM424.04 732.903C401.77 732.872 379.565 730.497 357.792 725.817C341.659 722.351 325.825 717.612 310.441 711.644L387.426 578.396C413.088 581.725 431.663 576.141 445.3 560.143C447.628 558.094 449.057 555.211 449.278 552.117C449.499 549.023 448.494 545.967 446.481 543.608C438.643 532.871 426.295 543.608 426.295 543.608C420.748 547.771 414.263 550.507 407.41 551.574C400.557 552.641 393.547 552.007 386.997 549.728C358.635 543.845 331.958 531.662 308.938 514.081L295.839 504.095C283.612 494.659 270.527 486.391 256.756 479.4L251.494 476.286C229.667 465.953 206.5 458.724 182.669 454.812L53.8239 433.337C50.5544 433.112 47.3645 432.226 44.4466 430.734C41.5287 429.242 38.9432 427.175 36.8462 424.656C34.7491 422.138 33.1839 419.221 32.245 416.081C31.3061 412.941 31.013 409.643 31.3833 406.387L33.5307 396.724C63.4618 406.752 94.2699 413.942 125.548 418.198L136.285 419.809L154.431 422.278C172.985 424.607 191.672 425.719 210.371 425.607C214.235 425.478 218.063 424.828 221.753 423.674L230.128 421.097C239.8 418.521 248.27 412.648 254.072 404.492C259.875 396.335 262.646 386.409 261.908 376.426C261.169 366.444 256.967 357.033 250.027 349.819C243.088 342.605 233.846 338.042 223.9 336.918C203.714 336.166 93.1218 318.235 53.3944 301.7L55.5418 295.043C59.9391 284.95 67.9499 276.866 78.0018 272.376C88.0538 267.887 99.4208 267.316 109.872 270.777L114.703 272.388C116.239 272.856 117.889 272.781 119.375 272.175C120.862 271.568 122.094 270.468 122.864 269.059L125.226 264.657C128.281 258.938 132.528 253.942 137.68 250.005C142.832 246.069 148.769 243.284 155.09 241.838C161.411 240.393 167.968 240.321 174.319 241.627C180.67 242.934 186.666 245.588 191.903 249.41C194.401 251.286 196.735 253.369 198.882 255.638L200.386 257.141C200.386 257.678 201.352 258.107 201.996 258.966L231.309 293.647C233.857 296.389 237.006 298.504 240.508 299.826C244.009 301.149 247.77 301.643 251.494 301.271L357.362 296.546C347.803 316.497 346.084 339.311 352.546 360.468C359.009 381.626 373.182 399.586 392.258 410.789L402.995 416.91C420.21 426.909 440.653 429.777 459.955 424.901C479.257 420.026 495.885 407.793 506.286 390.818L587.781 254.672L577.044 414.333L639.749 647.758C581.143 702.305 504.103 732.714 424.04 732.903V732.903ZM74.3318 376.431L85.0689 337.455C100.745 341.105 120.287 345.4 140.15 349.48L150.888 351.521C190.078 358.822 221.323 361.613 221.108 361.506C224.153 361.931 227.034 363.145 229.464 365.029C231.894 366.913 233.789 369.4 234.959 372.243C236.625 376.525 236.625 381.275 234.959 385.557C233.671 389.1 230.45 397.153 214.344 398.12C192.44 399.623 129.95 390.818 74.3318 376.431Z" fill="black"/>
<path d="M429.946 385.557H433.919H435.744C444.696 385.544 453.466 383.022 461.057 378.278C468.649 373.533 474.758 366.755 478.693 358.714C479.501 357.04 479.921 355.204 479.921 353.345C479.921 351.486 479.501 349.651 478.693 347.977C477.99 346.339 476.946 344.87 475.632 343.667C474.318 342.464 472.762 341.554 471.069 340.998C469.826 340.567 468.519 340.349 467.204 340.353C464.947 340.479 462.765 341.202 460.878 342.447C458.992 343.692 457.47 345.415 456.467 347.44C454.61 351.271 451.712 354.502 448.104 356.762C444.496 359.022 440.324 360.219 436.066 360.217H435.207C430.249 360.057 425.487 358.243 421.678 355.063C419.399 353.215 416.56 352.193 413.626 352.164C410.477 352.152 407.443 353.342 405.143 355.493C403.839 356.707 402.811 358.188 402.128 359.834C401.444 361.48 401.123 363.253 401.184 365.034C401.245 366.816 401.687 368.563 402.481 370.158C403.276 371.754 404.403 373.16 405.788 374.283C412.581 380.297 420.973 384.214 429.946 385.557V385.557Z" fill="black"/>
<path opacity="0.7" d="M412.551 99.1978C411.048 112.512 409.867 121.853 409.759 121.853L404.82 154.709L396.016 230.942L350.49 205.495C336.004 197.22 318.828 195.025 302.727 199.393C286.625 203.76 272.912 214.333 264.593 228.795L245.589 261.973C245.589 261.973 213.377 215.803 179.985 211.508C208.748 177.574 244.305 150.046 284.363 130.701C324.421 111.356 368.09 100.625 412.551 99.1978V99.1978Z" fill="white"/>
<path opacity="0.7" d="M280.915 698.543C236.77 675.975 198.504 643.412 169.164 603.447C139.823 563.481 120.219 517.218 111.913 468.339L147.882 475.103C182.843 481.575 216.413 494.073 247.093 512.039C261.911 520.629 275.117 528.467 277.48 530.292L289.29 539.312C308.404 553.854 330.02 564.772 353.069 571.523C353.069 571.523 312.053 644.213 280.915 698.543Z" fill="white"/>
<path opacity="0.7" d="M733.807 482.085C723.327 531.185 701.237 577.06 669.384 615.869L664.982 621.882C664.982 620.271 606.679 411.112 606.679 411.219L616.236 228.688C615.51 223.624 613.23 218.911 609.71 215.199C606.19 211.487 601.605 208.959 596.587 207.966H594.546C589.825 207.373 585.034 208.189 580.775 210.309C576.515 212.429 572.977 215.76 570.603 219.884L535.707 278.616L486.853 105.426H490.074C572.337 123.064 644.226 172.653 689.933 243.287C735.64 313.921 751.421 399.817 733.807 482.085Z" fill="white"/>
</svg>
