<svg width="2209" height="765" viewBox="0 0 2209 765" fill="none" xmlns="http://www.w3.org/2000/svg">
<path d="M961.865 278.296L1037.02 100.167L977.97 100.06L941.142 192.077L904.743 99.9523L845.689 99.845L920.097 278.296H961.865Z" fill="black"/>
<path d="M1166.84 230.302H1115.41V212.478L1164.04 212.585L1164.15 164.913L1115.51 164.805V147.948L1167.05 148.055V100.382L1061.29 100.168L1060.97 278.297H1166.84V230.302Z" fill="black"/>
<path d="M1263.47 227.294L1296.22 278.295H1364.29L1310.61 207.43C1319.32 204.468 1327 199.064 1332.72 191.861C1340.06 181.978 1343.84 169.91 1343.46 157.61C1343.51 150.284 1342.24 143.008 1339.7 136.135C1337.24 129.341 1333.4 123.128 1328.43 117.882C1323.03 112.409 1316.51 108.162 1309.32 105.427C1300.69 102.077 1291.51 100.4 1282.26 100.488H1209.36V278.402H1263.69L1263.47 227.294ZM1263.47 144.94H1266.15C1271.89 144.531 1277.61 145.96 1282.48 149.02C1283.9 150.42 1285.04 152.09 1285.81 153.934C1286.59 155.778 1286.99 157.757 1286.99 159.757C1286.99 161.757 1286.59 163.737 1285.81 165.58C1285.04 167.424 1283.9 169.095 1282.48 170.494C1277.61 173.554 1271.89 174.983 1266.15 174.574H1263.47V144.94Z" fill="black"/>
<path d="M1474.45 278.512L1474.67 194.763L1540.92 100.92L1475.64 100.813L1447.72 142.043L1419.8 100.705H1354.63L1420.34 194.655L1420.13 278.405L1474.45 278.512Z" fill="black"/>
<path d="M1239.31 456.856C1246.75 439.609 1248.8 420.519 1245.19 402.088C1241.59 383.656 1232.51 366.743 1219.13 353.564C1210.16 344.955 1199.58 338.204 1187.99 333.701C1175.53 328.857 1162.27 326.416 1148.91 326.507C1135.55 326.361 1122.28 328.766 1109.82 333.593C1098.08 337.985 1087.34 344.705 1078.26 353.35C1069.58 361.812 1062.68 371.924 1057.96 383.091C1053.05 394.707 1050.57 407.203 1050.66 419.812C1050.54 432.179 1052.92 444.442 1057.67 455.864C1062.41 467.286 1069.41 477.63 1078.26 486.275C1087.09 494.924 1097.57 501.714 1109.07 506.246C1121.6 511.109 1134.93 513.55 1148.37 513.44C1161.69 513.567 1174.92 511.162 1187.34 506.354C1198.91 501.862 1209.49 495.151 1218.48 486.597C1227.34 478.169 1234.42 468.057 1239.31 456.856ZM1187.02 436.133C1184.85 440.95 1181.75 445.291 1177.9 448.91C1174.07 452.551 1169.59 455.43 1164.69 457.392C1159.57 459.308 1154.16 460.326 1148.69 460.399C1143.21 460.426 1137.78 459.405 1132.69 457.392C1123.01 453.312 1115.3 445.605 1111.22 435.918C1108.96 430.854 1107.82 425.359 1107.89 419.812C1107.86 414.27 1108.99 408.783 1111.22 403.707C1115.51 393.938 1123.45 386.232 1133.34 382.232C1138.4 380.258 1143.79 379.238 1149.23 379.226C1154.71 379.233 1160.14 380.29 1165.23 382.34C1170.13 384.303 1174.61 387.181 1178.43 390.822C1182.29 394.458 1185.35 398.842 1187.45 403.707C1189.73 408.767 1190.86 414.265 1190.78 419.812C1190.7 425.458 1189.42 431.023 1187.02 436.133Z" fill="black"/>
<path d="M1454.81 457.179C1459.8 445.586 1462.32 433.08 1462.21 420.458C1462.31 407.848 1459.82 395.353 1454.91 383.737C1450.25 372.509 1443.35 362.351 1434.62 353.888C1425.71 345.258 1415.16 338.504 1403.59 334.024C1391.1 329.17 1377.8 326.729 1364.4 326.83C1351.03 326.523 1337.73 328.783 1325.21 333.487C1313.77 337.856 1303.34 344.494 1294.54 353C1285.74 361.507 1278.75 371.706 1273.99 382.985C1269.12 394.616 1266.6 407.097 1266.58 419.706C1266.47 432.078 1268.85 444.346 1273.57 455.782C1278.29 467.217 1285.26 477.588 1294.07 486.276C1302.96 495.093 1313.55 501.999 1325.21 506.57C1337.72 511.484 1351.07 513.927 1364.51 513.763C1377.83 513.909 1391.06 511.503 1403.48 506.677C1414.97 502.339 1425.47 495.716 1434.32 487.209C1443.18 478.701 1450.22 468.485 1455.02 457.179H1454.81ZM1402.52 436.456C1400.42 441.321 1397.35 445.705 1393.5 449.341C1389.61 452.947 1385.1 455.821 1380.18 457.823C1375.12 459.808 1369.73 460.827 1364.29 460.829C1358.8 460.94 1353.34 459.879 1348.29 457.716C1343.39 455.753 1338.91 452.874 1335.09 449.233C1331.37 445.509 1328.35 441.144 1326.18 436.349C1323.99 431.264 1322.89 425.778 1322.95 420.243C1322.89 414.697 1324.02 409.202 1326.28 404.137C1328.42 399.32 1331.44 394.949 1335.19 391.253C1343.09 383.885 1353.5 379.813 1364.29 379.871C1369.74 379.82 1375.13 380.842 1380.18 382.878C1385.11 384.858 1389.62 387.734 1393.5 391.36C1397.29 395.043 1400.36 399.416 1402.52 404.245C1404.69 409.332 1405.79 414.817 1405.74 420.35C1405.85 425.89 1404.75 431.388 1402.52 436.456Z" fill="black"/>
<path d="M1621.45 482.73C1629.35 474.523 1635.65 464.909 1640.02 454.384C1644.49 443.705 1646.79 432.245 1646.79 420.67C1646.79 409.094 1644.49 397.634 1640.02 386.955C1635.63 376.419 1629.29 366.803 1621.34 358.609C1613.38 350.476 1603.99 343.887 1593.64 339.175C1582.89 334.27 1571.2 331.743 1559.39 331.766H1489.81V509.466H1559.49C1571.34 509.535 1583.06 507.044 1593.85 502.164C1604.15 497.405 1613.5 490.821 1621.45 482.73ZM1587.62 437.42C1585.86 442.193 1583.12 446.546 1579.57 450.197C1575.83 453.893 1571.37 456.78 1566.47 458.679C1560.74 460.826 1554.66 461.882 1548.54 461.793H1543.92V379.439H1548.33C1554.42 379.34 1560.48 380.434 1566.15 382.66C1571.08 384.464 1575.55 387.319 1579.26 391.028C1582.97 394.736 1585.82 399.209 1587.62 404.135C1589.68 409.401 1590.7 415.016 1590.63 420.67C1590.61 426.386 1589.6 432.055 1587.62 437.42Z" fill="black"/>
<path d="M941.142 645.934L904.743 553.81L845.689 553.702L920.097 731.509L961.865 731.616L1037.02 554.024L977.97 553.917L941.142 645.934Z" fill="black"/>
<path d="M1060.22 731.725L1166.08 731.94L1166.19 684.159L1114.65 684.052V666.336L1163.29 666.443L1163.4 618.77L1114.76 618.663V601.806L1166.3 601.913L1166.41 554.24L1060.54 554.025L1060.22 731.725Z" fill="black"/>
<path d="M1324.78 645.937L1253.06 554.349L1201.52 554.242L1201.3 731.941L1255.63 732.049L1255.74 640.568L1327.46 732.156L1378.68 732.264L1379 554.564L1324.89 554.457L1324.78 645.937Z" fill="black"/>
<path d="M1407.78 602.341H1443.42L1443.21 732.367L1497.54 732.475L1497.65 602.448L1533.29 602.555L1533.4 554.775L1407.88 554.561L1407.78 602.341Z" fill="black"/>
<path d="M1667.08 651.089C1667.08 655.92 1667.08 660.752 1666.54 665.691C1666.3 669.772 1665.32 673.775 1663.64 677.502C1662.18 680.737 1659.79 683.465 1656.77 685.34C1652.62 687.553 1647.93 688.558 1643.24 688.239C1638.47 688.578 1633.7 687.534 1629.5 685.233C1626.52 683.439 1624.16 680.78 1622.73 677.609C1621.16 673.78 1620.21 669.717 1619.94 665.584C1619.94 660.645 1619.41 655.813 1619.41 651.089V554.991H1565.08V657.101C1565.08 684.374 1571.63 704.774 1584.51 717.766C1592.49 724.762 1601.79 730.102 1611.85 733.475C1621.91 736.848 1632.55 738.188 1643.14 737.415C1653.67 738.212 1664.27 736.904 1674.29 733.567C1684.32 730.231 1693.58 724.932 1701.55 717.981C1714.43 705.096 1720.98 684.588 1720.98 657.316V555.206H1667.29L1667.08 651.089Z" fill="black"/>
<path d="M1882.14 646.579C1889.45 636.721 1893.23 624.698 1892.88 612.435C1892.88 605.113 1891.61 597.847 1889.12 590.96C1886.61 583.917 1882.59 577.509 1877.34 572.186C1872.1 566.862 1865.74 562.752 1858.74 560.145C1850.33 557.004 1841.4 555.474 1832.43 555.635H1759.53V733.227H1813.86V682.011L1846.07 733.013H1914.14L1860.45 662.04C1869 659.031 1876.51 653.671 1882.14 646.579ZM1832.32 625.105C1827.49 628.156 1821.81 629.585 1816.11 629.185H1813.32V599.121H1816C1821.75 598.721 1827.48 600.19 1832.32 603.308C1833.88 604.607 1835.12 606.257 1835.92 608.123C1836.72 609.989 1837.07 612.018 1836.94 614.045C1837.24 616.212 1836.97 618.419 1836.16 620.451C1835.35 622.483 1834.03 624.271 1832.32 625.641V625.105Z" fill="black"/>
<path d="M1936.15 733.12L2041.91 733.335L2042.02 685.555H1990.48L1990.59 667.838H2039.23V620.166L1990.59 620.058V603.201L2042.13 603.308L2042.23 555.635L1936.37 555.421L1936.15 733.12Z" fill="black"/>
<path d="M2164.1 621.133C2160.45 619.845 2156.8 618.771 2153.36 617.697C2150.31 616.837 2147.32 615.724 2144.45 614.369C2142.49 613.437 2140.71 612.165 2139.19 610.611C2138.76 610.135 2138.43 609.574 2138.23 608.964C2138.02 608.354 2137.95 607.708 2138.01 607.067C2137.98 605.883 2138.24 604.71 2138.79 603.658C2139.33 602.606 2140.14 601.71 2141.12 601.055C2144.53 599.258 2148.33 598.32 2152.18 598.32C2156.04 598.32 2159.83 599.258 2163.24 601.055C2167.83 602.932 2172.1 605.503 2175.91 608.678L2181.17 612.973L2204.04 568.306L2199.21 565.837C2190.66 561.175 2181.57 557.57 2172.15 555.1C2163.26 552.545 2154.03 551.315 2144.77 551.449C2136 551.365 2127.28 552.819 2119 555.744C2111.58 558.457 2104.78 562.659 2099.03 568.092C2093.48 573.513 2089.09 580.018 2086.15 587.204C2083.11 595.006 2081.58 603.313 2081.64 611.684C2081.42 619.538 2082.92 627.345 2086.04 634.554C2088.76 640.384 2092.72 645.55 2097.64 649.694C2102.33 653.713 2107.66 656.907 2113.42 659.142C2119 661.397 2124.16 663.437 2130.17 665.155C2136.18 666.873 2138.76 668.162 2141.98 669.45C2144.36 670.414 2146.63 671.638 2148.75 673.101C2149.91 673.909 2150.86 674.974 2151.54 676.214C2152.1 677.5 2152.35 678.895 2152.29 680.295C2152.25 681.652 2151.93 682.986 2151.34 684.208C2150.74 685.43 2149.9 686.512 2148.85 687.381C2145.37 689.895 2141.11 691.076 2136.83 690.71C2131.1 690.477 2125.46 689.204 2120.19 686.952C2113.7 683.917 2107.72 679.897 2102.47 675.033L2097.21 670.416L2073.05 715.727L2077.02 718.519C2094.97 731.447 2116.53 738.397 2138.65 738.382C2148.45 738.537 2158.21 737.086 2167.54 734.088C2175.75 731.438 2183.34 727.166 2189.87 721.525C2195.96 716.087 2200.74 709.33 2203.83 701.769C2207.13 693.734 2208.77 685.115 2208.66 676.429C2209.23 664.07 2205.43 651.905 2197.92 642.07C2188.83 632.065 2177.11 624.811 2164.1 621.133Z" fill="black"/>
<path d="M871.243 486.918C879.602 495.281 889.575 501.857 900.555 506.245C912.544 510.857 925.29 513.188 938.135 513.117C947.674 513.139 957.173 511.875 966.374 509.359C975.186 507 983.612 503.384 991.392 498.622C999.055 493.786 1005.84 487.687 1011.47 480.583C1017.29 473.178 1021.86 464.873 1025 455.995C1027.46 449.061 1029.05 441.848 1029.72 434.521C1030.53 426.35 1030.93 418.144 1030.9 409.933V404.35H934.27V443.003H970.884C969.329 449.593 965.534 455.438 960.146 459.538C957.477 461.315 954.486 462.555 951.342 463.189C942.102 465.513 932.362 464.836 923.533 461.256C919.007 459.259 915.003 456.246 911.829 452.452C908.494 448.426 906.043 443.743 904.636 438.708C900.923 426.493 900.923 413.451 904.636 401.236C906.324 395.959 908.982 391.043 912.474 386.741C915.635 382.907 919.641 379.857 924.177 377.829C929.015 375.708 934.25 374.646 939.531 374.715C945.886 374.627 952.125 376.42 957.462 379.869C960.724 382.12 963.499 385.005 965.622 388.351L1016.09 366.125C1009.26 354.6 999.614 344.996 988.063 338.209C973.253 330.03 956.554 325.884 939.639 326.183C926.483 325.922 913.398 328.181 901.092 332.84C889.949 337.119 879.793 343.622 871.243 351.952C863.055 360.409 856.76 370.511 852.775 381.587C848.159 393.609 845.864 406.397 846.011 419.274C845.873 432.22 848.167 445.077 852.775 457.176C856.824 468.253 863.111 478.377 871.243 486.918Z" fill="black"/>
<path d="M716.306 226.114C691.583 187.616 659.462 154.41 621.807 128.422C584.151 102.433 541.711 84.1801 496.947 74.7202L493.189 73.9687H490.29L482.022 30.0538C480.426 21.5096 475.79 13.8323 468.971 8.44191C462.152 3.05148 453.612 0.31251 444.93 0.731548C436.248 1.15059 428.012 4.69928 421.744 10.7213C415.476 16.7434 411.601 24.8314 410.835 33.4897L407.721 67.5264C359.419 69.1375 312.007 80.965 268.608 102.23C225.209 123.494 186.808 153.713 155.936 190.896C151.275 196.829 147.312 203.278 144.125 210.115C128.691 214.251 115.224 223.724 106.115 236.851C103.056 236.419 99.9707 236.204 96.8814 236.207C82.0674 236.188 67.5725 240.51 55.1881 248.639C42.8038 256.768 33.0726 268.348 27.1974 281.947L26.0163 283.021C22.8526 290.662 22.7491 299.227 25.7274 306.943C28.7056 314.658 34.5373 320.932 42.0147 324.466L54.0402 330.049L43.3031 368.166C32.566 365.482 21.8288 362.797 15.0645 366.878C8.30006 370.958 6.26002 380.084 3.25363 389.103L1.10619 398.767C1.00299 399.874 1.00299 400.988 1.10619 402.095C0.193246 409.351 0.731411 416.716 2.68942 423.762C4.64742 430.808 7.98624 437.394 12.5118 443.139C17.0374 448.883 22.6595 453.671 29.0514 457.223C35.4433 460.776 42.4775 463.023 49.7454 463.834L80.3462 469.095C80.1879 470.594 80.1879 472.106 80.3462 473.605C89.4848 527.472 111.114 578.451 143.502 622.454C175.889 666.458 218.134 702.263 266.85 727.001C271.36 729.363 293.478 739.134 299.061 741.281C338.924 756.704 381.3 764.604 424.042 764.581C512.169 764.528 597.001 731.071 661.44 670.953C667.989 664.833 688.497 642.929 694.295 635.95C740.916 578.782 768.171 508.282 772.127 434.621C776.083 360.96 756.536 287.946 716.306 226.114ZM442.402 36.4961C442.402 35.3855 442.843 34.3204 443.629 33.5351C444.414 32.7498 445.479 32.3086 446.59 32.3086C447.7 32.3086 448.765 32.7498 449.551 33.5351C450.336 34.3204 450.777 35.3855 450.777 36.4961L469.03 132.379C469.03 132.379 439.503 126.258 435.96 108.005L442.402 36.4961ZM433.276 139.25C435.428 141.481 437.762 143.528 440.255 145.371C445.813 149.521 452.067 152.648 458.723 154.604C462.617 155.725 466.607 156.48 470.641 156.859H473.432L489.001 208.29C479.401 208.284 469.954 205.885 461.514 201.311C451.682 196.925 443.061 190.219 436.389 181.769C434.779 179.407 433.383 177.26 432.202 175.112L430.484 172.428L429.088 169.636L433.276 139.25ZM423.827 223.215L426.189 201.74C427.621 203.602 429.124 205.427 430.699 207.216C432.309 208.934 434.027 210.76 435.852 212.478C448.344 224.566 464.521 232.125 481.807 233.952C483.955 233.952 486.102 233.952 488.25 233.952C490.504 233.952 492.759 233.952 495.014 233.952L512.945 298.375C513.015 298.634 512.995 298.909 512.888 299.155C512.781 299.401 512.593 299.604 512.355 299.729C512.118 299.854 511.844 299.894 511.581 299.843C511.317 299.792 511.079 299.653 510.905 299.448C507.053 294.481 502.495 290.104 497.376 286.456C495.065 284.732 492.624 283.188 490.075 281.839L455.501 263.479L421.25 244.474L423.827 223.215ZM382.596 303.636L401.279 271.424L476.439 313.621C480.955 316.156 484.917 319.573 488.087 323.668C491.257 327.764 493.572 332.455 494.894 337.463C496.216 342.471 496.518 347.693 495.783 352.82C495.047 357.946 493.289 362.873 490.612 367.307L484.17 378.044C477.249 389.278 466.212 397.363 453.414 400.572C440.615 403.782 427.069 401.862 415.667 395.224L404.93 389.211C397.84 385.063 391.637 379.558 386.676 373.01C381.716 366.463 378.095 359.002 376.021 351.054C373.947 343.106 373.46 334.827 374.588 326.69C375.716 318.554 378.438 310.72 382.596 303.636ZM275.225 274.538L292.404 244.904C295.412 239.691 299.886 235.477 305.269 232.785C310.652 230.093 316.708 229.043 322.683 229.764C326.686 230.193 330.559 231.435 334.065 233.415L395.696 267.989L275.225 274.538ZM412.553 99.2009C411.05 112.515 409.869 121.856 409.761 121.856L404.822 154.712L396.018 230.945L350.492 205.498C336.006 197.223 318.83 195.028 302.728 199.396C286.627 203.763 272.914 214.337 264.595 228.798L245.591 261.976C245.591 261.976 213.379 215.806 179.987 211.511C208.75 177.577 244.307 150.049 284.365 130.704C324.423 111.36 368.091 100.628 412.553 99.2009ZM280.916 698.547C236.771 675.98 198.504 643.417 169.164 603.451C139.824 563.486 120.22 517.222 111.913 468.343L147.883 475.108C182.843 481.579 216.413 494.077 247.094 512.044C261.911 520.633 275.118 528.471 277.48 530.297L289.291 539.316C308.404 553.858 330.021 564.776 353.069 571.527C353.069 571.527 312.053 644.218 280.916 698.547ZM424.042 732.906C401.771 732.875 379.566 730.5 357.794 725.82C341.66 722.354 325.827 717.615 310.443 711.647L387.428 578.399C413.09 581.727 431.665 576.144 445.301 560.146C447.63 558.097 449.059 555.214 449.28 552.12C449.501 549.026 448.496 545.97 446.482 543.611C438.644 532.874 426.296 543.611 426.296 543.611C420.75 547.774 414.264 550.51 407.412 551.577C400.559 552.644 393.549 552.01 386.999 549.731C358.636 543.848 331.959 531.665 308.94 514.084L295.84 504.098C283.613 494.662 270.528 486.394 256.757 479.403L251.496 476.289C229.668 465.955 206.502 458.727 182.671 454.815L53.8255 433.34C50.556 433.115 47.3661 432.229 44.4482 430.737C41.5303 429.245 38.9448 427.178 36.8477 424.659C34.7507 422.141 33.1855 419.224 32.2466 416.084C31.3077 412.944 31.0146 409.646 31.3849 406.39L33.5323 396.727C63.4633 406.755 94.2715 413.945 125.549 418.201L136.287 419.812L154.432 422.281C172.987 424.61 191.673 425.722 210.373 425.61C214.236 425.481 218.065 424.83 221.754 423.677L230.129 421.1C239.802 418.524 248.271 412.651 254.074 404.495C259.876 396.338 262.648 386.411 261.909 376.429C261.171 366.447 256.969 357.036 250.029 349.822C243.089 342.608 233.848 338.045 223.902 336.921C203.716 336.169 93.1234 318.238 53.396 301.703L55.5434 295.046C59.9406 284.953 67.9515 276.869 78.0034 272.379C88.0554 267.89 99.4224 267.319 109.873 270.78L114.705 272.391C116.241 272.859 117.891 272.784 119.377 272.177C120.863 271.571 122.095 270.471 122.865 269.062L125.227 264.66C128.283 258.941 132.53 253.945 137.682 250.008C142.834 246.072 148.771 243.287 155.092 241.841C161.412 240.396 167.969 240.324 174.32 241.63C180.671 242.937 186.668 245.591 191.905 249.413C194.402 251.289 196.737 253.372 198.884 255.641L200.387 257.144C200.387 257.681 201.354 258.11 201.998 258.969L231.31 293.65C233.859 296.392 237.007 298.507 240.509 299.829C244.011 301.152 247.771 301.646 251.496 301.274L357.364 296.549C347.804 316.5 346.085 339.313 352.548 360.471C359.011 381.629 373.184 399.589 392.26 410.792L402.997 416.913C420.212 426.912 440.655 429.78 459.957 424.904C479.258 420.029 495.887 407.796 506.288 390.821L587.783 254.675L577.046 414.336L639.751 647.761C581.144 702.308 504.104 732.717 424.042 732.906ZM74.3334 376.434L85.0705 337.458C100.747 341.108 120.288 345.403 140.152 349.483L150.889 351.523C190.08 358.825 221.325 361.616 221.11 361.509C224.155 361.934 227.036 363.148 229.466 365.032C231.896 366.916 233.79 369.403 234.961 372.246C236.627 376.528 236.627 381.278 234.961 385.56C233.672 389.103 230.451 397.156 214.346 398.123C192.442 399.626 129.952 390.821 74.3334 376.434ZM733.808 482.516C723.328 531.617 701.237 577.492 669.385 616.301L664.983 622.314C664.983 620.703 606.68 411.544 606.68 411.651L616.236 229.12C615.511 224.056 613.231 219.343 609.711 215.631C606.191 211.919 601.605 209.391 596.587 208.398H594.547C589.826 207.805 585.035 208.621 580.776 210.741C576.516 212.861 572.977 216.192 570.603 220.316L535.708 279.048L486.854 105.428H490.075C572.338 123.067 644.227 172.655 689.934 243.289C735.641 313.923 751.422 399.819 733.808 482.087V482.516Z" fill="black"/>
<path d="M429.947 385.56H433.92H435.745C444.697 385.547 453.467 383.025 461.058 378.281C468.65 373.536 474.759 366.758 478.694 358.717C479.502 357.042 479.922 355.207 479.922 353.348C479.922 351.489 479.502 349.654 478.694 347.98C477.991 346.342 476.947 344.873 475.633 343.67C474.319 342.466 472.763 341.557 471.07 341C469.827 340.57 468.52 340.352 467.205 340.356C464.948 340.482 462.766 341.205 460.879 342.45C458.993 343.695 457.471 345.417 456.468 347.443C454.611 351.274 451.713 354.505 448.105 356.765C444.497 359.025 440.325 360.222 436.067 360.22H435.208C430.25 360.06 425.488 358.246 421.679 355.066C419.4 353.218 416.561 352.196 413.627 352.167C410.478 352.155 407.444 353.345 405.144 355.496C403.84 356.71 402.812 358.19 402.128 359.837C401.445 361.483 401.123 363.256 401.185 365.037C401.246 366.819 401.688 368.566 402.482 370.161C403.277 371.757 404.404 373.163 405.789 374.286C412.582 380.3 420.974 384.216 429.947 385.56Z" fill="black"/>
</svg>
