<svg width="1000" height="341" viewBox="0 0 1000 341" fill="none" xmlns="http://www.w3.org/2000/svg">
<path d="M211.407 48.3267L202.664 1.73216C202.585 1.23095 202.328 0.777268 201.942 0.458111C201.557 0.138953 201.07 -0.0232211 200.576 0.00268681C200.081 0.0285947 199.613 0.240754 199.261 0.598494C198.91 0.956235 198.699 1.43438 198.671 1.94124L195.756 36.6183C197.417 45.5788 211.407 48.3267 211.407 48.3267Z" fill="white"/>
<path d="M193.953 69.4125C194.564 70.5257 195.235 71.6027 195.964 72.6383C199.083 76.757 203.148 80.0201 207.797 82.1364C211.807 84.3663 216.292 85.5462 220.854 85.5712L213.626 60.5416H212.286C210.37 60.3296 208.478 59.9398 206.631 59.3767C203.475 58.44 200.512 56.9218 197.888 54.8965C196.726 53.9882 195.635 52.9896 194.623 51.9097L192.612 66.575L193.283 67.949L193.953 69.4125Z" fill="white"/>
<path d="M221.419 121.473C222.613 122.156 223.771 122.904 224.887 123.713C227.291 125.51 229.44 127.641 231.27 130.045C231.336 130.18 231.451 130.282 231.591 130.33C231.73 130.377 231.882 130.366 232.013 130.299C232.145 130.232 232.245 130.114 232.291 129.971C232.338 129.828 232.327 129.672 232.261 129.537L223.751 98.2055C222.672 98.2055 221.594 98.2055 220.545 98.2055C219.495 98.2055 218.475 98.2055 217.484 98.0263C209.267 97.1454 201.583 93.4397 195.684 87.5126C194.838 86.6763 194.022 85.8101 193.265 84.9141C192.507 84.018 191.778 83.1817 191.137 82.2856L190 92.6499L188.864 103.014L205.127 112.214L221.419 121.473Z" fill="white"/>
<path d="M267.646 107.911L228.97 174.099C225.352 180.1 220.142 184.921 213.948 188C207.755 191.078 200.834 192.286 193.996 191.482C189.092 190.897 184.359 189.28 180.093 186.733L175.139 183.746C166.097 178.303 159.38 169.578 156.32 159.3C153.259 149.022 154.077 137.94 158.613 128.251L108.395 130.521C106.65 130.603 104.91 130.275 103.308 129.56C101.707 128.846 100.286 127.764 99.1561 126.399L85.2537 109.494C85.0301 109.189 84.7761 108.908 84.4959 108.657L83.7964 107.911C82.7966 106.807 81.6935 105.806 80.5029 104.924C78.0193 103.063 75.1749 101.769 72.1619 101.131C69.1488 100.493 66.0372 100.524 63.037 101.223C60.0369 101.923 57.218 103.274 54.7708 105.185C52.3235 107.096 50.3048 109.522 48.8509 112.301L47.7142 114.482C47.3602 115.162 46.7822 115.691 46.0831 115.976C45.3839 116.26 44.6089 116.281 43.8961 116.035L41.5936 115.258C36.6192 113.586 31.2137 113.885 26.444 116.097C21.6743 118.309 17.8869 122.272 15.829 127.206L14.8089 130.431C33.6369 138.466 86.0989 147.187 95.6295 147.516C99.2786 148.047 102.724 149.564 105.613 151.91C108.501 154.256 110.729 157.348 112.068 160.867C113.284 164.14 113.679 167.675 113.216 171.145C112.753 174.616 111.446 177.911 109.415 180.73C106.719 184.429 102.925 187.132 98.6023 188.436L94.6385 189.69C92.8837 190.266 91.0591 190.587 89.2174 190.646C80.3517 190.671 71.4932 190.123 62.695 189.003C59.9845 188.674 57.0699 188.286 53.9513 187.838L48.88 187.062C34.0251 185.034 19.3883 181.584 5.16171 176.757L4.14161 181.476C3.00493 191.691 12.0109 194.081 14.7797 194.559L75.5773 205.102C86.9161 207.065 97.9261 210.665 108.279 215.795L110.639 217.02C117.162 220.412 123.367 224.411 129.176 228.967L135.384 233.865C146.295 242.387 158.935 248.287 172.37 251.129C181.113 253.011 185.019 252.354 191.023 248.142C191.023 248.142 196.852 243.214 200.583 248.411C201.534 249.564 202.008 251.052 201.905 252.559C201.801 254.065 201.128 255.47 200.029 256.476C193.588 264.241 184.757 266.929 172.603 265.436L136.229 330.041C153.403 336.838 171.652 340.331 190.061 340.346C228.026 340.256 264.556 325.47 292.333 298.948L262.575 185.449L267.646 107.911Z" fill="white"/>
<path d="M90.9455 177.745C98.5524 177.267 100.097 173.354 100.709 171.771C101.498 169.686 101.498 167.374 100.709 165.29C100.203 163.843 99.3272 162.562 98.1739 161.58C97.0207 160.598 95.6317 159.95 94.1515 159.704C94.1515 159.704 79.5787 158.39 60.8381 154.865L55.6793 153.82C46.2653 151.879 36.9679 149.758 29.4483 147.846L24.2021 166.902C50.6663 174.101 80.2782 178.432 90.9455 177.745Z" fill="white"/>
<path d="M170.463 131.779C166.59 138.737 165.551 146.979 167.57 154.718C169.588 162.456 174.503 169.067 181.247 173.117L186.143 176.104C191.561 179.313 197.986 180.232 204.053 178.665C210.121 177.098 215.354 173.168 218.64 167.711L221.555 162.633C222.845 160.476 223.696 158.074 224.057 155.572C224.418 153.069 224.282 150.517 223.655 148.07C223.029 145.623 221.926 143.331 220.413 141.332C218.9 139.333 217.008 137.669 214.851 136.439V136.439L179.206 115.979L170.463 131.779ZM185.035 155.674C186.436 155.679 187.794 156.174 188.883 157.078C190.676 158.623 192.924 159.506 195.266 159.586H195.674C197.693 159.584 199.671 159.004 201.386 157.912C203.1 156.82 204.484 155.258 205.379 153.404C205.86 152.369 206.621 151.497 207.572 150.894C208.523 150.29 209.623 149.979 210.742 149.999C211.366 149.991 211.987 150.092 212.578 150.297C213.378 150.562 214.112 151.001 214.731 151.583C215.349 152.166 215.838 152.878 216.163 153.673C216.509 154.462 216.688 155.317 216.688 156.182C216.688 157.046 216.509 157.901 216.163 158.69C214.293 162.603 211.391 165.901 207.784 168.208C204.178 170.515 200.012 171.74 195.761 171.743H194.887C194.275 171.743 193.633 171.743 193.021 171.564C188.735 171.052 184.686 169.278 181.363 166.456C180.717 165.9 180.192 165.211 179.82 164.434C179.449 163.658 179.24 162.81 179.206 161.946C179.18 161.085 179.335 160.228 179.662 159.434C179.989 158.64 180.48 157.928 181.101 157.346C182.161 156.329 183.554 155.754 185.006 155.733L185.035 155.674Z" fill="white"/>
<path d="M147.54 97.6679C145.869 96.7028 144.025 96.0932 142.119 95.8758C139.293 95.5268 136.428 96.0339 133.88 97.3343C131.332 98.6348 129.211 100.672 127.779 103.193L119.619 117.65L176.744 114.424L147.54 97.6679Z" fill="white"/>
<g opacity="0.64">
<path opacity="0.64" d="M259.743 91.1921C260.886 89.2089 262.565 87.6068 264.576 86.5788C266.588 85.5507 268.847 85.1405 271.08 85.3976L272.042 85.5469C274.43 86.0221 276.613 87.251 278.286 89.0613C279.958 90.8717 281.036 93.1728 281.369 95.6424L276.851 184.083C276.851 184.083 304.51 285.635 304.51 286.381L306.58 283.395C322.818 262.949 333.66 238.572 338.068 212.6C342.477 186.628 340.303 159.932 331.755 135.068C323.207 110.204 308.572 88.006 289.252 70.601C269.932 53.196 246.574 41.1671 221.416 35.6669L219.872 35.3682L243.188 119.657L259.743 91.1921Z" fill="white"/>
<path opacity="0.64" d="M105.585 111.557L114.561 95.3985C117.502 90.2493 121.846 86.0927 127.06 83.4396C132.274 80.7864 138.131 79.7523 143.911 80.4643C147.816 80.9093 151.593 82.1589 155.015 84.1381L176.583 96.5335L180.78 59.3773L183.17 43.3978C183.17 43.3978 183.753 38.8279 184.482 32.3763C163.437 33.1141 142.776 38.3524 123.823 47.755C104.871 57.1576 88.0458 70.5169 74.428 86.9756C90.0791 89.2456 105.585 111.557 105.585 111.557Z" fill="white"/>
<path opacity="0.64" d="M125.95 246.295L120.384 241.904C119.276 241.038 113.039 237.245 105.986 232.944C91.4395 224.239 75.5349 218.176 58.9739 215.023L41.8655 211.708C45.8325 235.485 55.1628 257.985 69.1131 277.415C83.0635 296.845 101.249 312.668 122.22 323.624C137.026 297.161 156.203 261.856 156.203 261.856C145.274 258.611 135.02 253.337 125.95 246.295V246.295Z" fill="white"/>
</g>
<path d="M442.222 107.15L475.884 27.4237L449.405 27.3628L432.969 68.5648L416.656 27.302H390.237L423.534 107.15H442.222Z" fill="white"/>
<path d="M533.929 85.6698L510.92 85.6089V77.6972L532.712 77.758V56.3963L510.98 56.3354V48.8497H533.99L534.051 27.5489L486.693 27.4271L486.571 107.153H533.929V85.6698Z" fill="white"/>
<path d="M577.221 84.3277L591.708 107.211H622.144L597.795 75.503C601.693 74.1452 605.131 71.7202 607.718 68.5042C610.933 64.0767 612.563 58.6954 612.344 53.2284C612.368 49.8917 611.812 46.5762 610.7 43.43C609.555 40.4125 607.84 37.6437 605.648 35.2748C603.242 32.7903 600.309 30.877 597.065 29.6758C593.311 28.2686 589.325 27.587 585.317 27.6674H552.689V107.272H577.038L577.221 84.3277ZM577.221 47.4467H578.377C580.955 47.2369 583.528 47.9015 585.682 49.3334C586.353 49.9544 586.889 50.7076 587.255 51.5454C587.621 52.3833 587.81 53.2878 587.81 54.2022C587.81 55.1166 587.621 56.0211 587.255 56.8589C586.889 57.6968 586.353 58.4499 585.682 59.0709C583.501 60.4359 580.944 61.0751 578.377 60.8967H577.16L577.221 47.4467Z" fill="white"/>
<path d="M671.627 107.211L671.688 69.7212L701.332 27.7889L672.114 27.7281L659.635 46.1686L647.156 27.6672H617.938L647.4 69.7212L647.339 107.211H671.627Z" fill="white"/>
<path d="M566.387 187.058C570.726 176.511 570.726 164.679 566.387 154.132C564.234 149.078 561.089 144.507 557.136 140.691C553.184 136.876 548.505 133.892 543.377 131.919C537.791 129.741 531.841 128.646 525.846 128.693V128.693C519.856 128.646 513.91 129.719 508.315 131.858C500.55 134.872 493.887 140.179 489.211 147.071C484.536 153.963 482.069 162.115 482.14 170.443C482.109 176.1 483.206 181.707 485.366 186.936C487.481 191.9 490.54 196.406 494.375 200.203C498.329 204.088 503.03 207.131 508.193 209.15C513.805 211.31 519.771 212.403 525.785 212.375V212.375C531.755 212.418 537.68 211.344 543.255 209.21C548.437 207.187 553.173 204.168 557.195 200.325C561.094 196.543 564.216 192.036 566.387 187.058V187.058ZM543.012 177.746C542.075 179.906 540.708 181.852 538.994 183.467C537.235 185.129 535.167 186.432 532.907 187.301C530.605 188.148 528.177 188.601 525.724 188.64C523.282 188.64 520.863 188.165 518.602 187.24C516.332 186.421 514.258 185.136 512.515 183.467C510.767 181.74 509.398 179.667 508.497 177.381C507.506 175.118 507.008 172.67 507.036 170.199C507.003 167.729 507.501 165.279 508.497 163.018C509.428 160.747 510.793 158.68 512.515 156.932C514.267 155.274 516.338 153.991 518.602 153.159C520.866 152.254 523.286 151.799 525.724 151.82V151.82C528.139 151.774 530.54 152.207 532.786 153.095C535.033 153.983 537.081 155.308 538.812 156.993C541.469 159.532 543.281 162.827 544 166.431C544.719 170.036 544.31 173.774 542.829 177.137L543.012 177.746Z" fill="white"/>
<path d="M662.851 187.179C665.036 181.977 666.154 176.389 666.138 170.747C666.183 165.102 665.064 159.508 662.851 154.315C660.759 149.305 657.674 144.771 653.781 140.987C649.796 137.126 645.077 134.104 639.902 132.101C634.316 129.923 628.366 128.829 622.371 128.875C616.399 128.803 610.468 129.878 604.901 132.04C599.744 134.015 595.043 137.017 591.083 140.865C587.228 144.681 584.148 149.207 582.013 154.193C578.704 161.903 577.788 170.428 579.384 178.665C580.979 186.901 585.013 194.468 590.961 200.386C594.934 204.232 599.631 207.252 604.779 209.271C610.383 211.459 616.355 212.554 622.371 212.497C628.343 212.563 634.272 211.489 639.841 209.332C644.988 207.397 649.688 204.435 653.654 200.627C657.62 196.818 660.77 192.243 662.912 187.179H662.851ZM639.415 177.928C638.478 180.088 637.111 182.035 635.398 183.649C633.628 185.299 631.563 186.599 629.31 187.483C627.034 188.339 624.62 188.773 622.188 188.761C619.725 188.841 617.274 188.384 615.005 187.422C612.747 186.579 610.678 185.296 608.918 183.649C607.224 181.891 605.881 179.825 604.962 177.563C603.982 175.285 603.477 172.831 603.477 170.351C603.477 167.871 603.982 165.418 604.962 163.139C606.894 158.782 610.455 155.352 614.884 153.585C617.155 152.702 619.569 152.248 622.006 152.246V152.246C624.468 152.239 626.909 152.715 629.189 153.645C631.429 154.526 633.491 155.804 635.276 157.419C637.033 159.151 638.42 161.221 639.354 163.505C640.334 165.783 640.839 168.237 640.839 170.716C640.839 173.196 640.334 175.65 639.354 177.928H639.415Z" fill="white"/>
<path d="M737.373 198.504C740.926 194.824 743.755 190.51 745.713 185.784C747.755 180.972 748.808 175.797 748.808 170.569C748.808 165.341 747.755 160.167 745.713 155.354C743.753 150.666 740.924 146.392 737.373 142.756C733.903 139.111 729.771 136.158 725.199 134.054C720.407 131.848 715.195 130.706 709.92 130.706H678.753V210.25H709.92C715.229 210.26 720.479 209.14 725.32 206.963C729.809 204.883 733.891 202.018 737.373 198.504ZM722.277 178.238C721.469 180.409 720.203 182.381 718.564 184.02C716.925 185.658 714.953 186.924 712.781 187.732C710.214 188.7 707.488 189.175 704.746 189.132H702.737V152.616H704.685C707.427 152.583 710.151 153.057 712.72 154.016C715.005 154.803 717.085 156.093 718.807 157.789C720.44 159.538 721.684 161.612 722.459 163.875C723.381 166.24 723.836 168.761 723.799 171.3C723.698 173.722 723.183 176.11 722.277 178.359V178.238Z" fill="white"/>
<path d="M432.948 271.656L416.635 230.454L390.155 230.393L423.513 309.937H442.201L475.863 230.515L449.384 230.454L432.948 271.656Z" fill="white"/>
<path d="M486.177 310.053L533.535 310.114L533.596 288.752H510.526L510.586 280.78L532.318 280.841L532.379 259.479L510.586 259.418V251.932H533.657V230.631L486.299 230.51L486.177 310.053Z" fill="white"/>
<path d="M604.612 271.649L572.533 230.629H549.462L549.34 310.112L573.689 310.173L573.75 269.214L605.829 310.234H628.778L628.9 230.751L604.673 230.69L604.612 271.649Z" fill="white"/>
<path d="M641.783 252.116H657.671L657.61 310.298L681.898 310.358L682.019 252.177L697.968 252.238V230.876L641.783 230.754V252.116Z" fill="white"/>
<path d="M757.823 273.962C757.823 276.093 757.823 278.284 757.823 280.474C757.737 282.305 757.303 284.101 756.544 285.769C755.878 287.206 754.824 288.428 753.501 289.299C751.626 290.27 749.521 290.712 747.414 290.577V290.577C745.298 290.722 743.186 290.258 741.326 289.238C739.995 288.421 738.952 287.208 738.344 285.769C737.578 284.083 737.144 282.264 737.065 280.414C737.065 278.223 737.065 276.032 737.065 273.962V230.935H712.717V276.64C712.311 281.515 712.871 286.421 714.364 291.079C715.858 295.737 718.256 300.054 721.421 303.784C725 306.924 729.169 309.322 733.683 310.837C738.198 312.352 742.969 312.954 747.718 312.608C752.431 312.963 757.167 312.376 761.65 310.882C766.134 309.387 770.275 307.016 773.832 303.905C776.997 300.176 779.395 295.858 780.889 291.201C782.383 286.543 782.943 281.636 782.537 276.762V231.057H758.188L757.823 273.962Z" fill="white"/>
<path d="M854.059 271.954C857.309 267.518 858.961 262.113 858.746 256.618C858.775 253.295 858.197 249.995 857.042 246.88C855.958 243.833 854.235 241.053 851.99 238.725C849.596 236.254 846.686 234.343 843.467 233.126C839.695 231.703 835.689 231.001 831.658 231.057H799.031V310.6H823.38V287.839L838.05 310.661H868.486L844.137 278.892C848.04 277.575 851.483 275.168 854.059 271.954V271.954ZM831.78 262.582C829.616 263.935 827.083 264.573 824.536 264.408H823.319V250.897H824.536C827.103 250.719 829.66 251.358 831.841 252.723C832.538 253.333 833.087 254.094 833.446 254.948C833.805 255.802 833.964 256.727 833.91 257.652C833.991 258.586 833.839 259.525 833.467 260.386C833.095 261.246 832.516 262.001 831.78 262.582V262.582Z" fill="white"/>
<path d="M878.208 310.663L925.567 310.724L925.628 289.423L902.557 289.362V281.45H924.349L924.41 260.089H902.618V252.542L925.689 252.603V231.241L878.33 231.119L878.208 310.663Z" fill="white"/>
<path d="M980.256 260.52L975.386 258.998C974.031 258.615 972.708 258.127 971.429 257.537C970.533 257.132 969.726 256.553 969.055 255.833C968.859 255.622 968.708 255.373 968.614 255.1C968.52 254.828 968.483 254.538 968.507 254.251C968.487 253.721 968.606 253.196 968.851 252.726C969.097 252.256 969.461 251.859 969.907 251.573C971.439 250.773 973.141 250.356 974.868 250.356C976.596 250.356 978.298 250.773 979.829 251.573C981.867 252.439 983.772 253.586 985.491 254.981L987.804 256.929L998.03 236.906L995.9 235.75C992.045 233.704 987.957 232.13 983.725 231.063C979.773 229.905 975.669 229.351 971.551 229.42C967.636 229.388 963.745 230.026 960.046 231.307C956.7 232.527 953.636 234.411 951.037 236.845C948.547 239.271 946.597 242.195 945.315 245.426C943.939 248.912 943.256 252.634 943.306 256.381C943.211 259.89 943.875 263.378 945.254 266.606C946.47 269.205 948.235 271.51 950.428 273.361C952.553 275.161 954.959 276.6 957.55 277.621C959.985 278.595 962.481 279.508 965.038 280.299C967.594 281.09 968.812 281.638 970.273 282.247C971.354 282.634 972.378 283.166 973.316 283.829C973.838 284.181 974.257 284.663 974.534 285.229C974.795 285.801 974.92 286.426 974.899 287.054C974.885 287.66 974.742 288.255 974.479 288.801C974.217 289.346 973.841 289.83 973.377 290.219C971.83 291.348 969.93 291.888 968.02 291.741C965.446 291.604 962.913 291.028 960.533 290.037C957.633 288.674 954.963 286.867 952.62 284.681L950.246 282.612L939.41 302.939L941.237 304.156C949.27 309.932 958.916 313.041 968.812 313.041V313.041C973.207 313.109 977.584 312.472 981.777 311.155C985.448 309.95 988.842 308.025 991.76 305.495C994.42 303.042 996.5 300.027 997.848 296.67C999.294 293.073 1000.02 289.227 999.978 285.35C1000.22 279.795 998.471 274.335 995.047 269.953C991.081 265.505 985.962 262.24 980.256 260.52V260.52Z" fill="white"/>
<path d="M401.672 200.511C405.426 204.251 409.899 207.191 414.821 209.153C420.155 211.227 425.838 212.26 431.561 212.196V212.196C435.816 212.217 440.054 211.664 444.161 210.553C448.12 209.509 451.897 207.867 455.362 205.684C458.829 203.553 461.882 200.811 464.371 197.59C467.013 194.292 469.072 190.566 470.458 186.574C471.594 183.499 472.31 180.286 472.588 177.019C472.972 173.36 473.154 169.683 473.136 166.004V163.509H429.795V180.854H446.353C445.629 183.829 443.857 186.444 441.361 188.218C440.154 189.016 438.814 189.593 437.404 189.922C433.347 190.848 429.104 190.53 425.23 189.009C423.214 188.122 421.424 186.79 419.995 185.114C418.502 183.326 417.384 181.257 416.708 179.028C415.953 176.397 415.584 173.67 415.612 170.934C415.567 167.978 416.02 165.036 416.951 162.231C417.705 159.874 418.904 157.685 420.482 155.779C421.89 154.067 423.684 152.711 425.717 151.824C427.854 150.847 430.185 150.368 432.535 150.424V150.424C435.359 150.357 438.137 151.141 440.509 152.676C441.976 153.69 443.219 154.995 444.161 156.51L466.806 146.59C463.719 141.444 459.412 137.138 454.266 134.053C447.615 130.399 440.122 128.552 432.535 128.697C426.621 128.524 420.73 129.495 415.186 131.557C410.197 133.437 405.656 136.339 401.855 140.078C398.072 143.831 395.144 148.356 393.272 153.345C389.226 164.262 389.226 176.266 393.272 187.183C395.146 192.146 398.003 196.68 401.672 200.511V200.511Z" fill="white"/>
</svg>
