<svg width="1000" height="341" viewBox="0 0 1000 341" fill="none" xmlns="http://www.w3.org/2000/svg">
<path d="M191.13 171.35C191.692 171.35 192.281 171.35 192.843 171.515H193.646C197.55 171.512 201.375 170.389 204.687 168.273C207.999 166.157 210.664 163.134 212.381 159.545C212.699 158.822 212.863 158.038 212.863 157.245C212.863 156.452 212.699 155.667 212.381 154.944C212.083 154.216 211.634 153.562 211.066 153.028C210.498 152.494 209.824 152.091 209.089 151.849C208.546 151.662 207.976 151.57 207.403 151.575C206.375 151.567 205.366 151.863 204.497 152.426C203.629 152.989 202.937 153.797 202.505 154.752C201.683 156.453 200.413 157.885 198.838 158.886C197.263 159.888 195.447 160.42 193.593 160.422H193.218C191.068 160.348 189.004 159.538 187.357 158.121C186.357 157.293 185.11 156.839 183.824 156.834C182.462 156.832 181.151 157.361 180.157 158.313C179.587 158.846 179.136 159.499 178.836 160.227C178.536 160.955 178.393 161.741 178.417 162.531C178.448 163.323 178.64 164.101 178.981 164.813C179.322 165.525 179.805 166.156 180.398 166.667C183.457 169.259 187.185 170.886 191.13 171.35V171.35Z" fill="#2A48DF"/>
<path d="M315.833 100.44C305.05 83.2966 291.054 68.5105 274.654 56.9359C258.254 45.3614 239.774 37.228 220.284 33.0058L218.652 32.6771C218.242 32.6501 217.83 32.6501 217.42 32.6771L213.78 13.0933C213.088 9.28184 211.068 5.85661 208.096 3.45258C205.124 1.04856 201.401 -0.17121 197.618 0.0193887C193.834 0.209988 190.246 1.79803 187.519 4.48913C184.792 7.18023 183.111 10.7919 182.787 14.6546L181.449 29.8286C139.188 31.6911 98.4795 50.9462 71.7151 84.7454C69.7983 87.3444 68.1733 90.1558 66.8708 93.1267C60.1264 94.8632 54.2004 98.9871 50.143 104.767C48.8019 104.603 47.4523 104.521 46.1016 104.521C39.6522 104.504 33.3395 106.423 27.9449 110.04C22.5503 113.657 18.3107 118.814 15.7508 124.872L15.4564 125.611C14.0299 129.006 13.9564 132.836 15.2515 136.285C16.5466 139.734 19.1078 142.529 22.3884 144.072L27.7413 146.537L22.8166 163.601C18.2667 162.423 13.3152 161.218 10.5585 163.053C7.80179 164.888 6.70445 168.942 5.393 172.941L4.45624 177.241C4.34994 177.739 4.26953 178.241 4.21536 178.748C2.68979 192.443 11.415 203.837 25.4128 206.138L38.7949 208.438C38.7416 209.122 38.7416 209.809 38.7949 210.493C42.7811 234.488 52.2017 257.195 66.3025 276.795C80.4033 296.395 98.7926 312.345 119.998 323.366C121.979 324.407 131.614 328.844 134.156 329.748C141.51 332.734 149.08 335.124 156.799 336.897C167.224 339.177 177.854 340.334 188.515 340.348C226.909 340.33 263.865 325.391 291.906 298.551C294.769 295.812 303.709 286.089 306.225 282.966C326.493 257.502 338.344 226.113 340.071 193.318C341.797 160.523 333.311 128.012 315.833 100.467V100.44ZM196.544 15.8049C196.571 15.3401 196.764 14.9017 197.087 14.5736C197.409 14.2456 197.839 14.051 198.294 14.0272C198.748 14.0035 199.195 14.1522 199.549 14.4449C199.903 14.7376 200.138 15.1536 200.211 15.6132L208.24 58.3415C208.24 58.3415 195.393 55.8216 193.868 47.6046L196.544 15.8049ZM192.583 61.6009C193.512 62.5912 194.514 63.5069 195.581 64.3399C197.991 66.1971 200.712 67.5893 203.61 68.4484C205.306 68.9647 207.043 69.3222 208.802 69.5166H210.033L216.778 92.4693C212.6 92.4502 208.491 91.3778 204.814 89.3469C200.535 87.4101 196.793 84.4174 193.921 80.6369C193.252 79.6872 192.635 78.6996 192.075 77.6788L191.325 76.3093L190.71 75.0493L192.583 61.6009ZM188.461 99.0155L189.505 89.5112C190.094 90.3329 190.763 91.1272 191.459 91.9215C192.155 92.7158 192.904 93.5375 193.68 94.3045C199.079 99.79 206.137 103.237 213.7 104.083C214.61 104.083 215.547 104.137 216.51 104.247C217.474 104.247 218.464 104.247 219.455 104.247L227.27 132.979C227.3 133.094 227.29 133.215 227.243 133.324C227.196 133.432 227.114 133.521 227.011 133.576C226.908 133.63 226.79 133.647 226.676 133.623C226.563 133.599 226.46 133.536 226.386 133.445C224.689 131.246 222.708 129.293 220.498 127.638C219.473 126.896 218.41 126.21 217.313 125.584L202.352 117.12L187.418 108.684L188.461 99.0155ZM170.502 134.869L178.532 120.325L211.265 139.087C213.246 140.215 214.983 141.742 216.372 143.575C217.762 145.408 218.774 147.51 219.349 149.754C219.925 151.998 220.05 154.338 219.719 156.633C219.387 158.928 218.605 161.13 217.42 163.108L214.744 167.764C211.726 172.769 206.921 176.372 201.349 177.81C195.777 179.247 189.877 178.404 184.902 175.461L180.405 172.722C174.227 169.009 169.724 162.956 167.871 155.873C166.018 148.79 166.963 141.245 170.502 134.869ZM123.825 121.914L131.319 108.684C132.63 106.367 134.576 104.493 136.917 103.296C139.257 102.098 141.889 101.629 144.487 101.946C146.238 102.146 147.931 102.705 149.466 103.59L176.23 118.955L123.825 121.914ZM183.403 43.8248C182.734 49.7411 182.225 53.9317 182.199 53.9317L179.977 68.4758L176.15 102.412L156.344 91.0451C153.204 89.2205 149.735 88.0652 146.147 87.6487C140.839 86.9958 135.461 87.9441 130.673 90.3771C125.884 92.8101 121.895 96.6218 119.195 101.344L110.925 116.162C110.925 116.162 96.6863 95.8657 82.3138 93.784C94.8319 78.7078 110.291 66.4756 127.699 57.8721C145.108 49.2687 164.081 44.4839 183.403 43.8248ZM126.207 310.904C106.937 300.846 90.2291 286.319 77.4177 268.481C64.6063 250.644 56.0454 229.989 52.418 208.164L68.1019 211.15C83.3099 214.042 97.9152 219.602 111.273 227.584C117.75 231.446 123.477 234.924 124.494 235.801L129.633 239.827C137.954 246.323 147.371 251.198 157.415 254.207C157.415 254.207 139.804 286.636 126.207 310.904ZM282.511 288.17C256.983 312.51 223.406 326.072 188.515 326.133C171.609 326.119 154.851 322.916 139.081 316.683L172.697 257.302C183.858 258.781 191.968 256.316 197.882 249.085C198.892 248.163 199.51 246.874 199.605 245.493C199.7 244.112 199.264 242.747 198.391 241.69C194.965 236.924 189.612 241.443 189.612 241.443C184.099 245.278 180.459 245.88 172.483 244.182C160.124 241.612 148.489 236.229 138.439 228.433L132.738 223.941C127.404 219.764 121.706 216.096 115.716 212.985L113.548 211.862C104.041 207.157 93.9307 203.856 83.5182 202.056L27.6877 192.388C25.0113 191.95 16.982 189.649 17.9187 180.391L18.8555 176.063C31.9198 180.49 45.3607 183.654 59.0021 185.513L63.6591 186.225C66.3355 186.636 69.0119 186.992 71.6884 187.293C79.7678 188.32 87.9025 188.823 96.044 188.8C97.7351 188.746 99.4107 188.451 101.022 187.923L104.662 186.773C108.631 185.578 112.115 183.098 114.592 179.706C116.456 177.122 117.656 174.1 118.082 170.917C118.507 167.735 118.145 164.494 117.027 161.492C115.798 158.265 113.752 155.43 111.1 153.278C108.447 151.127 105.283 149.736 101.932 149.249C93.1802 148.947 45.0043 141.032 27.7145 133.582L28.6512 130.624C30.541 126.1 34.0191 122.465 38.3991 120.437C42.7791 118.408 47.7429 118.134 52.311 119.668L54.4254 120.38C55.0295 120.528 55.6643 120.476 56.2372 120.229C56.8101 119.983 57.2912 119.556 57.6103 119.01L58.6541 117.011C59.9892 114.462 61.843 112.237 64.0904 110.485C66.3377 108.732 68.9262 107.493 71.6813 106.852C74.4363 106.211 77.2937 106.182 80.0606 106.767C82.8275 107.353 85.4395 108.539 87.7202 110.245C88.8136 111.055 89.8265 111.972 90.7446 112.984L91.387 113.669C91.6443 113.899 91.8775 114.156 92.0828 114.436L104.849 129.939C105.887 131.191 107.192 132.182 108.662 132.838C110.133 133.493 111.731 133.794 113.334 133.719L159.449 131.637C155.284 140.522 154.532 150.684 157.343 160.11C160.153 169.535 166.321 177.536 174.624 182.527L179.174 185.266C183.091 187.602 187.438 189.085 191.941 189.621C198.221 190.358 204.576 189.251 210.263 186.428C215.951 183.605 220.735 179.183 224.058 173.68L259.574 112.984L254.998 184.198L282.324 288.28L282.511 288.17ZM36.1988 167.079L40.9629 149.687C47.7878 151.33 56.3256 153.275 65.0508 155.165L69.7881 156.124C86.8638 159.273 100.433 160.479 100.433 160.479C101.778 160.692 103.043 161.265 104.101 162.141C105.158 163.016 105.971 164.163 106.455 165.463C107.18 167.375 107.18 169.495 106.455 171.407C105.893 172.996 104.475 176.584 97.4892 176.885C87.6935 177.652 60.5009 173.68 36.1988 167.079ZM293.538 276.639C293.538 275.982 268.139 182.747 268.139 182.829L272.287 101.727C271.982 99.4625 270.992 97.3522 269.456 95.6921C267.921 94.032 265.916 92.9051 263.723 92.4693L262.84 92.3324C260.788 92.0967 258.714 92.4728 256.867 93.4156C255.02 94.3583 253.478 95.8275 252.428 97.646L237.226 123.831L215.815 46.5364L217.233 46.8103C240.328 51.8503 261.772 62.8733 279.512 78.8238C297.252 94.7744 310.694 115.118 318.55 137.908C326.406 160.698 328.415 185.17 324.382 208.981C320.349 232.792 310.411 255.145 295.519 273.9" fill="#2A48DF"/>
<path d="M442.222 107.15L475.884 27.4237L449.404 27.3628L432.969 68.5648L416.655 27.302H390.237L423.534 107.15H442.222Z" fill="#2A48DF"/>
<path d="M533.929 85.6698L510.92 85.6089V77.6972L532.712 77.758V56.3963L510.98 56.3354V48.8497H533.99L534.051 27.5489L486.693 27.4271L486.571 107.153H533.929V85.6698Z" fill="#2A48DF"/>
<path d="M577.221 84.3277L591.708 107.211H622.144L597.796 75.503C601.693 74.1452 605.131 71.7202 607.718 68.5042C610.933 64.0767 612.563 58.6954 612.344 53.2284C612.368 49.8917 611.812 46.5762 610.701 43.43C609.556 40.4125 607.84 37.6437 605.648 35.2748C603.242 32.7903 600.309 30.877 597.065 29.6758C593.312 28.2686 589.325 27.587 585.317 27.6674H552.689V107.272H577.038L577.221 84.3277ZM577.221 47.4467H578.377C580.955 47.2369 583.529 47.9015 585.682 49.3334C586.353 49.9544 586.889 50.7076 587.255 51.5454C587.621 52.3833 587.811 53.2878 587.811 54.2022C587.811 55.1166 587.621 56.0211 587.255 56.8589C586.889 57.6968 586.353 58.4499 585.682 59.0709C583.501 60.4359 580.944 61.0751 578.377 60.8967H577.16L577.221 47.4467Z" fill="#2A48DF"/>
<path d="M671.627 107.211L671.688 69.7212L701.332 27.7889L672.114 27.7281L659.635 46.1686L647.156 27.6672H617.938L647.4 69.7212L647.339 107.211H671.627Z" fill="#2A48DF"/>
<path d="M566.386 187.058C570.726 176.511 570.726 164.679 566.386 154.132C564.234 149.078 561.089 144.507 557.136 140.691C553.183 136.876 548.504 133.892 543.377 131.919C537.791 129.741 531.841 128.646 525.846 128.693V128.693C519.856 128.646 513.91 129.719 508.315 131.858C500.55 134.872 493.887 140.179 489.211 147.071C484.536 153.963 482.069 162.115 482.14 170.443C482.109 176.1 483.206 181.707 485.366 186.936C487.48 191.9 490.54 196.406 494.375 200.203C498.329 204.088 503.03 207.131 508.193 209.15C513.805 211.31 519.771 212.403 525.785 212.375V212.375C531.755 212.418 537.68 211.344 543.255 209.21C548.437 207.187 553.173 204.168 557.195 200.325C561.094 196.543 564.216 192.036 566.386 187.058V187.058ZM543.012 177.746C542.075 179.906 540.708 181.852 538.994 183.467C537.234 185.129 535.166 186.432 532.907 187.301C530.605 188.148 528.177 188.601 525.724 188.64C523.282 188.64 520.863 188.165 518.602 187.24C516.332 186.421 514.258 185.136 512.515 183.467C510.766 181.74 509.398 179.667 508.497 177.381C507.506 175.118 507.008 172.67 507.036 170.199C507.002 167.729 507.501 165.279 508.497 163.018C509.428 160.747 510.792 158.68 512.515 156.932C514.267 155.274 516.338 153.991 518.602 153.159C520.866 152.254 523.285 151.799 525.724 151.82V151.82C528.139 151.774 530.54 152.207 532.786 153.095C535.033 153.983 537.081 155.308 538.811 156.993C541.469 159.532 543.281 162.827 544 166.431C544.718 170.036 544.31 173.774 542.829 177.137L543.012 177.746Z" fill="#2A48DF"/>
<path d="M662.851 187.179C665.036 181.977 666.154 176.389 666.138 170.747C666.183 165.102 665.064 159.508 662.851 154.315C660.759 149.305 657.674 144.771 653.781 140.987C649.796 137.126 645.077 134.104 639.902 132.101C634.316 129.923 628.366 128.829 622.371 128.875C616.399 128.803 610.468 129.878 604.901 132.04C599.744 134.015 595.043 137.017 591.083 140.865C587.228 144.681 584.148 149.207 582.013 154.193C578.704 161.903 577.788 170.428 579.384 178.665C580.979 186.901 585.013 194.468 590.961 200.386C594.934 204.232 599.631 207.252 604.779 209.271C610.383 211.459 616.355 212.554 622.371 212.497C628.343 212.563 634.272 211.489 639.841 209.332C644.988 207.397 649.688 204.435 653.654 200.627C657.62 196.818 660.77 192.243 662.912 187.179H662.851ZM639.415 177.928C638.478 180.088 637.111 182.035 635.398 183.649C633.628 185.299 631.563 186.599 629.31 187.483C627.034 188.339 624.62 188.773 622.188 188.761C619.725 188.841 617.274 188.384 615.005 187.422C612.747 186.579 610.678 185.296 608.918 183.649C607.224 181.891 605.881 179.825 604.962 177.563C603.982 175.285 603.477 172.831 603.477 170.351C603.477 167.871 603.982 165.418 604.962 163.139C606.894 158.782 610.455 155.352 614.884 153.585C617.155 152.702 619.569 152.248 622.006 152.246V152.246C624.468 152.239 626.909 152.715 629.189 153.645C631.429 154.526 633.491 155.804 635.276 157.419C637.033 159.151 638.42 161.221 639.354 163.505C640.334 165.783 640.839 168.237 640.839 170.716C640.839 173.196 640.334 175.65 639.354 177.928H639.415Z" fill="#2A48DF"/>
<path d="M737.373 198.504C740.926 194.824 743.755 190.51 745.713 185.784C747.755 180.972 748.808 175.797 748.808 170.569C748.808 165.341 747.755 160.167 745.713 155.354C743.753 150.666 740.924 146.392 737.373 142.756C733.903 139.111 729.771 136.158 725.199 134.054C720.407 131.848 715.195 130.706 709.92 130.706H678.753V210.25H709.92C715.229 210.26 720.479 209.14 725.32 206.963C729.809 204.883 733.891 202.018 737.373 198.504ZM722.277 178.238C721.469 180.409 720.203 182.381 718.564 184.02C716.925 185.658 714.953 186.924 712.781 187.732C710.214 188.7 707.488 189.175 704.746 189.132H702.737V152.616H704.685C707.427 152.583 710.151 153.057 712.72 154.016C715.005 154.803 717.085 156.093 718.807 157.789C720.44 159.538 721.684 161.612 722.459 163.875C723.381 166.24 723.836 168.761 723.799 171.3C723.698 173.722 723.183 176.11 722.277 178.359V178.238Z" fill="#2A48DF"/>
<path d="M432.948 271.656L416.635 230.454L390.155 230.393L423.513 309.937H442.201L475.863 230.515L449.384 230.454L432.948 271.656Z" fill="#2A48DF"/>
<path d="M486.177 310.053L533.535 310.114L533.596 288.752H510.526L510.586 280.78L532.318 280.841L532.379 259.479L510.586 259.418V251.932H533.657V230.631L486.299 230.51L486.177 310.053Z" fill="#2A48DF"/>
<path d="M604.612 271.649L572.533 230.629H549.462L549.34 310.112L573.689 310.173L573.75 269.214L605.829 310.234H628.778L628.9 230.751L604.673 230.69L604.612 271.649Z" fill="#2A48DF"/>
<path d="M641.783 252.116H657.671L657.61 310.298L681.898 310.358L682.02 252.177L697.968 252.238V230.876L641.783 230.754V252.116Z" fill="#2A48DF"/>
<path d="M757.823 273.962C757.823 276.093 757.823 278.284 757.823 280.474C757.737 282.305 757.303 284.101 756.544 285.769C755.878 287.206 754.824 288.428 753.501 289.299C751.626 290.27 749.521 290.712 747.414 290.577V290.577C745.298 290.722 743.186 290.258 741.326 289.238C739.995 288.421 738.952 287.208 738.344 285.769C737.578 284.083 737.144 282.264 737.065 280.414C737.065 278.223 737.065 276.032 737.065 273.962V230.935H712.717V276.64C712.311 281.515 712.871 286.421 714.364 291.079C715.858 295.737 718.256 300.054 721.421 303.784C725 306.924 729.169 309.322 733.683 310.837C738.198 312.352 742.969 312.954 747.718 312.608C752.431 312.963 757.167 312.376 761.65 310.882C766.134 309.387 770.275 307.016 773.832 303.905C776.997 300.176 779.395 295.858 780.889 291.201C782.383 286.543 782.943 281.636 782.537 276.762V231.057H758.188L757.823 273.962Z" fill="#2A48DF"/>
<path d="M854.059 271.954C857.309 267.518 858.961 262.113 858.746 256.618C858.775 253.295 858.197 249.995 857.042 246.88C855.958 243.833 854.235 241.053 851.99 238.725C849.596 236.254 846.686 234.343 843.467 233.126C839.695 231.703 835.689 231.001 831.658 231.057H799.031V310.6H823.38V287.839L838.05 310.661H868.486L844.137 278.892C848.04 277.575 851.483 275.168 854.059 271.954V271.954ZM831.78 262.582C829.616 263.935 827.083 264.573 824.536 264.408H823.319V250.897H824.536C827.103 250.719 829.66 251.358 831.841 252.723C832.538 253.333 833.087 254.094 833.446 254.948C833.805 255.802 833.964 256.727 833.91 257.652C833.991 258.586 833.839 259.525 833.467 260.386C833.095 261.246 832.516 262.001 831.78 262.582V262.582Z" fill="#2A48DF"/>
<path d="M878.208 310.663L925.567 310.724L925.628 289.423L902.557 289.362V281.45H924.349L924.41 260.089H902.618V252.542L925.689 252.603V231.241L878.33 231.119L878.208 310.663Z" fill="#2A48DF"/>
<path d="M980.255 260.52L975.386 258.998C974.031 258.615 972.708 258.127 971.429 257.537C970.532 257.132 969.726 256.553 969.055 255.833C968.858 255.622 968.708 255.373 968.614 255.1C968.519 254.828 968.483 254.538 968.507 254.251C968.487 253.721 968.606 253.196 968.851 252.726C969.097 252.256 969.461 251.859 969.907 251.573C971.438 250.773 973.14 250.356 974.868 250.356C976.596 250.356 978.298 250.773 979.829 251.573C981.866 252.439 983.772 253.586 985.49 254.981L987.803 256.929L998.03 236.906L995.899 235.75C992.045 233.704 987.957 232.13 983.725 231.063C979.773 229.905 975.668 229.351 971.551 229.42C967.636 229.388 963.745 230.026 960.046 231.307C956.7 232.527 953.636 234.411 951.037 236.845C948.547 239.271 946.597 242.195 945.315 245.426C943.938 248.912 943.256 252.634 943.306 256.381C943.21 259.89 943.875 263.378 945.254 266.606C946.47 269.205 948.235 271.51 950.428 273.361C952.553 275.161 954.959 276.6 957.55 277.621C959.985 278.595 962.481 279.508 965.037 280.299C967.594 281.09 968.811 281.638 970.272 282.247C971.354 282.634 972.377 283.166 973.316 283.829C973.837 284.181 974.257 284.663 974.533 285.229C974.794 285.801 974.919 286.426 974.899 287.054C974.884 287.66 974.741 288.255 974.479 288.801C974.217 289.346 973.841 289.83 973.377 290.219C971.83 291.348 969.93 291.888 968.02 291.741C965.445 291.604 962.913 291.028 960.533 290.037C957.632 288.674 954.962 286.867 952.619 284.681L950.245 282.612L939.41 302.939L941.236 304.156C949.27 309.932 958.916 313.041 968.811 313.041V313.041C973.206 313.109 977.584 312.472 981.777 311.155C985.448 309.95 988.841 308.025 991.76 305.495C994.42 303.042 996.499 300.027 997.847 296.67C999.294 293.073 1000.02 289.227 999.978 285.35C1000.22 279.795 998.471 274.335 995.047 269.953C991.081 265.505 985.962 262.24 980.255 260.52V260.52Z" fill="#2A48DF"/>
<path d="M401.672 200.511C405.426 204.251 409.899 207.191 414.821 209.153C420.155 211.227 425.838 212.26 431.561 212.196V212.196C435.816 212.217 440.054 211.664 444.161 210.553C448.12 209.509 451.897 207.867 455.362 205.684C458.829 203.553 461.882 200.811 464.371 197.59C467.013 194.292 469.072 190.566 470.458 186.574C471.594 183.499 472.31 180.286 472.588 177.019C472.972 173.36 473.154 169.683 473.136 166.004V163.509H429.795V180.854H446.353C445.629 183.829 443.857 186.444 441.361 188.218C440.154 189.016 438.814 189.593 437.404 189.922C433.347 190.848 429.104 190.53 425.23 189.009C423.214 188.122 421.424 186.79 419.995 185.114C418.502 183.326 417.384 181.257 416.708 179.028C415.953 176.397 415.584 173.67 415.612 170.934C415.567 167.978 416.02 165.036 416.951 162.231C417.705 159.874 418.904 157.685 420.482 155.779C421.89 154.067 423.684 152.711 425.717 151.824C427.854 150.847 430.185 150.368 432.535 150.424V150.424C435.359 150.357 438.137 151.141 440.509 152.676C441.976 153.69 443.219 154.995 444.161 156.51L466.806 146.59C463.719 141.444 459.412 137.138 454.266 134.053C447.615 130.399 440.122 128.552 432.535 128.697C426.621 128.524 420.73 129.495 415.186 131.557C410.197 133.437 405.656 136.339 401.855 140.078C398.072 143.831 395.144 148.356 393.272 153.345C389.226 164.262 389.226 176.266 393.272 187.183C395.146 192.146 398.003 196.68 401.672 200.511V200.511Z" fill="#2A48DF"/>
</svg>
