<svg width="696" height="693" viewBox="0 0 696 693" fill="none" xmlns="http://www.w3.org/2000/svg">
<path d="M211.371 333.438L217.736 228.881L187.35 239.567L185.143 293.354L149.675 252.758L119.288 263.444L189.865 340.954L211.371 333.438Z" fill="black"/>
<path d="M317.57 296.167L308.946 271.727L282.461 281.033L279.279 271.932L304.276 263.189L295.601 238.75L270.604 247.493L267.576 238.903L294.061 229.598L285.387 205.158L230.979 224.28L263.162 315.289L317.57 296.167Z" fill="black"/>
<path d="M367.256 278.733L358.017 252.658L384.143 273.109L419.149 260.787L378.394 234.303C382.363 231.212 385.341 227.037 386.966 222.287C388.888 215.916 388.581 209.084 386.093 202.91C384.768 199.094 382.769 195.544 380.191 192.429C377.693 189.381 374.58 186.89 371.054 185.117C367.296 183.279 363.178 182.284 358.992 182.203C354.089 182.106 349.211 182.939 344.62 184.657L307.15 197.797L339.333 288.806L367.256 278.733ZM353.603 209.147C354.62 209.602 355.534 210.257 356.29 211.073C357.046 211.889 357.629 212.849 358.003 213.895C358.377 214.941 358.534 216.052 358.466 217.16C358.398 218.269 358.106 219.352 357.606 220.345C355.673 222.822 352.992 224.615 349.958 225.457L348.572 225.969L343.132 210.63L344.517 210.17C347.359 208.875 350.542 208.516 353.603 209.147Z" fill="black"/>
<path d="M447.893 250.456L475.815 240.69L460.622 197.743L477.612 137.718L444.094 149.477L437.217 175.655L415.351 159.55L381.833 171.36L432.7 207.559L447.893 250.456Z" fill="black"/>
<path d="M329.735 334.461C323.571 331.653 316.903 330.106 310.128 329.911C302.839 329.687 295.575 330.849 288.724 333.337C281.77 335.656 275.337 339.303 269.784 344.074C264.709 348.386 260.561 353.674 257.589 359.622C254.617 365.57 252.881 372.055 252.486 378.688C252.096 385.53 253.091 392.38 255.412 398.832C257.61 405.174 261.058 411.014 265.553 416.01C270.048 421.005 275.5 425.056 281.589 427.924C287.724 430.72 294.352 432.284 301.094 432.526H303.147C317.156 432.312 330.662 427.292 341.387 418.312C346.496 414.004 350.679 408.714 353.687 402.757C356.694 396.801 358.464 390.301 358.889 383.647C359.279 376.805 358.285 369.954 355.964 363.502C353.789 357.141 350.343 351.285 345.836 346.285C341.328 341.285 335.851 337.246 329.735 334.41V334.461ZM304.071 403.229C301.197 403.136 298.371 402.476 295.756 401.286C293.139 400.039 290.787 398.303 288.826 396.173C286.753 393.976 285.178 391.361 284.207 388.504C283.2 385.669 282.781 382.66 282.975 379.659C283.405 373.895 286.098 368.531 290.469 364.729C295.038 360.852 300.894 358.81 306.894 359.003C309.785 359.089 312.629 359.75 315.26 360.946C319.331 362.795 322.739 365.836 325.032 369.663C327.324 373.49 328.392 377.922 328.092 382.369C327.853 385.234 327.069 388.027 325.783 390.6C324.498 393.1 322.797 395.365 320.753 397.298C318.494 399.256 315.881 400.766 313.053 401.746C310.24 402.827 307.238 403.331 304.225 403.229H304.071Z" fill="black"/>
<path d="M440.603 295.605C434.432 292.809 427.771 291.246 420.996 291.004C406.256 290.727 391.918 295.797 380.652 305.269C375.555 309.656 371.385 315.009 368.384 321.016C365.442 326.907 363.697 333.318 363.252 339.883C362.56 350.054 364.969 360.197 370.162 368.983C375.355 377.768 383.09 384.787 392.355 389.119C398.457 391.957 405.077 393.523 411.808 393.721H413.861C427.876 393.504 441.392 388.505 452.152 379.558C457.3 375.161 461.521 369.791 464.574 363.76C467.514 357.85 469.258 351.422 469.706 344.842C470.096 338 469.102 331.149 466.781 324.698C464.602 318.228 461.107 312.276 456.515 307.212C452.051 302.313 446.639 298.365 440.603 295.605V295.605ZM414.939 364.373C412.066 364.28 409.239 363.62 406.624 362.43C403.998 361.198 401.644 359.46 399.695 357.317C397.703 355.124 396.172 352.555 395.194 349.762C394.215 346.97 393.808 344.01 393.997 341.059C394.23 338.199 394.996 335.407 396.256 332.827C397.534 330.296 399.275 328.025 401.388 326.129C403.628 324.172 406.225 322.662 409.036 321.681C411.852 320.691 414.83 320.24 417.814 320.352C420.696 320.5 423.529 321.158 426.18 322.295C428.82 323.527 431.192 325.264 433.161 327.407C435.217 329.618 436.79 332.229 437.78 335.077C438.787 337.836 439.211 340.772 439.025 343.702C438.84 346.631 438.049 349.491 436.702 352.102C435.431 354.653 433.69 356.942 431.57 358.851C427.047 362.78 421.192 364.845 415.196 364.629L414.939 364.373Z" fill="black"/>
<path d="M497.065 365.189L532.995 352.662C539.13 350.47 544.715 346.982 549.369 342.436C553.836 338.12 557.472 333.026 560.096 327.405C562.678 321.767 564.176 315.697 564.511 309.51C564.879 303.262 563.989 297.004 561.893 291.104C559.81 285.137 556.526 279.657 552.243 274.998C543.77 265.801 532.095 260.169 519.598 259.251C513.201 258.648 506.749 259.469 500.709 261.654L464.78 274.18L497.065 365.189ZM516.365 330.83L501.479 288.649L503.738 287.882C506.853 286.72 510.164 286.164 513.49 286.246C516.351 286.357 519.16 287.034 521.754 288.24C524.25 289.491 526.467 291.23 528.273 293.353C530.278 295.707 531.827 298.412 532.841 301.329C533.887 304.249 534.408 307.33 534.381 310.43C534.347 313.19 533.717 315.91 532.533 318.406C531.307 320.969 529.559 323.25 527.4 325.104C524.843 327.344 521.882 329.079 518.674 330.217L516.365 330.83Z" fill="black"/>
<path d="M348.316 0.235352C279.568 0.235352 212.364 20.5421 155.202 58.5876C98.0401 96.6331 53.4879 150.709 27.1793 213.976C0.870577 277.243 -6.01297 346.861 7.39908 414.025C20.8111 481.19 53.9164 542.884 102.528 591.307C151.141 639.73 213.076 672.706 280.503 686.066C347.93 699.426 417.82 692.569 481.335 666.363C544.849 640.156 599.136 595.778 637.331 538.839C675.525 481.899 695.911 414.957 695.911 346.477C695.802 254.681 659.146 166.676 593.983 101.767C528.819 36.8573 440.47 0.343601 348.316 0.235352V0.235352ZM655.567 346.477C655.567 407.009 637.547 466.182 603.786 516.512C570.025 566.842 522.038 606.07 465.896 629.235C409.753 652.399 347.975 658.46 288.374 646.651C228.773 634.842 174.026 605.693 131.056 562.89C88.0862 520.088 58.8233 465.554 46.9679 406.185C35.1126 346.817 41.1972 285.279 64.4523 229.355C87.7074 173.431 127.089 125.632 177.616 92.0018C228.143 58.3721 287.547 40.4223 348.316 40.4223C429.779 40.5035 507.882 72.7745 565.485 130.153C623.088 187.532 655.485 265.331 655.567 346.477V346.477Z" fill="black"/>
<path d="M557.376 393.156C550.207 428.423 533.957 461.228 510.222 488.353C486.487 515.478 456.08 535.991 421.986 547.88C387.892 559.77 351.28 562.627 315.743 556.172C280.206 549.716 246.963 534.17 219.277 511.058C217.262 509.371 214.932 508.096 212.422 507.306C209.912 506.517 207.27 506.228 204.648 506.457C199.388 506.983 194.534 509.51 191.097 513.512C187.697 517.568 186.053 522.803 186.524 528.066C186.996 533.329 189.545 538.19 193.612 541.582C226.61 569.117 266.225 587.638 308.574 595.327C350.922 603.016 394.55 599.61 435.178 585.442C475.807 571.275 512.042 546.833 540.33 514.513C568.618 482.193 587.987 443.105 596.54 401.081C597.082 398.524 597.103 395.885 596.6 393.32C596.098 390.755 595.082 388.317 593.614 386.152C591.437 382.864 588.33 380.294 584.685 378.768C581.041 377.241 577.024 376.827 573.142 377.577C569.261 378.327 565.691 380.208 562.884 382.982C560.078 385.755 558.161 389.296 557.376 393.156Z" fill="black"/>
<path d="M161.327 456.044C165.637 460.773 170.879 464.567 176.725 467.19C182.61 469.779 188.976 471.103 195.409 471.076C202.442 471.074 209.41 469.738 215.94 467.139V467.139C220.757 465.268 225.298 462.757 229.44 459.674C233.349 456.788 236.808 453.343 239.705 449.449C242.638 445.515 244.861 441.104 246.275 436.411C247.747 431.541 248.389 426.46 248.174 421.379C248.046 417.415 247.426 413.483 246.327 409.671C245.103 405.392 243.664 401.177 242.015 397.042L240.937 394.281L191.919 413.403L199.618 432.934L218.301 425.623C218.776 429.285 217.94 432.996 215.94 436.104C214.963 437.547 213.707 438.781 212.245 439.734C208.011 442.712 202.952 444.302 197.77 444.285C195.091 444.195 192.47 443.477 190.122 442.189C187.645 440.8 185.479 438.92 183.757 436.667C181.765 434.024 180.19 431.092 179.087 427.975C177.738 424.719 176.941 421.264 176.725 417.749C176.542 414.777 176.907 411.796 177.803 408.955C178.647 406.401 180.07 404.074 181.961 402.155C183.961 400.13 186.377 398.56 189.044 397.553C192.285 396.188 195.869 395.849 199.31 396.582C201.404 397.067 203.378 397.972 205.11 399.241L226.206 378.073C220.434 373.668 213.667 370.736 206.496 369.535C197.387 368.362 188.129 369.596 179.651 373.114C173.022 375.51 166.908 379.136 161.635 383.8C156.872 388.103 153.031 393.32 150.343 399.138C147.738 405.031 146.442 411.414 146.544 417.851C146.9 431.901 152.226 445.373 161.584 455.891L161.327 456.044Z" fill="black"/>
</svg>
