<svg width="697" height="693" viewBox="0 0 697 693" fill="none" xmlns="http://www.w3.org/2000/svg">
<path d="M348.54 0.235352C279.792 0.235352 212.588 20.5421 155.427 58.5876C98.2648 96.6331 53.7127 150.709 27.404 213.976C1.09531 277.243 -5.78824 346.861 7.62381 414.025C21.0359 481.19 54.1411 542.884 102.753 591.307C151.365 639.73 213.301 672.706 280.728 686.066C348.155 699.426 418.044 692.569 481.559 666.363C545.074 640.156 599.361 595.778 637.555 538.839C675.749 481.899 696.136 414.957 696.136 346.477C696.027 254.681 659.37 166.676 594.207 101.767C529.044 36.8573 440.695 0.343601 348.54 0.235352V0.235352ZM655.74 346.477C655.73 406.997 637.704 466.154 603.943 516.47C570.181 566.785 522.199 605.998 466.065 629.151C409.931 652.304 348.165 658.356 288.577 646.543C228.989 634.731 174.256 605.582 131.299 562.785C88.3413 519.988 59.0885 465.463 47.2393 406.105C35.39 346.748 41.4766 285.223 64.7294 229.312C87.9821 173.4 127.357 125.611 177.874 91.9897C228.392 58.3678 287.784 40.4223 348.54 40.4223C429.994 40.517 508.084 72.7941 565.677 130.171C623.269 187.549 655.659 265.34 655.74 346.477Z" fill="black"/>
<path d="M557.601 393.158C550.432 428.425 534.182 461.23 510.447 488.355C486.711 515.48 456.305 535.993 422.211 547.882C388.116 559.772 351.505 562.629 315.968 556.174C280.43 549.718 247.188 534.172 219.501 511.06C217.491 509.371 215.165 508.094 212.656 507.305C210.148 506.516 207.508 506.23 204.888 506.463C202.268 506.696 199.72 507.443 197.391 508.662C195.063 509.881 193 511.548 191.322 513.566C189.64 515.57 188.371 517.884 187.587 520.377C186.803 522.87 186.52 525.492 186.753 528.094C186.987 530.696 187.733 533.226 188.948 535.541C190.164 537.856 191.825 539.909 193.837 541.584C238.61 578.834 295.081 599.261 353.417 599.308C410.689 599.268 466.187 579.514 510.515 543.39C554.843 507.266 585.276 456.993 596.662 401.083C597.717 395.91 596.666 390.531 593.739 386.13C590.813 381.729 586.251 378.666 581.058 377.615C575.865 376.564 570.465 377.612 566.047 380.526C561.628 383.441 558.553 387.985 557.498 393.158H557.601Z" fill="black"/>
<path d="M243.215 455.634L254.096 298.158L208.157 313.803L204.154 394.893L151.234 333.283L105.296 348.98L210.724 466.729L243.215 455.634Z" fill="black"/>
<path d="M536.453 354.965L547.334 197.438L501.396 213.135L497.443 294.173L444.473 232.564L398.534 248.26L503.962 366.06L536.453 354.965Z" fill="black"/>
<path d="M291.822 398.729C298.118 406.189 305.872 412.295 314.612 416.675C323.351 420.925 332.872 423.344 342.586 423.782C353.056 424.138 363.501 422.543 373.383 419.078V419.078C380.782 416.594 387.822 413.156 394.325 408.853C400.553 404.567 406.121 399.4 410.853 393.514C415.515 387.743 419.16 381.225 421.632 374.239C424.154 366.931 425.471 359.265 425.533 351.538C425.56 345.53 424.87 339.54 423.48 333.694C422.094 327.814 420.195 321.321 417.782 314.316L416.345 310.073L341.098 335.944L351.363 365.956L380.107 356.139C380.596 361.725 379.087 367.302 375.847 371.887C374.242 373.947 372.255 375.683 369.996 377C363.394 381.205 355.65 383.276 347.822 382.931C343.779 382.564 339.869 381.307 336.375 379.249C332.731 376.973 329.573 374.002 327.085 370.506C324.192 366.407 321.91 361.912 320.31 357.162C318.471 352.073 317.482 346.719 317.384 341.312C317.285 336.778 318.051 332.267 319.642 328.019C321.073 324.231 323.355 320.82 326.315 318.049C329.49 315.103 333.274 312.886 337.402 311.555V311.555C342.339 309.761 347.7 309.476 352.801 310.737C355.965 311.617 358.917 313.131 361.475 315.185L394.736 284.508C386.323 277.428 376.265 272.56 365.479 270.346C351.713 267.917 337.549 269.152 324.416 273.925C314.168 277.224 304.641 282.429 296.339 289.263C288.814 295.526 282.649 303.25 278.22 311.964C273.947 320.783 271.586 330.399 271.291 340.187C271.066 350.742 272.806 361.248 276.424 371.171C279.76 381.245 284.985 390.597 291.822 398.729V398.729Z" fill="black"/>
</svg>
