<?xml version="1.0" encoding="UTF-8"?>
<svg width="2253px" height="867px" viewBox="0 0 2253 867" version="1.1" xmlns="http://www.w3.org/2000/svg" xmlns:xlink="http://www.w3.org/1999/xlink">
    <!-- Generator: Sketch 63.1 (92452) - https://sketch.com -->
    <title>vgv-wordmark-white</title>
    <desc>Created with Sketch.</desc>
    <g id="vgv-wordmark-white" stroke="none" stroke-width="1" fill="none" fill-rule="evenodd">
        <g id="VGV-wordmark" fill="#FFFFFF">
            <g id="Group">
                <path d="M570.0627,58.0247 L284.4377,439.4477 C315.4217,372.7727 417.8327,147.5737 417.8327,83.8147 C417.8327,16.7627 374.3727,0.0007 334.3277,0.0007 C225.6797,0.0007 136.2157,74.0447 70.7767,168.5607 C16.7417,246.6067 -0.0003,325.0157 -0.0003,325.0157 L97.9797,296.8847 C190.1757,45.4397 317.0997,22.3507 340.3817,22.3507 C363.6637,22.3507 368.7857,42.8387 368.7857,58.6707 C368.7857,170.4237 156.4547,460.0507 156.4547,540.1397 C156.4547,620.2297 199.2927,631.4057 199.2927,631.4057 L607.5917,58.0247 L570.0627,58.0247 Z" id="Fill-1"></path>
                <path d="M1635.3215,245.3913 C1651.6545,245.3913 1652.9095,267.9933 1637.5255,296.9233 C1625.3575,318.4233 1555.2705,439.5623 1520.8555,439.5623 C1460.0375,439.5623 1583.1705,245.3913 1635.3215,245.3913 M1502.8505,492.3343 C1577.4435,492.3343 1664.1915,294.2833 1664.1915,294.2833 L1655.8555,294.0753 C1663.0685,280.9653 1672.5725,260.4033 1672.5725,243.0633 C1672.5725,194.6363 1618.9745,191.6603 1608.7195,191.6603 C1557.5105,191.6603 1438.3075,349.2283 1438.3075,417.2113 C1438.3075,482.4013 1500.0565,492.3343 1502.8505,492.3343" id="Fill-4"></path>
                <path d="M1840.2024,245.3913 C1856.5354,245.3913 1857.7904,267.9933 1842.4064,296.9233 C1830.2384,318.4233 1760.1514,439.5623 1725.7364,439.5623 C1664.9174,439.5623 1788.0504,245.3913 1840.2024,245.3913 M1707.7314,492.3343 C1781.0664,492.3343 1869.0724,294.2833 1869.0724,294.2833 L1860.7364,294.0753 C1867.9494,280.9653 1877.4534,260.4033 1877.4534,243.0633 C1877.4534,194.6363 1823.8554,191.6603 1813.6004,191.6603 C1762.3914,191.6603 1643.1884,349.2283 1643.1884,417.2113 C1643.1884,482.4013 1704.9374,492.3343 1707.7314,492.3343" id="Fill-6"></path>
                <path d="M1433.0364,333.6221 C1442.9364,319.7901 1447.2034,296.1531 1424.8574,277.5301 L1424.8534,277.5201 C1424.8534,277.5201 1311.8464,420.9371 1237.3564,420.9371 C1213.1544,420.9371 1198.8634,407.2781 1198.8634,381.2021 C1198.8634,279.6931 1412.7464,59.6011 1477.0044,59.6011 C1488.1804,59.6011 1495.6304,71.7081 1495.6304,85.6771 C1495.6304,134.1041 1430.0684,216.7161 1430.0684,216.7161 L1478.8674,207.6741 C1478.8674,207.6741 1540.3314,120.1341 1540.3314,81.9521 C1540.3314,43.7701 1498.5104,1.8621 1452.7914,1.8621 C1342.9004,1.8621 1103.5624,302.7251 1103.5624,410.6931 C1103.5624,433.9751 1124.9824,509.4081 1181.7904,509.4081 C1222.9004,509.4081 1287.5084,455.4601 1341.1834,402.3111 L1344.5194,402.3111 L1258.3194,531.8421 C1155.9094,533.2971 1052.1794,534.7731 955.2824,536.1521 C947.2094,545.1591 931.3984,563.9891 923.7564,573.1641 C1251.7664,576.4941 1859.4184,582.9861 1874.6544,582.9861 C1895.1374,582.9861 1912.8414,567.1511 1936.1264,522.4481 C1922.8294,522.4481 1636.0604,526.4821 1320.5344,530.9591 C1374.5344,435.4011 1429.2704,338.8811 1433.0364,333.6221" id="Fill-8"></path>
                <path d="M1931.0828,439.5625 C1870.2648,439.5625 1993.3968,245.3915 2045.5488,245.3915 C2062.7778,245.3915 2063.1268,270.5355 2044.9668,301.7335 L2045.0028,301.7425 C2027.4038,332.3535 1963.4578,439.5625 1931.0828,439.5625 M2044.6178,443.2875 C2040.0458,443.2875 2038.5638,438.6315 2038.5638,434.9065 C2038.5638,410.8115 2252.7578,137.1105 2252.7578,137.1105 L2181.8268,137.1105 L2070.6718,292.4665 L2067.6458,292.6375 C2074.2118,280.0635 2082.7998,260.3245 2082.7998,243.0635 C2082.7998,194.6365 2029.2028,191.6595 2018.9468,191.6595 C1967.7378,191.6595 1848.5348,349.2285 1848.5348,417.2115 C1848.5348,482.4015 1910.2838,492.3345 1913.0778,492.3345 C1929.0508,492.3345 1958.1618,459.3835 1987.1088,420.2365 C1987.5508,419.6395 1988.9388,419.8475 1990.1788,419.9285 C1972.3228,457.1145 1993.7038,492.3345 2029.7058,492.3345 C2065.5718,492.3345 2156.3708,359.4725 2156.3708,359.4725 L2130.2948,359.4725 C2130.2948,359.4725 2066.0368,443.2875 2044.6178,443.2875" id="Fill-10"></path>
                <path d="M641.6465,690.071 C533.6275,690.071 447.9355,605.337 447.9355,582.986 C447.9355,570.864 457.2545,567.822 511.4195,567.822 C582.4985,567.822 691.3085,571.248 720.0315,571.248 C728.1525,571.248 772.5195,571.655 839.5015,572.326 C786.7025,640.338 724.5595,690.071 641.6465,690.071 M611.3835,254.549 C652.7025,254.549 558.2785,341.289 509.0555,368.668 C533.0665,316.468 581.2145,254.549 611.3835,254.549 M932.7635,535.529 C934.0575,533.636 934.8235,532.51 934.8235,532.51 C1011.2205,420.395 1103.9795,268.2 1109.4655,259.815 C1124.7255,236.482 1078.4185,190.294 1078.4185,190.294 C1078.4185,190.294 1040.0215,250.322 989.1935,332.325 C949.6925,388.299 906.2025,439.562 879.4105,439.562 C869.9935,439.562 866.0875,433.472 866.0875,424.352 C866.0875,394.24 949.8975,277.876 962.0085,259.205 C976.9085,236.234 930.9655,189.98 930.9655,189.98 C930.9655,189.98 870.9975,284.939 830.0475,349.075 C819.9155,363.806 766.4405,439.562 738.3355,439.562 C711.3275,439.562 765.7845,359.724 785.0655,332.776 C827.9195,272.883 738.8895,268.447 769.3655,213.095 C775.8505,203.908 779.4785,198.595 779.4785,198.595 L765.5095,169.492 C765.5095,169.492 724.4145,234.062 672.3815,300.802 C619.1495,369.08 555.9525,439.562 510.5725,439.562 C499.9655,439.562 493.8105,430.762 494.5075,416.979 C494.8045,411.113 496.1165,404.339 498.2475,396.969 C537.0445,383.552 653.7555,312.118 653.7555,253.307 C653.7555,200.224 607.1915,191.66 596.9365,191.66 C545.7275,191.66 429.3185,341.778 429.3185,415.97 C429.3185,481.16 488.2735,492.335 491.0675,492.335 C552.4955,492.335 668.9675,348.808 733.5155,262.409 C738.1085,267.944 744.7105,277.519 744.7105,286.833 C744.7105,326.568 657.7915,384.928 657.7915,437.7 C657.7915,466.88 688.6535,492.335 712.8665,492.335 C736.1525,492.335 766.4095,464.154 792.0445,434.122 C799.8445,460.736 825.3755,492.335 847.1255,492.335 C875.2545,492.335 906.5635,459.882 930.8265,427.456 L932.4865,427.456 C910.8105,464.814 888.6865,502.597 864.8715,537.421 C650.9895,540.44 488.4215,542.716 480.6125,542.716 C440.0305,542.716 416.4095,547.962 418.1345,574.602 C419.9065,601.552 500.0885,722.675 654.6785,722.675 C757.7385,722.675 820.6965,691.772 903.0815,578.003 C903.4415,577.524 903.8725,576.925 904.3755,576.231 C905.1185,575.176 905.9085,574.098 906.6755,572.996 L906.6995,572.996 C906.9625,572.613 907.2505,572.206 907.5375,571.799 C908.2325,570.84 908.9515,569.786 909.7175,568.708 C910.8195,567.175 911.9215,565.618 912.9995,564.061 C913.4315,563.438 913.8625,562.791 914.3175,562.168 C920.1385,553.927 926.0795,545.327 932.1405,536.463 C932.3565,536.152 932.5725,535.84 932.7635,535.529" id="Fill-12"></path>
                <polygon id="Fill-14" points="994.6096 612.6607 1014.6356 663.1657 1034.7736 612.6607 1058.2106 612.6607 1023.2196 695.6257 1006.0546 695.6257 971.1726 612.6607"></polygon>
                <polygon id="Fill-16" points="1140.5139 630.9251 1114.8759 630.9251 1114.8759 644.7891 1139.0849 644.7891 1139.0849 663.0551 1114.8759 663.0551 1114.8759 677.3591 1140.5139 677.3591 1140.5139 695.6261 1093.3099 695.6261 1093.3099 612.6611 1140.5139 612.6611"></polygon>
                <polygon id="Fill-18" points="1182.4374 695.6259 1182.4374 612.6609 1204.0024 612.6609 1243.8374 663.3859 1243.8374 612.6609 1265.2924 612.6609 1265.2924 695.6259 1243.8374 695.6259 1204.0024 644.8989 1204.0024 695.6259"></polygon>
                <polygon id="Fill-20" points="1340.5562 630.9251 1340.5562 695.6261 1318.9912 695.6261 1318.9912 630.9251 1301.2742 630.9251 1301.2742 612.6611 1358.2732 612.6611 1358.2732 630.9251"></polygon>
                <path d="M1415.8197,612.6607 L1415.8197,657.7727 C1415.8197,660.1947 1415.9107,662.6697 1416.0957,665.2007 C1416.2777,667.7317 1416.8277,670.0247 1417.7447,672.0787 C1418.6627,674.1327 1420.1127,675.8037 1422.0917,677.0857 C1424.0737,678.3697 1426.8597,679.0107 1430.4557,679.0107 C1434.0487,679.0107 1436.8187,678.3697 1438.7627,677.0857 C1440.7047,675.8037 1442.1557,674.1327 1443.1097,672.0787 C1444.0617,670.0247 1444.6307,667.7317 1444.8157,665.2007 C1444.9977,662.6697 1445.0887,660.1947 1445.0887,657.7727 L1445.0887,612.6607 L1466.5467,612.6607 L1466.5467,660.7437 C1466.5467,673.6557 1463.5917,683.0817 1457.6897,689.0237 C1451.7827,694.9657 1442.7047,697.9377 1430.4557,697.9377 C1418.2037,697.9377 1409.1077,694.9657 1403.1657,689.0237 C1397.2257,683.0817 1394.2547,673.6557 1394.2547,660.7437 L1394.2547,612.6607 L1415.8197,612.6607 Z" id="Fill-22"></path>
                <path d="M1531.9072,649.7416 L1535.9802,649.7416 C1540.2332,649.7416 1543.4972,648.8616 1545.7732,647.1006 C1548.0452,645.3406 1549.1842,642.8096 1549.1842,639.5086 C1549.1842,636.2076 1548.0452,633.6766 1545.7732,631.9146 C1543.4972,630.1556 1540.2332,629.2756 1535.9802,629.2756 L1531.9072,629.2756 L1531.9072,649.7416 Z M1579.3332,695.6256 L1552.4852,695.6256 L1531.9072,663.7156 L1531.9072,695.6256 L1510.3422,695.6256 L1510.3422,612.6606 L1543.9022,612.6606 C1548.5222,612.6606 1552.5552,613.3396 1556.0062,614.6966 C1559.4522,616.0526 1562.2952,617.9056 1564.5332,620.2526 C1566.7702,622.6016 1568.4572,625.3126 1569.5942,628.3936 C1570.7312,631.4746 1571.2992,634.7756 1571.2992,638.2966 C1571.2992,644.6066 1569.7762,649.7256 1566.7332,653.6486 C1563.6892,657.5716 1559.1972,660.2316 1553.2552,661.6266 L1579.3332,695.6256 Z" id="Fill-24"></path>
                <polygon id="Fill-26" points="1661.9686 630.9251 1636.3306 630.9251 1636.3306 644.7891 1660.5396 644.7891 1660.5396 663.0551 1636.3306 663.0551 1636.3306 677.3591 1661.9686 677.3591 1661.9686 695.6261 1614.7646 695.6261 1614.7646 612.6611 1661.9686 612.6611"></polygon>
                <path d="M1749.4465,633.8962 C1747.0975,631.9892 1744.7515,630.5792 1742.4045,629.6592 C1740.0555,628.7442 1737.7815,628.2842 1735.5805,628.2842 C1732.7915,628.2842 1730.5205,628.9462 1728.7585,630.2652 C1726.9995,631.5852 1726.1175,633.3092 1726.1175,635.4382 C1726.1175,636.9052 1726.5595,638.1142 1727.4395,639.0692 C1728.3185,640.0212 1729.4745,640.8472 1730.9035,641.5442 C1732.3355,642.2412 1733.9475,642.8472 1735.7465,643.3592 C1737.5435,643.8742 1739.3235,644.4242 1741.0825,645.0092 C1748.1245,647.3572 1753.2785,650.4952 1756.5425,654.4182 C1759.8055,658.3442 1761.4385,663.4602 1761.4385,669.7672 C1761.4385,674.0232 1760.7255,677.8742 1759.2935,681.3222 C1757.8635,684.7702 1755.7725,687.7232 1753.0215,690.1792 C1750.2695,692.6382 1746.8965,694.5452 1742.8985,695.9022 C1738.9005,697.2562 1734.3705,697.9372 1729.3085,697.9372 C1718.8175,697.9372 1709.0995,694.8192 1700.1515,688.5842 L1709.3925,671.1972 C1712.6205,674.0582 1715.8115,676.1872 1718.9655,677.5792 C1722.1185,678.9732 1725.2375,679.6702 1728.3185,679.6702 C1731.8395,679.6702 1734.4625,678.8632 1736.1865,677.2492 C1737.9085,675.6372 1738.7715,673.8032 1738.7715,671.7492 C1738.7715,670.5022 1738.5515,669.4212 1738.1115,668.5022 C1737.6715,667.5852 1736.9375,666.7422 1735.9125,665.9702 C1734.8835,665.2012 1733.5455,664.4852 1731.8955,663.8252 C1730.2445,663.1652 1728.2465,662.4332 1725.8975,661.6262 C1723.1085,660.7442 1720.3785,659.7732 1717.6995,658.7092 C1715.0205,657.6462 1712.6395,656.2332 1710.5475,654.4722 C1708.4585,652.7122 1706.7695,650.4952 1705.4875,647.8162 C1704.2035,645.1402 1703.5625,641.7472 1703.5625,637.6372 C1703.5625,633.5312 1704.2385,629.8072 1705.5975,626.4682 C1706.9545,623.1322 1708.8615,620.2712 1711.3175,617.8872 C1713.7765,615.5032 1716.7825,613.6502 1720.3415,612.3282 C1723.8995,611.0092 1727.8785,610.3492 1732.2795,610.3492 C1736.3875,610.3492 1740.6785,610.9182 1745.1535,612.0552 C1749.6285,613.1922 1753.9195,614.8602 1758.0275,617.0612 L1749.4465,633.8962 Z" id="Fill-28"></path>
                <path d="M952.1,720.0904 C942.175,719.9764 932.787,724.5854 926.807,732.5074 L912.36,751.6444 L1132.118,751.6444 L1125.893,761.0024 C1125.893,761.0024 1109.132,785.3084 1109.132,802.8024 C1109.132,826.0744 1137.068,866.0764 1137.068,866.0764 C1137.068,866.0764 1165.291,815.9244 1201.556,751.6444 L1800.711,751.6444 C1806.396,751.6444 1811.634,748.5624 1814.395,743.5934 L1821.901,730.0844 L952.1,720.0904 Z" id="Fill-30"></path>
            </g>
        </g>
    </g>
</svg>