<svg width="682" height="225" viewBox="0 0 682 225" fill="none" xmlns="http://www.w3.org/2000/svg">
<path d="M114.504 116.415L70.9259 6.38642L0.0927887 6.28418L89.2501 218.569L139.347 218.672L229.479 6.64208L158.646 6.5398L114.504 116.415Z" fill="black"/>
<path d="M611.002 6.5398L566.86 116.415L523.282 6.38642L452.449 6.28418L541.606 218.569L591.703 218.672L681.835 6.64208L611.002 6.5398Z" fill="black"/>
<path d="M335.986 140.395H380.334C378.289 148.316 373.532 155.278 366.886 160.08C363.705 162.236 360.13 163.747 356.364 164.528C345.254 167.221 333.58 166.418 322.949 162.227C317.57 159.903 312.782 156.409 308.936 152.001C304.989 147.134 302.041 141.539 300.262 135.538C298.215 128.53 297.212 121.26 297.285 113.962C297.175 106.066 298.372 98.2068 300.826 90.6985C302.851 84.4113 306.056 78.5643 310.271 73.4682C314.061 68.9206 318.833 65.2851 324.232 62.8335C330.02 60.2987 336.285 59.0262 342.608 59.1011V59.1011C350.208 58.9569 357.678 61.0754 364.063 65.1854C367.947 67.933 371.259 71.4058 373.815 75.411L434.383 48.8754C426.133 35.138 414.579 23.6637 400.763 15.4885C383.136 5.65812 363.218 0.631932 343.018 0.916933C327.246 0.630511 311.566 3.3553 296.823 8.94409C283.393 13.9667 271.158 21.7146 260.893 31.6963C250.803 41.7484 242.951 53.8033 237.846 67.0771C227.104 96.2235 227.104 128.223 237.846 157.37C243.004 170.647 250.849 182.725 260.893 192.853C270.888 202.876 282.86 210.728 296.053 215.912C310.382 221.462 325.643 224.239 341.016 224.092H341.324C352.728 224.128 364.087 222.65 375.098 219.695C385.67 216.838 395.767 212.463 405.074 206.709C414.273 200.935 422.428 193.658 429.198 185.184C436.168 176.332 441.63 166.4 445.367 155.785C448.282 147.52 450.195 138.938 451.064 130.221C451.937 121.478 452.45 111.559 452.45 100.771V94.2263H336.191L335.986 140.395Z" fill="black"/>
</svg>
