<svg width="1381" height="646" viewBox="0 0 1381 646" fill="none" xmlns="http://www.w3.org/2000/svg">
<path d="M118.679 180.958L194.748 0.674142L134.87 0.565469L97.5966 93.6959L60.866 0.456797L0.988739 0.348145L76.2972 180.958H118.679Z" fill="black"/>
<path d="M326.13 132.38H273.968L274.077 114.45H323.196L323.305 66.2001L274.077 66.0914L274.186 49.0302L326.239 49.1388L326.347 0.889221L219.199 0.671875L218.981 180.956H326.021L326.13 132.38Z" fill="black"/>
<path d="M423.933 129.341L456.534 180.96H525.431L471.096 109.237C479.951 106.253 487.76 100.782 493.591 93.4801C500.982 83.4623 504.808 71.2588 504.458 58.8142C504.449 51.4048 503.162 44.0523 500.655 37.0802C498.123 30.1973 494.202 23.909 489.136 18.6062C483.735 13.0341 477.165 8.72886 469.901 6.00047C461.388 2.82392 452.363 1.23999 443.277 1.32767H369.381V181.394H424.368L423.933 129.341ZM423.933 45.9911H426.65C432.437 45.5626 438.204 47.0521 443.059 50.2293C444.68 51.5149 445.963 53.1767 446.796 55.0704C447.63 56.9642 447.988 59.0326 447.841 61.0963C447.97 63.1579 447.603 65.2203 446.771 67.111C445.939 69.0016 444.666 70.6655 443.059 71.9633C438.169 75.0515 432.42 76.4982 426.65 76.0928H423.825L423.933 45.9911Z" fill="black"/>
<path d="M637.47 181.176L637.579 96.4134L704.629 1.43559L638.557 1.32693L610.411 43.0563L582.049 1.32693L516.086 1.21826L582.592 96.3047L582.483 181.068L637.47 181.176Z" fill="black"/>
<path d="M399.374 362.22C404.326 350.455 406.875 337.819 406.872 325.054C406.954 312.258 404.44 299.578 399.483 287.78C394.695 276.486 387.714 266.255 378.944 257.679C369.925 248.945 359.245 242.109 347.538 237.575C335 232.503 321.616 229.848 308.091 229.75C294.569 229.603 281.144 232.037 268.535 236.923C256.879 241.445 246.24 248.242 237.238 256.918C228.347 265.712 221.298 276.19 216.502 287.74C211.707 299.29 209.262 311.679 209.31 324.185C209.218 336.947 211.733 349.594 216.699 361.35C221.421 372.811 228.435 383.187 237.311 391.839C246.188 400.491 256.739 407.238 268.317 411.665C280.955 416.595 294.418 419.067 307.982 418.945C321.468 419.092 334.858 416.658 347.429 411.773C359.151 407.253 369.861 400.457 378.944 391.778C387.612 383.348 394.552 373.308 399.374 362.22ZM346.451 340.485C344.327 345.376 341.22 349.778 337.323 353.417C333.419 357.138 328.847 360.088 323.848 362.111C318.648 363.971 313.178 364.962 307.656 365.045C296.704 365.13 286.146 360.962 278.206 353.417C274.406 349.677 271.346 345.252 269.187 340.377C267.035 335.212 265.927 329.672 265.927 324.076C265.927 318.481 267.035 312.941 269.187 307.776C271.385 302.895 274.482 298.472 278.315 294.735C282.185 291.05 286.721 288.137 291.682 286.15C296.929 284.21 302.498 283.288 308.091 283.434C313.636 283.37 319.139 284.404 324.283 286.476C329.296 288.432 333.873 291.359 337.752 295.089C341.631 298.818 344.735 303.278 346.886 308.21C349.099 313.357 350.21 318.909 350.146 324.511C350.08 330.04 348.82 335.489 346.451 340.485Z" fill="black"/>
<path d="M617.584 362.219C627.366 338.407 627.366 311.699 617.584 287.888C612.812 276.586 605.829 266.351 597.045 257.786C587.973 249.041 577.263 242.172 565.531 237.574C552.926 232.662 539.502 230.191 525.975 230.293C512.452 230.135 499.025 232.569 486.419 237.465C474.737 241.986 464.09 248.824 455.122 257.569C441.706 271.008 432.575 288.122 428.881 306.748C425.186 325.374 427.095 344.677 434.366 362.219C439.154 373.627 446.193 383.952 455.062 392.579C463.931 401.205 474.448 407.954 485.984 412.424C498.647 417.398 512.154 419.87 525.757 419.705C539.231 419.816 552.607 417.421 565.205 412.642C576.939 408.097 587.651 401.263 596.719 392.538C605.649 383.943 612.746 373.629 617.584 362.219ZM564.661 341.245C562.463 346.126 559.366 350.549 555.533 354.286C551.577 357.912 547.016 360.817 542.058 362.871C536.931 364.869 531.478 365.901 525.975 365.913C520.38 366.025 514.825 364.95 509.674 362.762C504.733 360.8 500.228 357.882 496.416 354.177C492.484 350.295 489.411 345.63 487.397 340.484C485.094 335.363 483.944 329.799 484.028 324.184C484.011 318.576 485.158 313.025 487.397 307.883C489.57 303.02 492.671 298.628 496.525 294.952C500.326 291.233 504.834 288.313 509.783 286.367C514.788 284.52 520.098 283.635 525.431 283.759C530.97 283.77 536.459 284.802 541.623 286.801C546.589 288.828 551.124 291.778 554.99 295.495C558.971 299.246 562.136 303.778 564.286 308.808C566.436 313.838 567.526 319.257 567.487 324.727C567.698 330.299 566.735 335.852 564.661 341.028V341.245Z" fill="black"/>
<path d="M786.24 387.865C794.274 379.562 800.686 369.832 805.149 359.176C809.635 348.395 811.961 336.839 811.995 325.162C812.041 313.396 809.674 301.746 805.04 290.931C800.664 280.255 794.282 270.516 786.24 262.242C778.105 254.089 768.572 247.464 758.094 242.681C747.192 237.781 735.382 235.226 723.429 235.183H653.01V415.032H723.537C735.527 415.116 747.392 412.595 758.312 407.643C768.785 402.87 778.261 396.159 786.24 387.865ZM752.009 342.006C750.266 346.858 747.484 351.272 743.859 354.938C740.075 358.678 735.562 361.6 730.601 363.523C724.804 365.706 718.647 366.775 712.453 366.674H707.889V283.324H712.344C718.502 283.232 724.622 284.301 730.384 286.475C735.358 288.372 739.876 291.298 743.641 295.06C747.255 298.84 750.064 303.313 751.9 308.21C755.816 319.097 755.816 331.009 751.9 341.897L752.009 342.006Z" fill="black"/>
<path d="M97.5966 553.045L60.866 459.806L0.988739 459.698L76.2972 639.656L118.57 639.764L194.748 460.024L134.87 459.915L97.5966 553.045Z" fill="black"/>
<path d="M218.221 639.871L325.261 640.088L325.369 591.73H273.316V573.799H322.544V525.55L273.316 525.441L273.425 508.38L325.478 508.488L325.587 460.239L218.438 460.021L218.221 639.871Z" fill="black"/>
<path d="M485.875 553.044L413.284 460.348L361.231 460.239L360.905 640.089L415.892 640.197L416 547.61L488.592 640.306L540.537 640.415L540.754 460.565L485.984 460.457L485.875 553.044Z" fill="black"/>
<path d="M569.986 508.926H605.956L605.739 640.526L660.726 640.635L660.943 509.035L696.913 509.143L697.022 460.785L569.986 460.568V508.926Z" fill="black"/>
<path d="M832.425 558.368C832.425 563.15 832.425 568.04 832.425 573.039C832.084 577.2 831.055 581.276 829.382 585.101C827.871 588.295 825.5 591.004 822.536 592.926C818.296 595.164 813.518 596.18 808.735 595.86C803.869 596.188 799.009 595.133 794.716 592.817C791.733 590.996 789.381 588.303 787.979 585.101C786.293 581.249 785.299 577.128 785.045 572.93C785.045 567.931 785.045 563.041 785.045 558.26V460.457H730.058V563.802C730.058 591.404 736.578 612.16 749.618 625.201C765.624 639.413 786.602 646.718 807.974 645.522C818.64 646.328 829.36 645.005 839.509 641.628C849.658 638.251 859.034 632.888 867.091 625.853C880.131 612.812 886.76 592.165 886.869 564.454V461.109H832.534L832.425 558.368Z" fill="black"/>
<path d="M1049.98 553.697C1057.45 543.76 1061.29 531.562 1060.85 519.139C1060.9 511.725 1059.61 504.361 1057.05 497.405C1054.71 490.574 1051.02 484.289 1046.18 478.931C1040.77 473.289 1034.16 468.943 1026.84 466.217C1018.33 463.028 1009.3 461.479 1000.21 461.653H926.425V641.502H981.412V589.558L1014.01 641.176H1082.91L1028.03 569.454C1036.68 566.362 1044.29 560.902 1049.98 553.697ZM999.669 531.962C994.763 535.11 988.96 536.56 983.151 536.092H980.434V505.664H983.151C988.972 505.228 994.776 506.717 999.669 509.902C1001.13 511.311 1002.29 512.999 1003.08 514.866C1003.87 516.734 1004.28 518.741 1004.28 520.769C1004.28 522.798 1003.87 524.805 1003.08 526.672C1002.29 528.539 1001.13 530.228 999.669 531.636V531.962Z" fill="black"/>
<path d="M1104.64 641.287L1211.79 641.505V593.146H1159.74V575.216H1208.97L1209.08 526.966H1159.85V509.796L1212.01 509.905V461.655L1104.97 461.438L1104.64 641.287Z" fill="black"/>
<path d="M1335.35 527.941C1331.66 526.637 1327.96 525.551 1324.48 524.464C1321.42 523.594 1318.44 522.467 1315.57 521.095C1313.54 520.179 1311.7 518.888 1310.14 517.292C1309.31 516.288 1308.88 515.008 1308.94 513.706C1308.91 512.507 1309.18 511.32 1309.73 510.255C1310.28 509.19 1311.1 508.284 1312.1 507.62C1315.55 505.802 1319.39 504.852 1323.29 504.852C1327.19 504.852 1331.03 505.802 1334.48 507.62C1339.14 509.496 1343.47 512.101 1347.3 515.336L1352.63 519.791L1375.78 474.476L1370.99 471.976C1362.32 467.294 1353.13 463.647 1343.61 461.109C1334.56 458.577 1325.19 457.333 1315.79 457.414C1306.95 457.342 1298.16 458.813 1289.82 461.761C1282.25 464.48 1275.34 468.735 1269.5 474.258C1263.87 479.72 1259.46 486.313 1256.57 493.602C1253.45 501.485 1251.9 509.901 1252 518.378C1251.74 526.319 1253.22 534.22 1256.35 541.525C1259.16 547.418 1263.16 552.67 1268.08 556.956C1272.9 560.955 1278.33 564.147 1284.17 566.411C1289.71 568.693 1295.03 570.757 1301.01 572.496C1306.99 574.235 1309.7 575.648 1312.96 576.952C1315.42 577.854 1317.76 579.058 1319.92 580.538C1321.06 581.356 1322 582.437 1322.64 583.689C1323.24 584.981 1323.53 586.394 1323.51 587.819C1323.44 589.197 1323.08 590.546 1322.46 591.78C1321.85 593.014 1320.98 594.108 1319.92 594.991C1316.46 597.573 1312.16 598.774 1307.86 598.36C1302.06 598.137 1296.35 596.847 1291.01 594.556C1284.41 591.489 1278.33 587.42 1272.97 582.494L1267.76 577.821L1242.66 623.028L1246.68 625.853C1264.89 638.92 1286.74 645.951 1309.16 645.957C1319.11 646.106 1329.02 644.638 1338.5 641.61C1346.79 638.948 1354.44 634.622 1361 628.896C1367.17 623.374 1372.04 616.542 1375.23 608.901C1378.48 600.745 1380.11 592.033 1380.01 583.255C1380.65 570.739 1376.8 558.407 1369.15 548.48C1359.98 538.66 1348.29 531.554 1335.35 527.941Z" fill="black"/>
<path d="M26.9609 392.106C35.3976 400.6 45.4975 407.259 56.6278 411.667C68.71 416.385 81.5837 418.746 94.5537 418.622C104.282 418.674 113.971 417.394 123.351 414.818C132.277 412.452 140.807 408.791 148.672 403.951C156.472 399.116 163.352 392.934 168.993 385.695C174.881 378.2 179.506 369.794 182.685 360.809C185.177 353.792 186.783 346.491 187.467 339.075C188.255 330.768 188.617 322.426 188.554 314.081V308.539H90.7503V347.878H128.242C126.669 354.547 122.827 360.463 117.375 364.613C114.672 366.411 111.646 367.666 108.464 368.308C99.0817 370.636 89.2081 369.99 80.2093 366.46C75.6446 364.412 71.597 361.367 68.3642 357.549C65.0485 353.394 62.5753 348.633 61.0833 343.531C57.47 331.147 57.47 317.989 61.0833 305.605C62.7725 300.189 65.4634 295.139 69.0163 290.717C72.1851 286.85 76.2007 283.764 80.7527 281.697C85.6547 279.57 90.9489 278.496 96.2925 278.546C102.692 278.438 108.977 280.256 114.332 283.762C117.659 286.009 120.474 288.935 122.591 292.347L173.774 269.852C166.707 258.197 156.847 248.487 145.085 241.598C130.064 233.302 113.124 229.105 95.9665 229.427C82.6901 229.205 69.4911 231.491 57.0625 236.165C45.77 240.467 35.4858 247.052 26.8522 255.508C18.3328 264.028 11.7048 274.247 7.40022 285.501C2.77809 297.682 0.456695 310.616 0.553983 323.644C0.437862 336.835 2.83507 349.928 7.61753 362.222C11.9736 373.391 18.5546 383.559 26.9609 392.106Z" fill="black"/>
</svg>
