<svg width="3468" height="221" viewBox="0 0 3468 221" fill="none" xmlns="http://www.w3.org/2000/svg">
<path d="M134.563 210.383L221.483 5.16024L153.163 4.98393L110.585 111.386L68.5351 4.89579L0.215576 4.80762L86.2541 210.295L134.563 210.383Z" fill="black"/>
<path d="M377.25 155.64L317.746 155.463L317.835 135.011L373.989 135.1L374.077 80.0032L317.923 79.915V60.4329L377.427 60.5211L377.515 5.33647L255.157 5.16016L254.892 210.56L377.25 210.736V155.64Z" fill="black"/>
<path d="M485.063 152.372L522.881 211.259H601.603L539.014 129.276C549.064 125.951 557.961 119.836 564.666 111.645C573.007 100.178 577.232 86.2314 576.655 72.0639C576.728 63.4697 575.265 54.9317 572.336 46.8517C569.38 38.7613 564.693 31.414 558.602 25.3234C552.512 19.2327 545.165 14.5458 537.074 11.59C527.322 7.96277 516.976 6.19852 506.573 6.38892H422.297V211.788H485.063V152.372ZM485.063 57.0776H488.149C494.768 56.608 501.361 58.3103 506.925 61.9261C508.811 63.4091 510.297 65.3377 511.251 67.5384C512.206 69.739 512.597 72.1425 512.391 74.5322C512.574 76.9194 512.171 79.3152 511.219 81.5119C510.267 83.7086 508.793 85.6398 506.925 87.1382C501.35 90.7231 494.759 92.3942 488.149 91.8986H484.975L485.063 57.0776Z" fill="black"/>
<path d="M666.221 211.173L728.986 211.261L729.163 114.468L805.769 6.03817L730.309 5.95L698.044 53.5533L665.78 5.86186L590.32 5.68555L666.309 114.38L666.221 211.173Z" fill="black"/>
<path d="M1976.9 111.386L1934.85 4.89579L1866.53 4.80762L1952.57 210.295L2000.88 210.383L2087.8 5.0721L2019.48 4.98393L1976.9 111.386Z" fill="black"/>
<path d="M2117.33 211.789L2239.6 212.053L2239.69 156.869L2180.18 156.781V136.329L2236.42 136.417L2236.51 81.2324L2180.27 81.1442L2180.36 61.6621L2239.86 61.7503L2239.95 6.65385L2117.59 6.47754L2117.33 211.789Z" fill="black"/>
<path d="M2431.16 112.706L2348.29 6.83231L2288.79 6.74414L2288.52 212.144L2351.29 212.232L2351.47 106.447L2434.33 212.32L2493.57 212.408L2493.92 7.00859L2431.33 6.92045L2431.16 112.706Z" fill="black"/>
<path d="M2528.92 62.1941L2570 62.2822L2569.82 212.585L2632.59 212.673L2632.86 62.3704L2673.94 62.4585L2674.02 7.36211L2528.92 7.09766V62.1941Z" fill="black"/>
<path d="M2826.97 118.703C2826.97 124.169 2826.97 129.811 2826.35 135.452C2826.01 140.2 2824.84 144.852 2822.92 149.204C2821.2 152.833 2818.47 155.893 2815.07 158.02C2810.27 160.634 2804.83 161.827 2799.38 161.458C2793.83 161.797 2788.31 160.576 2783.42 157.932C2780.01 155.839 2777.31 152.767 2775.66 149.116C2773.81 144.75 2772.71 140.1 2772.4 135.364C2772.4 129.634 2771.79 123.992 2771.79 118.527V7.36426H2709.02V125.403C2709.02 156.962 2716.51 180.587 2731.41 195.926C2746.31 211.265 2769.23 218.582 2799.29 218.67C2829.26 218.67 2852.18 211.089 2866.82 196.191C2881.45 181.293 2889.3 157.667 2889.3 125.667V7.62874H2826.97V118.703Z" fill="black"/>
<path d="M3085.09 113.415C3093.38 101.959 3097.6 88.0555 3097.08 73.9214C3097.11 65.3301 3095.65 56.7982 3092.76 48.7093C3089.86 40.8376 3085.39 33.6387 3079.62 27.5522C3073.43 21.1691 3065.9 16.2324 3057.58 13.0949C3047.86 9.47452 3037.54 7.71031 3027.17 7.89384H2942.89V213.293H3005.75V154.406L3043.57 213.293H3122.29L3059.61 131.398C3069.63 127.925 3078.46 121.691 3085.09 113.415ZM3027.52 89.1721C3021.94 92.7334 3015.35 94.4025 3008.74 93.9324H3005.57V59.1996H3008.66C3015.29 58.7039 3021.91 60.3742 3027.52 63.96C3029.39 65.477 3030.86 67.4242 3031.82 69.6349C3032.77 71.8457 3033.17 74.2541 3032.99 76.6542C3033.17 79.0287 3032.77 81.412 3031.82 83.5946C3030.86 85.7772 3029.39 87.6925 3027.52 89.1721Z" fill="black"/>
<path d="M3149.26 213.47L3271.62 213.646V158.55L3212.2 158.461V137.922L3268.45 138.01V82.9133L3212.29 82.8251V63.343L3271.8 63.4312L3271.89 8.24663L3149.62 8.07031L3149.26 213.47Z" fill="black"/>
<path d="M3454.1 108.301C3443.67 96.9023 3430.27 88.6308 3415.4 84.4111C3411.23 83.0006 3407 81.6783 3402.71 80.4441C3399.2 79.4947 3395.81 78.1952 3392.57 76.5653C3390.24 75.5592 3388.14 74.0895 3386.4 72.2458C3385.9 71.7001 3385.52 71.0595 3385.28 70.3625C3385.03 69.6656 3384.94 68.9268 3384.99 68.1907C3384.94 66.8175 3385.25 65.456 3385.88 64.2365C3386.52 63.0171 3387.45 61.9807 3388.6 61.2265C3392.51 59.0893 3396.87 57.9252 3401.32 57.8332C3405.77 57.7411 3410.18 58.7237 3414.17 60.6976C3419.47 62.8521 3424.41 65.8268 3428.8 69.513L3434.88 74.4496L3461.33 22.7912L3455.86 19.8821C3445.91 14.5915 3435.38 10.4793 3424.48 7.62871C3414.23 4.96595 3403.69 3.5744 3393.1 3.48545C3382.89 3.30786 3372.74 4.98038 3363.12 8.42207C3354.5 11.4984 3346.6 16.3312 3339.94 22.6149C3333.53 28.8906 3328.49 36.424 3325.13 44.7417C3321.58 53.749 3319.82 63.3591 3319.93 73.0392C3319.64 82.117 3321.35 91.1472 3324.95 99.4854C3328.08 106.244 3332.62 112.255 3338.26 117.116C3343.74 121.729 3349.94 125.421 3356.6 128.047C3362.95 130.633 3369.38 132.925 3375.91 134.923C3381.2 136.775 3385.78 138.45 3389.48 140.036C3392.29 141.028 3394.93 142.424 3397.33 144.18C3398.67 145.096 3399.78 146.301 3400.59 147.706C3401.2 149.217 3401.5 150.836 3401.47 152.466C3401.43 154.024 3401.06 155.554 3400.37 156.954C3399.69 158.353 3398.71 159.589 3397.5 160.576C3393.5 163.552 3388.54 164.935 3383.58 164.455C3376.94 164.389 3370.39 162.917 3364.36 160.136C3356.84 156.653 3349.9 152.012 3343.82 146.384L3337.82 141.006L3309.79 193.899L3314.46 197.072C3335.21 212.01 3360.13 220.058 3385.69 220.08C3397.06 220.239 3408.37 218.542 3419.19 215.056C3428.65 211.967 3437.4 207.022 3444.93 200.51C3452.32 194.05 3458.06 185.921 3461.68 176.797C3465.4 167.491 3467.29 157.552 3467.23 147.53C3467.63 133.311 3462.98 119.412 3454.1 108.301Z" fill="black"/>
<path d="M1138.2 185.786C1148.29 195.741 1160.28 203.565 1173.46 208.794C1187.94 214.4 1203.34 217.241 1218.86 217.169C1234.25 217.27 1249.53 214.489 1263.91 208.971C1277.29 203.781 1289.52 195.991 1299.87 186.051C1309.91 176.29 1317.91 164.634 1323.41 151.759C1329 138.289 1331.87 123.85 1331.87 109.268C1331.87 94.6862 1329 80.2472 1323.41 66.7779C1317.96 53.8468 1309.99 42.1299 1299.96 32.3096C1289.61 22.3432 1277.38 14.5237 1263.99 9.30132C1249.58 3.70024 1234.23 0.888234 1218.77 1.01483C1203.26 0.896915 1187.86 3.67734 1173.37 9.21315C1160.16 14.27 1148.12 21.945 1137.95 31.7769C1127.79 41.6087 1119.71 53.3943 1114.22 66.4253C1105.63 86.3439 1103.24 108.391 1107.38 129.686C1111.52 150.981 1121.98 170.533 1137.4 185.786H1138.2ZM1175.4 90.6677C1177.87 85.0744 1181.4 80.0145 1185.8 75.7697C1190.23 71.5802 1195.4 68.2608 1201.05 65.9845C1206.89 63.6773 1213.11 62.5102 1219.39 62.5465C1225.7 62.54 1231.95 63.7368 1237.81 66.0727C1243.51 68.3579 1248.71 71.7089 1253.15 75.946C1257.74 80.2154 1261.38 85.4065 1263.83 91.1792C1266.27 96.952 1267.47 103.176 1267.34 109.445C1267.43 115.845 1266.13 122.188 1263.55 128.045C1261.04 133.609 1257.48 138.637 1253.06 142.855C1248.61 146.942 1243.44 150.17 1237.81 152.376C1231.95 154.681 1225.69 155.848 1219.39 155.814C1213.08 155.856 1206.82 154.658 1200.96 152.288C1195.3 150.086 1190.14 146.757 1185.8 142.502C1181.42 138.24 1177.89 133.185 1175.4 127.604C1172.89 121.728 1171.63 115.394 1171.7 109.004C1171.65 102.702 1172.91 96.458 1175.4 90.6677Z" fill="black"/>
<path d="M1387.32 186.227C1397.61 196.15 1409.74 203.966 1423.03 209.236C1437.5 214.853 1452.9 217.665 1468.42 217.522C1483.81 217.651 1499.09 214.901 1513.47 209.412C1526.89 204.232 1539.14 196.442 1549.53 186.492C1559.58 176.715 1567.59 165.026 1573.06 152.112C1578.65 138.642 1581.53 124.203 1581.53 109.621C1581.53 95.0393 1578.65 80.6003 1573.06 67.131C1567.52 54.069 1559.4 42.2567 1549.19 32.3975C1538.98 22.5383 1526.89 14.8338 1513.65 9.74258C1499.23 4.1415 1483.89 1.3295 1468.42 1.4561C1452.98 1.30502 1437.64 4.05607 1423.2 9.56627C1409.9 14.7704 1397.77 22.5607 1387.5 32.4864C1377.48 42.2808 1369.51 53.9669 1364.05 66.8665C1358.27 80.2581 1355.27 94.6837 1355.23 109.269C1355.29 123.909 1358.29 138.389 1364.05 151.847C1369.5 164.713 1377.4 176.392 1387.32 186.227ZM1424.61 90.6682C1427.07 85.0962 1430.61 80.0638 1435.01 75.8583C1439.39 71.6528 1444.54 68.3305 1450.18 66.0732C1456.01 63.7659 1462.24 62.5989 1468.51 62.6351C1474.85 62.5861 1481.15 63.7843 1487.03 66.1613C1492.7 68.4372 1497.91 71.756 1502.36 75.9464C1506.79 80.118 1510.36 85.1203 1512.85 90.6682C1515.44 96.5254 1516.73 102.869 1516.64 109.269C1516.69 115.665 1515.39 121.999 1512.85 127.869C1510.38 133.458 1506.82 138.494 1502.36 142.679C1493.26 151.32 1481.15 156.092 1468.6 155.991C1459.29 156.177 1450.13 153.597 1442.28 148.575C1434.44 143.553 1428.26 136.317 1424.52 127.781C1421.98 121.911 1420.69 115.577 1420.73 109.181C1420.7 102.805 1422.03 96.4958 1424.61 90.6682Z" fill="black"/>
<path d="M1693.92 212.581C1707.66 212.528 1721.21 209.521 1733.68 203.765C1745.66 198.29 1756.53 190.672 1765.77 181.286C1774.96 171.822 1782.26 160.692 1787.28 148.493C1792.46 136.139 1795.12 122.879 1795.12 109.484C1795.12 96.0902 1792.46 82.8298 1787.28 70.4762C1782.2 58.3378 1774.88 47.2704 1765.68 37.8591C1756.51 28.608 1745.72 21.1095 1733.86 15.7324C1721.49 9.95547 1708.01 6.94699 1694.36 6.91699H1613.88V212.316H1694.36L1693.92 212.581ZM1681.41 157.396H1676.2V62.2779H1681.32C1688.36 62.1721 1695.36 63.3984 1701.95 65.8922C1707.6 68.0963 1712.74 71.4594 1717.02 75.7655C1721.17 80.0511 1724.38 85.1551 1726.45 90.7517C1728.78 96.8572 1729.95 103.346 1729.89 109.881C1729.96 116.495 1728.82 123.067 1726.54 129.275C1724.51 134.793 1721.33 139.813 1717.2 143.997C1712.9 148.259 1707.77 151.59 1702.12 153.782C1695.48 156.292 1688.42 157.518 1681.32 157.396H1681.41Z" fill="black"/>
<path d="M898.684 186.491C908.347 196.175 919.9 203.767 932.623 208.794C946.413 214.176 961.105 216.869 975.907 216.728C986.897 216.788 997.843 215.334 1008.44 212.408C1018.67 209.702 1028.45 205.483 1037.44 199.89C1046.44 194.278 1054.4 187.15 1060.98 178.822C1067.7 170.213 1072.97 160.565 1076.58 150.26C1079.42 142.29 1081.25 133.999 1082.04 125.576C1082.93 116.761 1083.37 107.505 1083.46 97.1025V90.6673H971.323V135.626H1014.08C1012.16 143.312 1007.56 150.062 1001.12 154.667C998.081 156.803 994.627 158.275 990.981 158.987C980.288 161.62 969.04 160.849 958.805 156.783C953.537 154.493 948.885 150.989 945.229 146.557C941.445 141.855 938.601 136.467 936.855 130.689C934.933 123.893 933.984 116.859 934.034 109.797C933.924 102.165 935.086 94.5678 937.472 87.3174C939.301 81.2171 942.294 75.5291 946.287 70.5681C949.962 66.1719 954.569 62.6487 959.775 60.254C965.332 57.8318 971.344 56.6294 977.406 56.7279C984.704 56.5964 991.88 58.6202 998.034 62.5461C1002 65.3139 1005.33 68.8889 1007.82 73.0364L1066.27 46.5901C1058.33 33.2854 1047.17 22.1903 1033.82 14.3257C1016.73 4.80258 997.411 -0.00441125 977.847 0.397286C962.648 0.120588 947.538 2.75378 933.329 8.15487C920.413 13.0378 908.647 20.5414 898.772 30.1934C889.058 39.8994 881.516 51.5579 876.645 64.3973C866.188 92.609 866.188 123.635 876.645 151.846C881.543 164.781 889.044 176.573 898.684 186.491Z" fill="black"/>
</svg>
