<svg width="2057" height="552" viewBox="0 0 2057 552" fill="none" xmlns="http://www.w3.org/2000/svg">
<path d="M128.115 129.657L79.6931 6.72976L0.860901 6.61279L100.044 243.694L155.835 243.811L256.071 7.08063L177.239 6.96369L128.115 129.657Z" fill="black"/>
<path d="M435.958 70.4712L436.075 6.84402L295.019 6.72705L294.551 243.808H435.724L435.841 180.181L367.185 180.064V156.438L432.098 156.555V92.9278H367.301V70.3542L435.958 70.4712Z" fill="black"/>
<path d="M651.869 128.488C661.46 115.264 666.322 99.1959 665.67 82.8726C665.791 72.9488 664.127 63.0841 660.758 53.7491C657.436 44.698 652.302 36.4198 645.67 29.4211C638.521 22.1009 629.859 16.4323 620.289 12.8125C609.084 8.57989 597.177 6.51591 585.201 6.7305H488.122V243.929H560.522V175.74L604.148 243.812H695.028L622.745 149.307C634.219 145.245 644.313 138.029 651.869 128.488ZM585.552 100.534C579.145 104.807 571.464 106.748 563.797 106.031H560.288V65.9131H563.797C571.449 65.3745 579.073 67.301 585.552 71.4103C587.766 73.2098 589.502 75.5289 590.604 78.1613C591.706 80.7937 592.14 83.6577 591.867 86.4984C592.015 89.1727 591.519 91.8433 590.42 94.2858C589.321 96.7282 587.651 98.871 585.552 100.534Z" fill="black"/>
<path d="M843.103 6.84672L805.909 61.8187L768.599 6.72976L681.696 6.61279L769.3 131.996L769.183 243.694L841.583 243.811L841.7 132.113L930.123 7.08063L843.103 6.84672Z" fill="black"/>
<path d="M132.093 428.37L83.5538 305.56L4.72159 305.443L104.022 542.525L159.696 542.642L260.049 305.794L181.217 305.677L132.093 428.37Z" fill="black"/>
<path d="M432.333 369.656L432.45 306.029L291.277 305.795L290.926 542.76L432.099 542.994V479.367L363.442 479.25L363.559 455.623L428.356 455.74L428.473 392.113L363.676 391.996V369.54L432.333 369.656Z" fill="black"/>
<path d="M479 543.112L551.399 543.229L551.633 421.238L647.191 543.346L715.614 543.463L715.965 306.498L643.799 306.381L643.682 428.373L548.008 306.264L479.351 306.147L479 543.112Z" fill="black"/>
<path d="M874.098 543.695L874.332 370.358L921.818 370.475V306.848L754.563 306.614L754.446 370.241H801.816L801.582 543.578L874.098 543.695Z" fill="black"/>
<path d="M1100.18 435.272C1100.18 441.705 1100.18 448.137 1099.48 454.687C1099.13 460.187 1097.78 465.576 1095.5 470.594C1093.54 474.808 1090.41 478.378 1086.5 480.887C1080.96 483.927 1074.67 485.307 1068.37 484.863C1062 485.232 1055.65 483.857 1050.01 480.887C1046.09 478.412 1043 474.83 1041.12 470.594C1038.93 465.551 1037.63 460.171 1037.26 454.687C1037.26 448.021 1036.56 441.588 1037.26 435.272V306.614H964.858V442.757C964.858 479.132 973.513 506.384 990.707 523.695C1007.9 541.005 1034.33 549.777 1068.95 549.894C1104.04 549.894 1129.66 541.122 1146.85 523.929C1164.04 506.735 1172.82 479.483 1172.82 443.108V306.965H1100.65L1100.18 435.272Z" fill="black"/>
<path d="M1386.97 429.305C1396.6 416.092 1401.5 400.026 1400.89 383.69C1400.93 373.763 1399.22 363.907 1395.86 354.567C1392.5 345.199 1387.13 336.676 1380.15 329.587C1373.16 322.498 1364.71 317.013 1355.39 313.513C1344.17 309.369 1332.27 307.346 1320.31 307.548H1223.11V544.512H1295.16V476.675L1338.9 544.629H1429.67L1357.38 450.124C1369.01 446.101 1379.26 438.886 1386.97 429.305ZM1320.66 401.351C1314.18 405.461 1306.55 407.387 1298.9 406.848H1295.16V367.198H1298.67C1306.33 366.743 1313.94 368.707 1320.42 372.813C1322.57 374.559 1324.26 376.804 1325.34 379.352C1326.42 381.901 1326.86 384.675 1326.62 387.433C1326.77 390.055 1326.3 392.675 1325.27 395.089C1324.23 397.503 1322.65 399.646 1320.66 401.351Z" fill="black"/>
<path d="M1458.91 544.634L1600.08 544.868L1600.2 481.241L1531.54 481.124V457.498L1596.45 457.615V393.988H1531.66V371.414L1600.31 371.531L1600.43 307.904L1459.37 307.67L1458.91 544.634Z" fill="black"/>
<path d="M1763.01 395.277C1758.21 393.64 1753.3 392.119 1748.39 390.715C1744.37 389.57 1740.45 388.084 1736.69 386.271C1734.06 385.044 1731.68 383.339 1729.67 381.242C1729.09 380.62 1728.64 379.883 1728.35 379.077C1728.07 378.271 1727.96 377.414 1728.03 376.563C1727.99 374.971 1728.36 373.394 1729.09 371.981C1729.83 370.569 1730.91 369.368 1732.24 368.493C1736.79 366.115 1741.85 364.874 1746.98 364.874C1752.11 364.874 1757.17 366.115 1761.72 368.493C1767.83 371.032 1773.51 374.504 1778.56 378.785L1785.58 384.517L1816.11 324.983L1809.79 321.591C1798.38 315.394 1786.24 310.641 1773.65 307.439C1761.69 304.331 1749.39 302.72 1737.04 302.643C1725.38 302.499 1713.78 304.4 1702.77 308.258C1692.81 311.873 1683.7 317.485 1675.99 324.749C1668.61 331.969 1662.84 340.655 1659.03 350.247C1654.85 360.612 1652.78 371.706 1652.94 382.879C1652.63 393.323 1654.63 403.707 1658.79 413.289C1662.42 421.104 1667.68 428.046 1674.23 433.64C1680.57 438.96 1687.71 443.225 1695.4 446.272C1702.65 449.196 1710.14 451.886 1717.62 454.226C1725.11 456.565 1729.32 458.202 1733.3 459.957C1736.56 461.149 1739.63 462.803 1742.42 464.869C1743.97 465.891 1745.22 467.303 1746.05 468.963C1746.82 470.648 1747.18 472.492 1747.1 474.343C1747.08 476.16 1746.66 477.95 1745.87 479.588C1745.08 481.225 1743.95 482.669 1742.54 483.817C1737.89 487.239 1732.14 488.822 1726.4 488.262C1718.75 488.181 1711.22 486.467 1704.29 483.232C1695.71 479.18 1687.82 473.813 1680.9 467.325L1673.88 461.126L1641.6 521.713L1646.98 525.338C1670.84 542.495 1699.46 551.777 1728.85 551.889C1741.94 552.02 1754.97 550.086 1767.45 546.158C1778.35 542.593 1788.41 536.864 1797.04 529.315C1805.21 522.063 1811.64 513.069 1815.87 502.999C1820.15 492.247 1822.29 480.767 1822.19 469.197C1822.84 452.654 1817.62 436.414 1807.45 423.348C1795.5 410.086 1780.12 400.374 1763.01 395.277Z" fill="black"/>
<path d="M1513.18 175.039C1526.05 143.635 1526.05 108.429 1513.18 77.0253C1506.87 62.1269 1497.65 48.6442 1486.04 37.3753C1474.16 25.8363 1460.08 16.8069 1444.64 10.825C1428.02 4.34173 1410.31 1.08664 1392.47 1.23409C1374.64 1.04937 1356.94 4.26471 1340.31 10.708C1324.92 16.6804 1310.88 25.6675 1299.02 37.1414C1287.42 48.3916 1278.15 61.8275 1271.77 76.6744C1265.26 92.1936 1261.92 108.855 1261.94 125.681C1261.83 142.506 1265.13 159.179 1271.65 174.688C1277.91 189.588 1287.05 203.103 1298.55 214.455C1310.4 225.926 1324.39 234.949 1339.72 241.006C1356.4 247.446 1374.13 250.7 1392 250.597C1409.76 250.715 1427.37 247.502 1443.94 241.123C1459.51 235.319 1473.78 226.495 1485.92 215.157C1497.58 203.725 1506.84 190.087 1513.18 175.039ZM1443 147.436C1440.32 153.876 1436.34 159.691 1431.3 164.513C1420.82 174.535 1406.86 180.109 1392.36 180.069C1385.04 180.389 1377.75 178.987 1371.07 175.975C1364.5 173.274 1358.54 169.299 1353.52 164.279C1348.57 159.339 1344.6 153.504 1341.83 147.085C1338.83 140.314 1337.35 132.968 1337.5 125.564C1337.4 118.202 1338.87 110.903 1341.83 104.16C1344.59 97.736 1348.56 91.9001 1353.52 86.9671C1358.53 81.9323 1364.5 77.9548 1371.07 75.2709C1377.79 72.534 1384.98 71.1431 1392.24 71.1772C1399.53 71.1549 1406.76 72.545 1413.53 75.2709C1420.11 78.006 1426.1 81.9762 1431.19 86.9671C1436.17 91.8831 1440.14 97.7233 1442.88 104.16C1445.78 110.946 1447.27 118.246 1447.27 125.623C1447.27 132.999 1445.78 140.3 1442.88 147.085L1443 147.436Z" fill="black"/>
<path d="M1679.96 251.064C1697.72 251.219 1715.34 248.004 1731.9 241.59C1747.35 235.623 1761.47 226.637 1773.42 215.157C1785.23 203.61 1794.61 189.819 1801.02 174.595C1807.43 159.37 1810.73 143.018 1810.73 126.5C1810.73 109.982 1807.43 93.63 1801.02 78.4052C1794.61 63.1805 1785.23 49.3897 1773.42 37.843C1761.54 26.304 1747.46 17.2745 1732.01 11.2927C1715.39 4.80941 1697.69 1.55435 1679.85 1.7018C1662.05 1.4945 1644.38 4.71084 1627.8 11.1757C1612.37 17.0578 1598.31 26.056 1586.51 37.6091C1574.99 48.8804 1565.81 62.3149 1559.49 77.1421C1553.05 92.6763 1549.73 109.33 1549.73 126.149C1549.73 142.968 1553.05 159.622 1559.49 175.156C1565.75 190.055 1574.89 203.57 1586.39 214.923C1598.22 226.418 1612.22 235.444 1627.57 241.473C1644.24 247.914 1661.97 251.167 1679.85 251.064H1679.96ZM1641.02 164.98C1636.08 160.026 1632.12 154.195 1629.32 147.787C1626.43 140.982 1624.96 133.659 1624.99 126.266C1624.98 118.901 1626.5 111.614 1629.44 104.862C1632.2 98.4334 1636.17 92.5961 1641.13 87.6687C1646.18 82.6332 1652.19 78.6568 1658.79 75.9725C1665.51 73.2356 1672.71 71.8447 1679.96 71.8788C1687.26 71.8565 1694.49 73.2466 1701.25 75.9725C1707.83 78.7076 1713.83 82.6778 1718.91 87.6687C1723.89 92.5847 1727.87 98.4249 1730.61 104.862C1735.04 114.856 1736.3 125.972 1734.21 136.705C1732.12 147.437 1726.78 157.267 1718.91 164.863C1708.34 174.786 1694.34 180.234 1679.85 180.068C1672.56 180.119 1665.34 178.769 1658.56 176.092C1652.06 173.541 1646.1 169.77 1641.02 164.98Z" fill="black"/>
<path d="M2022.66 44.1558C2011.9 33.2528 1999.21 24.4477 1985.23 18.1903C1970.93 11.6184 1955.36 8.26461 1939.62 8.36549H1846.75V245.33H1939.62C1955.43 245.383 1971.07 242.032 1985.47 235.505C1999.35 229.253 2011.92 220.445 2022.54 209.54C2033.13 198.636 2041.55 185.815 2047.34 171.761C2053.29 157.576 2056.35 142.347 2056.35 126.965C2056.36 111.468 2053.3 96.1213 2047.34 81.8175C2041.52 67.8436 2033.15 55.073 2022.66 44.1558ZM1977.63 149.421C1975.31 155.787 1971.64 161.573 1966.87 166.381C1961.97 171.492 1956.03 175.483 1949.44 178.077C1941.72 180.859 1933.56 182.245 1925.35 182.171H1919.5V71.8757H1925.47C1933.45 71.8435 1941.38 73.2705 1948.86 76.0863C1955.37 78.5313 1961.27 82.3595 1966.16 87.3067C1971.04 92.254 1974.8 98.2025 1977.16 104.742C1982.31 119.109 1982.31 134.82 1977.16 149.187L1977.63 149.421Z" fill="black"/>
<path d="M1233.99 144.976C1234.92 135.151 1235.51 124.157 1235.51 112.109V104.741H1106.15V156.672H1155.51C1153.24 165.527 1147.95 173.308 1140.54 178.661C1136.99 181.042 1133.02 182.711 1128.84 183.573C1116.52 186.613 1103.55 185.713 1091.76 181C1085.7 178.381 1080.33 174.375 1076.09 169.304C1071.71 163.875 1068.45 157.634 1066.5 150.941C1064.2 143.119 1063.05 135.001 1063.11 126.847C1063.03 118.034 1064.37 109.266 1067.08 100.881C1069.37 93.8538 1072.94 87.3107 1077.61 81.5825C1081.83 76.538 1087.15 72.5353 1093.17 69.8863C1099.56 67.012 1106.51 65.5747 1113.52 65.6757C1121.81 65.5901 1129.95 67.9495 1136.91 72.4594C1141.32 75.5438 1145.03 79.5305 1147.79 84.1556L1215.16 54.4474C1206.19 39.0237 1193.48 26.1105 1178.2 16.9026C1158.45 5.89679 1136.13 0.327187 1113.52 0.761915C1095.99 0.483534 1078.56 3.53979 1062.17 9.76797C1047.33 15.4393 1033.8 24.0752 1022.41 35.1487C1011.2 46.4189 1002.51 59.9315 996.907 74.7987C984.902 107.334 984.902 143.085 996.907 175.62C1002.57 190.399 1011.21 203.856 1022.29 215.153C1033.32 226.372 1046.59 235.14 1061.24 240.884C1077.18 247.117 1094.17 250.253 1111.3 250.124C1123.97 250.172 1136.6 248.52 1148.84 245.212C1160.61 242.046 1171.84 237.159 1182.17 230.709C1192.45 224.311 1201.51 216.155 1208.96 206.615C1216.77 196.752 1222.86 185.64 1226.97 173.748C1230.44 164.467 1232.79 154.81 1233.99 144.976Z" fill="black"/>
</svg>
