<svg width="1024" height="1024" viewBox="0 0 1024 1024" fill="none" xmlns="http://www.w3.org/2000/svg">
<path d="M808.678 322.109C783.568 283.123 750.938 249.491 712.681 223.161C674.424 196.831 631.3 178.328 585.81 168.724L582.012 168.008C581.088 168.008 580.113 168.008 579.137 167.701L570.668 123.271C569.033 114.627 564.312 106.865 557.376 101.42C550.441 95.975 541.761 93.2157 532.941 93.6522C524.121 94.0886 515.759 97.6913 509.399 103.794C503.04 109.897 499.113 118.087 498.347 126.85L495.267 161.31C396.614 165.605 301.657 209.32 239.447 286.319C234.883 292.356 231.025 298.891 227.949 305.799C211.113 309.685 199.872 318.837 188.94 332.233C185.864 331.761 182.76 331.488 179.649 331.414C164.631 331.372 149.929 335.706 137.352 343.882C124.776 352.058 114.874 363.719 108.867 377.43L108.149 379.066C104.82 386.774 104.648 395.473 107.669 403.306C110.689 411.139 116.664 417.485 124.317 420.991L136.585 426.616L125.138 465.269C114.565 462.61 103.016 459.849 96.5485 463.99C90.0812 468.132 87.5661 477.386 84.4864 486.487L82.1253 496.355C81.8583 497.482 81.6696 498.627 81.5607 499.78C78.019 531.02 98.345 556.686 130.99 562.259L162.043 567.372C161.941 568.921 161.941 570.476 162.043 572.025C171.41 626.538 193.462 678.108 226.431 722.607C259.401 767.106 302.373 803.296 351.907 828.28C356.526 830.632 378.957 840.551 384.911 842.801C402.086 849.376 419.744 854.623 437.728 858.497C462.054 863.695 486.864 866.317 511.743 866.32V866.32C601.307 866.341 687.535 832.477 752.986 771.579C759.659 765.392 780.55 743.305 786.401 736.147C833.629 678.349 861.238 607.121 865.259 532.705C869.28 458.29 849.506 384.521 808.78 322.007L808.678 322.109ZM530.478 129.968C530.582 128.964 531.037 128.029 531.764 127.326C532.491 126.622 533.444 126.197 534.454 126.124C535.465 126.051 536.469 126.334 537.291 126.925C538.113 127.516 538.699 128.376 538.947 129.355L557.426 226.499C557.426 226.499 527.45 220.773 523.908 202.111L530.478 129.968ZM521.188 233.913C523.376 236.144 525.727 238.211 528.22 240.099C533.884 244.32 540.265 247.489 547.057 249.456C551.017 250.596 555.071 251.383 559.171 251.807C560.043 251.807 561.07 251.807 561.994 251.807L577.803 303.907C568.024 303.887 558.407 301.426 549.829 296.749C539.769 292.384 530.952 285.603 524.165 277.014C522.522 274.713 521.085 272.412 519.853 270.316C519.237 269.242 518.673 268.169 518.159 267.197C517.646 266.226 517.133 265.254 516.722 264.334L521.188 233.913ZM511.589 318.735L514.002 297.158C515.439 298.999 516.927 300.84 518.57 302.629C520.213 304.419 521.958 306.259 523.703 308.049C531.729 315.759 541.271 321.731 551.728 325.586C557.749 327.797 564.027 329.24 570.412 329.881C572.516 329.881 574.672 330.238 576.93 330.29C579.189 330.341 581.499 330.29 583.808 330.29L602.03 395.478C602.173 395.756 602.199 396.079 602.103 396.377C602.007 396.674 601.796 396.921 601.517 397.063C601.378 397.134 601.228 397.177 601.073 397.189C600.918 397.201 600.762 397.183 600.615 397.136C600.316 397.04 600.068 396.83 599.925 396.552C596.01 391.593 591.434 387.189 586.323 383.463C583.95 381.759 581.482 380.189 578.932 378.759L544.08 359.484L509.177 340.26L511.589 318.735ZM469.705 400.08L488.697 367.102L565.022 409.743C569.628 412.314 573.667 415.784 576.896 419.945C580.125 424.107 582.478 428.874 583.815 433.962C585.152 439.05 585.445 444.354 584.677 449.558C583.908 454.761 582.094 459.757 579.343 464.246L572.875 474.83C565.861 486.232 554.64 494.443 541.62 497.702C528.6 500.961 514.815 499.009 503.223 492.264L492.957 486.18C478.483 477.768 467.923 464.009 463.57 447.889C459.217 431.77 461.421 414.59 469.705 400.08V400.08ZM360.838 370.681L378.29 340.618C381.371 335.356 385.925 331.104 391.395 328.38C396.864 325.656 403.012 324.578 409.087 325.279C413.186 325.75 417.148 327.037 420.738 329.063L483.153 364.034L360.838 370.681ZM499.733 193.265C498.141 206.712 497.012 216.222 496.909 216.273L491.777 249.456L482.845 326.557L436.65 300.993C429.33 296.855 421.247 294.229 412.885 293.273C400.483 291.816 387.924 294.001 376.753 299.561C365.582 305.12 356.286 313.81 350.008 324.563L330.708 357.899C330.708 357.899 297.499 311.219 263.982 306.771C293.173 272.538 329.222 244.758 369.82 225.211C410.418 205.665 454.667 194.784 499.733 193.265V193.265ZM366.279 799.802C321.336 777.002 282.363 744.058 252.465 703.598C222.567 663.138 202.571 616.279 194.072 566.759L230.977 573.559C266.456 580.148 300.526 592.792 331.684 610.933C346.774 619.728 360.171 627.601 362.481 629.391L374.491 638.594C393.903 653.315 415.858 664.371 439.268 671.214C439.268 671.214 398.102 744.737 366.433 799.802H366.279ZM511.589 834.365C488.97 834.357 466.415 831.975 444.298 827.258C427.93 823.755 411.865 818.968 396.255 812.942L474.479 678.116C500.502 681.491 519.443 675.867 533.25 659.71C535.601 657.608 537.039 654.677 537.259 651.537C537.48 648.398 536.465 645.296 534.43 642.889C526.423 632.05 513.899 642.326 513.899 642.326C501.016 651.069 492.547 652.552 473.914 648.513C445.151 642.661 418.08 630.428 394.715 612.723L381.369 602.497C368.941 592.97 355.66 584.6 341.693 577.495L336.56 574.99C314.519 564.28 291.07 556.723 266.907 552.545L136.687 530.611C130.733 529.588 111.485 524.629 113.846 503.359L116.053 493.543C146.471 503.57 177.764 510.742 209.522 514.965L220.404 516.602C226.768 517.522 233.031 518.34 238.831 519.005C257.659 521.378 276.621 522.539 295.6 522.481C299.558 522.362 303.48 521.691 307.251 520.487L315.72 517.829C324.939 515.12 333.026 509.504 338.767 501.825C343.131 495.963 345.936 489.098 346.923 481.866C347.911 474.635 347.047 467.272 344.413 460.463C341.563 453.132 336.803 446.691 330.623 441.802C324.443 436.914 317.066 433.754 309.253 432.649C288.722 431.984 176.467 413.833 136.123 396.859L138.586 390.365C143.039 380.202 151.127 372.051 161.277 367.496C171.428 362.942 182.915 362.309 193.508 365.722L198.384 367.358C199.919 367.883 201.593 367.841 203.1 367.241C204.607 366.64 205.848 365.52 206.596 364.085L209.06 359.586C212.192 353.824 216.523 348.794 221.763 344.834C227.004 340.873 233.033 338.074 239.447 336.621C245.861 335.169 252.513 335.098 258.957 336.414C265.402 337.729 271.489 340.4 276.814 344.248C279.399 346.099 281.774 348.225 283.897 350.588L285.437 352.07C285.899 352.582 286.361 353.042 287.028 353.86L316.798 389.036C319.224 391.879 322.27 394.132 325.704 395.621C329.139 397.109 332.87 397.795 336.611 397.626L444.401 392.871C434.664 413.038 432.895 436.115 439.447 457.52C445.998 478.926 460.39 497.095 479.766 508.421L490.391 514.608C499.51 519.94 509.653 523.302 520.161 524.475C534.846 526.187 549.716 523.691 563.027 517.279C576.337 510.867 587.535 500.806 595.306 488.276L678.098 350.485L667.268 512L730.967 748.213C671.417 803.446 593.111 834.219 511.743 834.365H511.589ZM156.551 473.347L167.69 433.876C183.653 437.608 203.619 441.954 223.74 446.044L234.724 448.192C274.606 455.554 306.584 458.417 306.122 458.417C309.263 458.905 312.219 460.212 314.689 462.206C317.159 464.199 319.056 466.808 320.186 469.768C321.878 474.092 321.878 478.891 320.186 483.215C318.903 486.896 315.566 494.974 299.295 495.997C276.506 497.275 213.115 488.276 156.551 473.347ZM826.437 580.717C815.83 630.257 793.519 676.564 761.353 715.798L756.887 721.831C756.887 720.297 697.655 508.626 697.655 508.83L707.304 324.768C706.618 319.618 704.319 314.816 700.734 311.043C697.149 307.27 692.462 304.72 687.338 303.754L685.284 303.447C680.494 302.85 675.634 303.677 671.314 305.824C666.994 307.971 663.408 311.342 661.006 315.513L625.538 374.976L575.596 199.401C576.674 199.401 577.803 199.759 578.881 200.014C662.336 217.871 735.27 267.981 781.673 339.347C828.076 410.712 844.157 497.502 826.386 580.665L826.437 580.717Z" fill="black"/>
<path d="M517.749 483.01C519.083 483.01 520.418 483.01 521.804 483.317H523.549C532.635 483.278 541.53 480.711 549.23 475.904C556.93 471.098 563.129 464.245 567.127 456.117C567.913 454.501 568.344 452.737 568.392 450.942C568.439 449.147 568.102 447.363 567.402 445.708C566.703 444.053 565.657 442.566 564.335 441.346C563.013 440.125 561.445 439.2 559.735 438.631C556.807 437.705 553.643 437.856 550.817 439.057C547.991 440.258 545.692 442.429 544.337 445.175C542.459 449.018 539.543 452.264 535.916 454.549C532.29 456.834 528.096 458.067 523.806 458.111H522.882C517.872 457.961 513.053 456.163 509.177 452.998C506.863 451.098 503.963 450.051 500.964 450.032C497.784 450.051 494.726 451.255 492.393 453.407C491.077 454.622 490.038 456.104 489.347 457.754C488.657 459.403 488.33 461.182 488.389 462.968C488.449 464.772 488.891 466.543 489.687 468.165C490.483 469.786 491.615 471.221 493.009 472.376C500.065 478.204 508.651 481.894 517.749 483.01V483.01Z" fill="black"/>
</svg>
