<svg width="860" height="772" viewBox="0 0 860 772" fill="none" xmlns="http://www.w3.org/2000/svg">
<g clip-path="url(#clip0_239_238)">
<path d="M727.516 227.502C702.406 188.516 669.776 154.883 631.519 128.553C593.262 102.223 550.138 83.7203 504.648 74.1165L500.85 73.4007C499.926 73.4007 498.951 73.4007 497.976 73.0939L489.507 28.6633C487.872 20.0193 483.15 12.2572 476.214 6.81246C469.279 1.36768 460.599 -1.39159 451.779 -0.955129C442.96 -0.51867 434.597 3.084 428.237 9.18671C421.878 15.2894 417.952 23.4794 417.185 32.2423L414.105 66.7029C315.452 70.9977 220.495 114.712 158.285 191.712C153.721 197.748 149.864 204.284 146.787 211.192C129.952 215.078 118.711 224.23 107.778 237.625C104.702 237.154 101.599 236.88 98.4874 236.807C83.4695 236.765 68.7671 241.099 56.1907 249.275C43.6142 257.451 33.7128 269.112 27.7057 282.823L26.9871 284.459C23.6586 292.167 23.4863 300.866 26.5071 308.699C29.5278 316.531 35.5023 322.878 43.1555 326.384L55.423 332.008L43.9767 370.661C33.4031 368.003 21.8542 365.242 15.3869 369.383C8.9195 373.525 6.40441 382.779 3.32471 391.88L0.96361 401.747C0.696598 402.875 0.507949 404.02 0.399 405.173C-3.14265 436.413 17.1834 462.079 49.8282 467.652L80.8818 472.765C80.7795 474.314 80.7795 475.868 80.8818 477.417C90.2486 531.93 112.3 583.501 145.27 628C178.239 672.499 221.212 708.689 270.745 733.673C275.365 736.025 297.795 745.944 303.749 748.194C320.924 754.768 338.582 760.016 356.566 763.89C380.892 769.087 405.702 771.71 430.582 771.713V771.713C520.145 771.734 606.373 737.87 671.825 676.972C678.497 670.785 699.388 648.698 705.239 641.54C752.467 583.742 780.076 512.513 784.097 438.098C788.119 363.682 768.345 289.914 727.619 227.4L727.516 227.502ZM449.316 35.3612C449.42 34.357 449.875 33.4213 450.602 32.7182C451.33 32.0151 452.282 31.5897 453.293 31.5164C454.303 31.4432 455.308 31.727 456.129 32.3178C456.951 32.9087 457.537 33.769 457.786 34.7476L476.264 131.892C476.264 131.892 446.288 126.165 442.746 107.503L449.316 35.3612ZM440.026 139.305C442.215 141.536 444.565 143.604 447.058 145.492C452.722 149.713 459.103 152.882 465.896 154.848C469.855 155.989 473.909 156.776 478.009 157.2C478.882 157.2 479.908 157.2 480.832 157.2L496.641 209.3C486.863 209.28 477.245 206.819 468.667 202.142C458.607 197.776 449.79 190.996 443.003 182.407C441.361 180.106 439.923 177.805 438.691 175.709C438.076 174.635 437.511 173.561 436.998 172.59C436.484 171.618 435.971 170.647 435.56 169.727L440.026 139.305ZM430.428 224.127L432.84 202.551C434.277 204.392 435.766 206.232 437.408 208.022C439.051 209.811 440.796 211.652 442.541 213.441C450.567 221.152 460.109 227.123 470.566 230.979C476.587 233.189 482.865 234.632 489.25 235.273C491.354 235.273 493.51 235.631 495.769 235.682C498.027 235.733 500.337 235.682 502.647 235.682L520.868 300.871C521.011 301.149 521.037 301.472 520.941 301.769C520.845 302.067 520.634 302.314 520.355 302.456C520.217 302.527 520.066 302.569 519.911 302.582C519.756 302.594 519.601 302.576 519.453 302.529C519.155 302.433 518.907 302.223 518.764 301.945C514.849 296.986 510.272 292.582 505.162 288.856C502.788 287.152 500.32 285.582 497.77 284.152L462.918 264.877L428.015 245.652L430.428 224.127ZM388.544 305.473L407.535 272.495L483.86 315.136C488.467 317.707 492.505 321.177 495.734 325.338C498.963 329.499 501.317 334.266 502.654 339.355C503.99 344.443 504.283 349.747 503.515 354.951C502.746 360.154 500.932 365.15 498.181 369.639L491.714 380.222C484.699 391.625 473.479 399.836 460.458 403.095C447.438 406.354 433.654 404.402 422.061 397.657L411.795 391.573C397.321 383.161 386.761 369.402 382.408 353.282C378.055 337.162 380.26 319.983 388.544 305.473V305.473ZM279.676 276.074L297.128 246.01C300.21 240.749 304.764 236.496 310.233 233.772C315.703 231.048 321.851 229.971 327.925 230.672C332.024 231.143 335.986 232.429 339.577 234.455L401.992 269.427L279.676 276.074ZM430.582 739.757C407.963 739.75 385.408 737.368 363.29 732.651C346.922 729.148 330.857 724.361 315.247 718.335L393.471 583.509C419.495 586.884 438.435 581.259 452.242 565.103C454.593 563.001 456.031 560.07 456.252 556.93C456.472 553.791 455.457 550.689 453.423 548.281C445.416 537.442 432.891 547.719 432.891 547.719C420.008 556.462 411.539 557.945 392.907 553.906C364.143 548.053 337.073 535.82 313.707 518.116L300.362 507.89C287.933 498.362 274.652 489.993 260.685 482.888L255.552 480.383C233.463 469.659 209.961 462.102 185.746 457.938L55.5256 436.003C49.5715 434.981 30.3234 430.021 32.6845 408.752L34.8916 398.935C65.3094 408.963 96.6019 416.135 128.36 420.358L139.242 421.994C145.607 422.915 151.869 423.733 157.669 424.397C176.497 426.771 195.46 427.932 214.438 427.874C218.396 427.755 222.318 427.084 226.09 425.88L234.559 423.221C243.777 420.512 251.864 414.897 257.605 407.218C261.969 401.356 264.775 394.49 265.762 387.259C266.749 380.028 265.885 372.665 263.251 365.855C260.401 358.525 255.641 352.084 249.461 347.195C243.281 342.306 235.905 339.147 228.091 338.041C207.56 337.377 95.3051 319.226 54.961 302.252L57.4248 295.758C61.8776 285.595 69.9653 277.443 80.1156 272.889C90.2659 268.334 101.754 267.702 112.346 271.114L117.222 272.75C118.758 273.275 120.431 273.234 121.939 272.633C123.446 272.033 124.686 270.913 125.435 269.478L127.899 264.979C131.03 259.217 135.361 254.187 140.601 250.227C145.842 246.266 151.871 243.466 158.285 242.014C164.7 240.562 171.352 240.491 177.796 241.806C184.24 243.122 190.328 245.792 195.652 249.64C198.237 251.492 200.612 253.617 202.735 255.98L204.275 257.463C204.737 257.974 205.199 258.434 205.866 259.253L235.637 294.429C238.062 297.272 241.108 299.524 244.543 301.013C247.977 302.502 251.708 303.188 255.449 303.018L363.239 298.264C353.502 318.431 351.734 341.507 358.285 362.913C364.836 384.318 379.228 402.488 398.604 413.814L409.229 420C418.348 425.333 428.491 428.695 438.999 429.868C453.684 431.58 468.555 429.083 481.865 422.671C495.175 416.26 506.373 406.198 514.144 393.669L596.937 255.878L586.106 417.393L649.805 653.606C590.255 708.839 511.949 739.612 430.582 739.757ZM75.3897 378.74L86.5279 339.268C102.491 343.001 122.458 347.347 142.578 351.437L153.563 353.584C193.445 360.947 225.422 363.81 224.96 363.81C228.102 364.298 231.057 365.605 233.527 367.598C235.997 369.592 237.894 372.201 239.024 375.161C240.717 379.484 240.717 384.284 239.024 388.607C237.741 392.289 234.405 400.367 218.134 401.39C195.344 402.668 131.953 393.669 75.3897 378.74Z" fill="black"/>
<path d="M436.587 388.402C437.922 388.402 439.256 388.402 440.642 388.709H442.387C451.474 388.67 460.369 386.103 468.068 381.297C475.768 376.491 481.967 369.637 485.965 361.509C486.751 359.893 487.182 358.129 487.23 356.334C487.277 354.539 486.94 352.755 486.241 351.1C485.541 349.445 484.496 347.958 483.174 346.738C481.851 345.517 480.283 344.592 478.574 344.023C475.646 343.097 472.481 343.248 469.655 344.449C466.83 345.65 464.53 347.821 463.175 350.567C461.297 354.41 458.381 357.656 454.755 359.941C451.128 362.226 446.935 363.459 442.644 363.503H441.72C436.71 363.353 431.891 361.555 428.015 358.39C425.702 356.49 422.801 355.443 419.803 355.425C416.623 355.443 413.565 356.647 411.231 358.799C409.915 360.014 408.876 361.496 408.186 363.146C407.495 364.796 407.168 366.574 407.227 368.36C407.287 370.164 407.729 371.935 408.525 373.557C409.322 375.178 410.454 376.613 411.847 377.768C418.903 383.596 427.489 387.286 436.587 388.402V388.402Z" fill="black"/>
<path opacity="0.7" d="M418.571 98.658C416.98 112.105 415.85 121.615 415.748 121.666L410.615 154.848L401.684 231.95L355.488 206.386C348.168 202.247 340.085 199.622 331.723 198.665C319.322 197.208 306.763 199.394 295.592 204.953C284.42 210.512 275.124 219.203 268.846 229.956L249.547 263.291C249.547 263.291 216.337 216.611 182.82 212.163C212.011 177.93 248.061 150.15 288.658 130.604C329.256 111.058 373.505 100.177 418.571 98.658V98.658Z" fill="white"/>
<path opacity="0.7" d="M285.271 705.195C240.329 682.394 201.355 649.451 171.457 608.991C141.559 568.53 121.564 521.672 113.065 472.151L149.816 478.951C185.294 485.541 219.364 498.185 250.522 516.326C265.612 525.12 279.009 532.994 281.319 534.784L293.33 543.987C312.742 558.708 334.696 569.764 358.106 576.607C358.106 576.607 316.941 650.129 285.271 705.195Z" fill="white"/>
<path opacity="0.7" d="M745.224 486.058C734.64 535.612 712.346 581.937 680.191 621.191L675.726 627.224C675.726 625.69 616.493 414.018 616.493 414.223L626.143 230.161C625.456 225.011 623.157 220.209 619.572 216.436C615.988 212.663 611.3 210.113 606.176 209.147L604.123 208.84C599.332 208.243 594.472 209.07 590.152 211.217C585.832 213.364 582.246 216.735 579.844 220.906L544.377 280.369L494.434 104.794C495.512 104.794 496.641 105.152 497.719 105.407C581.175 123.264 654.108 173.374 700.511 244.74C746.914 316.105 762.995 402.895 745.224 486.058V486.058Z" fill="white"/>
</g>
<defs>
<clipPath id="clip0_239_238">
<rect width="860" height="772" fill="white"/>
</clipPath>
</defs>
</svg>
