<svg width="1024" height="1024" viewBox="0 0 1024 1024" fill="none" xmlns="http://www.w3.org/2000/svg">
<path d="M530.478 129.815C530.606 128.818 531.08 127.898 531.819 127.214C532.557 126.529 533.513 126.125 534.52 126.07C535.527 126.015 536.522 126.314 537.331 126.914C538.14 127.514 538.712 128.378 538.947 129.355L557.426 226.499C557.426 226.499 527.45 220.772 523.908 202.111L530.478 129.815Z" fill="white"/>
<path d="M521.188 233.759C523.376 235.99 525.727 238.058 528.22 239.946C533.884 244.166 540.265 247.336 547.057 249.302C551.017 250.443 555.071 251.23 559.171 251.654C560.043 251.654 561.07 251.654 561.994 251.654L577.803 303.754C568.024 303.734 558.407 301.273 549.829 296.596C539.769 292.23 530.952 285.45 524.165 276.86C522.522 274.56 521.085 272.259 519.853 270.162C519.237 269.089 518.673 268.015 518.159 267.044C517.646 266.072 517.133 265.101 516.722 264.18L521.188 233.759Z" fill="white"/>
<path d="M511.59 318.735L514.002 297.158C515.439 298.999 516.928 300.84 518.57 302.629C520.213 304.419 521.958 306.259 523.703 308.049C531.729 315.759 541.271 321.73 551.728 325.586C557.749 327.797 564.027 329.24 570.412 329.881C572.516 329.881 574.672 330.238 576.931 330.29C579.189 330.341 581.499 330.29 583.809 330.29L602.03 395.478C602.173 395.756 602.199 396.079 602.103 396.377C602.007 396.674 601.796 396.921 601.517 397.063C601.379 397.134 601.228 397.177 601.073 397.189C600.918 397.201 600.763 397.183 600.615 397.136C600.317 397.04 600.069 396.83 599.926 396.552C596.011 391.593 591.434 387.189 586.324 383.463C583.95 381.759 581.482 380.189 578.932 378.759L544.081 359.484L509.177 340.26L511.59 318.735Z" fill="white"/>
<path d="M360.838 370.681L378.29 340.617C381.371 335.356 385.926 331.104 391.395 328.379C396.864 325.655 403.012 324.578 409.087 325.279C413.186 325.75 417.148 327.036 420.738 329.062L483.153 364.034L360.838 370.681Z" fill="white"/>
<path opacity="0.6" d="M499.733 193.265C498.141 206.712 497.012 216.222 496.91 216.273L491.777 249.455L482.846 326.557L436.65 300.993C429.33 296.854 421.247 294.229 412.885 293.272C400.483 291.815 387.925 294.001 376.753 299.56C365.582 305.119 356.286 313.81 350.008 324.563L330.709 357.899C330.709 357.899 297.499 311.218 263.982 306.77C293.173 272.537 329.223 244.757 369.82 225.211C410.418 205.665 454.667 194.784 499.733 193.265Z" fill="white"/>
<path opacity="0.6" d="M366.433 799.802C321.491 777.001 282.517 744.058 252.619 703.598C222.721 663.137 202.726 616.279 194.227 566.758L230.978 573.559C266.456 580.148 300.526 592.792 331.684 610.933C346.774 619.727 360.171 627.601 362.481 629.391L374.492 638.594C393.904 653.315 415.858 664.371 439.268 671.214C439.268 671.214 398.103 744.736 366.433 799.802Z" fill="white"/>
<path d="M511.743 834.365C489.125 834.358 466.57 831.975 444.452 827.258C428.084 823.755 412.019 818.969 396.409 812.942L474.633 678.116C500.657 681.491 519.597 675.867 533.404 659.71C535.755 657.608 537.193 654.677 537.413 651.538C537.634 648.398 536.619 645.296 534.585 642.889C526.577 632.05 514.053 642.326 514.053 642.326C501.17 651.069 492.701 652.552 474.068 648.513C445.305 642.661 418.235 630.428 394.869 612.723L381.524 602.497C369.095 592.97 355.814 584.6 341.847 577.496L336.714 574.99C314.624 564.266 291.123 556.709 266.907 552.545L136.687 530.611C130.733 529.588 111.485 524.629 113.846 503.359L116.053 493.543C146.471 503.57 177.764 510.742 209.522 514.966L220.404 516.602C226.769 517.522 233.031 518.34 238.831 519.005C257.659 521.378 276.622 522.539 295.6 522.481C299.558 522.362 303.48 521.691 307.251 520.487L315.721 517.829C324.939 515.12 333.026 509.504 338.767 501.826C343.131 495.963 345.936 489.098 346.924 481.866C347.911 474.635 347.047 467.273 344.413 460.463C341.563 453.132 336.803 446.691 330.623 441.802C324.443 436.914 317.067 433.754 309.253 432.649C288.722 431.984 176.467 413.834 136.123 396.859L138.587 390.366C143.039 380.202 151.127 372.051 161.277 367.496C171.428 362.942 182.915 362.309 193.508 365.722L198.384 367.358C199.919 367.883 201.593 367.841 203.1 367.241C204.608 366.64 205.848 365.521 206.597 364.086L209.06 359.586C212.192 353.824 216.523 348.794 221.763 344.834C227.004 340.874 233.033 338.074 239.447 336.621C245.862 335.169 252.513 335.098 258.958 336.414C265.402 337.729 271.49 340.4 276.814 344.248C279.399 346.099 281.774 348.225 283.897 350.588L285.437 352.07C285.899 352.582 286.361 353.042 287.028 353.86L316.799 389.036C319.224 391.879 322.27 394.132 325.704 395.621C329.139 397.11 332.87 397.795 336.611 397.626L444.401 392.871C434.664 413.038 432.896 436.115 439.447 457.52C445.998 478.926 460.39 497.095 479.766 508.421L490.391 514.608C499.51 519.94 509.653 523.302 520.161 524.475C534.846 526.187 549.717 523.691 563.027 517.279C576.337 510.867 587.535 500.806 595.306 488.277L678.099 350.485L667.268 512L730.967 748.213C671.417 803.446 593.111 834.219 511.743 834.365Z" fill="white"/>
<path d="M156.552 473.347L167.69 433.876C183.653 437.608 203.62 441.954 223.74 446.044L234.725 448.192C274.607 455.554 306.584 458.417 306.122 458.417C309.263 458.905 312.219 460.212 314.689 462.206C317.159 464.199 319.056 466.808 320.186 469.768C321.879 474.092 321.879 478.891 320.186 483.215C318.903 486.896 315.567 494.974 299.296 495.997C276.506 497.275 213.115 488.276 156.552 473.347Z" fill="white"/>
<path opacity="0.6" d="M826.386 580.665C815.802 630.219 793.507 676.544 761.353 715.798L756.887 721.831C756.887 720.297 697.654 508.626 697.654 508.83L707.304 324.768C706.618 319.618 704.319 314.816 700.734 311.043C697.149 307.27 692.461 304.72 687.337 303.754L685.284 303.447C680.494 302.85 675.634 303.677 671.314 305.824C666.994 307.971 663.408 311.342 661.006 315.513L625.538 374.976L575.596 199.401C576.674 199.401 577.803 199.759 578.881 200.014C662.336 217.871 735.27 267.981 781.673 339.347C828.076 410.712 844.157 497.502 826.386 580.665Z" fill="white"/>
<path d="M583.86 433.978C582.548 428.878 580.205 424.099 576.975 419.932C573.745 415.765 569.695 412.298 565.074 409.743L488.697 367.102L469.706 400.08C461.404 414.566 459.168 431.727 463.482 447.843C467.796 463.96 478.313 477.734 492.752 486.18L503.018 492.265C514.61 499.009 528.394 500.961 541.415 497.702C554.435 494.443 565.656 486.232 572.67 474.83L579.138 464.246C581.945 459.784 583.812 454.8 584.624 449.596C585.435 444.392 585.176 439.079 583.86 433.978ZM567.229 456.168C563.224 464.312 557.009 471.175 549.289 475.983C541.57 480.79 532.653 483.348 523.549 483.368H521.701C520.315 483.368 518.981 483.368 517.646 483.062C508.483 481.945 499.839 478.216 492.752 472.325C491.359 471.17 490.227 469.735 489.431 468.114C488.634 466.492 488.192 464.721 488.132 462.917C488.073 461.131 488.4 459.352 489.091 457.703C489.782 456.053 490.82 454.571 492.136 453.356C494.501 451.149 497.622 449.924 500.862 449.93C503.86 449.949 506.761 450.996 509.074 452.896C512.95 456.061 517.769 457.859 522.779 458.009H523.549C527.84 457.965 532.033 456.732 535.66 454.447C539.286 452.162 542.202 448.916 544.08 445.073C545.436 442.327 547.735 440.156 550.561 438.955C553.386 437.754 556.551 437.603 559.479 438.529C561.188 439.098 562.757 440.023 564.079 441.244C565.401 442.464 566.447 443.951 567.146 445.606C567.845 447.261 568.183 449.045 568.135 450.84C568.088 452.635 567.656 454.399 566.87 456.015L567.229 456.168Z" fill="white"/>
</svg>
