<svg width="860" height="772" viewBox="0 0 860 772" fill="none" xmlns="http://www.w3.org/2000/svg">
<g clip-path="url(#clip0_187_229)">
<path d="M727.516 228.109C702.406 189.123 669.777 155.491 631.519 129.161C593.262 102.831 550.139 84.3277 504.648 74.7239L500.85 74.0081C499.926 74.0081 498.951 74.0081 497.976 73.7013L489.507 29.2708C487.872 20.6267 483.15 12.8647 476.214 7.41989C469.279 1.9751 460.599 -0.784166 451.779 -0.347707C442.96 0.0887522 434.597 3.69142 428.237 9.79413C421.878 15.8968 417.952 24.0868 417.185 32.8497L414.105 67.3103C315.452 71.6051 220.495 115.32 158.285 192.319C153.721 198.356 149.864 204.891 146.787 211.799C129.952 215.685 118.711 224.837 107.778 238.233C104.702 237.761 101.599 237.488 98.4874 237.415C83.4695 237.372 68.7671 241.706 56.1907 249.882C43.6142 258.058 33.7128 269.72 27.7057 283.43L26.9871 285.066C23.6586 292.774 23.4863 301.473 26.5071 309.306C29.5278 317.139 35.5023 323.486 43.1555 326.992L55.423 332.616L43.9767 371.269C33.4031 368.61 21.8542 365.849 15.3869 369.991C8.9195 374.132 6.40441 383.386 3.32471 392.487L0.96361 402.355C0.696598 403.482 0.507949 404.627 0.399 405.78C-3.14265 437.02 17.1834 462.686 49.8282 468.259L80.8818 473.372C80.7795 474.921 80.7795 476.476 80.8818 478.025C90.2486 532.538 112.3 584.108 145.27 628.607C178.239 673.106 221.212 709.296 270.745 734.281C275.365 736.632 297.795 746.551 303.749 748.801C320.924 755.376 338.582 760.623 356.566 764.497C380.893 769.695 405.702 772.317 430.582 772.32C520.145 772.341 606.373 738.477 671.825 677.579C678.497 671.393 699.388 649.305 705.24 642.147C752.467 584.349 780.076 513.121 784.098 438.705C788.119 364.29 768.345 290.521 727.619 228.007L727.516 228.109ZM449.316 35.9686C449.42 34.9644 449.875 34.0287 450.602 33.3256C451.33 32.6226 452.282 32.1971 453.293 32.1239C454.303 32.0506 455.308 32.3344 456.129 32.9253C456.951 33.5161 457.537 34.3764 457.786 35.355L476.264 132.499C476.264 132.499 446.288 126.773 442.746 108.111L449.316 35.9686ZM440.026 139.913C442.215 142.144 444.565 144.211 447.058 146.099C452.722 150.32 459.103 153.489 465.896 155.456C469.855 156.596 473.909 157.384 478.009 157.808C478.882 157.808 479.908 157.808 480.832 157.808L496.641 209.907C486.863 209.887 477.245 207.426 468.667 202.749C458.607 198.384 449.79 191.603 443.003 183.014C441.361 180.713 439.923 178.412 438.692 176.316C438.076 175.242 437.511 174.169 436.998 173.197C436.484 172.226 435.971 171.254 435.56 170.334L440.026 139.913ZM430.428 224.735L432.84 203.159C434.277 204.999 435.766 206.84 437.408 208.629C439.051 210.419 440.796 212.259 442.541 214.049C450.567 221.76 460.109 227.731 470.566 231.586C476.587 233.797 482.865 235.24 489.25 235.881C491.354 235.881 493.51 236.239 495.769 236.29C498.027 236.341 500.337 236.29 502.647 236.29L520.868 301.478C521.011 301.756 521.037 302.08 520.941 302.377C520.845 302.674 520.634 302.921 520.355 303.063C520.217 303.134 520.066 303.177 519.911 303.189C519.756 303.202 519.601 303.184 519.453 303.136C519.155 303.04 518.907 302.83 518.764 302.552C514.849 297.593 510.272 293.189 505.162 289.463C502.788 287.759 500.32 286.189 497.77 284.759L462.919 265.484L428.015 246.26L430.428 224.735ZM388.544 306.08L407.535 273.102L483.86 315.743C488.467 318.314 492.505 321.784 495.734 325.945C498.963 330.107 501.317 334.874 502.654 339.962C503.99 345.05 504.283 350.355 503.515 355.558C502.746 360.761 500.932 365.757 498.181 370.246L491.714 380.83C484.699 392.232 473.479 400.443 460.458 403.702C447.438 406.961 433.654 405.009 422.061 398.265L411.796 392.18C397.321 383.768 386.761 370.009 382.408 353.889C378.055 337.77 380.26 320.59 388.544 306.08ZM279.676 276.681L297.128 246.618C300.21 241.357 304.764 237.104 310.233 234.38C315.703 231.656 321.851 230.578 327.925 231.279C332.024 231.75 335.986 233.037 339.577 235.063L401.992 270.034L279.676 276.681ZM418.571 99.2655C416.98 112.712 415.85 122.222 415.748 122.273L410.615 155.456L401.684 232.557L355.488 206.993C348.168 202.855 340.085 200.229 331.723 199.273C319.322 197.816 306.763 200.001 295.592 205.561C284.42 211.12 275.124 219.81 268.846 230.563L249.547 263.899C249.547 263.899 216.337 217.219 182.82 212.771C212.011 178.538 248.061 150.758 288.658 131.212C329.256 111.665 373.506 100.784 418.571 99.2655ZM285.117 705.802C240.175 683.002 201.201 650.058 171.303 609.598C141.405 569.138 121.41 522.279 112.911 472.759L149.816 479.559C185.294 486.148 219.364 498.793 250.522 516.934C265.612 525.728 279.009 533.601 281.319 535.391L293.33 544.594C312.742 559.315 334.696 570.371 358.106 577.214C358.106 577.214 316.941 650.737 285.271 705.802H285.117ZM430.428 740.365C407.809 740.358 385.254 737.975 363.136 733.258C346.768 729.756 330.703 724.969 315.093 718.942L393.317 584.116C419.341 587.491 438.281 581.867 452.088 565.71C454.439 563.608 455.877 560.677 456.098 557.538C456.318 554.398 455.303 551.296 453.269 548.889C445.262 538.05 432.737 548.326 432.737 548.326C419.854 557.069 411.385 558.552 392.753 554.513C363.989 548.661 336.919 536.428 313.553 518.723L300.208 508.497C287.779 498.97 274.498 490.6 260.531 483.496L255.398 480.99C233.357 470.28 209.908 462.724 185.746 458.545L55.5256 436.611C49.5715 435.588 30.3234 430.629 32.6845 409.359L34.8916 399.543C65.3094 409.57 96.602 416.742 128.361 420.966L139.242 422.602C145.607 423.522 151.869 424.34 157.669 425.005C176.497 427.378 195.46 428.539 214.438 428.481C218.396 428.362 222.318 427.691 226.09 426.487L234.559 423.829C243.777 421.12 251.865 415.504 257.605 407.826C261.969 401.963 264.775 395.098 265.762 387.866C266.749 380.635 265.885 373.273 263.251 366.463C260.401 359.132 255.641 352.691 249.461 347.802C243.281 342.914 235.905 339.754 228.091 338.649C207.56 337.984 95.3051 319.834 54.961 302.859L57.4248 296.366C61.8776 286.202 69.9653 278.051 80.1156 273.496C90.2659 268.942 101.754 268.309 112.346 271.722L117.222 273.358C118.758 273.883 120.431 273.841 121.939 273.241C123.446 272.64 124.686 271.521 125.435 270.086L127.899 265.586C131.03 259.824 135.361 254.794 140.601 250.834C145.842 246.874 151.871 244.074 158.285 242.621C164.7 241.169 171.352 241.099 177.796 242.414C184.24 243.729 190.328 246.4 195.652 250.248C198.237 252.099 200.612 254.225 202.735 256.588L204.275 258.07C204.737 258.582 205.199 259.042 205.866 259.86L235.637 295.036C238.062 297.879 241.108 300.132 244.543 301.621C247.977 303.11 251.708 303.795 255.449 303.626L363.239 298.871C353.502 319.038 351.734 342.115 358.285 363.52C364.836 384.926 379.228 403.095 398.604 414.421L409.229 420.608C418.348 425.94 428.491 429.302 438.999 430.475C453.684 432.187 468.555 429.691 481.865 423.279C495.175 416.867 506.373 406.806 514.144 394.277L596.937 256.485L586.106 418L649.805 654.213C590.255 709.446 511.949 740.219 430.582 740.365H430.428ZM75.3897 379.347L86.5279 339.876C102.491 343.608 122.458 347.954 142.578 352.044L153.563 354.192C193.445 361.554 225.422 364.418 224.96 364.418C228.102 364.905 231.057 366.212 233.527 368.206C235.997 370.199 237.894 372.808 239.024 375.768C240.717 380.092 240.717 384.891 239.024 389.215C237.741 392.896 234.405 400.974 218.134 401.997C195.344 403.275 131.953 394.277 75.3897 379.347ZM745.276 486.717C734.668 536.257 712.357 582.564 680.191 621.798L675.726 627.831C675.726 626.297 616.493 414.626 616.493 414.83L626.143 230.768C625.456 225.618 623.157 220.816 619.572 217.043C615.988 213.27 611.3 210.72 606.176 209.754L604.123 209.447C599.332 208.85 594.472 209.677 590.152 211.824C585.832 213.971 582.246 217.342 579.844 221.514L544.377 280.976L494.434 105.401C495.512 105.401 496.641 105.759 497.719 106.014C581.175 123.871 654.108 173.981 700.511 245.347C746.914 316.713 762.995 403.502 745.224 486.666L745.276 486.717Z" fill="black"/>
<path d="M436.587 389.01C437.922 389.01 439.256 389.01 440.642 389.317H442.387C451.474 389.278 460.369 386.711 468.069 381.905C475.768 377.098 481.967 370.245 485.965 362.117C486.751 360.501 487.182 358.737 487.23 356.942C487.277 355.147 486.94 353.363 486.241 351.708C485.541 350.053 484.496 348.566 483.174 347.346C481.851 346.125 480.283 345.2 478.574 344.631C475.646 343.705 472.481 343.856 469.655 345.057C466.83 346.258 464.53 348.429 463.175 351.175C461.297 355.018 458.381 358.264 454.755 360.549C451.128 362.834 446.935 364.067 442.644 364.111H441.72C436.71 363.961 431.891 362.163 428.015 358.998C425.702 357.098 422.801 356.051 419.803 356.032C416.623 356.051 413.565 357.255 411.231 359.407C409.915 360.622 408.877 362.104 408.186 363.754C407.495 365.404 407.168 367.182 407.227 368.968C407.287 370.772 407.729 372.543 408.526 374.165C409.322 375.786 410.454 377.221 411.847 378.376C418.903 384.204 427.489 387.894 436.587 389.01Z" fill="black"/>
</g>
<defs>
<clipPath id="clip0_187_229">
<rect width="860" height="772" fill="white"/>
</clipPath>
</defs>
</svg>
