<svg width="860" height="860" viewBox="0 0 860 860" fill="none" xmlns="http://www.w3.org/2000/svg">
<path d="M422.037 414.856L410.948 408.646C403.625 404.362 397.219 398.677 392.096 391.915C386.973 385.153 383.234 377.447 381.092 369.239C378.949 361.03 378.446 352.48 379.612 344.077C380.777 335.674 383.587 327.583 387.883 320.267L407.177 287L484.8 330.58C489.465 333.198 493.556 336.726 496.83 340.956C500.104 345.186 502.495 350.031 503.861 355.202C505.226 360.374 505.538 365.768 504.778 371.063C504.018 376.357 502.202 381.445 499.438 386.025L492.784 397.114C485.637 408.716 474.238 417.065 461.021 420.38C447.803 423.695 433.813 421.712 422.037 414.856Z" fill="white"/>
<path d="M340.317 248.999C336.697 246.954 332.697 245.671 328.562 245.229C322.391 244.484 316.137 245.568 310.578 248.348C305.018 251.128 300.398 255.48 297.292 260.864L278 293.024L405.031 285.794L340.317 248.999Z" fill="white"/>
<path d="M439.216 192.103C440.436 194.321 441.877 196.538 443.541 198.978C450.431 207.704 459.335 214.63 469.489 219.16C478.205 223.884 490.117 226.837 500.032 226.843L484.024 173.251L478.86 171.073C474.694 170.682 470.488 169.649 466.467 168.492C459.593 166.471 454.134 163.483 448.393 159.197C445.819 157.293 441.439 155.303 439.216 153L436 186.226L437.442 189.109L439.216 192.103Z" fill="white"/>
<path d="M496.99 302.115C499.887 303.648 502.662 305.403 505.29 307.363C511.109 311.509 516.29 316.485 520.668 322.131C520.167 322.58 521.136 322.522 521.436 322.58C521.736 322.638 522.046 322.592 522.316 322.45C522.586 322.308 522.8 322.078 522.922 321.798C524.714 323.032 527.579 321.077 524.146 320.19L505.29 247.681C502.726 247.681 497.478 247.681 494.915 247.681C492.352 247.681 490.033 247.681 487.592 247.681C467.943 245.604 452.751 235.134 438.552 221.393C436.477 219.44 433.67 217.149 431.839 215.197C430.008 213.244 429.811 211.075 428.224 209L421.685 235.476L419 259.886L457.69 280.512L496.99 302.115Z" fill="white"/>
<path d="M477.154 148.349L458.303 49.3247C458.303 48.1777 457.847 47.0777 457.036 46.2667C456.225 45.4556 455.125 45 453.978 45C452.831 45 451.731 45.4556 450.92 46.2667C450.109 47.0777 449.653 48.1777 449.653 49.3247L443 123.621C446.659 142.472 477.154 148.349 477.154 148.349Z" fill="white"/>
<path d="M216.977 418.028C233.5 417.03 236.937 408.713 238.268 405.054C239.988 400.632 239.988 395.725 238.268 391.303C237.05 388.373 235.091 385.81 232.583 383.866C230.075 381.922 227.104 380.664 223.963 380.214C223.963 380.214 191.916 377.442 151.441 369.902L140.352 367.795C119.838 363.581 99.6556 359.145 83.4657 355.375L71.8223 395.85C129.263 410.709 193.801 419.802 216.977 418.028Z" fill="white"/>
<path d="M597.782 270.779L514.84 409.454C504.254 426.744 487.33 439.204 467.685 444.17C448.041 449.136 427.234 446.214 409.714 436.03L398.786 429.796C379.371 418.384 364.947 400.091 358.369 378.541C351.792 356.99 353.541 333.753 363.271 313.432L255.741 318.353C251.979 318.509 248.231 317.801 244.784 316.285C241.337 314.768 238.282 312.483 235.853 309.604L206.129 274.607C205.473 273.732 204.927 273.295 204.49 272.748L202.96 271.217C200.775 268.906 198.398 266.784 195.857 264.874C190.527 260.98 184.424 258.277 177.96 256.946C171.496 255.616 164.823 255.689 158.39 257.161C151.957 258.633 145.914 261.47 140.671 265.48C135.427 269.489 131.105 274.579 127.995 280.404L125.591 284.888C124.807 286.322 123.554 287.443 122.041 288.061C120.528 288.678 118.849 288.755 117.286 288.278L112.368 286.637C101.732 283.112 90.1629 283.693 79.9324 288.266C69.702 292.839 61.5489 301.074 57.0736 311.354L54.888 318.134C95.3209 334.977 207.877 353.241 228.422 354.006C236.258 355.036 243.669 358.174 249.865 363.085C256.062 367.996 260.811 374.496 263.609 381.894C265.801 387.57 266.785 393.642 266.499 399.72C266.212 405.799 264.662 411.751 261.947 417.195C259.232 422.64 255.412 427.458 250.73 431.342C246.049 435.225 240.61 438.088 234.76 439.748L226.236 442.373C222.481 443.548 218.585 444.21 214.653 444.341C195.502 444.325 176.373 443.046 157.391 440.514L138.923 437.998L127.995 436.358C96.1616 432.022 64.8063 424.699 34.3437 414.485L32.1582 424.328C31.7813 427.644 32.0796 431.003 33.0352 434.201C33.9907 437.4 35.5837 440.371 37.718 442.936C39.8523 445.501 42.4837 447.607 45.4534 449.127C48.4232 450.647 51.6698 451.549 54.9973 451.778L186.131 473.651C210.385 477.637 233.963 484.999 256.178 495.524L261.314 498.149C275.33 505.27 288.648 513.692 301.092 523.303L314.423 533.474C337.852 551.382 365.003 563.791 393.869 569.783C400.535 572.105 407.67 572.75 414.644 571.663C421.619 570.576 428.219 567.79 433.864 563.549C433.864 563.549 446.431 552.613 454.409 563.549C456.458 565.952 457.481 569.065 457.256 572.217C457.031 575.368 455.577 578.304 453.207 580.391C439.328 596.687 420.423 602.264 394.306 598.983L315.735 736.346C331.392 742.425 347.507 747.252 363.926 750.782C414.643 761.73 467.257 760.205 517.256 746.338C567.255 732.471 613.148 706.676 651 671.164L587.182 433.405L597.782 270.779Z" fill="white"/>
<path d="M727.516 243.502C702.406 204.516 669.776 170.883 631.519 144.553C593.262 118.223 550.138 99.7203 504.648 90.1165L500.85 89.4007C499.926 89.4007 498.951 89.4007 497.976 89.0939L489.507 44.6633C487.872 36.0193 483.15 28.2572 476.214 22.8125C469.279 17.3677 460.599 14.6084 451.779 15.0449C442.96 15.4813 434.597 19.084 428.237 25.1867C421.878 31.2894 417.952 39.4794 417.185 48.2423L414.105 82.7029C315.452 86.9977 220.495 130.712 158.285 207.712C153.721 213.748 149.864 220.284 146.787 227.192C129.952 231.078 118.711 240.23 107.778 253.625C104.702 253.154 101.599 252.88 98.4874 252.807C83.4695 252.765 68.7671 257.099 56.1907 265.275C43.6142 273.451 33.7128 285.112 27.7057 298.823L26.9871 300.459C23.6586 308.167 23.4863 316.866 26.5071 324.699C29.5278 332.531 35.5023 338.878 43.1555 342.384L55.423 348.008L43.9767 386.661C33.4031 384.003 21.8542 381.242 15.3869 385.383C8.9195 389.525 6.40441 398.779 3.32471 407.88L0.96361 417.747C0.696598 418.875 0.507949 420.02 0.399 421.173C-3.14265 452.413 17.1834 478.079 49.8282 483.652L80.8818 488.765C80.7795 490.314 80.7795 491.868 80.8818 493.417C90.2486 547.93 112.3 599.501 145.27 644C178.239 688.499 221.212 724.689 270.745 749.673C275.365 752.025 297.795 761.944 303.749 764.194C320.924 770.768 338.582 776.016 356.566 779.89C380.892 785.087 405.702 787.71 430.582 787.713C520.145 787.734 606.373 753.87 671.825 692.972C678.497 686.785 699.388 664.698 705.239 657.54C752.467 599.742 780.076 528.513 784.097 454.098C788.119 379.682 768.345 305.914 727.619 243.4L727.516 243.502ZM449.316 51.3612C449.42 50.357 449.875 49.4213 450.602 48.7182C451.33 48.0151 452.282 47.5897 453.293 47.5164C454.303 47.4432 455.308 47.727 456.129 48.3178C456.951 48.9087 457.537 49.769 457.786 50.7476L476.264 147.892C476.264 147.892 446.288 142.165 442.746 123.503L449.316 51.3612ZM440.026 155.305C442.215 157.536 444.565 159.604 447.058 161.492C452.722 165.713 459.103 168.882 465.896 170.848C469.855 171.989 473.909 172.776 478.009 173.2C478.882 173.2 479.908 173.2 480.832 173.2L496.641 225.3C486.863 225.28 477.245 222.819 468.667 218.142C458.607 213.776 449.79 206.996 443.003 198.407C441.361 196.106 439.923 193.805 438.691 191.709C438.076 190.635 437.511 189.561 436.998 188.59C436.484 187.618 435.971 186.647 435.56 185.727L440.026 155.305ZM430.428 240.127L432.84 218.551C434.277 220.392 435.766 222.232 437.408 224.022C439.051 225.811 440.796 227.652 442.541 229.441C450.567 237.152 460.109 243.123 470.566 246.979C476.587 249.189 482.865 250.632 489.25 251.273C491.354 251.273 493.51 251.631 495.769 251.682C498.027 251.733 500.337 251.682 502.647 251.682L520.868 316.871C521.011 317.149 521.037 317.472 520.941 317.769C520.845 318.067 520.634 318.314 520.355 318.456C520.217 318.527 520.066 318.569 519.911 318.582C519.756 318.594 519.601 318.576 519.453 318.529C519.155 318.433 518.907 318.223 518.764 317.945C514.849 312.986 510.272 308.582 505.162 304.856C502.788 303.152 500.32 301.582 497.77 300.152L462.918 280.877L428.015 261.652L430.428 240.127ZM388.544 321.473L407.535 288.495L483.86 331.136C488.467 333.707 492.505 337.177 495.734 341.338C498.963 345.499 501.317 350.266 502.654 355.355C503.99 360.443 504.283 365.747 503.515 370.951C502.746 376.154 500.932 381.15 498.181 385.639L491.714 396.222C484.699 407.625 473.479 415.836 460.458 419.095C447.438 422.354 433.654 420.402 422.061 413.657L411.795 407.573C397.321 399.161 386.761 385.402 382.408 369.282C378.055 353.162 380.26 335.983 388.544 321.473ZM279.676 292.074L297.128 262.01C300.21 256.749 304.764 252.496 310.233 249.772C315.703 247.048 321.851 245.971 327.925 246.672C332.024 247.143 335.986 248.429 339.577 250.455L401.992 285.427L279.676 292.074ZM430.582 755.757C407.963 755.75 385.408 753.368 363.29 748.651C346.922 745.148 330.857 740.361 315.247 734.335L393.471 599.509C419.495 602.883 438.435 597.259 452.242 581.103C454.593 579.001 456.031 576.07 456.252 572.93C456.472 569.791 455.457 566.689 453.423 564.281C445.416 553.442 432.891 563.719 432.891 563.719C420.008 572.462 411.539 573.945 392.907 569.906C364.143 564.053 337.073 551.82 313.707 534.116L300.362 523.89C287.933 514.362 274.652 505.993 260.685 498.888L255.552 496.383C233.463 485.659 209.961 478.102 185.746 473.938L55.5256 452.003C49.5715 450.981 30.3234 446.021 32.6845 424.752L34.8916 414.935C65.3094 424.963 96.6019 432.135 128.36 436.358L139.242 437.994C145.607 438.915 151.869 439.733 157.669 440.397C176.497 442.771 195.46 443.932 214.438 443.874C218.396 443.755 222.318 443.083 226.09 441.88L234.559 439.221C243.777 436.512 251.864 430.897 257.605 423.218C261.969 417.356 264.775 410.49 265.762 403.259C266.749 396.028 265.885 388.665 263.251 381.855C260.401 374.525 255.641 368.084 249.461 363.195C243.281 358.306 235.905 355.147 228.091 354.041C207.56 353.377 95.3051 335.226 54.961 318.252L57.4248 311.758C61.8776 301.595 69.9652 293.443 80.1156 288.889C90.2659 284.334 101.754 283.702 112.346 287.114L117.222 288.75C118.758 289.275 120.431 289.234 121.939 288.633C123.446 288.033 124.686 286.913 125.435 285.478L127.899 280.979C131.03 275.217 135.361 270.187 140.601 266.227C145.842 262.266 151.871 259.466 158.285 258.014C164.7 256.562 171.352 256.491 177.796 257.806C184.24 259.122 190.328 261.792 195.652 265.64C198.237 267.492 200.612 269.617 202.735 271.98L204.275 273.463C204.737 273.974 205.199 274.434 205.866 275.253L235.637 310.429C238.062 313.272 241.108 315.524 244.543 317.013C247.977 318.502 251.708 319.188 255.449 319.018L363.239 314.264C353.502 334.431 351.734 357.507 358.285 378.913C364.836 400.318 379.228 418.488 398.604 429.814L409.229 436C418.348 441.333 428.491 444.695 438.999 445.868C453.684 447.58 468.555 445.083 481.865 438.671C495.175 432.26 506.373 422.198 514.144 409.669L596.937 271.878L586.106 433.393L649.805 669.606C590.255 724.839 511.949 755.612 430.582 755.757ZM75.3897 394.74L86.5279 355.268C102.491 359.001 122.458 363.347 142.578 367.437L153.563 369.584C193.445 376.947 225.422 379.81 224.96 379.81C228.102 380.298 231.057 381.605 233.527 383.598C235.997 385.592 237.894 388.201 239.024 391.161C240.717 395.484 240.717 400.284 239.024 404.607C237.741 408.289 234.405 416.367 218.134 417.39C195.344 418.668 131.953 409.669 75.3897 394.74Z" fill="black"/>
<path d="M436.587 404.402C437.922 404.402 439.256 404.402 440.642 404.709H442.387C451.474 404.67 460.369 402.103 468.069 397.297C475.769 392.491 481.967 385.637 485.965 377.509C486.751 375.893 487.183 374.129 487.23 372.334C487.278 370.539 486.94 368.755 486.241 367.1C485.542 365.445 484.496 363.958 483.174 362.738C481.852 361.517 480.284 360.592 478.574 360.023C475.646 359.097 472.481 359.248 469.656 360.449C466.83 361.65 464.531 363.821 463.175 366.567C461.297 370.41 458.381 373.656 454.755 375.941C451.128 378.226 446.935 379.459 442.644 379.503H441.72C436.71 379.353 431.891 377.555 428.015 374.39C425.702 372.49 422.801 371.443 419.803 371.425C416.623 371.443 413.565 372.647 411.231 374.799C409.915 376.014 408.877 377.496 408.186 379.146C407.495 380.796 407.168 382.574 407.228 384.36C407.287 386.164 407.729 387.935 408.526 389.557C409.322 391.178 410.454 392.613 411.847 393.768C418.904 399.596 427.489 403.286 436.587 404.402Z" fill="black"/>
<path opacity="0.7" d="M418.571 114.658C416.98 128.104 415.851 137.614 415.748 137.666L410.615 170.848L401.684 247.95L355.489 222.385C348.169 218.247 340.086 215.621 331.724 214.665C319.322 213.208 306.763 215.394 295.592 220.953C284.421 226.512 275.125 235.203 268.847 245.956L249.547 279.291C249.547 279.291 216.338 232.611 182.82 228.163C212.012 193.93 248.061 166.15 288.659 146.604C329.256 127.058 373.506 116.176 418.571 114.658Z" fill="white"/>
<path opacity="0.7" d="M285.271 721.195C240.329 698.394 201.355 665.451 171.457 624.991C141.559 584.53 121.563 537.672 113.064 488.151L149.816 494.951C185.294 501.541 219.364 514.185 250.522 532.326C265.612 541.12 279.009 548.994 281.319 550.784L293.329 559.987C312.741 574.708 334.696 585.764 358.106 592.607C358.106 592.607 316.941 666.129 285.271 721.195Z" fill="white"/>
<path opacity="0.7" d="M745.224 502.058C734.639 551.612 712.345 597.937 680.191 637.19L675.725 643.224C675.725 641.69 616.492 430.018 616.492 430.223L626.142 246.16C625.456 241.011 623.156 236.208 619.572 232.436C615.987 228.663 611.299 226.112 606.175 225.147L604.122 224.84C599.332 224.243 594.471 225.07 590.152 227.217C585.832 229.364 582.246 232.735 579.844 236.906L544.376 296.368L494.434 120.793C495.511 120.793 496.641 121.151 497.719 121.407C581.174 139.263 654.108 189.374 700.511 260.739C746.914 332.105 762.995 418.894 745.224 502.058Z" fill="white"/>
</svg>
