<svg width="862" height="862" viewBox="0 0 862 862" fill="none" xmlns="http://www.w3.org/2000/svg">
<path d="M449.832 49.7515C449.959 48.7548 450.434 47.8343 451.172 47.1501C451.911 46.4658 452.867 46.0611 453.874 46.0064C454.881 45.9517 455.875 46.2504 456.684 46.8506C457.493 47.4508 458.065 48.3144 458.301 49.2913L476.779 146.435C476.779 146.435 446.803 140.709 443.262 122.047L449.832 49.7515Z" fill="white"/>
<path d="M440.542 153.695C442.73 155.926 445.081 157.994 447.574 159.882C453.238 164.103 459.619 167.272 466.411 169.238C470.371 170.379 474.425 171.166 478.525 171.59C479.397 171.59 480.424 171.59 481.348 171.59L497.157 223.69C487.378 223.67 477.761 221.209 469.183 216.532C459.123 212.166 450.306 205.386 443.519 196.797C441.876 194.496 440.439 192.195 439.207 190.099C438.591 189.025 438.027 187.951 437.513 186.98C437 186.008 436.487 185.037 436.076 184.117L440.542 153.695Z" fill="white"/>
<path d="M430.944 238.671L433.356 217.095C434.793 218.935 436.282 220.776 437.924 222.565C439.567 224.355 441.312 226.196 443.057 227.985C451.083 235.696 460.625 241.667 471.082 245.522C477.103 247.733 483.381 249.176 489.766 249.817C491.87 249.817 494.026 250.175 496.285 250.226C498.543 250.277 500.853 250.226 503.163 250.226L521.384 315.415C521.527 315.693 521.553 316.016 521.457 316.313C521.361 316.61 521.15 316.857 520.871 317C520.733 317.07 520.582 317.113 520.427 317.125C520.272 317.138 520.117 317.12 519.969 317.072C519.671 316.976 519.423 316.766 519.28 316.488C515.365 311.529 510.788 307.126 505.678 303.4C503.304 301.696 500.836 300.125 498.286 298.696L463.435 279.42L428.531 260.196L430.944 238.671Z" fill="white"/>
<path d="M280.191 290.617L297.643 260.554C300.725 255.292 305.279 251.04 310.748 248.316C316.218 245.592 322.366 244.514 328.44 245.215C332.539 245.686 336.501 246.973 340.092 248.999L402.507 283.97L280.191 290.617Z" fill="white"/>
<path opacity="0.6" d="M419.085 113.202C417.494 126.648 416.365 136.158 416.262 136.209L411.129 169.392L402.198 246.493L356.002 220.929C348.682 216.791 340.6 214.165 332.237 213.209C319.836 211.752 307.277 213.937 296.106 219.497C284.935 225.056 275.638 233.747 269.36 244.499L250.061 277.835C250.061 277.835 216.851 231.155 183.334 226.707C212.525 192.474 248.575 164.694 289.172 145.148C329.77 125.601 374.02 114.72 419.085 113.202V113.202Z" fill="white"/>
<path opacity="0.6" d="M285.787 719.738C240.844 696.938 201.87 663.994 171.972 623.534C142.074 583.074 122.079 536.216 113.58 486.695L150.331 493.495C185.81 500.085 219.879 512.729 251.037 530.87C266.128 539.664 279.525 547.538 281.834 549.327L293.845 558.53C313.257 573.251 335.211 584.307 358.621 591.15C358.621 591.15 317.456 664.673 285.787 719.738Z" fill="white"/>
<path d="M431.097 754.301C408.478 754.294 385.923 751.912 363.805 747.194C347.437 743.692 331.372 738.905 315.762 732.878L393.986 598.053C420.01 601.427 438.95 595.803 452.757 579.646C455.108 577.544 456.546 574.613 456.767 571.474C456.987 568.335 455.973 565.233 453.938 562.825C445.931 551.986 433.407 562.263 433.407 562.263C420.523 571.006 412.054 572.488 393.422 568.449C364.658 562.597 337.588 550.364 314.222 532.659L300.877 522.434C288.449 512.906 275.167 504.537 261.2 497.432L256.067 494.927C233.978 484.203 210.476 476.646 186.261 472.481L56.0407 450.547C50.0866 449.525 30.8385 444.565 33.1996 423.296L35.4067 413.479C65.8245 423.507 97.117 430.679 128.876 434.902L139.757 436.538C146.122 437.458 152.384 438.276 158.184 438.941C177.012 441.314 195.975 442.476 214.953 442.418C218.911 442.298 222.833 441.627 226.605 440.424L235.074 437.765C244.292 435.056 252.38 429.441 258.12 421.762C262.484 415.9 265.29 409.034 266.277 401.803C267.264 394.572 266.4 387.209 263.766 380.399C260.916 373.069 256.156 366.628 249.976 361.739C243.796 356.85 236.42 353.69 228.607 352.585C208.075 351.921 95.8201 333.77 55.4761 316.795L57.9398 310.302C62.3927 300.138 70.4803 291.987 80.6306 287.433C90.7809 282.878 102.269 282.246 112.861 285.658L117.737 287.294C119.273 287.819 120.946 287.778 122.454 287.177C123.961 286.577 125.202 285.457 125.95 284.022L128.414 279.523C131.545 273.76 135.876 268.731 141.116 264.77C146.357 260.81 152.386 258.01 158.8 256.558C165.215 255.106 171.867 255.035 178.311 256.35C184.755 257.665 190.843 260.336 196.167 264.184C198.752 266.035 201.127 268.161 203.25 270.524L204.79 272.007C205.252 272.518 205.714 272.978 206.381 273.796L236.152 308.973C238.577 311.816 241.623 314.068 245.058 315.557C248.492 317.046 252.223 317.732 255.965 317.562L363.754 312.807C354.017 332.974 352.249 356.051 358.8 377.457C365.352 398.862 379.743 417.031 399.119 428.358L409.744 434.544C418.863 439.876 429.006 443.238 439.515 444.412C454.199 446.124 469.07 443.627 482.38 437.215C495.691 430.803 506.888 420.742 514.659 408.213L597.452 270.422L586.622 431.936L650.32 668.15C590.77 723.383 512.464 754.156 431.097 754.301V754.301Z" fill="white"/>
<path d="M75.9043 393.283L87.0425 353.812C103.006 357.544 122.972 361.89 143.093 365.981L154.077 368.128C193.959 375.49 225.937 378.354 225.475 378.354C228.616 378.841 231.572 380.148 234.042 382.142C236.512 384.135 238.409 386.744 239.539 389.704C241.231 394.028 241.231 398.827 239.539 403.151C238.256 406.832 234.919 414.91 218.648 415.933C195.859 417.211 132.468 408.213 75.9043 393.283Z" fill="white"/>
<path opacity="0.6" d="M745.739 500.602C735.155 550.156 712.861 596.481 680.706 635.734L676.241 641.768C676.241 640.234 617.008 428.562 617.008 428.767L626.658 244.704C625.971 239.555 623.672 234.752 620.087 230.98C616.503 227.207 611.815 224.656 606.691 223.691L604.638 223.384C599.848 222.787 594.987 223.614 590.667 225.761C586.347 227.907 582.761 231.279 580.36 235.45L544.892 294.912L494.949 119.337C496.027 119.337 497.156 119.695 498.234 119.951C581.69 137.807 654.623 187.918 701.026 259.283C747.429 330.649 763.51 417.438 745.739 500.602V500.602Z" fill="white"/>
<path d="M503.214 353.915C501.902 348.815 499.559 344.035 496.329 339.868C493.098 335.701 489.049 332.234 484.427 329.68V329.68L408.051 287.039L389.059 320.016C380.758 334.502 378.522 351.663 382.836 367.78C387.15 383.897 397.666 397.671 412.106 406.117L422.371 412.201C433.964 418.946 447.748 420.898 460.769 417.639C473.789 414.379 485.009 406.169 492.024 394.766L498.491 384.183C501.299 379.721 503.166 374.736 503.977 369.532C504.789 364.329 504.529 359.015 503.214 353.915V353.915ZM486.583 376.104C482.577 384.248 476.363 391.112 468.643 395.919C460.923 400.726 452.007 403.285 442.903 403.305H441.055C439.669 403.305 438.335 403.305 437 402.998C427.837 401.881 419.193 398.153 412.106 392.261C410.713 391.107 409.581 389.671 408.784 388.05C407.988 386.428 407.546 384.657 407.486 382.853C407.427 381.067 407.754 379.289 408.445 377.639C409.135 375.99 410.174 374.507 411.49 373.292C413.855 371.086 416.975 369.861 420.216 369.867C423.214 369.885 426.114 370.932 428.428 372.832C432.304 375.997 437.123 377.795 442.133 377.945H442.903C447.193 377.901 451.387 376.668 455.014 374.383C458.64 372.098 461.556 368.852 463.434 365.009C464.789 362.263 467.089 360.092 469.914 358.891C472.74 357.69 475.904 357.539 478.833 358.465C480.542 359.034 482.11 359.959 483.432 361.18C484.755 362.4 485.8 363.887 486.5 365.542C487.199 367.197 487.536 368.981 487.489 370.776C487.441 372.571 487.01 374.335 486.224 375.951L486.583 376.104Z" fill="white"/>
</svg>
