<svg width="860" height="772" viewBox="0 0 860 772" fill="none" xmlns="http://www.w3.org/2000/svg">
<g clip-path="url(#clip0_239_220)">
<path d="M454.318 4.08883C454.457 3.00258 454.974 1.99929 455.779 1.25349C456.584 0.507687 457.626 0.0665929 458.724 0.00695177C459.821 -0.0526894 460.905 0.272896 461.787 0.927061C462.669 1.58122 463.292 2.52256 463.549 3.58729L483.689 109.468C483.689 109.468 451.017 103.226 447.157 82.8861L454.318 4.08883Z" fill="white"/>
<path d="M444.192 117.38C446.578 119.812 449.14 122.066 451.857 124.123C458.03 128.724 464.985 132.178 472.388 134.321C476.704 135.565 481.123 136.422 485.591 136.885C486.542 136.885 487.661 136.885 488.668 136.885L505.899 193.67C495.241 193.648 484.759 190.966 475.409 185.868C464.445 181.11 454.834 173.72 447.437 164.358C445.647 161.85 444.08 159.342 442.738 157.058C442.066 155.887 441.451 154.717 440.892 153.658C440.332 152.6 439.773 151.541 439.325 150.538L444.192 117.38Z" fill="white"/>
<path d="M433.73 209.998L436.36 186.481C437.926 188.488 439.549 190.494 441.339 192.444C443.129 194.395 445.031 196.401 446.933 198.351C455.681 206.755 466.081 213.263 477.479 217.465C484.042 219.875 490.884 221.448 497.843 222.146C500.136 222.146 502.486 222.536 504.948 222.592C507.409 222.648 509.927 222.592 512.444 222.592L532.304 293.644C532.46 293.946 532.489 294.299 532.384 294.623C532.279 294.947 532.049 295.216 531.745 295.371C531.594 295.448 531.43 295.494 531.261 295.508C531.093 295.522 530.923 295.502 530.762 295.45C530.437 295.346 530.167 295.117 530.011 294.814C525.744 289.409 520.756 284.609 515.186 280.548C512.598 278.691 509.909 276.979 507.13 275.421L469.143 254.412L431.101 233.459L433.73 209.998Z" fill="white"/>
<path d="M269.422 266.616L288.443 233.849C291.802 228.114 296.765 223.479 302.727 220.51C308.688 217.541 315.389 216.367 322.01 217.131C326.477 217.644 330.796 219.046 334.709 221.254L402.737 259.371L269.422 266.616Z" fill="white"/>
<path opacity="0.6" d="M420.808 73.2451C419.073 87.9012 417.842 98.2663 417.731 98.322L412.136 134.489L402.402 218.524L352.052 190.661C344.073 186.15 335.264 183.289 326.15 182.246C312.633 180.658 298.944 183.04 286.768 189.1C274.593 195.159 264.46 204.631 257.618 216.351L236.583 252.684C236.583 252.684 200.387 201.806 163.855 196.958C195.671 159.646 234.963 129.368 279.212 108.064C323.46 86.7601 371.689 74.9003 420.808 73.2451V73.2451Z" fill="white"/>
<path opacity="0.6" d="M275.52 734.329C226.535 709.478 184.057 673.572 151.47 629.473C118.883 585.374 97.0895 534.301 87.8262 480.327L127.882 487.739C166.552 494.921 203.685 508.702 237.645 528.475C254.093 538.06 268.694 546.642 271.212 548.592L284.303 558.623C305.46 574.668 329.389 586.718 354.905 594.176C354.905 594.176 310.037 674.311 275.52 734.329Z" fill="white"/>
<path d="M433.898 772C409.245 771.992 384.662 769.396 360.555 764.254C342.715 760.437 325.206 755.219 308.191 748.651L393.451 601.7C421.814 605.378 442.458 599.248 457.507 581.638C460.069 579.347 461.637 576.153 461.877 572.731C462.117 569.309 461.011 565.929 458.794 563.304C450.066 551.49 436.416 562.691 436.416 562.691C422.374 572.221 413.143 573.837 392.835 569.434C361.485 563.056 331.98 549.723 306.513 530.426L291.967 519.28C278.421 508.896 263.946 499.774 248.722 492.03L243.128 489.3C219.052 477.611 193.437 469.375 167.044 464.836L25.1128 440.929C18.6232 439.814 -2.3559 434.409 0.217542 411.227L2.62315 400.527C35.7765 411.457 69.8832 419.274 104.498 423.877L116.358 425.66C123.295 426.663 130.12 427.555 136.442 428.279C156.964 430.866 177.631 432.132 198.317 432.069C202.631 431.938 206.906 431.207 211.016 429.895L220.247 426.997C230.294 424.045 239.109 417.924 245.366 409.555C250.122 403.166 253.18 395.683 254.256 387.801C255.332 379.919 254.391 371.895 251.52 364.472C248.413 356.483 243.225 349.462 236.489 344.134C229.754 338.805 221.714 335.362 213.198 334.157C190.82 333.433 68.4697 313.65 24.4974 295.148L27.1827 288.071C32.0361 276.994 40.851 268.109 51.9142 263.145C62.9773 258.181 75.4982 257.492 87.0432 261.211L92.3579 262.994C94.0314 263.567 95.8555 263.521 97.4983 262.867C99.1411 262.212 100.493 260.992 101.309 259.428L103.994 254.524C107.408 248.243 112.128 242.762 117.84 238.445C123.551 234.128 130.123 231.076 137.114 229.494C144.105 227.911 151.355 227.834 158.379 229.267C165.403 230.701 172.038 233.612 177.841 237.806C180.658 239.824 183.247 242.141 185.561 244.716L187.24 246.332C187.743 246.889 188.247 247.391 188.974 248.282L221.422 286.622C224.065 289.721 227.385 292.176 231.129 293.799C234.872 295.422 238.938 296.169 243.016 295.984L360.499 290.802C349.887 312.783 347.959 337.935 355.1 361.265C362.241 384.596 377.927 404.399 399.045 416.744L410.625 423.487C420.565 429.298 431.62 432.963 443.073 434.242C459.079 436.108 475.286 433.387 489.794 426.398C504.301 419.409 516.506 408.444 524.976 394.787L615.214 244.605L603.41 420.645L672.837 678.101C607.932 738.301 522.584 771.842 433.898 772V772Z" fill="white"/>
<path d="M46.7632 378.515L58.9031 335.494C76.3018 339.562 98.0642 344.299 119.994 348.757L131.966 351.098C175.435 359.122 210.289 362.243 209.785 362.243C213.209 362.774 216.43 364.199 219.122 366.372C221.815 368.545 223.882 371.388 225.114 374.614C226.958 379.327 226.958 384.558 225.114 389.27C223.715 393.283 220.079 402.087 202.345 403.202C177.505 404.595 108.414 394.787 46.7632 378.515Z" fill="white"/>
<path opacity="0.6" d="M776.837 495.485C765.301 549.495 741.002 599.987 705.956 642.77L701.089 649.346C701.089 647.674 636.529 416.966 636.529 417.189L647.046 216.574C646.298 210.962 643.792 205.727 639.885 201.615C635.978 197.503 630.869 194.723 625.284 193.67L623.046 193.336C617.825 192.685 612.528 193.587 607.819 195.927C603.111 198.267 599.202 201.941 596.585 206.487L557.927 271.297L503.493 79.9326C504.668 79.9326 505.899 80.3227 507.074 80.6013C598.034 100.064 677.527 154.681 728.103 232.464C778.679 310.248 796.206 404.842 776.837 495.485V495.485Z" fill="white"/>
<path d="M512.5 335.606C511.07 330.048 508.517 324.838 504.996 320.296C501.475 315.755 497.062 311.976 492.024 309.192V309.192L408.779 262.716L388.08 298.659C379.032 314.448 376.595 333.152 381.297 350.718C385.999 368.284 397.461 383.297 413.199 392.503L424.388 399.134C437.023 406.486 452.047 408.613 466.238 405.061C480.429 401.509 492.659 392.559 500.304 380.132L507.353 368.596C510.413 363.733 512.448 358.3 513.333 352.628C514.218 346.957 513.934 341.165 512.5 335.606V335.606ZM494.374 359.791C490.008 368.667 483.235 376.149 474.821 381.388C466.407 386.628 456.688 389.416 446.765 389.438H444.751C443.241 389.438 441.786 389.438 440.332 389.104C430.345 387.886 420.923 383.823 413.199 377.401C411.68 376.143 410.447 374.579 409.579 372.811C408.711 371.044 408.229 369.114 408.164 367.147C408.099 365.2 408.456 363.262 409.208 361.464C409.961 359.666 411.093 358.051 412.528 356.726C415.105 354.321 418.506 352.986 422.038 352.993C425.306 353.013 428.467 354.154 430.989 356.225C435.214 359.675 440.466 361.635 445.926 361.798H446.765C451.442 361.75 456.013 360.406 459.965 357.915C463.918 355.425 467.096 351.887 469.143 347.699C470.62 344.705 473.126 342.339 476.206 341.03C479.286 339.721 482.735 339.557 485.927 340.566C487.79 341.186 489.499 342.195 490.94 343.525C492.381 344.855 493.521 346.476 494.283 348.279C495.046 350.083 495.413 352.028 495.361 353.984C495.309 355.94 494.839 357.863 493.983 359.624L494.374 359.791Z" fill="white"/>
</g>
<defs>
<clipPath id="clip0_239_220">
<rect width="860" height="772" fill="white"/>
</clipPath>
</defs>
</svg>
