<svg width="500" height="500" viewBox="0 0 500 500" fill="none" xmlns="http://www.w3.org/2000/svg">
<path d="M285.754 102.091L275.694 49.1383C275.603 48.5687 275.308 48.0531 274.865 47.6904C274.421 47.3277 273.861 47.1434 273.292 47.1729C272.723 47.2023 272.184 47.4434 271.78 47.85C271.375 48.2565 271.133 48.7999 271.1 49.3759L267.747 88.7853C269.658 98.9686 285.754 102.091 285.754 102.091Z" fill="white"/>
<path d="M265.668 126.051C266.371 127.316 267.143 128.54 267.982 129.717C271.57 134.397 276.248 138.106 281.597 140.511C286.21 143.045 291.371 144.386 296.62 144.414L288.303 115.969H286.761C284.557 115.728 282.38 115.285 280.255 114.645C276.624 113.581 273.215 111.855 270.195 109.554C268.859 108.521 267.604 107.387 266.44 106.159L264.126 122.826L264.897 124.387L265.668 126.051Z" fill="white"/>
<path d="M297.274 185.222C298.648 185.998 299.98 186.848 301.264 187.768C304.03 189.81 306.502 192.232 308.608 194.964C308.684 195.117 308.816 195.233 308.977 195.287C309.137 195.341 309.312 195.329 309.463 195.252C309.614 195.176 309.729 195.042 309.783 194.879C309.836 194.717 309.824 194.54 309.748 194.387L299.956 158.779C298.716 158.779 297.475 158.779 296.268 158.779C295.061 158.779 293.887 158.779 292.747 158.576C283.293 157.575 274.452 153.363 267.664 146.627C266.692 145.677 265.753 144.692 264.881 143.674C264.009 142.656 263.171 141.705 262.433 140.687L261.125 152.466L259.817 164.244L278.529 174.699L297.274 185.222Z" fill="white"/>
<path d="M350.456 169.808L305.958 245.028C301.795 251.848 295.8 257.328 288.674 260.826C281.548 264.324 273.586 265.697 265.718 264.784C260.076 264.119 254.63 262.281 249.723 259.387L244.022 255.992C233.619 249.807 225.892 239.891 222.37 228.21C218.849 216.529 219.79 203.935 225.009 192.924L167.231 195.504C165.224 195.597 163.221 195.224 161.379 194.412C159.536 193.6 157.901 192.371 156.601 190.819L140.606 171.607C140.349 171.26 140.057 170.942 139.734 170.656L138.929 169.808C137.779 168.553 136.51 167.416 135.14 166.413C132.283 164.298 129.01 162.828 125.543 162.103C122.077 161.378 118.497 161.413 115.045 162.208C111.593 163.003 108.35 164.538 105.534 166.71C102.719 168.881 100.396 171.639 98.7232 174.798L97.4154 177.275C97.0081 178.048 96.3431 178.65 95.5387 178.973C94.7343 179.297 93.8427 179.32 93.0225 179.041L90.3734 178.158C84.6501 176.258 78.431 176.598 72.9432 179.111C67.4555 181.625 63.0979 186.129 60.7302 191.736L59.5565 195.402C81.2189 204.533 141.578 214.444 152.544 214.818C156.742 215.422 160.707 217.145 164.03 219.812C167.353 222.478 169.917 225.991 171.456 229.991C172.857 233.711 173.311 237.728 172.778 241.672C172.245 245.616 170.741 249.361 168.405 252.564C165.302 256.768 160.937 259.84 155.964 261.322L151.404 262.747C149.385 263.401 147.285 263.767 145.166 263.833C134.966 263.863 124.774 263.239 114.651 261.966C111.533 261.593 108.179 261.152 104.591 260.643L98.7567 259.76C81.6655 257.456 64.8253 253.535 48.4571 248.049L47.2834 253.412C45.9756 265.021 56.3373 267.737 59.523 268.28L129.473 280.262C142.519 282.493 155.186 286.584 167.097 292.415L169.813 293.806C177.318 297.662 184.457 302.207 191.14 307.384L198.283 312.951C210.836 322.636 225.379 329.341 240.836 332.571C250.896 334.709 255.39 333.962 262.298 329.176C262.298 329.176 269.004 323.575 273.296 329.482C274.391 330.792 274.937 332.483 274.818 334.195C274.699 335.907 273.924 337.504 272.659 338.647C265.248 347.472 255.088 350.527 241.105 348.83L199.255 422.251C219.014 429.976 240.01 433.946 261.191 433.962C304.871 433.861 346.9 417.056 378.859 386.915L344.621 257.927L350.456 169.808Z" fill="white"/>
<path d="M147.154 249.168C155.906 248.625 157.683 244.178 158.388 242.379C159.296 240.01 159.296 237.383 158.388 235.013C157.805 233.369 156.798 231.914 155.471 230.797C154.144 229.681 152.546 228.945 150.843 228.666C150.843 228.666 134.076 227.172 112.514 223.167L106.579 221.979C95.7478 219.772 85.0508 217.362 76.3992 215.19L70.3633 236.846C100.811 245.027 134.881 249.949 147.154 249.168Z" fill="white"/>
<path d="M238.647 196.927C234.192 204.835 232.996 214.201 235.319 222.996C237.641 231.79 243.295 239.303 251.054 243.906L256.688 247.3C262.921 250.948 270.313 251.992 277.295 250.211C284.276 248.43 290.297 243.964 294.077 237.762L297.431 231.991C298.915 229.54 299.895 226.811 300.31 223.966C300.725 221.122 300.568 218.222 299.847 215.441C299.127 212.66 297.858 210.056 296.117 207.784C294.377 205.512 292.2 203.62 289.718 202.222V202.222L248.707 178.97L238.647 196.927ZM255.414 224.082C257.026 224.088 258.587 224.651 259.84 225.678C261.903 227.434 264.49 228.438 267.184 228.529H267.653C269.976 228.526 272.252 227.867 274.225 226.626C276.198 225.384 277.789 223.61 278.82 221.503C279.373 220.326 280.249 219.336 281.343 218.65C282.437 217.964 283.703 217.611 284.99 217.633C285.708 217.624 286.422 217.739 287.102 217.972C288.022 218.273 288.867 218.771 289.579 219.433C290.291 220.096 290.853 220.906 291.227 221.808C291.625 222.705 291.831 223.676 291.831 224.659C291.831 225.642 291.625 226.614 291.227 227.511C289.076 231.958 285.736 235.705 281.587 238.327C277.438 240.949 272.645 242.341 267.754 242.344H266.748C266.044 242.344 265.306 242.344 264.602 242.141C259.67 241.559 255.011 239.543 251.188 236.336C250.445 235.704 249.841 234.921 249.413 234.039C248.986 233.156 248.745 232.193 248.707 231.211C248.676 230.232 248.855 229.258 249.231 228.355C249.608 227.453 250.172 226.644 250.887 225.983C252.107 224.827 253.709 224.173 255.38 224.15L255.414 224.082Z" fill="white"/>
<path d="M212.271 158.167C210.349 157.07 208.227 156.378 206.034 156.131C202.782 155.734 199.487 156.31 196.555 157.788C193.623 159.266 191.183 161.581 189.536 164.447L180.146 180.876L245.871 177.21L212.271 158.167Z" fill="white"/>
<g opacity="0.64">
<path opacity="0.64" d="M341.309 151.08C342.625 148.818 344.555 146.99 346.869 145.817C349.183 144.644 351.781 144.176 354.351 144.469L355.457 144.639C358.204 145.181 360.715 146.584 362.639 148.649C364.563 150.715 365.803 153.341 366.185 156.158L360.989 257.07C360.989 257.07 392.804 372.944 392.804 373.796L395.185 370.388C413.863 347.059 426.335 319.244 431.405 289.61C436.476 259.975 433.975 229.514 424.143 201.144C414.311 172.773 397.477 147.445 375.253 127.586C353.03 107.726 326.162 94.0009 297.223 87.725L295.446 87.3842L322.267 183.559L341.309 151.08Z" fill="white"/>
<path opacity="0.64" d="M163.98 174.311L174.306 155.873C177.688 149.998 182.685 145.255 188.683 142.228C194.681 139.201 201.418 138.021 208.066 138.833C212.558 139.341 216.903 140.767 220.839 143.025L245.648 157.168L250.476 114.772L253.225 96.5393C253.225 96.5393 253.896 91.325 254.734 83.9636C230.527 84.8054 206.761 90.7824 184.96 101.511C163.159 112.24 143.806 127.483 128.142 146.263C146.145 148.853 163.98 174.311 163.98 174.311Z" fill="white"/>
<path opacity="0.64" d="M187.406 328.046L181.003 323.036C179.729 322.048 172.555 317.72 164.442 312.812C147.709 302.88 129.415 295.962 110.365 292.364L90.6855 288.581C95.2487 315.712 105.981 341.385 122.028 363.555C138.075 385.725 158.993 403.779 183.115 416.28C200.146 386.085 222.206 345.802 222.206 345.802C209.634 342.099 197.839 336.081 187.406 328.046V328.046Z" fill="white"/>
</g>
</svg>
